<?xml version="1.0" encoding="UTF-8"?>
<svg id="Layer_2" data-name="Layer 2" xmlns="http://www.w3.org/2000/svg" viewBox="0 0 1140.44 186.1">
  <defs>
    <style>
      .cls-1 {
        stroke-width: 3px;
      }

      .cls-1, .cls-2 {
        fill: none;
        stroke: #fff;
        stroke-miterlimit: 10;
      }

      .cls-2 {
        stroke-width: 2px;
      }

      .cls-3 {
        fill: #fff;
        stroke-width: 0px;
      }
    </style>
  </defs>
  <g id="Layer_1-2" data-name="Layer 1">
    <g>
      <path class="cls-2" d="m563.44,112.23c13.89-23.58,20.52-43.56,23.91-56.72,0,0,7.95-30.86-1.62-39.57-.77-.7-1.51-1.42-2.27-2.13-5.41-5.05-6.47-5.78-6.67-7.23-.31-2.2,1.48-5.31,3.34-5.56,6.16-.82,15.67,29.52,20.02,46.71,5.24,20.74,3.67,25.1,8.9,38.92,5.58,14.76,13.34,25.55,18.91,32.25"/>
      <path class="cls-3" d="m646.85,107.22c-2.24-.04-7.56.37-13.9,6.12-.85,1.78-2.35,4.18-5,5.56-2.59,1.35-4.82.83-6.67,1.11-7.94,1.2-12.85,10.69-13.35,11.68-5.5,10.96.65,28.02,12.79,35.59,14.48,9.03,33.52,2.11,42.82-8.9,1.97-2.33,6.54-8.45,7.23-17.24,1.22-15.73-10.52-33.7-23.91-33.92Zm14.46,32.25c-.81,3.63-2.7,6.86-3.34,6.67-.62-.18.59-3.42,0-8.34-.29-2.42-.82-6.81-3.89-10.01-2.81-2.93-6.32-3.37-6.12-4.45.14-.77,2.04-1.11,3.34-1.11,4.75,0,8.03,4.56,8.34,5,3.33,4.77,2.1,10.3,1.67,12.23Z"/>
      <path class="cls-3" d="m586.8,122.24c-.73-1.76-3.07-7.42-8.34-9.45-2.76-1.07-6.24-1.1-7.78-1.11-4.01-.04-5.01.76-7.23,0-2.56-.88-3.27-2.66-5.56-5-3.08-3.15-7.02-5.29-10.01-6.12-6.41-1.77-13.8,1.05-18.35,5.56-4.13,4.1-5.15,8.83-6.12,13.35-.92,4.28-3.14,14.66,2.78,24.47,4.64,7.68,11.73,10.79,15.01,12.23,2.44,1.07,15.31,6.72,28.91.56,2.5-1.13,11.18-5.23,15.57-15.01.9-2.02,4.77-10.63,1.11-19.46Zm-7.78,8.9c-.55.04-.45-2.8-2.78-6.12-.92-1.3-2.22-3.16-4.45-3.89-1.14-.38-1.71-.19-6.67.56-4.7.71-6,.81-7.23,0-1.23-.81-2.02-2.3-1.67-2.78.46-.63,2.42,1.08,5.56,1.11,1.99.02,2.36-.66,7.23-2.22,4.69-1.51,5.61-1.29,6.12-1.11,2.32.82,3.31,3.46,3.89,5,1.72,4.58.72,9.4,0,9.45Z"/>
    </g>
    <g>
      <path class="cls-1" d="m1078.85,97.17c-2.08,4.9-5.13,14.05-3.81,25.27,2.21,18.82,15.16,30.18,20.73,35.08,17.3,15.18,37.39,16.97,44.61,17.26"/>
      <path class="cls-3" d="m1081.52,140.9c.3-.48-5.42-7.15-14.46-8.91-7.05-1.37-17.67-.07-21.13,6.73-1.19,2.35-1.65,5.59-.95,8.52.21.86,1.48,3.04,4.03,7.4,1.56,2.66,1.92,3.18,2.63,3.36.61.15,2.13.22,6.72-5.27,4.08-4.87,4.2-6.48,7.51-9.69,2.23-2.17,3.87-3.77,6.44-4.32,4.87-1.04,8.95,2.57,9.19,2.19Z"/>
      <path class="cls-3" d="m1105.53,157.82c-.33.31-6.43-3.01-9.3-9.72-2.23-5.23-2.99-13.67,1.7-17.48,1.62-1.31,4.05-2.21,6.44-2.15.7.02,2.6.64,6.4,1.9,2.32.76,2.78.95,3.04,1.48.22.45.52,1.61-2.96,6.08-3.09,3.97-4.32,4.33-6.26,7.42-1.31,2.08-2.27,3.62-2.27,5.71,0,3.95,3.48,6.5,3.22,6.75Z"/>
      <path class="cls-3" d="m1053.58,66.96c-9.19,5.01-12.58,16.53-7.56,25.72s16.53,12.58,25.72,7.56c9.19-5.01,12.58-16.53,7.56-25.72-5.01-9.19-16.53-12.58-25.72-7.56Zm4.21,13.45c-1.2,2.43-3.45,3.78-5.01,3.01-1.56-.77-1.86-3.37-.65-5.81,1.2-2.43,3.45-3.78,5.01-3.01,1.56.77,1.86,3.37.65,5.81Z"/>
      <path class="cls-3" d="m1087.48,48.47c-9.19,5.01-12.58,16.53-7.56,25.72,5.01,9.19,16.53,12.58,25.72,7.56s12.58-16.53,7.56-25.72c-5.01-9.19-16.53-12.58-25.72-7.56Zm15.3,7.53c-.33,1.71-2.76,2.69-5.42,2.17-2.67-.51-4.56-2.32-4.23-4.03.33-1.71,2.76-2.69,5.42-2.17,2.67.51,4.56,2.32,4.23,4.03Z"/>
      <path class="cls-3" d="m1086.53,83.38c-9.19,5.01-12.58,16.53-7.56,25.72s16.53,12.58,25.72,7.56,12.58-16.53,7.56-25.72-16.53-12.58-25.72-7.56Zm15.73,23.59c-.87,1.75-3.01,2.45-4.8,1.57s-2.53-3.02-1.66-4.77c.87-1.75,3.01-2.45,4.8-1.57s2.53,3.02,1.66,4.77Z"/>
    </g>
    <g>
      <path id="Path_2671" data-name="Path 2671" class="cls-3" d="m52.72,44.67s-12.45,4.39-15.92,13.25c-3.46,8.86,2.61,17.07,2.61,17.07,0,0,4.5-1.57,6.35-3.43,1.85-1.86,4.7-9.13,4.64-12.66.11-3.18.47-6.35,1.08-9.48l1.23-4.76Z"/>
      <path id="Path_2672" data-name="Path 2672" class="cls-3" d="m0,90.27s6.01-11.6,15.17-13.77c9.16-2.17,16.36,4.91,16.36,4.91,0,0-2.16,4.2-4.23,5.75-2.08,1.55-9.59,3.35-13.04,2.8-3.13-.33-6.29-.41-9.43-.24l-4.83.55Z"/>
      <path id="Path_2673" data-name="Path 2673" class="cls-3" d="m35.02,77.71s-28.95-26.03-12.4-32.99"/>
      <path class="cls-3" d="m125.18,145.8c-.21-8.04-1.06-16.04-2.55-23.94-.35-2.18-.92-6.1-1.92-10.8-.07.17-.12.33-.2.52-1.55,3.42-3.51-1.33-3.82-3.1-.12-.92-.1-1.85.06-2.76.26-.71,1.07-1.99,2.1-2.18-2.88-10.05-7.77-21.22-16.21-26.76-15.04-9.87-21.98-11.72-37.95-8.66-9.39,1.72-17.99,6.38-24.55,13.31,0,0-17.93,13.74-18.31,33.22-.38,19.48,4.91,35.21,25.81,45.26,20.9,10.05,37.58,14.9,44.53,16.53,7.15,1.41,17.49.28,22.42-2.91,3.24-2.08,8.51-6.81,9.79-12.02,1.12-5.16,1.4-10.47.82-15.71Zm-83.57-23.68c-1.13-.33-2.19-.84-3.17-1.5-.78-.74-2.04-2.68-1.25-4.02.79-1.34,4.34-.81,4.34-.81,0,0,2.48-.04,5.64,3.51,3.16,3.55-3.35,3.38-5.56,2.82Zm12.84-39.52c-.4-1-.72-3.3.56-4.18,1.28-.88,4.28,1.1,4.28,1.1,0,0,2.27,1.01,3.63,5.57,1.36,4.55-4.46,1.65-6.23.21-.88-.78-1.64-1.69-2.24-2.7Zm11.42,72.81c-1.17-.07-2.33-.32-3.42-.75-.93-.55-2.59-2.15-2.13-3.64.47-1.48,4.05-1.77,4.05-1.77,0,0,2.41-.6,6.28,2.15,3.88,2.75-2.5,4.04-4.78,4Zm10.14-30.5c-.94-.7-1.78-1.54-2.46-2.49-.48-.97-1-3.22.2-4.21,1.2-.99,4.36.72,4.36.72,0,0,2.35.81,4.1,5.23,1.75,4.42-4.3,2.03-6.19.75Zm15.27-34.3c-.67-.97-1.18-2.03-1.52-3.16-.14-1.07.1-3.37,1.56-3.91,1.46-.54,3.88,2.1,3.88,2.1,0,0,1.95,1.53,2.17,6.28.22,4.75-4.73.52-6.1-1.3Zm7.25,78.3c-1.09-.45-2.1-1.06-2.99-1.82-.7-.82-1.75-2.88-.82-4.13.93-1.25,4.4-.35,4.4-.35,0,0,2.47.22,5.24,4.08,2.77,3.86-3.68,3.01-5.82,2.22Zm16.41-22.53c-.77,4.69-4.73-.47-5.69-2.54-.45-1.09-.73-2.23-.83-3.4.08-1.08.8-3.28,2.34-3.51,1.54-.23,3.36,2.86,3.36,2.86,0,0,1.59,1.9.82,6.59Z"/>
    </g>
    <g>
      <path class="cls-3" d="m341.85,83.65c-25.13,0-45.5,20.37-45.5,45.5s20.37,45.5,45.5,45.5,45.5-20.37,45.5-45.5-20.37-45.5-45.5-45.5Zm19.22,40.38c-.56.96-4.57.71-7.34-1.22-1.02-.71-1.99-1.53-2.45-1.22-.36.24-.13,1,0,2.45.15,1.61.08,2.99,0,3.67-.05.41-.49,4.34-2.45,4.9-1.81.51-4.07-2.55-4.9-3.67-2.42-3.27-2.63-6.15-3.67-6.12-.82.02-.91,1.72-2.45,3.67-1.74,2.21-5.09,3.36-6.12,2.45-.99-.88-.2-4.04,1.22-6.12,1.16-1.69,2.44-2.23,2.45-3.67,0-1.25-.95-2.2-1.19-2.41,0,0-.02-.02-.04-.03-1.41-1.26-10-5.28-9.79-6.12.11-.47,2.98-.25,6.12,0,2.78.22,3.59.33,4.9,0,.51-.13,2.42-.74,3.67-2.45,1.18-1.62.82-2.95,1.22-6.12.29-2.26.9-7.09,2.45-7.34,1.55-.25,4.04,3.61,4.9,7.34.75,3.28,0,5.44,1.22,6.12,1.06.59,2.03-.77,4.9-1.22.48-.08,4.98-.75,6.12,1.22.93,1.61-.63,4.55-2.45,6.12-1.8,1.56-3.66,1.61-3.67,2.45,0,.79,1.64,1,3.67,2.45,2.09,1.49,4.19,4.01,3.67,4.9Z"/>
      <path class="cls-3" d="m306.35,58.65c-7.53,0-14.58,1.99-20.69,5.46-.55-.42-1.03-.87-1.4-1.27-.43.53-2.46.39-3.9,1.81-1.28,1.25-.84,2.5-2,3-1.1.47-1.81-.52-3,0-1.09.47-.9,1.48-2,2-1.36.64-2.82-.33-3,0-.19.36,1.7,1.21,3,3,.28.38.5.78.69,1.17-6.05,7.28-9.69,16.63-9.69,26.83,0,18.94,12.54,34.95,29.78,40.19-1.8-4.89-2.78-10.17-2.78-15.69,0-25.13,20.37-45.5,45.5-45.5,2.07,0,4.11.15,6.11.42-7.2-12.78-20.89-21.42-36.61-21.42Z"/>
      <path class="cls-3" d="m275.27,157.88c.63-1.46,4.99-11.61,12.44-11.63,1.69,0,3.38.52,4.85,1.38-.12-1.04-.44-2.08-.93-3.02,0,0-.77-1.42-2.01-2.42-2.7-2.19-7.13-1.92-10.27-.54-.97.43-1.27.72-5,4-3.01,2.65-5.96,5.38-9,8-4.21,3.63-5.45,4.38-5.2,5.31.31,1.13,3.24,1.63,9.12,2.45,1.96.27,3.58.5,4.94.64.25-1.84.42-2.67,1.06-4.16Z"/>
      <path class="cls-3" d="m297.81,153.74c-.46-.58-3.65-4.59-8.24-4.6-6.89-.02-11.18,9-12.44,11.63-1.77,3.73-2.11,6.78-2.79,12.87-.71,6.44-1.17,10.58,1,12,1.82,1.19,4.55-.11,8.93-2.2,3.33-1.59,7.13-3.4,10.64-7.54,1.77-2.09,4.84-5.72,5.44-11.26.21-2,.73-6.81-2.54-10.91Zm-16.46,22.91c-.4-.2,1.4-4.81,3-8,.5-1,1.22-2.34,2.19-3.85,2.16-3.38,5.42-7.41,5.81-7.15.81.53-10.15,19.43-11,19Z"/>
    </g>
    <g>
      <path class="cls-3" d="m899.58,89.5c-.6-.26-1.21-.49-1.82-.69,3.35,4.84,4.49,11.05,2.73,16.95,4.23,2.87,7.07,7.22,8.17,12.01.4-.67.77-1.36,1.09-2.09,4.42-10.04-.13-21.76-10.17-26.18Z"/>
      <path class="cls-3" d="m861.43,79.93c-10.04-4.42-21.76.13-26.18,10.17-.31.71-.57,1.42-.79,2.15,6.97,4.9,10.09,13.84,7.53,22.09,1.06.74,2.2,1.4,3.43,1.94.03.01.06.02.09.03,4.92-8.81,15.81-12.61,25.24-8.51.31-.55.59-1.11.85-1.7,4.42-10.04-.13-21.76-10.17-26.18Z"/>
      <path class="cls-3" d="m810.34,93.22c5.61-4.65,13.56-6.05,20.69-2.92.07.03.13.07.2.1.25-.91.55-1.81.94-2.7,2.67-6.05,7.99-10.09,14-11.39-1.86-4.66-5.47-8.62-10.43-10.8-10.04-4.42-21.76.13-26.18,10.17-2.59,5.87-2.08,12.31.77,17.53Z"/>
      <circle class="cls-3" cx="861.93" cy="129.23" r="19.86"/>
      <path class="cls-3" d="m805.4,120.35c4.42-10.04,16.14-14.59,26.18-10.17,3.84,1.69,6.87,4.45,8.91,7.78,3.62-9.77-.93-20.8-10.6-25.06-10.04-4.42-21.76.13-26.18,10.17-2.73,6.2-2.03,13.03,1.26,18.4.14-.37.26-.75.43-1.12Z"/>
      <path class="cls-3" d="m852.54,149.38c-5.39-2.37-9.17-6.85-10.86-12.04-4.57,1.89-8.45,5.46-10.6,10.34-4.42,10.04.13,21.76,10.17,26.18,10.04,4.42,21.76-.13,26.18-10.17,2.05-4.65,2.15-9.66.69-14.14-4.83,1.99-10.42,2.1-15.57-.17Z"/>
      <path class="cls-3" d="m880.07,127.92c-9.21-4.06-19.83-.54-24.93,7.83,1.63.26,3.26.71,4.85,1.41,10.04,4.42,14.59,16.14,10.17,26.18-.36.82-.79,1.6-1.25,2.34,8.71,1.41,17.61-3.13,21.33-11.58,4.42-10.04-.13-21.76-10.17-26.18Z"/>
      <path class="cls-3" d="m895.31,106.22c-7.64-3.36-16.24-1.52-21.87,3.97,5.67,3.36,9.17,9.22,9.67,15.51,6.63,3.5,10.54,10.32,10.57,17.47,5.09-1.73,9.46-5.48,11.8-10.78,4.42-10.04-.13-21.76-10.17-26.18Z"/>
      <g>
        <path class="cls-3" d="m843.95,136.34c.28-.04.56-.08.85-.1-.23-.4-.48-.79-.74-1.18-.03.43-.06.85-.11,1.28Z"/>
        <path class="cls-3" d="m826.82,153.49c-3.48.46-7.12.02-10.57-1.5s-6.42-4.07-8.44-7.08c-.5,8.07,3.97,15.96,11.8,19.4,3.17,1.39,6.5,1.89,9.72,1.61-2.14-3.72-3.06-8.08-2.51-12.44Z"/>
      </g>
      <path class="cls-3" d="m874.3,106.67c5.63-5.07,13.91-6.69,21.29-3.43.94.41,1.82.91,2.66,1.45,1.2-8.57-3.34-17.24-11.65-20.91-4.86-2.14-10.12-2.16-14.75-.49,5.11,5.63,6.75,13.95,3.49,21.36-.31.7-.66,1.37-1.04,2.02Z"/>
      <path class="cls-3" d="m842.35,137.95c-1.98-5.2-1.78-11.19,1.07-16.46.25-.45.52-.88.79-1.31-1.77-2.91-4.3-5.41-7.51-7.15-9.65-5.21-21.7-1.6-26.91,8.05-5.21,9.65-1.6,21.7,8.05,26.91,2.83,1.53,5.86,2.29,8.87,2.37,2.58-6.57,8.54-11.38,15.64-12.4Z"/>
      <path class="cls-2" d="m870.74,79.9c6.4-8.88,7.37-15.88,7.04-20.67-.73-10.54-8.1-15.24-9.41-27.91-.68-6.57.6-12.12,1.77-15.75"/>
      <path class="cls-3" d="m852.55,73.39c3.11-.22,6.32.29,9.37,1.63,1.11.49,2.15,1.08,3.12,1.74,1.09-.84,1.63-2.54,1.55-3.86-.08-1.29-.69-1.48-1.45-3.74-.75-2.23-.59-3.34-1.07-3.44-.99-.21-1.97,4.5-3.54,4.51-1.36,0-1.72-3.52-4.26-9.11-2.76-6.06-4.16-5.91-5.61-10.73-.96-3.2-1.16-6.02-2.03-6.06-.6-.03-1.09,1.3-1.54,2.42-3.07,7.67-4.95,7.02-5.69,11.42-.2,1.18-.95,5.68,1.63,9.52.82,1.22,1.68,1.94,2.52,2.62,2.38,1.94,4.12,2.29,6.97,3.07Z"/>
    </g>
  </g>
</svg>