<?xml version="1.0" encoding="UTF-8"?>
<svg id="Layer_2" data-name="Layer 2" xmlns="http://www.w3.org/2000/svg" viewBox="0 0 207.03 197.52">
  <defs>
    <style>
      .cls-1 {
        fill: #fefefe;
      }

      .cls-1, .cls-2, .cls-3, .cls-4, .cls-5, .cls-6, .cls-7, .cls-8, .cls-9, .cls-10, .cls-11 {
        stroke-width: 0px;
      }

      .cls-2 {
        fill: #522a24;
      }

      .cls-3 {
        fill: #5e815a;
      }

      .cls-4 {
        fill: #625f5e;
      }

      .cls-5 {
        fill: #36110e;
      }

      .cls-6 {
        fill: #99a1f7;
      }

      .cls-7 {
        fill: #d7d9ed;
      }

      .cls-8 {
        fill: #535cf1;
      }

      .cls-9 {
        fill: #7d88f8;
      }

      .cls-10 {
        fill: #d8b5b1;
      }

      .cls-11 {
        fill: #98c773;
      }
    </style>
  </defs>
  <g id="Layer_1-2" data-name="Layer 1">
    <path class="cls-2" d="m2.55,93.81c-.2-.14-.4-.28-.61-.42.22-.55.71-.63,1.2-.71,1.19.42,2.4.79,3.57,1.26,4.12,1.64,8.05,3.84,12.41,4.75,6.63,1.38,13.31,2.48,19.97,3.7,6.21,2.01,12.6,1.97,19.02,1.7,1.92-.02,3.85-.05,5.77-.07,4.81.29,9.62.54,14.39-.44,4.82-.2,9.17-1.95,14.09-3.9-4.55-1.49-8.86-1.39-12.42-3.75.29-1.39,1.31-1.06,2.24-.96.07.26.07.7.21.74,4.74,1.46,9.43,3.39,14.56,2.03,2.2-.14,3.49-2.03,5.36-2.82.2.05.4.11.6.16-.48,2.6-2.28,4.23-5.1,4.53-1.33.14-2.69.09-3.74,1.12-.32.08-.64.16-.97.24-.25.13-.49.26-.74.38-3.38,1.67-7.35,1.9-10.88,4.43,6.29.23,12.19-1.64,17.93.57.59.78,1.52.54,2.29.78.43.49,1.52.59,1.32,1.38-.24.95-1.38.31-2.01.71-3.15-.4-6.31-.15-9.47-.11-1.74.02-2.06.73-1.27,2.16-.5.02-1.01.04-1.51.06-.17.11-.34.22-.51.33-.46.06-.93.81-1.36-.04.32-.6.65-1.2,1.14-2.12-4.28.31-7.9,1.6-11.36,3.42-4.49,1.44-8.71,3.52-13.01,5.4-.69.3-2.09.33-1.5,1.72,1.56,3.7,1.45,7.81,2.84,11.55.06.44.09.88.19,1.31.21.93.73,1.74,1.73,1.68,1.05-.06.92-1.13,1.06-1.87.21-1.12.35-2.26.52-3.39,1.17-3.7.76-7.79,2.75-11.3.7-1.24,1.08-2.83,2.85-2.97,1.96-.16,1.63,1.87,2.47,2.78l.19,1.1c-.2.37-.41.75-.61,1.12-.24-.58-.43-1.18-.72-1.73-.39-.74-.18-2.06-1.36-2.05-1.01.01-1.28,1.16-1.68,1.93-1.78,3.44-1.96,7.26-2.46,10.99-.48,2.16-.97,4.32-1.45,6.48-2.74,1.14-3.59.8-4.25-2.02-.81-3.44-1.44-6.92-2.19-10.37-.22-1-.1-2.49-1.48-2.52-1.18-.02-1.68,1.23-1.99,2.31-.93,3.15-1.47,6.36-1.52,9.64-.06,3.81-.06,7.62-.53,11.42-.21,1.66-.85,2.64-2.67,1.92-2.86-1.14-4.48-7.22-2.25-10.22-.38,3.23-.08,5.87,1.57,8.16.37.52.76,1.11,1.5.98.82-.16.76-.92.81-1.53.63-7.26-.02-14.63,2.27-22.04-5.06,1.7-8.32,4.39-9.17,9.52-.35,2.1-.23,4.15-.24,6.23-.03,6,1.96,11.4,5.03,16.44,2.28,3.74,5.16,3.98,7.92.74,1.5-1.77,2.68-4.11,5.69-3.29-.02.33-.04.65-.06.98.66,1.96,1.59,3.9.14,5.92,0,0,.25.2.39.3.01.73.02,1.45.03,2.18-1.84.36-1.2,1.94-1.42,3.04-.44,2.2.35,4.97-1.43,6.48-2.08,1.77-.97,2.85.03,4.18.69.92,1.54,1.72,2.32,2.58-.19.18-.37.37-.56.55-3.08-2.15-4.99-5.11-5.98-8.68-.17-.6-.16-1.14-.83-1.57-3.67-2.33-3.84-3.45-1.43-7.52.54-.91,1.04-1.97-.81-1.88-2.59.12-3.96-1.58-5.05-3.51-1.66-2.91-3.15-5.91-4.23-9.09-.18-.91-.36-1.81-.54-2.72-.1-.93-.2-1.86-.3-2.78.13-3.46-.53-6.94.71-10.82-5.49,4.85-6.69,10.48-5.63,16.82-.16,7.46.61,14.72,3.48,21.75,2.02,4.93,4.71,9.49,6.95,14.29-.29-.01-.57-.02-.86-.03-1.77-2.15-2.9-4.69-4.34-7.04-3.36-7.89-6.57-15.82-6.4-24.62-.07-.9-.14-1.79-.2-2.69-.04-.54-.08-1.09-.12-1.63-.03-4.44-.14-8.89,2.14-12.94.57-.7,1.13-1.4,1.71-2.09,3.84-4.59,7.68-9.17,11.52-13.75.27,0,.54,0,.81.01.04.24.08.48.12.73-.92,1.2-1.85,2.4-2.77,3.6-.14.09-.61.08-.13.38.03-.13.07-.27.1-.4.89.41,1.56-.19,2.25-.53,4.09-1.97,8.16-3.99,12.23-5.99,1.97-.85,4.17-1.19,5.85-2.66,7.64-3.41,15.68-4.47,24.01-3.99-2.45-1.85-5.21-1.6-7.95-1.39-3.77.29-7.54.61-11.31.93-.56-.38-1.12-.75-1.68-1.13.35-.73,1.54-.52,1.75-1.6-7.81,1.12-15.62.33-23.38.91-6.23-.31-12.48-.38-18.59-1.89-1.94-.4-3.88-.82-5.82-1.21-7.24-1.44-14.6-2.3-21.37-5.64-2.14-1.06-4.26-2.39-6.73-2.73-.12-.08-.26-.14-.4-.18-.18-.27-.39-.32-.65-.1Zm58.46,68.81c1,.79-.05,2.65,1.09,2.83,1.47.24,1.83-1.43,2.33-2.52.44-.97.56-2-.92-2.23-1.63-.25-3.23-.15-4.73.61-1.44.73-.74,2.01-.68,3.07.05.82.71,1.42,1.45,1.31,1.41-.22.5-1.45.74-2.2.1-.32.04-.73.73-.87Zm2.98-5.57c-1.11.63-3.76-.35-3.86,1.45-.1,1.84,2.32.32,3.46.95.15.08.35.09.51.15,1.28.44,1.56-.35,1.66-1.36.13-1.19-.6-1.32-1.78-1.19Zm-.42-1.03c.81-.28,2.18.39,2.23-1.23.03-.92-.48-1.68-1.47-1.45-1.07.25-2.1.98-2.24,2.09-.11.92.92.48,1.48.59Zm.88,9.85c-.54.29-1.04.67-1.59.84-1.28.38-.92,1.33-.84,2.18.04.46.27,1.01.72.99.93-.04,1.31-.81,1.58-1.59.26-.75.57-1.51.13-2.42Z"/>
    <path class="cls-2" d="m3.15,92.67c-.49.08-.98.16-1.2.71-2.45-1.22-2.62-2.6-.32-4.37,7.27-5.6,15.12-9.39,24.73-8.67,6.49.48,12.54,2.72,18.83,3.92,1.5.33,3,.67,4.51.98.46.09,1.1.58,1.3-.29.16-.67.01-1.29-.85-1.4-1.64-.22-2.29-1.3-2.43-2.81.02-1.99-.11-3.99.1-5.96.63-5.79,4.7-7.35,9.54-5.69,1.88.64,1.98.1,2.5-1.21.86-2.16,1.61-4.59,4.35-5.08,6.61-1.18,12.54,2.61,14.6,9.2-.33,0-.66-.01-.99-.02-.77-.6-.73-1.87-2.07-2.1,1.2,1.23-2.13,4.27,2.01,4.32.15.38.3.76.46,1.14-1.72.18-3.59.13-3.84,2.54-.83,1.29-1.55,2.68-2.76,3.68-.49.4-1.03.93-1.68.52-.63-.4-.52-1.12-.34-1.74.57-1.99,1.87-3.5,3.32-4.89,2.01-1.33,1.56-3.42,1.58-5.32.02-2.77-.94-3.25-3.39-1.92-2.85,1.55-2.66,4.16-2.55,6.78-.49.93-.95,1.87-1.49,2.77-.71,1.2-1.33.87-1.85-.18.12-2.06-.23-4.17,1.05-6.07.94-1.39,1.21-3.16-.21-4.17-1.28-.91-2.77.02-3.91,1.03-1.4,1.24-1.68,2.89-1.89,4.65-.14,1.11,1,1.96.4,3.21-1.63-.58-2.28-1.84-2.23-3.35.06-1.6-.81-2.38-2.06-2.83-3.18-1.16-6.09.42-6.96,3.7-.6,2.24-.52,4.49-.15,6.75.12.72.23,1.66,1.12,1.61,1.13-.05.62-1.12.65-1.73.09-2.19.69-3.64,3.3-2.71.71,1.62.54,3.32-.36,4.66-.86,1.28-.4,1.53.64,2.1,2.4,1.32,5.12,2.15,6.95,4.38-1.01.6-.67,1.2-.01,1.81.23,1.38,1.51,1.5,2.45,1.84,2.39.88,4.91,1.17,7.45,1.32.2.05.4.1.6.15.2.02.4.05.59.07,1.19-.34,1.62.49,2.05,1.32-4.35.38-8.48-.67-12.55-2.02-1.54-1.06-3-2.21-4.97-2.47-1.46-.19-2.73-.97-3.7-2.03-2-2.19-4.55-2.62-7.3-2.58-.11-.05-.22-.07-.34-.04-.47-.57-1.2-.52-1.82-.72-7.8-2.13-15.49-4.38-23.86-3.22-4.98.69-9.37,2.14-13.35,5.08-1.79.65-3.36,1.69-4.7,2.98-1.26,1.22-.65,1.82.89,1.83.06.19.11.37.17.56Zm59.38-26.7c2.36-.12,5.25-1.54,5.75,2.57,1.49-.99,2.78-1.84,4.16-2.75-1.89-1.55-3.89-1.94-6.01-1.85-1.58.07-3.38-.15-3.89,2.03-.07.02-.16.03-.21.08-.03.03-.02.11-.03.16.08-.09.15-.17.23-.26Z"/>
    <path class="cls-4" d="m86.05,2.36c4.58-.64,9.16-1.22,13.73-1.93,14.57-2.26,24.8,4.54,32.8,15.8,3.04,4.28,4.94,9.25,7.95,13.59,1.66,2.4,2.26,5.34,2.36,8.28.26,7.3,1.52,14.64-.81,21.87-.79,2.44-2.01,4.62-3.43,6.73.79.69,1.43.16,2.06.01,8.35-1.97,16.78-3.18,25.32-1.78,3.54.58,7.11,1.35,10.37,3.04-.15,1.81-1.04,1.59-2.13.76-5.04-2.11-10.24-3.29-15.76-3.05-7.17.3-14.23,1.23-21.12,3.27-.47-1.11.27-2.07.38-3.1.83-1.99,2.5-3.59,2.72-5.86.26-.39.77-.75.03-1.4v1.42c-.29.19-.57.38-.86.56-.24-.18-.47-.37-.71-.55,2.52-6.65,1.85-13.45.89-20.25-.34-2.21-.38-4.48-1.49-6.51,0,0,.02,0,.02,0-.02-2.16-.86-4.08-1.75-5.99-.8-2.37-2.46-4.11-4.28-5.73.01-.18-.07-.26-.25-.25-4.34-5.46-9.79-9.21-16.65-10.8-3.79-1.96-7.95-1.48-11.99-1.78-.2-.34-.39-.68-.59-1.01.19-.13.38-.27.57-.4,10.9-.24,20.22,3.55,28.06,11.06.2.1.52.35.59.29.36-.3.11-.55-.15-.78-2.14-3.84-5.08-7.05-8.49-9.74-4.44-3.5-9.29-6.4-15.15-6.61-5.97-.21-11.91.19-17.72,1.77h.06c-.77.07-1.54.15-2.31.22-.38-.05-.76-.11-1.13-.16-.42-.19-.84-.38-1.25-.58.06-.13.1-.26.12-.4Zm53.27,28.82c.64,2.53,1.27,5.05,1.91,7.58.48-2.82-.26-5.34-1.91-7.58Zm1.98,26.28c.06-.17.15-.32.15-.46,0-.1-.13-.19-.19-.29-.03.08-.09.16-.08.24.02.16.07.32.12.51Zm-8.58-38.2s-.11-.1-.14-.09c-.06.03-.11.09-.17.14l.29.11c0-.05,0-.11.01-.16Z"/>
    <path class="cls-4" d="m196.33,81.73c5.41,5.2,8.67,11.53,9.89,18.92,1.83,11.07.62,21.68-4.53,31.77-1.95,3.83-4.44,7.08-8.29,9.09-2.72,1.42-5.45,2.68-7.81,4.79-6.63,5.92-14.56,9.03-23.32,10.14-1.18.04-2.37-.02-3.53.13-9.56,1.28-18.63,0-26.96-5.15-2.19-1.59-4.38-3.19-6.57-4.78v.02c.17-.54-.14-.86-.54-1.12l.02.03c-.37-.48-.74-.96-1.12-1.43.04-.42.09-.84.13-1.26,2.38,1.51,3.79,4.16,6.37,5.44.34.29.67.61,1.03.86,11.8,8.31,24.68,7.27,37.77,4.32,4.74-1.25,9.31-2.88,13.09-6.17,2.89-1.77,5.14-4.2,7.12-6.91,6.79-7.39,11.07-16.05,11.94-26.03.97-11.17-.68-21.99-6.64-31.81.37-.91,1.2-.79,1.95-.86Zm-4.89,59.21c4.3-1.7,7.05-4.95,9-8.99,4.22-8.76,6.22-17.85,4.9-27.66-.73-5.48-1.9-10.68-4.91-15.36-.43-.67-.6-1.8-1.9-1.56,3.44,9.62,5.13,19.43,3.53,29.56-1.41,8.88-5.37,16.66-10.99,23.63l-.28.5c.21-.04.43-.07.64-.11Z"/>
    <path class="cls-11" d="m3.6,94.09c2.47.34,4.59,1.67,6.73,2.73,6.77,3.34,14.13,4.21,21.37,5.64,1.94.39,3.88.8,5.82,1.21.44,1.53.54,2.96-1.58,3.1-4.46.29-6.78,3.3-8.79,6.74-6.84-1.33-12.64-4.94-18.24-8.77-3.17-2.17-6.14-4.85-6.24-9.26.31-.46.62-.92.93-1.39Z"/>
    <path class="cls-11" d="m57.01,116.71c-.27,0-.54,0-.81-.01-.68-.54-1.22-1.37-2.17-.19-1.16,1.45-3.94.88-4.51,2.82-1.19,4.06-3.49,7.07-7.06,9.21-4.02,1.48-6.85,4.77-10.45,6.88-1.01.4-2.03.79-3.04,1.19-2.62.6-5.23,1.19-7.85,1.79-2.34-.08-4.68-.11-7.02-.27-1.09-.07-2.2-.42-2.5-1.7-.67-2.83.42-5.97-1.49-8.59,1.75-4.16,1.83-9.11,5.76-12.25,1.45-.99,2.79-2.21,4.7-2.19,0,0-.02-.02-.02-.02.43,1.4-.57,2.24-1.25,3.2-2.61,2.99-4.02,6.6-5.31,10.28-.83,2.35-1.22,4.72-.44,7.16.24.75.28,1.73,1.28,1.88.93.15,1.46-.53,1.91-1.25,1.59-2.51,2.95-5.18,4.92-7.45,2.48-2.33,4.83-4.82,7.9-6.45,1.36-.73,1.69-1.43-.04-2.33-.74-.38-1.37-.65-2.19-.75-1.83-.21-2.97-1.14-2.86-3.16,7.29,2.26,14.71,1.89,22.15,1.1.13,2.47-1.58,3.52-3.48,4.26-2,.77-4.05.82-6.26.71-5.99-.3-10.07,3.41-13.78,7.56-2.7,2.37-3.91,5.76-6.34,8.73,4,.06,7.5-.04,10.82-1.53,2.05-.19,3.76-1.14,5.41-2.31,3.16-2.24,5.96-5,9.62-6.48.43-.17.85-.38.86-.92.08-3.36,3.98-4.23,4.68-7.19.06-.25.57-.43.89-.56,1.3-.53,1.97-1.52,2.13-2.88.84-.95,2.36-.16,3.16-1.23,1.31-.06,2.62-.13,3.93-.19.1.15.23.21.41.18-.09,1.25-1.62,1.68-1.68,2.94Zm-39.63.06c.15-.22.29-.44.44-.65.03-.06.05-.12.08-.18-.02.07-.03.15-.05.22-.28.08-.56.17-.83.25-.17.16-.35.31-.52.47-2.52,1.89-3.3,4.56-3.38,7.54,1.14-2.41,2.42-4.74,3.81-7.01.15-.21.31-.42.46-.63Z"/>
    <path class="cls-4" d="m129.22,156.46c.61,11.43-3.83,20.51-11.8,28.67-3.53,3.61-7.74,5.31-11.72,7.73-1.27.77-.99,2.56-2.83,2.89-1.8.33-3.68.03-5.34.5-4.89,1.39-9.82,1.08-14.78,1.13-2.6.03-5.13.37-7.78-.12-7.49-1.36-13.34-5.36-18.52-10.64-1.01-1.03-2.12-1.96-3.18-2.94-.18-.35-.37-.71-.55-1.06,0,0-.02.02-.02.02,0,0,.12-.12.12-.12.53.22,1.07.43,1.6.65.17-.01.34-.03.52-.05,3.26,3.37,6.49,6.77,10.53,9.25,6.37,3.91,13.38,3.76,20.45,3.23,13.65-.15,24.96-5.41,34.02-15.57,2.31-1.94,3.74-4.47,4.86-7.2.15-.37.29-.75.44-1.12.51-.41.5-1.01.57-1.58h-.01c2.44-4.92,2.48-10.1,1.69-15.36.2-3.16-2.49-4.69-3.9-6.94l-.54-.63s0,0,0,0c-.39-1.48.51-1.66,1.63-1.61,0,0-.02-.03-.02-.03-.2.56,0,.93.56,1.12v-.02c.58,2.58,3.08,4.04,3.79,6.55.07,1.09.14,2.18.21,3.27Z"/>
    <path class="cls-4" d="m39.4,70.3c-2.49-6.68-3.63-13.6-3.89-20.71-.14-3.93,1.06-7.52,2.74-10.94,1.72-3.48,3.73-6.82,5.62-10.22,1.43-1.47,2.3-3.48,4.24-4.48.18.61.42,1.15,1.19,1.15-.92,3.72-.96,7.52-1.06,11.33-.08,3.35-.28,6.7-.96,10-.22,1.08-.71,1.98-1.89,1.96-1.2-.02-2.3-1.01-2.33-1.95-.07-2.33-1.18-4.53-.65-6.95.26-1.18.06-2.47-.03-3.71-.06-.72-.15-.71-1.14.16-5.04,7.17-5.22,15.02-3.3,23.18l.15,1.39c.16,1.95.59,3.82,1.49,5.57,1.11,4.05,2.27,8.07,5.38,11.17.51.51.94,1.09.88,1.88-.59.42-.85.36-1.47-.26-2.43-2.44-3.69-5.5-4.96-8.58Zm7.87-43.55c-1.51,1.4-2.59,2.79-2.99,5.11-.64,3.66-.18,7.23-.09,10.82.04,1.32-.08,2.91,1.38,4.47,1.77-6.97.85-13.78,1.68-20.41.08-.07.17-.14.25-.21-.05,0-.12,0-.14.03-.04.06-.06.13-.09.2Z"/>
    <path class="cls-9" d="m48.11,23.94c-1.94,1-2.81,3.01-4.24,4.48-.41-.94-.04-1.85.4-2.59,1.98-3.3,3.85-6.69,6.18-9.72,1.26-1.63,3.61-2.14,5.55-3,2.16-.39,3.16-1.75,3.23-3.88,0-.15.03-.29.08-.43.8,0,1.36-.34,1.58-1.15.73-.18,1.47-.35,2.2-.53,1.46.26,3.03.9,3.87-1.07.69-.01,1.41,0,1.64-.87,0,0-.06-.24-.06-.24.88.06,1.76.12,2.64.18.45,1.41,1.32.78,2.13.44.06.4.11.79.17,1.19-.76.39-1.51.78-2.27,1.17-9.78,2.34-16.9,8.52-23.12,16Z"/>
    <path class="cls-6" d="m40.95,147.11c.07.9.14,1.79.2,2.69-.93,1.02-1.59,2.03-1.02,3.57.29.79.19,1.78-.31,2.62-1.17,1.93-1.06,3.66.62,5.33,1.32,1.31,0,1.11-.78,1.14-1.38.36-.91-1.86-2.23-1.6-.18-.38-.35-.76-.53-1.15,2.18-2.12-.19-3.04-1.15-4.33-.05-.38-.09-.77-.14-1.15.58-.14.71-.56.69-1.08,0,0,.02-.02.02-.02,1.43-.32,1.85-1.48,2.2-2.68.04-.06.09-.13.13-.19-.04.07-.08.14-.11.21-1.39-.1-1.44-1.48-1.04-1.94,1.5-1.77-.03-3.1-.33-4.61-.1-.51-.13-1.04-.19-1.56.75-.54.67-1.22.25-1.87-1.12-1.74-.82-3.36.26-4.96,1.28-1.44,2.74-2.67,4.38-3.69.36.24.73.47,1.09.71-2.28,4.06-2.17,8.51-2.14,12.94-.41.3-.98.54-.91,1.14.06.58.63.45,1.03.49Z"/>
    <path class="cls-2" d="m54.36,113.78c-.8,1.06-2.31.28-3.16,1.23-1.52.2-3.04.41-4.56.61-7.44.79-14.86,1.16-22.15-1.1-1.31-.38-2.43-1.44-3.94-1.14l.02.02c.01-.55-.4-.79-.8-.98-4.68-2.2-9.06-4.9-13.32-7.81,0,0,0,0,0,0,0-.35-.2-.53-.54-.59-1.16-1.46-2.7-2.64-3.45-4.4-.58-1.37-1.22-2.83.2-4.14.1,4.41,3.07,7.1,6.24,9.26,5.6,3.83,11.4,7.44,18.24,8.77,1.32.95,2.84,1.04,4.39,1,5.6-.11,11.22.31,16.78-.61,2.01-.09,3.97-.75,6.01-.5.03.12.04.24.03.37Z"/>
    <path class="cls-6" d="m129.22,156.46c-.07-1.09-.14-2.18-.21-3.27,1.04-.41,2.51-.15,2.77-1.77,8.33,5.16,17.39,6.43,26.96,5.15,1.16-.16,2.35-.09,3.53-.13-1.64,1.8-3.58,2.95-6.1,2.42-.86-.18-1.58-.08-2.36.16-.34.1-.76.29-1.05.18-3.55-1.33-7.28-.54-10.9-.82-3.6-.28-6.26-2.96-9.84-3.03-1.22-.02-2.1.16-2.81,1.12Z"/>
    <path class="cls-2" d="m196.33,81.73c-.75.07-1.58-.05-1.95.86-4.08-6.03-10.07-9.43-16.61-12.06-1.62-.65-3.34-.68-5.08-.66-1.32.02-.82.8-.7,1.45-.32.03-.65.06-.97.09-.36-.28-.71-.14-1.06.02-.33-.02-.66-.04-.98-.06.25-.67.34-1.28-.66-1.27-1.09,0-2.18.06-3.26.1,0-.3,0-.61.01-.91,3.07-.19,6.14-.37,9.2-.56,1.09.83,1.98,1.05,2.13-.76,7.71,3.05,14.49,7.43,19.94,13.75Z"/>
    <path class="cls-6" d="m52.72,182.62c.18.35.37.71.55,1.06-1.11-.08-2.14-.29-2.71-1.42-.55-1.08-1.23-1.96-2.61-2.02-.3-.01-.75-.32-.84-.58-1.27-3.8-5.75-5.63-6.12-9.96-.1-1.15-1.14-1.81-1.51-2.81.71-1.08-.87-2.28.18-3.34,2.4,2.08,3.61,4.8,4.21,7.84.41,2.05,1.46,3.25,3.69,3.05,1.44,2.35,2.57,4.89,4.34,7.04.02.56.43.85.82,1.15Z"/>
    <path class="cls-11" d="m6.47,104.61c4.26,2.91,8.64,5.61,13.32,7.81.4.19.81.42.8.98-1.92-.02-3.26,1.2-4.7,2.19-2.51-1.9-4.38-4.49-6.74-6.48-1.57-1.32-2.45-2.59-2.67-4.5Z"/>
    <path class="cls-6" d="m39.4,70.3c1.27,3.08,2.53,6.13,4.96,8.58.62.62.88.68,1.47.26,1.15-.08,1.27,1.06,1.89,1.6.14,1.52.79,2.59,2.43,2.81.86.12,1,.73.85,1.4-.2.87-.84.38-1.3.29-1.51-.31-3-.65-4.51-.98-.49-2.56-1.87-4.69-3.71-6.39-1.66-1.53-2.95-5.36-2.08-7.57Z"/>
    <path class="cls-11" d="m41.88,131.83c-1.64,1.02-3.11,2.25-4.38,3.69-1.81-.58-3.69,1.73-5.48-.1,3.61-2.11,6.43-5.4,10.45-6.88.16,1.16-.36,2.2-.58,3.29Z"/>
    <path class="cls-9" d="m77.85,1.44c.53.06,1.07.11,1.6.17.73,1.28,1.61,1.83,2.97.75.95-.75,1.82-.42,2.57.4-3.47,1.2-6.92,2.48-10.51,3.28.02-.36.04-.71.06-1.07.4-.35.81-.71,1.21-1.06,1.64.07,1.56-1.07,1.53-2.17.19-.1.38-.19.57-.29Z"/>
    <path class="cls-7" d="m36.99,142.35c.06.52.08,1.05.19,1.56.31,1.51,1.83,2.85.33,4.61-.4.47-.34,1.84,1.04,1.94l-.02-.02c-.35,1.21-.77,2.36-2.2,2.68-.06-.74.6-1.33,0-2.28-.89-1.39-1.66-3.04.05-4.61.64-.58.04-1.4-.2-2.03-.35-.96-.25-1.58.8-1.87Z"/>
    <path class="cls-10" d="m21.13,138.4c2.62-.6,5.23-1.19,7.85-1.79-1.45,3.59-5.31,4.47-7.85,1.79Z"/>
    <path class="cls-7" d="m75.75,3.91c-.4.35-.81.71-1.21,1.06-.26.09-.51.17-.77.26,0,0-.13-.04-.13-.04l-.1.1c-.77-.32-1.55-.35-2.35-.14-.88-.06-1.76-.12-2.64-.18.08-.25.16-.72.23-.72,2.5.03,4.56-1.48,6.92-1.93.02.53.03,1.06.05,1.59Z"/>
    <path class="cls-7" d="m84.99,2.76c-.75-.82-1.62-1.15-2.57-.4-1.36,1.08-2.24.53-2.97-.75,2.4-1.49,4.57-.95,6.6.75-.01.14-.05.28-.12.4-.31,0-.63,0-.94-.01Z"/>
    <path class="cls-6" d="m59.23,9.24c-.07,2.13-1.07,3.49-3.23,3.88.85-1.49.34-4.1,3.23-3.88Z"/>
    <path class="cls-7" d="m66.97,6.07c-.85,1.96-2.41,1.33-3.87,1.07,1.17-1.28,2.13-2.98,4.34-2.24-.16.39-.31.78-.47,1.17Z"/>
    <path class="cls-7" d="m39.66,163.54c-1.06,1.06.52,2.26-.18,3.34-1.54-1.72-1.81-3.86-2.04-6.02,1.32-.26.84,1.96,2.23,1.6,0,.36,0,.72,0,1.08Z"/>
    <path class="cls-7" d="m35.76,155.39c.96,1.29,3.33,2.21,1.15,4.33-.28-1.47-1.42-2.71-1.15-4.33Z"/>
    <path class="cls-6" d="m75.75,3.91c-.02-.53-.03-1.06-.05-1.59.14-.05.28-.1.43-.15.38-.14.77-.29,1.15-.43.03,1.1.11,2.25-1.53,2.17Z"/>
    <path class="cls-7" d="m77.28,1.73c-.38.14-.77.29-1.15.43.04-.52-.1-1.15.52-1.42.65-.27,1.01.1,1.2.7-.19.1-.38.19-.57.29Z"/>
    <path class="cls-7" d="m60.89,7.66c-.22.8-.79,1.14-1.58,1.15.2-.83.05-2.16,1.58-1.15Z"/>
    <path class="cls-6" d="m66.97,6.07c.16-.39.31-.78.47-1.17.39.1.78.2,1.17.3-.23.88-.95.86-1.64.87Z"/>
    <path class="cls-7" d="m36.31,153.16c.02.52-.11.94-.69,1.08-.58-.88.08-.96.69-1.08Z"/>
    <path class="cls-11" d="m2.55,93.81c.26-.22.47-.17.65.1-.26.27-.46.11-.65-.1Z"/>
    <path class="cls-11" d="m5.92,104.02c.34.05.53.23.54.59-.36-.03-.54-.22-.54-.59Z"/>
    <path class="cls-6" d="m123.6,147.81c1.42,2.25,4.11,3.78,3.9,6.94-.65,1.28-.11,2.59-.1,3.89-1.75-.53-4.85-.81-5-1.63-.62-3.33-2.2-1.44-3.51-1.07-1.3.37-2.57.81-3.83,1.29-.64.25-1.43,1.25-1.88.62-1.44-2.02-4.41-2.54-4.94-5.51-.4-2.26-3.67-3.8-5.93-3.15-.76.22-1.1.91-.65,1.45,1.19,1.42.37,2.52-.18,3.84-.55,1.34-.38,2.81.26,4.21.27.59,1.7,1.21.49,1.93-.72.43-1.81-.2-2.42-.82-.46-.46-.52-1.3-.78-1.97-.38-.97-1.14-1.09-1.48-.17-1,2.67-2.56,5.22-1.62,8.33.38,1.27-.29,2.79-1.67,2.8-2.26,0-4.94,1.95-6.78-1.04-.06-.1-.51-.08-.66.03-1.67,1.37-3.56.37-5.33.52.87-2.04,2.17-3.89,1.94-6.34-.27-2.84-.73-3.52-3.46-2.69-2.37.72-2.87.13-2.9-2.18-.05-3.57-1-4.1-4.37-2.92-.4.14-.8.28-1.42.51.27-2.89-.94-4.21-3.71-3.85.27-1.31.57-2.61.49-3.97-.05-.75-.23-1.52.45-2.26,1.87-2.06,1.81-6.6.01-8.94.48-2.16.97-4.32,1.45-6.48.8-.55,1.91-1.14,1.78-2.15-.46-3.5,2.47-4.56,4.31-6.41.07,2.25,1.51,4.01,2.18,6.05.46,1.38,1.07,2.91,2.82,2.91,1.86,0,2.18-1.75,2.62-3.06,1.66-4.92,2.44-10.11,4.61-14.87.17-.11.34-.22.51-.33.57,1.33,1.09,2.68,1.72,3.98,2.33,4.78,5.52,5.98,10.43,4.02.77-.31,1.41-.88,1.12-1.55-.38-.88-1.07-.05-1.59.14-5.44,1.99-8.11.47-9.27-5.29,1.24-.05,1.78.98,2.62,1.6,1.02.75,2.36,2.77,3.54,1.31,1.68-2.09,3.53-1.4,5.46-1.39.18.25.37.5.55.75-1.02,3.79,2.78,7.04,1.23,10.91-.07.17.14.55.32.7,2.43,2.05,2.47,5.15,3.41,7.84.2.58.03,1.46.7,1.63,1.97.51.87,1.42-.31,2.75,2.9-1.31,4.99-1.75,6.34.92.13.25.6.32.91.48,1.01,1.89,4.03,2.37,3.7,5.23,0,.05.47.21.73.22,1.19.06,1.86.96,2.67,1.63,0,0,0,0,0,0,.18.21.36.42.54.63Z"/>
    <path class="cls-11" d="m6.79,87.3c3.98-2.94,8.37-4.38,13.35-5.08,8.37-1.17,16.05,1.09,23.86,3.22.36.88,1.09.78,1.82.72.12-.03.23-.02.34.04.09.94-.99,2.16-.02,2.77,2.23,1.39,4.55,3.05,7.02,3.47,2.02.35,3.71.67,5.42,1.88,1.09.77,2.91,1.15,3.55-1.04,4.07,1.36,8.2,2.4,12.55,2.02,1.79-.07,3.55.09,5.27.61,3.56,2.36,7.88,2.26,12.42,3.75-4.93,1.95-9.28,3.7-14.09,3.9.67-2-1.07-.84-1.61-1.16-1.84-1.07-4.75-1.3-5.83-.67-3.3,1.9-4.51.48-5.57-2.16-.26-.65-.55-.62-.96-.38-.45.27-1.48.36-.98,1.14.77,1.2.1,2.5.58,3.67-1.92.02-3.85.05-5.77.07-.13-1.18,2.11-2.13.54-3.33-1.14-.87-.74-1.67-.45-2.59.21-.68.7-1.39-.17-1.92-.75-.46-1.82-.6-2.3-.02-1.13,1.37-1.8.83-2.71-.16-.74-.8-1.59-3.01-2.6-.12-.14.39-.56.45-.87.13-.97-1.03-2.22-.49-3.35-.63l-.03-.03c-.11-.47.2-1.12-.56-1.31-.37,1.48-2.95.99-2.71,3.06.06.52,0,1.38-.57,1.34-2.95-.19-2.66,2.17-3.22,3.88-6.66-1.22-13.34-2.32-19.97-3.7-4.36-.91-8.29-3.11-12.41-4.75-1.17-.47-2.38-.84-3.57-1.26-.06-.19-.11-.37-.17-.56.5-.69,1.25-1.01,2.02-1.12,2.47-.36,2.67-1.75,1.79-3.69Z"/>
    <path class="cls-8" d="m68.48,135.64c1.8,2.34,1.86,6.88-.01,8.94-.68.75-.49,1.51-.45,2.26.08,1.37-.22,2.66-.49,3.97-.19.06-.37.13-.56.19-3.01-.82-4.18,1.52-5.69,3.29-2.76,3.24-5.65,3-7.92-.74-3.07-5.04-5.05-10.44-5.03-16.44,0-2.08-.1-4.14.24-6.23.85-5.13,4.11-7.82,9.17-9.52-2.3,7.41-1.64,14.78-2.27,22.04-.05.61.01,1.37-.81,1.53-.74.14-1.12-.46-1.5-.98-1.65-2.29-1.95-4.93-1.57-8.16-2.23,3-.61,9.08,2.25,10.22,1.81.73,2.46-.26,2.67-1.92.47-3.79.47-7.6.53-11.42.05-3.28.6-6.49,1.52-9.64.32-1.07.81-2.33,1.99-2.31,1.38.02,1.26,1.52,1.48,2.52.75,3.45,1.38,6.93,2.19,10.37.66,2.81,1.52,3.16,4.25,2.02Z"/>
    <path class="cls-8" d="m54.94,183.11c-.17.02-.34.04-.52.05-.35-.77-.63-1.62-1.69-1.66h.03c-2.24-4.8-4.94-9.36-6.95-14.29-2.87-7.03-3.64-14.29-3.48-21.75.86-.23,1.95-.21,2.52-.75,1.31-1.23,2.22-.48,3.24.25,1.08,3.18,2.58,6.18,4.23,9.09,1.1,1.92,2.47,3.62,5.05,3.51,1.86-.08,1.35.97.81,1.88-2.41,4.07-2.24,5.19,1.43,7.52.67.42.66.97.83,1.57.99,3.57,2.9,6.53,5.98,8.68-.02.16-.01.32.02.47-.2.17-.46.31-.59.52-2.37,3.76-4.68,4.73-9.14,3.93-.73-.13-1.71-.28-1.78.98Z"/>
    <path class="cls-5" d="m79.94,95.91c-1.72-.53-3.48-.69-5.27-.61-.42-.84-.86-1.67-2.04-1.32-.2-.02-.4-.05-.59-.07-.2-.05-.4-.1-.6-.15-3.2-1.36-6.41-2.71-9.9-3.16-.66-.61-1-1.21.01-1.81.45-.02.9-.05,1.35-.07.35.08.7.15,1.06.23,1.38,1.69,3.47,1.62,5.31,2.18h0c6.74,3.25,13.73,3.17,20.84,1.6,6.59-.41,12.59-2.65,18.31-5.8,6.39-2.62,10.7-7.94,15.85-12.18.51-.35,1.05-.66,1.52-1.05,3.07-2.58,7.74-3.12,9.47-7.38.65-1.61,1.53-1.14,2.52-.46-.11,1.03-.85,1.99-.38,3.1-1.27.54-2.31,1.42-3.33,2.32-.58.14-.72.57-.71,1.09-1,.91-2.04,1.78-2.99,2.75-1.57,1.61-.35,1.67.96,1.64.18.17.35.35.53.52-.73.43-1.52.8-1.47,1.85l-.72.11c-.79-.48-1.21.18-1.72.55-.4-.03-.81-.06-1.21-.09-4.55,2.32-9.75,4.12-8.84,10.88-.23,0-.47,0-.7.01-.08-1.15-.15-2.31-.23-3.46.13-.64-.31-1.06-.61-1.53.05-.36.1-.72.15-1.09.23-.05.45-.11.68-.16l-.12-.21c-.18.13-.36.26-.54.39-1.69.06-2.59,1.45-3.8,2.3-.72-.15-1.42-.19-1.95.47-3.64,2.19-7.57,3.75-11.52,5.26-2.27.6-4.54,1.21-6.81,1.81-3.41.2-6.82.4-10.23.6-.93-.1-1.95-.43-2.24.96Zm47.49-17.89c.62-.1,1.2-.28,1.37-.98.08-.31-.12-.52-.43-.47-.72.12-.91.71-1.05,1.32-.27.16-.55.33-.82.49.08.11.15.21.23.32.23-.23.47-.45.7-.68Zm1.49-4.51c-2.16.44-3.48,1.92-4.6,3.66,1.84-.85,3.69-1.67,4.74-3.54.22-.05.52-.16.29-.4-.21-.22-.38.02-.43.28Z"/>
    <path class="cls-11" d="m48.32,113.9c-5.57.92-11.19.5-16.78.61-1.54.03-3.07-.05-4.39-1,2.01-3.44,4.33-6.45,8.79-6.74,2.12-.14,2.02-1.57,1.58-3.1,6.11,1.51,12.36,1.58,18.59,1.89-1.06,1-2.27,1.79-2.9,3.3-.25.61-.96,1.93-2.21,1.64-3.38-.78-3.06,1.27-2.68,3.4Z"/>
    <path class="cls-11" d="m46.19,95.43c1.13.14,2.38-.4,3.35.63.31.33.74.26.87-.13,1.01-2.89,1.86-.67,2.6.12.92.99,1.59,1.53,2.71.16.48-.59,1.56-.44,2.3.02.87.53.38,1.24.17,1.92-.29.92-.69,1.72.45,2.59,1.57,1.2-.67,2.15-.54,3.33-6.42.27-12.81.3-19.02-1.7.56-1.71.27-4.07,3.22-3.88.57.04.63-.83.57-1.34-.24-2.06,2.33-1.58,2.71-3.06.76.19.45.84.56,1.31-.07.08-.15.17-.22.25.08-.07.17-.15.25-.22Z"/>
    <path class="cls-11" d="m48.32,113.9c-.38-2.13-.7-4.18,2.68-3.4,1.25.29,1.96-1.03,2.21-1.64.62-1.51,1.84-2.3,2.9-3.3,7.76-.58,15.57.21,23.38-.91-.2,1.08-1.39.87-1.75,1.6-4.13,1.24-8.26,2.48-12.39,3.72-.62-1.27-1.76-2.1-3.02-1.77-1.63.43-2,2.16-2.47,3.62-1.61,1.36-3.82.61-5.53,1.59-2.04-.25-4,.41-6.01.5Z"/>
    <path class="cls-4" d="m66.45,177.69c-.04-.16-.04-.31-.02-.47.19-.18.37-.37.56-.55.37-.04.75-.08,1.13-.12,2.66.33,5.16-.08,7.4-1.65.98-.45,1.82-1,1.63-2.31-.88-.32-1.53.38-2.29.42-1.7-1.55.18-1.82.91-2.11,3.13-1.25,4.67-3.88,6.02-6.66.56-1.15.8-2.71-.09-3.6-.77-.76-2.04.14-3.03.52-1.01.38-1.96.9-2.75,1.71-.5.52-1.02,1.63-1.89.79-.68-.65.25-1.28.6-1.86,1.14-1.87,1.4-6.1.38-6.61-1.26-.64-3.65,1.23-4.94,3.86-.94.3-.98,2.33-2.58,1.34-.01-.73-.02-1.45-.03-2.18,2.19-1.15,2.56-3.08,2.14-5.25-.32-1.68-1.81-.55-2.67-.96.02-.33.04-.65.06-.98.19-.06.37-.13.56-.19,2.77-.35,3.98.96,3.71,3.85.62-.22,1.02-.37,1.42-.51,3.37-1.17,4.33-.65,4.37,2.92.03,2.32.53,2.9,2.9,2.18,2.73-.83,3.19-.15,3.46,2.69.23,2.46-1.06,4.3-1.94,6.35-.94.82-2.37,1.65-2.37,2.77,0,3.12-2.01,4.58-4.15,6.07-2.81.63-5.58,1.71-8.5.54Z"/>
    <path class="cls-8" d="m76.58,117.8c-.85-.91-.51-2.93-2.47-2.78-1.77.14-2.15,1.73-2.85,2.97-1.99,3.51-1.57,7.6-2.75,11.3-2.2-.83-2.45,1.33-3.5,2.27-1.39-3.74-1.28-7.84-2.84-11.55-.58-1.39.81-1.42,1.5-1.72,4.3-1.89,8.52-3.96,13.01-5.4.27.41.68.52,1.14.52-.46,1.45.4,3.27-1.25,4.38Z"/>
    <path class="cls-6" d="m76.58,117.8c1.64-1.11.79-2.93,1.25-4.38,1.28-.62,2.36,1.81,3.37.51,1.43-1.84,3.05-1.39,4.79-1.11-1.25,4.54-2.49,9.08-3.76,13.61-.19.66-.32,1.55-1.24,1.59-.94.03-1.06-.9-1.31-1.53-1-2.51-1.94-5.05-2.89-7.59l-.19-1.1Z"/>
    <path class="cls-3" d="m93.1,100.96c.32-.08.64-.16.97-.24,1.15,2.31,2.75.76,3.96.27,1.5-.61,3.06-1.92,4.53-1.41,1.29.45-.06,2.23.3,3.41.15.5.07,1.07.09,1.62-.21.25-.41.49-.62.74-1.16-.24-1.75,1.19-2.9,1-5.75-2.21-11.64-.34-17.93-.56,3.52-2.53,7.5-2.76,10.88-4.43.25-.13.49-.26.74-.38Z"/>
    <path class="cls-11" d="m102.32,105.33c.21-.25.41-.49.62-.74.93-.35.94-1,.93-1.92-.02-2-.11-4.07,1.18-5.83.57.89,1.31,1.57,2.34,1.87-.74,4.64-.34,9.3-.13,13.96-.98,1.31-2.1,2.37-3.91,2.2-.18-.25-.37-.5-.55-.75.3-1-1.9-1.14-.95-2.02,1.9-1.76.14-2.15-.83-2.91.63-.4,1.77.23,2.01-.71.2-.8-.89-.89-1.32-1.38.2-.59.41-1.18.61-1.77Z"/>
    <path class="cls-8" d="m68.11,176.55c-.38.04-.75.08-1.13.12-.78-.86-1.63-1.66-2.32-2.58-1-1.33-2.12-2.41-.03-4.18,1.78-1.51.99-4.29,1.43-6.48.22-1.1-.42-2.67,1.42-3.04,1.61.99,1.65-1.04,2.59-1.34,1.44,1.35,1.01,2.75.34,4.33-1.05,2.47-1.94,4.84-1.17,7.85.28,1.09-1.61,3.27-1.12,5.32Z"/>
    <path class="cls-11" d="m101.02,109.2c.97.76,2.72,1.15.83,2.91-.95.88,1.26,1.02.95,2.02-1.92-.02-3.78-.7-5.46,1.38-1.18,1.47-2.52-.55-3.54-1.31-.84-.62-1.38-1.64-2.62-1.59-.3-.45-.6-.91-.9-1.36-.79-1.43-.47-2.14,1.27-2.16,3.16-.03,6.31-.28,9.47.11Z"/>
    <path class="cls-9" d="m48.09,144.97c-1.02-.73-1.93-1.49-3.24-.25-.57.54-1.67.52-2.52.75-1.06-6.35.14-11.98,5.63-16.83-1.24,3.89-.59,7.36-.71,10.82-1.89-.2-1.12,1.55-1.3,2.21-.24.91.99.46,1.6.57.18.91.36,1.81.54,2.72Zm-3.16-3.64c.01-.08.03-.15.04-.23-.1.02-.21.04-.31.06.03.07.04.16.09.2.03.03.12-.02.18-.03Z"/>
    <path class="cls-8" d="m39.66,163.54c0-.36,0-.72,0-1.08.79-.03,2.09.17.78-1.14-1.68-1.67-1.78-3.4-.62-5.33.5-.83.6-1.83.31-2.62-.57-1.54.09-2.55,1.02-3.57-.17,8.8,3.04,16.73,6.4,24.62-2.23.2-3.29-1-3.69-3.05-.6-3.03-1.81-5.76-4.21-7.84Z"/>
    <path class="cls-9" d="m41.88,131.83c.22-1.09.74-2.13.58-3.29,3.56-2.15,5.87-5.16,7.06-9.22.57-1.93,3.34-1.36,4.51-2.82.95-1.18,1.49-.35,2.17.19-3.84,4.58-7.68,9.17-11.52,13.75-.58.69-1.14,1.39-1.71,2.09-.36-.24-.73-.47-1.09-.71Z"/>
    <path class="cls-11" d="m79.43,107.38c3.77-.31,7.54-.64,11.31-.93,2.74-.21,5.5-.46,7.95,1.39-8.33-.48-16.37.58-24.01,3.99-.36-.95.51-2.21-.74-2.93,1.83-.51,3.66-1.02,5.49-1.52Z"/>
    <path class="cls-9" d="m107.39,98.72c-1.03-.31-1.77-.99-2.34-1.88-.36-1.02-.64-2.13-2.14-1.77-.2-.05-.4-.11-.6-.16-.46-1.53-2.71-.72-3.09-2.36,3.95-1.51,7.88-3.07,11.52-5.26-.91,2.76-2.79,5.17-2.97,8.2-.33.28-.43.6-.13.97-.08.76-.17,1.51-.25,2.27Z"/>
    <path class="cls-2" d="m76.77,118.9c.96,2.53,1.89,5.07,2.89,7.59.25.63.37,1.56,1.31,1.53.91-.03,1.05-.92,1.24-1.59,1.28-4.53,2.51-9.07,3.76-13.6.31-.41.62-.82.93-1.23.43.85.91.11,1.36.04-2.17,4.76-2.95,9.96-4.61,14.87-.44,1.31-.76,3.06-2.62,3.06-1.75,0-2.36-1.53-2.82-2.91-.68-2.04-2.12-3.8-2.18-6.05.04-.19.09-.39.13-.58.2-.37.41-.75.61-1.12Z"/>
    <path class="cls-5" d="m79.43,107.38c-1.83.51-3.66,1.02-5.49,1.53-4.7,1.47-9.58,2.47-13.59,5.59-1.07.98-2.14,1.96-3.21,2.94-.04-.24-.08-.49-.12-.73.05-1.27,1.59-1.69,1.68-2.94-.14-.06-.27-.12-.41-.18-1.31.06-2.62.13-3.93.19.01-.13,0-.25-.03-.37,1.71-.98,3.92-.24,5.53-1.59,2.05.02,3.8-.81,5.49-1.85,4.13-1.24,8.26-2.48,12.39-3.72.56.38,1.12.75,1.68,1.13Z"/>
    <path class="cls-11" d="m60.34,114.5c4.01-3.12,8.9-4.13,13.59-5.59,1.25.72.38,1.98.74,2.93-1.68,1.47-3.88,1.81-5.85,2.66-1.5-.06-3.14-1.35-4.43-.35-1.44,1.11-2.69.54-4.05.36Z"/>
    <path class="cls-11" d="m82.18,94.95c3.41-.2,6.82-.4,10.23-.6,1.53,1.1,4.53.22,4.54,3.37-5.14,1.35-9.82-.58-14.56-2.03-.13-.04-.14-.49-.21-.74Z"/>
    <path class="cls-3" d="m63.88,104.01c-.48-1.17.19-2.48-.58-3.67-.5-.77.53-.87.98-1.14.41-.25.7-.27.96.38,1.06,2.64,2.28,4.06,5.57,2.16,1.08-.62,3.99-.39,5.83.67.55.32,2.29-.85,1.61,1.16-4.77.98-9.58.73-14.39.44Z"/>
    <path class="cls-8" d="m60.34,114.5c1.37.18,2.61.75,4.05-.36,1.3-.99,2.93.29,4.43.35-4.08,2-8.14,4.02-12.23,5.99-.69.33-1.37.93-2.25.53l.03.02c.92-1.2,1.85-2.4,2.77-3.6,1.07-.98,2.14-1.96,3.21-2.94Z"/>
    <path class="cls-8" d="m76.16,120.02c-.04.19-.09.39-.13.58-1.84,1.86-4.77,2.92-4.31,6.41.13,1-.98,1.59-1.78,2.15.5-3.74.69-7.55,2.46-10.99.4-.77.67-1.92,1.68-1.93,1.18-.01.97,1.31,1.36,2.05.29.55.49,1.15.72,1.73Z"/>
    <path class="cls-9" d="m86.9,111.6c-.31.41-.62.82-.93,1.23-1.74-.28-3.36-.73-4.79,1.11-1,1.3-2.09-1.13-3.37-.51-.46,0-.87-.11-1.14-.52,3.47-1.82,7.09-3.11,11.36-3.42-.49.92-.82,1.52-1.14,2.12Z"/>
    <path class="cls-11" d="m102.91,95.07c1.5-.36,1.78.75,2.14,1.77-1.29,1.76-1.2,3.84-1.18,5.83,0,.92,0,1.57-.93,1.92-.02-.54.06-1.11-.09-1.62-.35-1.18.99-2.96-.3-3.41-1.47-.51-3.02.8-4.53,1.41-1.21.49-2.81,2.04-3.96-.27,1.05-1.03,2.42-.97,3.74-1.12,2.82-.3,4.62-1.92,5.1-4.53Z"/>
    <path class="cls-2" d="m90.29,111.25c.3.46.6.91.9,1.36,1.16,5.76,3.83,7.28,9.27,5.29.52-.19,1.21-1.03,1.59-.14.29.67-.35,1.24-1.12,1.55-4.91,1.96-8.09.77-10.43-4.02-.63-1.3-1.15-2.65-1.72-3.98.5-.02,1.01-.04,1.51-.07Z"/>
    <path class="cls-8" d="m61.02,162.61c-.68.14-.62.55-.73.87-.24.75.68,1.98-.74,2.2-.74.12-1.41-.49-1.45-1.31-.06-1.07-.76-2.34.68-3.07,1.5-.76,3.1-.86,4.73-.61,1.48.23,1.37,1.26.92,2.23-.5,1.09-.86,2.76-2.33,2.52-1.14-.19-.09-2.04-1.09-2.83Z"/>
    <path class="cls-11" d="m96.95,97.72c0-3.15-3.01-2.27-4.54-3.37,2.27-.6,4.54-1.21,6.81-1.81.37,1.64,2.63.83,3.09,2.36-1.87.78-3.16,2.67-5.36,2.82Z"/>
    <path class="cls-6" d="m65.02,131.57c1.05-.94,1.3-3.11,3.5-2.27-.17,1.13-.31,2.27-.52,3.39-.14.74,0,1.81-1.06,1.87-1,.06-1.52-.75-1.73-1.68-.1-.43-.13-.87-.19-1.31Z"/>
    <path class="cls-8" d="m64,157.04c1.19-.14,1.91,0,1.78,1.19-.11,1.01-.38,1.8-1.66,1.36-.17-.06-.36-.06-.51-.15-1.14-.64-3.56.89-3.46-.95.1-1.8,2.75-.82,3.86-1.45Z"/>
    <path class="cls-9" d="m66.91,152c.86.41,2.35-.72,2.67.96.42,2.17.05,4.1-2.14,5.25-.13-.1-.39-.29-.39-.3,1.45-2.01.51-3.96-.14-5.92Z"/>
    <path class="cls-8" d="m63.58,156.01c-.57-.11-1.6.33-1.48-.59.14-1.11,1.16-1.85,2.24-2.09,1-.23,1.5.53,1.47,1.45-.04,1.61-1.42.95-2.23,1.23Z"/>
    <path class="cls-8" d="m64.46,165.86c.43.91.12,1.66-.13,2.42-.27.78-.65,1.55-1.58,1.59-.45.02-.68-.53-.72-.99-.08-.85-.44-1.79.84-2.18.56-.17,1.05-.55,1.59-.84Z"/>
    <path class="cls-8" d="m47.55,142.25c-.61-.11-1.84.34-1.6-.57.17-.66-.59-2.41,1.3-2.21.1.93.2,1.86.3,2.78Z"/>
    <path class="cls-11" d="m102.32,105.33c-.2.59-.41,1.18-.61,1.77-.77-.24-1.7,0-2.29-.78,1.14.19,1.74-1.24,2.9-1Z"/>
    <path class="cls-8" d="m40.95,147.11c-.41-.04-.97.09-1.03-.49-.07-.6.51-.83.91-1.14.04.54.08,1.08.12,1.63Z"/>
    <path class="cls-4" d="m52.72,182.62c-.39-.3-.8-.59-.82-1.15.29.01.57.02.86.03,0,0-.03,0-.03,0,.03.34.06.68.09,1.02l-.13.12.02-.02Z"/>
    <path class="cls-8" d="m54.34,121.01c-.03.13-.07.27-.1.4-.48-.3-.02-.29.13-.38,0,0-.03-.02-.03-.02Z"/>
    <path class="cls-11" d="m93.1,100.96c-.25.13-.49.26-.74.38.25-.13.49-.26.74-.38Z"/>
    <path class="cls-9" d="m108.41,86.92c-5.72,3.15-11.72,5.39-18.31,5.8-2.92.31-5.14-2.42-8.13-1.9-.21.04-.82-.69-.76-.95.59-2.61-1.78-3.2-3.02-4.55,2.39-4.34,2.39-8.79.62-13.33-2.06-6.59-7.99-10.38-14.6-9.2-2.74.49-3.49,2.92-4.35,5.08-.52,1.31-.62,1.85-2.5,1.21-4.84-1.66-8.91-.1-9.54,5.69-.21,1.97-.08,3.97-.1,5.96-.63-.54-.74-1.68-1.89-1.6.07-.79-.37-1.37-.88-1.88-3.11-3.09-4.27-7.11-5.38-11.17,1.44-.82,2.51-1.73,2.02-3.72-.52-2.1-2.04-1.81-3.51-1.85-.05-.46-.1-.93-.15-1.39,1.32-.99,2.46-2.24,1.81-3.95-.6-1.59-2.87-2.79-.78-4.81.06-.06-.02-.38-.13-.5-1.48-1.65-.01-2.52.91-3.54.42-.46,1.24-.92,1.23-1.35-.13-3.02,1.72-5.99.25-9.03.99-.87,1.08-.88,1.14-.16.1,1.23.29,2.53.03,3.71-.53,2.41.58,4.61.65,6.95.03.94,1.13,1.93,2.33,1.95,1.18.02,1.67-.89,1.89-1.96.67-3.3.87-6.66.96-10,.09-3.81.13-7.6,1.06-11.33.51-1.02.88-2.12,1.81-2.86.76.9-.05,1.69-.26,2.47-.59,2.24-.59,4.37.74,6.37-.77.29-1.55.58-2.65.99,2.83,1.66,4.13,4.79,7.45,5.1.08,1.44.15,2.88.26,4.32.06.77-.21,1.86.82,2.04,1.18.21,1.39-.99,1.64-1.79.6-1.88,1.07-3.81,1.6-5.71,1.7.19,2.87-.37,2.86-2.26,0-2.4,1.26-3.18,3.57-2.14,1.35.61,2.73,1.16,4.09,1.74.49,2.1.9,4.23,1.48,6.3.43,1.52.68,3.34,2.87,3.45,2.15.1,2.64-1.58,3.24-3.1.23-.59.38-1.21.57-1.82.61-.14,1.48.26,1.45-1-.03-1.21.85-2.02,1.98-2.1,2.15-.15,4.31-.07,6.47-.09.41.89-.24,2.45,1.25,2.61,1.37.14,1.45-1.3,1.89-2.22.15-.32.32-.62.49-.93.9-.17,1.51.23,2.15.84.49.48,1.36,1.07,1.94.46,2.28-2.38,5.27-2.74,8.25-3.56,3.3-.9,7.43.1,9.73-3.59.07-.12.33-.11.5-.18,1.66-.61,2.34-2.52.96-3.39-2.54-1.6-.64-2.28.36-3.23.45-.43.95-.82,1.43-1.22,1.4.4,2.87,1.69,4.1-.3,1.23-.43,2.23-.51,3.38.57,2.26,2.13,4.96,3.8,6.55,6.61.37.65,1.06.92,1.85.93,1.92.02,2.72,1.41,2.31,2.87-.61,2.18.5,2.07,1.9,1.99,0,0-.02,0-.02,0-.12.97-.16,1.95-.32,2.93-.23,1.48-.19,3.1,1.81,3.58.96,6.81,1.63,13.6-.89,20.25-.64,1.46-1.71,2.74-2.05,4.86.61-.56.92-.74,1.07-1.01.59-1.08,1.13-2.2,1.69-3.3.29-.19.57-.38.86-.56l-.03-.02c-.22,2.27-1.89,3.87-2.72,5.86-.99-.68-1.86-1.16-2.52.46-1.72,4.26-6.4,4.8-9.47,7.38-.47.4-1.01.7-1.52,1.05-2.7-.23-5.32-1.39-7.16,2.35-1.38,2.81-6.09,2.89-6.94,6.73-.02.11-.3.19-.47.24-1.46.49-1.44,1.64-1.28,2.85Z"/>
    <path class="cls-7" d="m62.9,88.71c-.45.02-.9.05-1.35.07-1.83-2.23-4.55-3.06-6.95-4.38-1.05-.57-1.51-.83-.64-2.1.9-1.34,1.07-3.04.36-4.66.93-.66,1.84-.96,3-.41.99.47,2.11.45,3.14-.05,1.67-.81,3.24-.65,4.75.37.52,1.05,1.14,1.38,1.85.18.53-.9,1-1.85,1.49-2.77,1.53-.55,2.99-.42,4.36.46-1.45,1.4-2.75,2.9-3.32,4.89-.18.62-.29,1.34.34,1.74.66.42,1.19-.11,1.68-.52,1.22-1.01,1.93-2.39,2.76-3.68,1.07,1.66,2.64,3.05,2.88,5.17-2.06,2.1-3.29,4.86-5.52,6.83-1.67.06-2.91-.65-3.98-1.95-.85-1.03-.63-3.23-2.06-3.2-1.48.03-1.39,2.32-2.46,3.29-.18.17-.24.48-.35.72Z"/>
    <path class="cls-9" d="m65.21,77.55c-1.51-1.02-3.09-1.18-4.75-.37-1.03.5-2.15.53-3.14.05-1.16-.55-2.07-.26-3,.41-2.61-.92-3.21.52-3.3,2.71-.02.61.48,1.67-.65,1.73-.89.04-1-.89-1.12-1.61-.37-2.26-.45-4.51.15-6.75.88-3.28,3.78-4.86,6.96-3.7,1.25.45,2.12,1.23,2.06,2.83-.05,1.51.6,2.77,2.23,3.35.6-1.24-.53-2.1-.4-3.21.22-1.76.49-3.41,1.89-4.65,1.14-1.01,2.63-1.94,3.91-1.03,1.42,1.01,1.15,2.78.21,4.17-1.28,1.89-.93,4.01-1.05,6.07Z"/>
    <path class="cls-7" d="m62.12,93.28c-.64,2.18-2.45,1.81-3.55,1.04-1.72-1.21-3.4-1.53-5.42-1.88-2.48-.43-4.8-2.09-7.02-3.47-.97-.61.11-1.82.02-2.77,2.75-.04,5.3.39,7.3,2.58.97,1.07,2.25,1.84,3.7,2.03,1.96.26,3.43,1.41,4.97,2.47Z"/>
    <path class="cls-9" d="m72.91,75.42c-1.38-.88-2.83-1.01-4.36-.46-.11-2.62-.3-5.23,2.55-6.78,2.45-1.33,3.41-.85,3.39,1.92-.02,1.9.43,3.99-1.58,5.32Z"/>
    <path class="cls-2" d="m71.75,89.85c2.22-1.97,3.46-4.73,5.52-6.83,1.87-2.38,1.08-5.08.95-7.71-.15-.38-.3-.76-.46-1.14.89-.72.17-1.47.06-2.21.33,0,.66.02.99.02,1.77,4.53,1.77,8.99-.62,13.33-.61.77-1.16,1.59-1.83,2.3-1.3,1.39-2.2,3.35-4.52,3.39-.03-.38-.06-.77-.1-1.15Z"/>
    <path class="cls-9" d="m62.54,65.99c.5-2.19,2.31-1.96,3.89-2.03,2.12-.1,4.12.3,6.01,1.85-1.38.91-2.67,1.76-4.16,2.75-.5-4.12-3.39-2.69-5.75-2.57h.01Z"/>
    <path class="cls-9" d="m78.21,75.31c.12,2.62.92,5.33-.95,7.71-.25-2.12-1.81-3.51-2.88-5.17.25-2.4,2.12-2.35,3.84-2.54Z"/>
    <path class="cls-7" d="m6.79,87.3c.88,1.94.68,3.33-1.79,3.69-.77.11-1.52.43-2.02,1.12-1.54-.01-2.15-.61-.89-1.83,1.34-1.3,2.91-2.33,4.7-2.98Z"/>
    <path class="cls-6" d="m61.54,90.59c3.49.45,6.7,1.8,9.9,3.16-2.54-.15-5.06-.44-7.45-1.32-.94-.34-2.22-.46-2.45-1.84Z"/>
    <path class="cls-9" d="m77.81,71.96c.12.74.84,1.5-.06,2.21-4.14-.05-.81-3.09-2.01-4.32,1.34.23,1.3,1.5,2.07,2.1Z"/>
    <path class="cls-7" d="m45.81,86.15c-.73.07-1.46.16-1.82-.72.62.2,1.35.14,1.82.72Z"/>
    <path class="cls-6" d="m72.03,93.91c.2.02.4.05.59.07-.2-.02-.4-.05-.59-.07Z"/>
    <path class="cls-9" d="m62.52,65.97c-.08.09-.15.17-.23.26,0-.06,0-.14.03-.16.06-.04.14-.05.21-.08,0,0-.01-.01-.01-.01Z"/>
    <path class="cls-2" d="m122.35,20.28c-1.23,1.99-2.69.7-4.1.3-.97-1.12-1.8-2.32-2.33-3.72-.18-.88-.27-1.78-.56-2.62-.28-.8-.12-2.08-1.15-2.25-1.23-.2-1.82.9-2.29,1.91-2.78,3.58-3.75,8-5.6,12.01-.43.94-.75,2.31-2.17,2-1.23-.27-1.08-1.52-1.13-2.5-.22-4.25-.38-8.51-.63-12.75-.06-.99.54-2.54-.8-2.82-1.27-.27-1.97,1.12-2.48,2.17-.79,1.63-1.57,3.28-2.12,5-1.8,5.7-2.8,11.6-4.07,17.43-.16.31-.34.62-.49.93-.43.92-.52,2.37-1.89,2.22-1.48-.15-.84-1.72-1.25-2.61.47-7.99-.24-15.96-.55-23.93-.03-.78.13-1.81-1.08-1.81-1.12,0-2.51-.48-3.14.93-.59,1.31-1.09,2.69-1.43,4.1-1.86,7.87-2.36,15.95-3.7,23.91-.19.61-.34,1.23-.57,1.82-.61,1.52-1.1,3.2-3.24,3.1-2.19-.1-2.44-1.92-2.87-3.45-.59-2.07-1-4.2-1.48-6.3.19-6.24-.55-12.41-1.26-18.58-.06-.54-.02-1.4-.77-1.58-.81-.2-1.32.48-1.78,1.01-.4.47-.72,1.04-1,1.6-3.2,6.37-4.48,13.29-5.73,20.22-.52,1.91-1,3.83-1.6,5.71-.26.8-.46,2-1.64,1.79-1.03-.18-.76-1.28-.82-2.04-.11-1.44-.17-2.88-.26-4.32-.12-3.34-.15-6.68-.4-10.01-.18-2.41-.03-4.9-1.07-7.19.29-.12.58-.24.87-.36,1.32,1.61,1.07,3.57,1.17,5.43.29,5.13.52,10.27.78,15.41,1.49-3.9,2.47-7.83,3.27-11.8.95-4.73,1.92-9.42,4.5-13.61.68-1.1,1.34-2.13,2.47-2.82,1.59-.98,2.52-.61,2.92,1.22.46,2.13.78,4.27.86,6.46.15,3.8.31,7.6,1.02,11.35-.14,2.75.36,5.41,1.04,8.05.28,1.09.39,2.56,1.89,2.64,1.56.09,1.76-1.42,2.06-2.48.93-3.22,1.32-6.55,1.63-9.89l.11-1.21.1-1.08c1.2-5.6,1.38-11.41,3.43-16.85.55-1.46-.81-1.01-1.49-.96-2.87.23-5.74.45-8.62.22-.69-.47-1.89-.42-1.71-1.74.76-.39,1.51-.78,2.27-1.17.33-.24.66-.49.98-.73,3.6-.8,7.04-2.08,10.51-3.28.31,0,.63,0,.94.01.42.19.84.38,1.25.58-4.64,1.65-9.52,2.65-14.23,5.16,1.97.52,3.54.02,5.11-.08,2.98-.19,6.14.47,8.3-2.68.75-1.09,2.33-1.21,2.85.68.3,1.07.92,1.43,1.99,1.38,2.9-.14,5.79-.22,8.69-.32l.23-.05.24.02,2.48.23c.2.34.39.68.59,1.01,0,.3,0,.6,0,.91.28,5.44.56,10.89.85,16.33.21.02.42.04.63.06,1.75-4.03,3.5-8.06,5.25-12.09,1.38-1.66,2.57-3.65,5.27-2.95.12.18.24.35.35.53.42,1.45.84,2.89,1.27,4.34.45,2.46,1.38,4.42,4.39,4.23.3.08.59.15.89.23Zm-22.51-11.34c-2.84,0-5.46,0-8.08,0-1.7,0-2.06.87-1.95,2.43.48,6.95,1.07,13.89.81,20.87-.03.81.13,1.62.21,2.44,3.52-8.47,3.15-18.08,9.01-25.73Z"/>
    <path class="cls-1" d="m100.37,7.46l-.24-.02s-.23.05-.24.05c-.62-1.19-2-1.02-2.87-1.12-2.59-.27-3.88-3-6.45-3.09,5.81-1.58,11.75-1.98,17.72-1.77,5.86.21,10.71,3.11,15.15,6.61,3.41,2.69,6.34,5.9,8.49,9.74-.15.16-.3.33-.44.49-7.85-7.51-17.16-11.3-28.06-11.06-1.12-1.86-2.08-.71-3.05.17Z"/>
    <path class="cls-1" d="m134.06,71.27c1.02-.9,2.06-1.78,3.33-2.32,6.89-2.04,13.95-2.97,21.12-3.27,5.52-.23,10.72.94,15.76,3.05-3.07.19-6.14.37-9.2.56-1.64-.29-3.22.25-4.84.31-1.55-3.37-1.66.2-2.45.51-2.51.46-5.03.92-7.54,1.39-.3-.19-.6-.38-.91-.58-1.17-1.17-2.81-.83-4.07-.79-2.91.09-6.18-1.62-8.72,1.34-.71.83-1.66.07-2.48-.21Z"/>
    <path class="cls-6" d="m117.07,15.82c-.42-1.45-.84-2.89-1.27-4.34.64.49,1.2,1.17,1.92,1.42,1.83.64,3.35,1.24,3.92,3.54.23.92,1.4,2.53,3.56,1.85,1.42-.45,3.11.55,4.35,1.69.72.67,1.35,1.49,2.52,1.3.18,0,.26.08.25.25.15,2.13,2.45,5.21,4.28,5.73.89,1.91,1.74,3.83,1.75,5.99-1.4.08-2.51.19-1.9-1.99.41-1.46-.39-2.85-2.31-2.87-.79,0-1.48-.28-1.85-.93-1.59-2.81-4.3-4.47-6.55-6.61-1.15-1.09-2.15-1-3.38-.57-.3-.08-.59-.15-.89-.23.29-2.32-2.31-3.33-2.33-5.47-1.01.08-1.05,1.41-2.06,1.24Z"/>
    <path class="cls-8" d="m90.57,3.28c2.57.09,3.86,2.82,6.45,3.09.88.09,2.25-.07,2.87,1.12-2.9.1-5.79.18-8.69.32-1.07.05-1.69-.31-1.99-1.38-.53-1.89-2.11-1.77-2.85-.68-2.16,3.16-5.32,2.49-8.3,2.68-1.57.1-3.13.6-5.11.08,4.71-2.51,9.59-3.51,14.23-5.16.38.05.76.11,1.13.16.83.56,1.72,1.68,2.3-.23h-.06Z"/>
    <path class="cls-7" d="m132.08,21.27c-1.16.19-1.79-.63-2.52-1.3-1.23-1.14-2.92-2.14-4.35-1.69-2.16.68-3.33-.93-3.56-1.85-.57-2.3-2.09-2.9-3.92-3.54-.72-.25-1.29-.93-1.92-1.42-.12-.18-.24-.35-.35-.53.02-.16.01-.32-.02-.47,6.85,1.59,12.3,5.34,16.65,10.8Z"/>
    <path class="cls-6" d="m115.43,10.47c.03.16.04.31.02.47-2.7-.7-3.89,1.3-5.27,2.95-.41-1.98-1.93-2.78-3.66-2.95-1.26-.12-2.23-.46-3.07-1.34,0-.3,0-.6,0-.91,4.04.3,8.2-.19,11.99,1.78Z"/>
    <path class="cls-6" d="m139.83,39.77c-2-.48-2.04-2.11-1.81-3.58.15-.98.19-1.96.32-2.93,1.11,2.03,1.16,4.31,1.49,6.51Z"/>
    <path class="cls-7" d="m136.6,27.26c-1.83-.52-4.12-3.6-4.28-5.73,1.81,1.62,3.47,3.36,4.28,5.73Z"/>
    <path class="cls-10" d="m139.32,31.19c1.65,2.23,2.39,4.76,1.91,7.58-.64-2.53-1.27-5.05-1.91-7.58Z"/>
    <path class="cls-5" d="m139.65,60.58c-.56,1.1-1.1,2.22-1.69,3.3-.15.27-.47.45-1.07,1.01.34-2.12,1.41-3.41,2.05-4.86.24.18.48.37.71.55Z"/>
    <path class="cls-8" d="m100.37,7.46c.97-.88,1.93-2.03,3.05-.17-.19.13-.38.27-.57.4-.83-.08-1.65-.15-2.48-.23Z"/>
    <path class="cls-1" d="m90.63,3.28c-.58,1.91-1.47.79-2.3.23.77-.08,1.54-.15,2.3-.23Z"/>
    <path class="cls-9" d="m141.3,57.47c-.05-.19-.1-.35-.12-.51,0-.08.05-.16.08-.24.07.1.2.19.19.29,0,.14-.09.29-.15.46Z"/>
    <path class="cls-9" d="m140.51,60.01v-1.42c.74.65.23,1.01-.03,1.4,0,0,.03.02.03.02Z"/>
    <path class="cls-1" d="m131.93,17.86c.26.23.51.48.15.78-.07.06-.39-.18-.59-.29.15-.16.3-.33.44-.49Z"/>
    <path class="cls-1" d="m132.71,19.27c0,.05,0,.11-.01.16l-.29-.11c.05-.05.1-.12.17-.14.03-.01.09.06.14.09Z"/>
    <path class="cls-9" d="m168.88,153.5c-13.09,2.95-25.97,3.99-37.77-4.32-.37-.26-.69-.57-1.03-.86,1.94-2.06-.12-3.26-1-4.72,1.45-.08,2.89-.15,4.34-.25,6.13-.4,12.87-5.38,14.67-10.82.18-.27.35-.53.53-.8.12-.02.25-.04.37-.06-.12-.04-.24-.08-.36-.12-.31-2.18.23-4.53-1.32-6.45-1.44-1.44-2.86-.82-4.29.03-1.25-.09-.94-1.06-1.02-1.81-.23-2.06-.75-3.8-3.44-3.22-1.17.25-1.26-.5-1.39-1.4-.6-4.11-.62-4.11-4.71-3.47.26-1.54-1.28-2-1.95-3.04.68-.54,2.18-.32,1.45-1.92-.49-1.08-.04-1.57,1.25-2.19,1.61-.77,3.14-2.39,2.27-4.73.07-.24.14-.49.2-.73.43-.4,1.23-.71.29-1.4l-.06-.13.09-.12c1.27.05,2.2-.2,2.67-1.66.43-1.34,1.38-1.54,2.45-.38.97,1.05,2.43,1.87,3.6,1.07,2.09-1.43,3.86-2.88,6.75-2.21,3.38.79,5.44-3.08,8.84-3.1.62,0,1.63-.52,2.57-.7,1.07-.21,3.05-.23,3.4-2.02.77-3.87,2.89-7.64.93-11.72.08-.22.16-.44.24-.67,2.78-1.28,2.81-1.28,2.68,1.81-.03.65.16,1.32.71,1.16,2.05-.58,3.69-.93,5.31,1.28.51.7,2.01,1.11,2.45,2.38,1.08,3.1,3.87,4.63,6.32,6.2,1.93,1.24,3.37,2.15,2.55,4.65-.44,1.34-.22,2.16,1.28,2.95,3.25,1.71,3.5,3.93,1.08,6.5,2.68,1.96,2.68,3.12,1.69,6.23-.74,2.32-.93,5.02-.58,7.43.51,3.51,1.13,6.81-1.8,9.56-.35.33-.62.64-.65,1.13-.17,2.56-1.19,4.64-2.57,6.86-.77,1.24-1.9,3.17-1.82,5.11-.36,0-.72.02-1.07.03-.63-.77-.47-2.87-2.09-1.93-1.14.66-1.34,2.34-.53,3.75.34.59.83.9,1.51.91-.01.36-.02.71-.03,1.07-.45,0-1.04.16-1.33-.06-3.1-2.33-3.66.42-4.7,2.28-.23.41-.17,1.08-.89,1.11-1.09-2.5-1.03-2.43-3-.71-.48.42-.81,1.24-1.2,1.28-2.01.2-1.57,1.8-1.88,2.98Zm7.38-67.74c-.06-.15-.08-.39-.19-.44-.11-.05-.3.1-.45.15.06.15.08.39.19.44.11.05.3-.1.45-.16Z"/>
    <path class="cls-1" d="m169.96,71.43c.35-.16.7-.3,1.06-.02.14,1.61,1.13,2.82,1.93,4.11.54.86,1.31,1.53,2.39,1.57.3,0,.7-.21.89-.45.28-.36.02-.71-.38-.78-2.53-.46-2.57-3.03-3.86-4.53-.12-.65-.62-1.43.7-1.45,1.73-.02,3.46,0,5.08.66,6.54,2.63,12.53,6.03,16.61,12.06,5.96,9.82,7.61,20.64,6.64,31.81-.86,9.97-5.15,18.64-11.94,26.03-.03-.83-.05-1.65-.08-2.48,0,0,.01-.01.01-.01,2.98-1.78,2.95-4.67,2.82-7.61.56-3.15.62-6.41,2.19-9.32.92-1.52,0-1.94-1.29-2.14.08-1.07.16-2.14.25-3.22,1.24-.32.84-1.36.97-2.17.01-.21.03-.42.04-.64.48-.38.46-.73-.05-1.06-.16-.8-.97-1.62.25-2.35.99-.59.52-1.31,0-2.05-2.07-2.95-2.76-6.51-3.94-9.81-.82-2.3-1.82-4.26-3.54-5.89-2.45-2.31-5.22-4.34-7.39-6.88-3.06-3.59-6.3-6.73-10.96-8.06l1.59-5.31Z"/>
    <path class="cls-2" d="m132.46,115.22c4.09-.64,4.11-.64,4.71,3.47.13.9.22,1.64,1.39,1.4,2.7-.57,3.22,1.16,3.44,3.22.08.75-.22,1.72,1.02,1.81.15.21.3.43.45.64-.56.36-1.38.37-1.59,1.19-.42.25-.83.51-1.25.76-.59-.06-1.09-.25-1.38-.81.06-.12.1-.23.13-.36,2.21-.77,1.56-2.45,1.28-4.02-.14-.77-.44-1.48-1.33-1.32-1.17.21-2.63.21-2.61,2.01h-2.33c.11-.87.85-1.34,1.29-2.01,1.02-1.56.66-3.33-.17-4.63-.88-1.39-2.39-.27-3.39.28-4,2.18-6.55,5.61-8.03,9.87-.22.64-.06,1.74-1.07,1.5-.91-.21-.49-1.23-.4-1.89.16-1.18.73-2.34.26-3.67-4.22,3.3-5.35,8.43-3.13,13.54.64,1.47,1.39,2.93,3.35,2.49,1.96-.44.96-2.09.96-3.16-.01-5.16,1.06-6.33,6.1-6.27-.18.19-.35.39-.53.58-3.84.43-4.82,2.07-4.48,6.93.13,1.84.88,1.89,2.22,1.27.03.31.07.62.1.93-.56.64-2.35.4-1.47,2.06-.21.24-.43.48-.64.73q-1.38-2.03-3.74-1.29c.73.82,1.42,1.61,2.12,2.39-.04.42-.09.84-.13,1.25-1.35-1.36-2.71-2.71-4.06-4.07-2.43-3.68-4.85-7.36-7.28-11.05-2.15-5.3-4.47-10.55-4.97-16.35-.21-4.66-.61-9.31.13-13.96.09-.75.17-1.51.25-2.26.04-.32.09-.65.13-.97.18-3.03,2.06-5.43,2.97-8.2.53-.66,1.23-.62,1.96-.47-.88,2.13-2.74,3.81-2.9,6.27-.46.32-.53.75-.37,1.25-.15.17-.3.34-.44.5.1.07.19.13.29.2.04-.25.08-.49.12-.74.6-.08.61-.55.66-.99,2.11-2.57,3.39-5.8,6.28-7.73.3.47.74.89.61,1.54-.55.03-1.04.17-1.43.62-2.83,3.25-5.26,6.8-6.32,10.97-.68,2.66-.86,5.61,1.67,7.8.43.37,1.02.86.51,1.66-1.36.15-1.81-1.43-2.99-1.77.05,10.68,4.42,24.04,9.37,28.2-.21-3.79-.72-7.48,1.96-10.45,2.18-2.42,4.06-5.01,4.82-8.26.08-.34.44-.55.94-.31.3,1.11-.54,1.99-.79,3-.21.85-.29,1.76.51,2.2.87.49,1.23-.53,1.6-1.02,1.51-2,3.49-3.38,5.65-4.55Z"/>
    <path class="cls-6" d="m168.88,153.5c.31-1.18-.13-2.77,1.88-2.98.39-.04.72-.86,1.2-1.28,1.96-1.72,1.9-1.79,3,.71.72-.03.66-.7.89-1.11,1.03-1.86,1.6-4.61,4.7-2.28.29.22.88.05,1.33.06.04.24.07.47.1.71-3.78,3.28-8.35,4.91-13.09,6.17Z"/>
    <path class="cls-8" d="m123.71,142.88c-.7-.79-1.39-1.57-2.12-2.39q2.36-.74,3.74,1.29c.76,1.6,2.34,1.54,3.74,1.83.88,1.46,2.94,2.66,1,4.72-2.58-1.28-3.99-3.93-6.37-5.44Z"/>
    <path class="cls-9" d="m119.51,140.07c1.35,1.35,2.71,2.71,4.06,4.07.37.48.74.96,1.12,1.43-1.12-.05-2.02.13-1.63,1.61-.81-.67-1.48-1.57-2.68-1.63-.26-.01-.74-.17-.73-.22.34-2.86-2.68-3.34-3.7-5.23,0,0,.12-.11.12-.11,1.15.03,2.29.05,3.44.08Z"/>
    <path class="cls-7" d="m181.97,147.33c-.03-.24-.07-.47-.1-.71.01-.36.02-.71.03-1.07.77-.75.87-1.76,1.11-2.72.36,0,.72-.02,1.07-.03.76.09,1.2-.1,1.71-.85.96-1.41,1.46-3.24,3.21-4.02.03.83.05,1.65.08,2.48-1.98,2.71-4.23,5.14-7.12,6.91Z"/>
    <path class="cls-9" d="m131.79,151.42c-.27,1.62-1.74,1.36-2.77,1.77-.7-2.51-3.21-3.97-3.8-6.55,2.19,1.59,4.38,3.19,6.57,4.78Z"/>
    <path class="cls-9" d="m125.23,146.66c-.55-.19-.75-.55-.56-1.12.41.26.71.58.56,1.12Z"/>
    <path class="cls-1" d="m191.44,140.94c-.21.04-.43.07-.64.11.09-.17.18-.33.28-.5.13.12.25.25.37.39Z"/>
    <path class="cls-11" d="m46.64,115.61c1.52-.2,3.04-.41,4.56-.61-.16,1.37-.82,2.35-2.12,2.88-.33.14-.84.31-.89.56-.7,2.97-4.61,3.84-4.68,7.19-.01.53-.43.74-.86.92-3.66,1.48-6.47,4.25-9.62,6.48-1.65,1.17-3.36,2.12-5.41,2.31-.13-.32-.21-.87-.4-.92-3.91-.91-4.17-1.29-3.5-5.19.08-.47-.13-.87-.58-1.09,3.71-4.15,7.79-7.86,13.78-7.56,2.21.11,4.26.06,6.26-.71,1.9-.73,3.61-1.79,3.48-4.26Z"/>
    <path class="cls-7" d="m21.68,127.2c-1.97,2.26-3.33,4.93-4.92,7.45-.46.72-.99,1.39-1.91,1.25-1-.16-1.04-1.13-1.28-1.88-.78-2.44-.39-4.81.44-7.16,1.29-3.68,2.7-7.29,5.31-10.28,1.47.54,1.95,1.62,2.45,3.13.87,2.61-.44,5.01-.08,7.5Z"/>
    <path class="cls-11" d="m21.68,127.2c-.36-2.49.95-4.89.08-7.5-.5-1.51-.98-2.58-2.45-3.13.68-.96,1.68-1.8,1.25-3.2,1.51-.3,2.62.75,3.94,1.14-.11,2.02,1.04,2.95,2.86,3.16.81.09,1.45.36,2.19.75,1.73.91,1.4,1.61.04,2.33-3.07,1.63-5.42,4.12-7.9,6.45Z"/>
    <path class="cls-7" d="m23.12,128.15c.46.22.67.62.58,1.09-.67,3.9-.41,4.28,3.5,5.19.2.05.27.6.4.92-3.32,1.49-6.83,1.59-10.82,1.53,2.43-2.97,3.63-6.36,6.34-8.73Z"/>
    <path class="cls-10" d="m16.92,117.4c-1.38,2.27-2.66,4.6-3.81,7.01.08-2.98.86-5.65,3.38-7.53.14.18.28.35.43.52Z"/>
    <path class="cls-2" d="m58.29,113.58c.14.06.27.12.41.18-.18.02-.31-.04-.41-.18Z"/>
    <path class="cls-10" d="m17.85,116.15c.02-.07.03-.15.05-.22-.03.06-.05.12-.08.18,0,0,.03.03.03.03Z"/>
    <path class="cls-10" d="m17.02,116.4c.28-.08.56-.17.83-.25,0,0-.03-.03-.03-.03-.15.22-.29.44-.44.65-.12-.13-.24-.25-.37-.37Z"/>
    <path class="cls-10" d="m17.38,116.77c-.15.21-.31.42-.46.63-.14-.17-.28-.35-.43-.52.17-.16.35-.32.52-.47.13.12.25.24.36.37Z"/>
    <path class="cls-9" d="m74.95,177.15c2.14-1.5,4.16-2.96,4.15-6.07,0-1.12,1.43-1.95,2.37-2.77,1.78-.15,3.66.85,5.33-.52.14-.12.6-.13.66-.03,1.84,2.98,4.52,1.05,6.78,1.04,1.38,0,2.05-1.53,1.67-2.8-.94-3.12.63-5.67,1.62-8.33.34-.92,1.1-.8,1.48.17.26.66.33,1.5.78,1.97.61.62,1.7,1.25,2.42.82,1.21-.71-.21-1.33-.49-1.93-.64-1.41-.82-2.87-.26-4.21.55-1.33,1.37-2.42.18-3.84-.46-.54-.11-1.23.65-1.45,2.26-.65,5.53.89,5.93,3.15.53,2.97,3.5,3.49,4.94,5.51.45.63,1.24-.37,1.88-.62,1.26-.48,2.54-.92,3.83-1.29,1.31-.37,2.9-2.26,3.51,1.07.15.82,3.25,1.1,5,1.63.3,1.78-.62,2.78-2.15,3.4-1.77-.19-2.24.54-1.69,2.61,1,3.8-.22,6.99-3.4,8.85.4.69,1.07.86,1.79.94.24,2.18-2.53,3.29-2,5.58-9.06,10.16-20.37,15.43-34.02,15.57.91-1.98-.07-4.34-.84-5.42-1.29-1.8-2.06-3.7-3.03-5.59-1.13-2.21-1.63-4.99-4.61-5.86-.91-.27-1.67-1.04-2.5-1.58Z"/>
    <path class="cls-6" d="m74.95,177.15c.83.54,1.59,1.31,2.5,1.58,2.98.87,3.47,3.64,4.61,5.86.97,1.89,1.74,3.8,3.03,5.59.78,1.08,1.75,3.43.84,5.42-7.07.53-14.08.68-20.46-3.23-4.04-2.48-7.28-5.87-10.53-9.25.07-1.26,1.05-1.11,1.78-.98,4.45.81,6.77-.17,9.14-3.93.13-.21.39-.35.59-.52,2.92,1.17,5.7.09,8.5-.54Z"/>
    <path class="cls-6" d="m121.95,174.44c-.72-.08-1.39-.25-1.79-.94,3.18-1.86,4.4-5.04,3.4-8.85-.55-2.08-.08-2.8,1.69-2.61,1.06,2.63-.22,5.43.56,8.08,0,0,.01,0,0,0-.47.42-1.08.8-.57,1.58-.15.37-.29.75-.44,1.12-1.34-.14-2.21.54-2.86,1.63Z"/>
    <path class="cls-7" d="m125.81,170.12c-.77-2.65.51-5.45-.56-8.08,1.53-.62,2.45-1.62,2.15-3.4,0-1.3-.55-2.61.1-3.89.78,5.27.75,10.45-1.69,15.36Z"/>
    <path class="cls-7" d="m121.95,174.44c.65-1.08,1.52-1.77,2.86-1.63-1.12,2.74-2.55,5.27-4.86,7.2-.53-2.29,2.24-3.39,2-5.58Z"/>
    <path class="cls-2" d="m52.83,182.52c-.03-.34-.06-.68-.09-1.02,1.06.05,1.34.89,1.69,1.66-.53-.22-1.07-.43-1.6-.65,0,0,0,0,0,0Z"/>
    <path class="cls-7" d="m125.25,171.7c-.52-.78.09-1.16.57-1.58-.07.57-.06,1.17-.57,1.58Z"/>
    <path class="cls-9" d="m123.6,147.81c-.18-.21-.36-.42-.54-.63.18.21.36.42.54.63Z"/>
    <polygon class="cls-6" points="52.83 182.52 52.82 182.52 52.7 182.64 52.83 182.52"/>
    <path class="cls-7" d="m41.23,35.94c1.46,3.04-.38,6.01-.25,9.03.02.43-.81.89-1.23,1.35-.93,1.01-2.39,1.89-.91,3.54.11.12.19.44.13.5-2.09,2.02.18,3.22.78,4.81.64,1.71-.49,2.96-1.81,3.95-1.92-8.16-1.74-16.01,3.3-23.18Z"/>
    <path class="cls-5" d="m71.23,7.94c-.18,1.31,1.02,1.27,1.71,1.74-7.07.87-12.98,4.01-17.93,9.06l.02.24c.25.2.51.41.76.61-.29.12-.58.24-.87.36-.66.38-1.45.6-1.76,1.42-.87-.16-1.64-.07-2.05.86-.93.75-1.31,1.85-1.82,2.87-.77,0-1.01-.54-1.19-1.15,6.22-7.48,13.33-13.67,23.12-16Z"/>
    <path class="cls-9" d="m47.26,26.73c-.83,6.63.09,13.44-1.68,20.41-1.46-1.56-1.35-3.14-1.38-4.47-.1-3.59-.55-7.16.09-10.82.4-2.32,1.48-3.71,2.99-5.11l-.02-.02Z"/>
    <path class="cls-7" d="m38.09,60.51c1.47.04,2.99-.25,3.51,1.85.49,2-.58,2.9-2.02,3.72-.9-1.75-1.33-3.63-1.49-5.57Z"/>
    <path class="cls-9" d="m47.27,26.75c.03-.07.04-.15.09-.2.02-.03.09-.02.14-.03-.08.07-.17.14-.25.21,0,0,.02.02.02.02Z"/>
    <path class="cls-6" d="m71.19,5.14c.8-.21,1.58-.18,2.35.14,0,0,.03.03.03.03-.08.09-.16.18-.24.27-.81.34-1.68.97-2.13-.44Z"/>
    <path class="cls-6" d="m74.48,6.04c-.33.24-.66.49-.98.73-.06-.4-.11-.79-.17-1.19.08-.08.17-.17.24-.27,0,0,.2-.08.2-.08.26-.09.51-.17.77-.26-.02.36-.04.71-.06,1.07Z"/>
    <path class="cls-7" d="m38.55,150.47c.04-.07.08-.14.11-.21-.04.06-.09.13-.13.19,0,0,.02.02.02.02Z"/>
    <path class="cls-4" d="m160.22,69.61c1.61-.06,3.2-.6,4.84-.31,0,.3,0,.61-.01.91-.97.19-1.93.52-2.9.52-1.74.02-1.9.91-1.5,2.26-.1.24-.19.48-.29.71-1.37.41-.45,1.59-.79,2.35-1.02,0-.75-1.36-1.62-1.53-.12-.57.01-1.25-.67-1.58-.01-.85.04-1.57-1.3-1.22-1.8.47-3.61,1.02-5.51.94-.08-.39-.16-.78-.24-1.17,2.51-.46,5.03-.92,7.54-1.39,1.09,1.14,1.98,1.36,2.45-.51Z"/>
    <path class="cls-7" d="m160.65,72.99c-.4-1.35-.24-2.24,1.5-2.26.97,0,1.93-.34,2.9-.52,1.09-.03,2.18-.09,3.26-.1,1,0,.91.6.66,1.27-.45.92-.9,1.84-1.35,2.75-1.17.12-2.1-.44-2.93-1.14-1.37-1.15-2.7-1.23-4.05,0Z"/>
    <path class="cls-4" d="m167.63,74.13c.45-.92.9-1.83,1.35-2.75.33.02.66.04.98.05-.53,1.77-1.06,3.54-1.59,5.31-.99.72-.44,1.94-.93,2.82-.08.22-.16.44-.24.67-.13.01-.26,0-.39-.01-.22-.22-.43-.43-.65-.65-.05-.19-.1-.38-.15-.57.54-1.62,1.08-3.25,1.61-4.87Z"/>
    <path class="cls-4" d="m171.99,71.33c1.3,1.5,1.34,4.06,3.86,4.53.4.07.66.42.38.78-.19.24-.59.46-.89.45-1.09-.03-1.86-.71-2.39-1.57-.81-1.28-1.79-2.5-1.93-4.11.32-.03.65-.06.97-.09Z"/>
    <polygon class="cls-9" points="73.77 5.23 73.57 5.31 73.54 5.28 73.64 5.18 73.77 5.23"/>
    <path class="cls-9" d="m107.26,112.67c.5,5.8,2.83,11.05,4.97,16.35-1.28,1.1-1.11,1.97-.08,3.36,1.68,2.29,3.14,4.8,3.93,7.61,0,0-.12.11-.12.11-.31-.15-.78-.23-.91-.48-1.35-2.67-3.44-2.22-6.34-.92,1.18-1.34,2.29-2.24.31-2.75-.67-.17-.5-1.06-.7-1.63-.94-2.69-.99-5.78-3.41-7.84-.18-.16-.39-.53-.32-.7,1.54-3.86-2.25-7.11-1.23-10.91,1.81.17,2.93-.9,3.91-2.2Z"/>
    <path class="cls-8" d="m132.46,115.22c-2.16,1.17-4.14,2.55-5.65,4.55-.37.49-.73,1.51-1.6,1.02-.8-.45-.72-1.35-.51-2.2.24-1.01,1.08-1.89.79-3-.49-.24-.86-.03-.94.31-.76,3.25-2.64,5.84-4.82,8.26-2.69,2.98-2.17,6.67-1.96,10.45-4.95-4.16-9.31-17.52-9.37-28.2,1.17.35,1.63,1.92,2.99,1.77.5-.8-.09-1.29-.51-1.66-2.52-2.19-2.35-5.14-1.67-7.8,1.06-4.17,3.5-7.72,6.32-10.97.4-.46.88-.59,1.43-.62.08,1.15.15,2.3.23,3.46-.17,3.9-.09,7.79.49,11.65.33,2.21,1.2,4.17,2.91,5.69,2.25,2,4.57,1.28,5.18-1.63.17-.8.32-1.61.34-2.42.21-8.06.48-16.12,1.83-24.09.51-.38.94-1.03,1.72-.55.25,4.93.44,9.87.78,14.8.18,2.61.87,5.14,1.87,7.56.55,1.34,1.22,2.79,3.17,1.76.87,2.35-.65,3.96-2.27,4.73-1.29.62-1.73,1.11-1.25,2.19.72,1.6-.77,1.37-1.45,1.92.68,1.04,2.21,1.49,1.95,3.04Z"/>
    <path class="cls-2" d="m135.47,103.34c-1.95,1.03-2.62-.42-3.17-1.76-1-2.42-1.69-4.96-1.87-7.56-.34-4.93-.53-9.87-.78-14.8.24-.04.48-.07.72-.11,1.16,4.87.78,9.88,1.26,14.81.28,2.93,1.07,5.65,2.15,8.29.39-.06.78-.11,1.18-.17,0-4.23,0-8.46,0-12.68,0-4.31.03-8.61,1.01-12.87-1.63-.27-2.75.88-4.12.78-.18-.17-.35-.35-.53-.52,1.52-1.66,4.42-.68,5.64-2.93.41-.59.79-1.2,1.23-1.77.54-.7.99-1.72,2.04-1.48.81.19.74,1.14.79,1.85.05.71.27,1.38,1.09,1.14,2.45-.74,5.24-.6,7.22-2.63.3.19.6.38.91.58.08.39.16.78.24,1.17-.03.64-.07,1.28-.1,1.92.18.97.4,1.93.52,2.9.53,4.12,1.01,8.24,1.56,12.35.09.68.31,1.61,1.13,1.65.94.05.96-.96,1.08-1.59.83-4.34,1.55-8.69,1.64-13.12l.96-3.81c.69.33.55,1.01.67,1.58-.58,4.59-1.05,9.2-1.79,13.76-.28,1.74-.07,4.61-2.4,4.57-2.49-.05-2.58-2.86-2.84-4.91-.49-3.93-.91-7.86-1.38-12.04-.96.91-.85,1.95-1.01,2.88-.82,4.65-.81,9.41-1.95,14.01-.33,1.33-.87,2.53-2.46,2.4-1.43-.11-2.63-.82-3.03-2.34-.23-.87-.35-1.78-.4-2.68-.23-4.08-.37-8.16-.65-12.24-.06-.87.63-2.3-.75-2.51-1.32-.2-2.09.83-2.26,2.2-.1.81-.36,1.59-.47,2.4-.94,6.96-.39,13.95-.56,20.93l-.09.12s.06.13.06.14c-.41.4-.41.89-.29,1.4-.07.24-.14.49-.2.73Zm7.32-28.6c-1.24-.1-1.56.62-1.51,1.68.25,5.06.49,10.11.75,15.17.06,1.21.61,2.15,1.9,2.26,1.41.12,1.52-1.06,1.65-2.03.7-5.18,1.36-10.37,2.03-15.56.31-.91,1-2,.2-2.72-.64-.58-1.65.2-2.48.42-.85.23-1.69.51-2.54.77Z"/>
    <path class="cls-8" d="m117.88,90.57c-.91-6.76,4.29-8.56,8.84-10.88-.3,2.15-.72,4.3-.86,6.47-.41,6.15-.7,12.31-1.07,18.46-.07,1.12.21,2.56-1.3,2.98-1.6.45-2.53-.66-3.29-1.85-1.16-1.81-1.5-3.85-1.63-5.96-.19-3.07-.45-6.14-.68-9.2Z"/>
    <path class="cls-8" d="m131.85,77.27c1.37.1,2.49-1.05,4.12-.78-.98,4.26-1.01,8.57-1.01,12.87,0,4.23,0,8.46,0,12.68-.39.06-.78.11-1.18.17-1.07-2.64-1.86-5.36-2.15-8.29-.47-4.93-.1-9.94-1.26-14.81-.05-1.05.75-1.42,1.47-1.84Z"/>
    <path class="cls-2" d="m117.88,90.57c.23,3.07.49,6.13.68,9.2.13,2.11.47,4.15,1.63,5.96.76,1.19,1.69,2.29,3.29,1.85,1.5-.42,1.23-1.85,1.3-2.98.37-6.15.66-12.31,1.07-18.46.15-2.16.57-4.31.86-6.47.41.03.81.06,1.22.09-1.35,7.98-1.62,16.03-1.83,24.09-.02.81-.17,1.62-.34,2.42-.62,2.92-2.93,3.63-5.18,1.63-1.71-1.52-2.58-3.48-2.91-5.69-.58-3.86-.66-7.75-.49-11.65.23,0,.47,0,.7-.01Z"/>
    <path class="cls-6" d="m71.84,91c2.32-.04,3.22-2,4.52-3.39.67-.71,1.22-1.53,1.83-2.3,1.24,1.35,3.6,1.94,3.02,4.55-.06.26.56.99.76.95,3-.52,5.21,2.21,8.13,1.9-7.11,1.57-14.1,1.65-20.84-1.58.86-.04,1.72-.09,2.58-.13Z"/>
    <path class="cls-8" d="m108.41,86.92c-.16-1.21-.19-2.36,1.28-2.85.17-.06.44-.13.47-.24.85-3.84,5.56-3.93,6.94-6.73,1.84-3.74,4.47-2.59,7.16-2.35-5.14,4.24-9.46,9.56-15.85,12.18Z"/>
    <path class="cls-6" d="m149.33,70.92c-1.98,2.03-4.76,1.89-7.22,2.63-.83.25-1.04-.43-1.09-1.14-.05-.71.02-1.66-.79-1.85-1.05-.24-1.51.79-2.04,1.48-.44.57-.82,1.18-1.23,1.77-.87-1.3-2.3-1.24-3.61-1.46,0-.52.14-.95.71-1.09.82.28,1.77,1.04,2.48.21,2.54-2.96,5.81-1.25,8.72-1.34,1.26-.04,2.91-.38,4.07.79Z"/>
    <path class="cls-4" d="m71.84,91c-.86.04-1.72.09-2.58.13,0,0,0-.01,0-.01-1.48-1.1-2.73-2.43-3.65-4.03-.61.68-1.13,1.27-1.66,1.86-.35-.08-.7-.15-1.06-.23.11-.24.17-.55.35-.72,1.07-.97.98-3.26,2.46-3.29,1.43-.03,1.21,2.16,2.06,3.2,1.06,1.29,2.3,2,3.98,1.95.03.38.06.77.1,1.15Z"/>
    <path class="cls-8" d="m133.34,72.36c1.31.21,2.74.15,3.61,1.46-1.21,2.26-4.11,1.27-5.63,2.93-1.31.03-2.53-.03-.96-1.64.94-.97,1.99-1.83,2.99-2.75Z"/>
    <path class="cls-8" d="m109.8,93.09c.16-2.46,2.02-4.14,2.9-6.27,1.21-.85,2.11-2.24,3.8-2.3l-.02-.02c-.05.36-.1.72-.15,1.09-2.89,1.93-4.18,5.17-6.28,7.73-.09-.08-.17-.15-.26-.23Z"/>
    <path class="cls-6" d="m63.95,88.94c.52-.59,1.05-1.17,1.66-1.86.93,1.61,2.17,2.93,3.65,4.03-1.84-.55-3.93-.49-5.31-2.18Z"/>
    <path class="cls-8" d="m129.06,73.63c-1.04,1.88-2.89,2.7-4.74,3.54,1.12-1.74,2.44-3.22,4.6-3.66l.13.12Z"/>
    <path class="cls-2" d="m127.33,77.89c.14-.61.33-1.19,1.05-1.31.31-.05.5.15.43.47-.17.7-.75.88-1.37.98l-.11-.13Z"/>
    <path class="cls-2" d="m127.43,78.02c-.23.23-.47.45-.7.68-.08-.11-.15-.21-.23-.32.27-.16.55-.33.82-.49,0,0,.11.13.11.13Z"/>
    <path class="cls-8" d="m116.5,84.52c.18-.13.36-.26.54-.39l.12.21c-.23.05-.45.11-.68.16,0,0,.02.02.02.02Z"/>
    <path class="cls-8" d="m128.93,73.51c.05-.25.22-.5.43-.28.23.24-.07.35-.29.4,0,0-.13-.12-.13-.12Z"/>
    <path class="cls-11" d="m46.19,95.43c-.08.07-.17.15-.25.22.07-.08.15-.17.22-.25,0,0,.03.03.03.03Z"/>
    <path class="cls-4" d="m65.36,109.96c-1.69,1.04-3.45,1.87-5.49,1.85.48-1.46.84-3.18,2.47-3.62,1.25-.33,2.4.5,3.02,1.77Z"/>
    <path class="cls-6" d="m68.11,176.55c-.49-2.05,1.4-4.23,1.12-5.32-.76-3.01.12-5.37,1.17-7.85.67-1.58,1.1-2.99-.34-4.33,1.3-2.64,3.68-4.5,4.94-3.86,1.02.51.76,4.74-.38,6.61-.35.58-1.28,1.21-.6,1.86.88.83,1.39-.27,1.89-.79.78-.81,1.73-1.33,2.75-1.71.99-.37,2.26-1.28,3.03-.52.89.89.65,2.44.09,3.6-1.35,2.78-2.89,5.41-6.02,6.66-.73.29-2.62.56-.91,2.11.21.63.84,1.12.65,1.89-2.24,1.57-4.73,1.98-7.4,1.65Z"/>
    <path class="cls-8" d="m75.51,174.89c.18-.77-.44-1.26-.65-1.89.76-.04,1.4-.74,2.28-.42.19,1.31-.65,1.86-1.63,2.31Z"/>
    <path class="cls-8" d="m44.93,141.33c-.06.01-.15.06-.18.03-.05-.04-.06-.13-.09-.2.1-.02.21-.04.31-.06-.01.08-.03.15-.04.23Z"/>
    <path class="cls-4" d="m107.78,95.49c-.04.32-.09.65-.13.97-.3-.37-.2-.69.13-.97Z"/>
    <path class="cls-8" d="m92.93,34.43c1.27-5.83,2.27-11.73,4.07-17.43.54-1.72,1.33-3.37,2.12-5,.51-1.04,1.21-2.43,2.48-2.17,1.34.28.74,1.82.8,2.82.26,4.25.42,8.5.63,12.75.05.97-.1,2.23,1.13,2.5,1.42.31,1.73-1.07,2.17-2,1.85-4.01,2.82-8.43,5.6-12.01,1.32,1.01,2.29,2.48,4.01,2.96.52,1.4,1.36,2.6,2.33,3.72-.48.41-.98.79-1.43,1.22-1,.95-2.89,1.63-.36,3.23,1.38.87.69,2.77-.96,3.39-.17.06-.43.06-.5.18-2.3,3.69-6.44,2.69-9.73,3.59-2.98.81-5.97,1.18-8.25,3.56-.58.61-1.45.01-1.94-.46-.64-.61-1.25-1.02-2.15-.84Z"/>
    <path class="cls-8" d="m79.41,38.17c1.34-7.95,1.84-16.04,3.7-23.91.33-1.4.83-2.78,1.43-4.1.63-1.41,2.03-.93,3.14-.93,1.21,0,1.05,1.03,1.08,1.81.31,7.97,1.02,15.94.55,23.93-2.16.02-4.32-.06-6.47.09-1.13.08-2.01.89-1.98,2.1.03,1.27-.83.87-1.45,1Z"/>
    <path class="cls-8" d="m60.71,36c1.25-6.93,2.53-13.85,5.73-20.22.28-.56.6-1.12,1-1.6.46-.54.97-1.21,1.78-1.01.75.19.7,1.04.77,1.58.71,6.17,1.44,12.35,1.26,18.58-1.37-.58-2.74-1.13-4.1-1.73-2.31-1.04-3.58-.26-3.57,2.14,0,1.88-1.17,2.45-2.86,2.26Z"/>
    <path class="cls-8" d="m53.16,21.36c.3-.82,1.09-1.04,1.76-1.42,1.05,2.29.9,4.78,1.07,7.19.25,3.33.28,6.67.4,10.01-3.32-.31-4.62-3.44-7.45-5.1,1.1-.41,1.88-.7,2.65-.99.64.18,1.32,1.03,1.92.2.42-.59-.42-.83-.75-1.2-1.06-1.18-1.09-2.53-.87-4.05.23-1.62,1.4-2.96,1.27-4.65Z"/>
    <path class="cls-4" d="m53.16,21.36c.13,1.69-1.04,3.03-1.27,4.65-.21,1.51-.18,2.86.87,4.05.33.37,1.17.62.75,1.2-.6.83-1.28-.02-1.92-.2-1.33-2-1.33-4.12-.74-6.37.2-.78,1.01-1.57.26-2.47.41-.93,1.18-1.02,2.05-.86Z"/>
    <path class="cls-8" d="m55.78,19.59c-.25-.2-.51-.41-.76-.61,0,0,.06-.13.06-.13l-.09-.11c4.95-5.05,10.87-8.19,17.93-9.06,2.88.22,5.75,0,8.62-.22.68-.05,2.04-.51,1.49.96-2.04,5.45-2.22,11.25-3.43,16.85-.39.14-.83.27-.86.74,0,.1.5.23.76.34-.04.4-.07.81-.11,1.21-1.75-.45-3.79,1.79-5.32-.58-.7.6-.44,1.75-1.3,2.25-.71-3.75-.87-7.55-1.02-11.35-.09-2.19-.4-4.33-.86-6.46-.4-1.83-1.32-2.21-2.92-1.22-1.13.7-1.79,1.73-2.47,2.82-2.59,4.19-3.55,8.89-4.5,13.61-.8,3.96-1.78,7.89-3.27,11.8-.26-5.14-.49-10.27-.78-15.41-.11-1.86.14-3.82-1.17-5.43Z"/>
    <path class="cls-8" d="m99.85,8.93c-5.86,7.65-5.49,17.26-9.01,25.73-.07-.81-.24-1.63-.21-2.44.26-6.98-.32-13.92-.81-20.87-.11-1.57.25-2.44,1.95-2.43,2.62.01,5.23,0,8.08,0Z"/>
    <path class="cls-9" d="m72.78,31.23c.87-.5.61-1.66,1.3-2.25,1.53,2.37,3.57.13,5.32.58-.32,3.34-.71,6.66-1.63,9.89-.31,1.06-.51,2.56-2.06,2.48-1.5-.08-1.61-1.55-1.89-2.64-.68-2.63-1.18-5.3-1.04-8.05Z"/>
    <path class="cls-8" d="m103.45,9.61c.84.88,1.82,1.22,3.07,1.34,1.73.17,3.25.97,3.66,2.95-1.75,4.03-3.5,8.06-5.25,12.09-.21-.02-.42-.04-.63-.06-.28-5.44-.56-10.89-.85-16.33Z"/>
    <path class="cls-9" d="m117.07,15.82c1,.17,1.05-1.16,2.06-1.24.02,2.14,2.62,3.15,2.33,5.47-3.01.19-3.94-1.77-4.39-4.23Z"/>
    <path class="cls-9" d="m115.93,16.85c-1.71-.48-2.69-1.95-4.01-2.96.47-1.01,1.06-2.11,2.29-1.91,1.03.17.87,1.45,1.15,2.25.29.84.38,1.74.56,2.62Z"/>
    <path class="cls-9" d="m79.52,28.35c-.27-.11-.77-.24-.76-.34.03-.47.47-.6.86-.74-.03.36-.06.72-.1,1.08Z"/>
    <path class="cls-2" d="m160.22,69.61c-.47,1.87-1.36,1.65-2.45.51.79-.3.9-3.87,2.45-.51Z"/>
    <path class="cls-8" d="m135.99,100.96c.17-6.98-.38-13.98.56-20.93.11-.81.37-1.59.47-2.4.18-1.37.94-2.4,2.26-2.2,1.39.21.7,1.64.75,2.51.28,4.07.42,8.16.65,12.24.05.9.17,1.81.4,2.68.4,1.52,1.6,2.23,3.03,2.34,1.59.12,2.13-1.08,2.46-2.4,1.14-4.6,1.13-9.36,1.95-14.01.16-.93.05-1.97,1.01-2.88.47,4.18.89,8.12,1.38,12.04.26,2.05.35,4.86,2.84,4.91,2.33.05,2.12-2.82,2.4-4.57.73-4.56,1.21-9.17,1.79-13.76.86.17.59,1.53,1.62,1.53.12,2.6.17,5.21,1.02,7.72.4,1.17.97,2.16,2.35,2.27,1.3.11,1.91-.8,2.43-1.79.67-1.28,1.24-2.6,1.45-4.04.13.02.26.02.39.01,1.95,4.09-.17,7.86-.93,11.73-.35,1.78-2.33,1.81-3.4,2.02-.94.19-1.95.7-2.57.7-3.4.03-5.46,3.89-8.84,3.1-2.89-.67-4.66.78-6.75,2.21-1.17.79-2.62-.02-3.6-1.07-1.07-1.16-2.02-.96-2.45.38-.47,1.46-1.4,1.72-2.67,1.66Z"/>
    <path class="cls-6" d="m167.44,79.57c.49-.88-.07-2.1.93-2.82,4.66,1.33,7.89,4.48,10.96,8.06,2.17,2.54,4.94,4.57,7.39,6.88,1.72,1.62,2.72,3.59,3.54,5.89,1.18,3.3,1.87,6.86,3.94,9.81.52.74.99,1.45,0,2.05-1.22.73-.4,1.55-.25,2.35-.69.39-.56.74.05,1.06-.01.21-.03.42-.05.64-1.13.37-1.17,1.22-.97,2.17-.08,1.07-.16,2.14-.24,3.22-1.03,1.59.47,1.66,1.29,2.14-1.57,2.91-1.63,6.17-2.19,9.32-1.46,2.34-1.67,5.15-2.82,7.61,0,0-.01.01-.01.01-1.76.78-2.26,2.61-3.21,4.02-.51.75-.95.94-1.71.85-.09-1.94,1.04-3.87,1.82-5.11,1.38-2.22,2.4-4.3,2.57-6.86.03-.49.3-.81.65-1.13,2.94-2.75,2.31-6.05,1.8-9.56-.35-2.41-.16-5.11.58-7.43.99-3.1.99-4.26-1.69-6.23,2.42-2.57,2.17-4.79-1.08-6.5-1.49-.78-1.71-1.61-1.28-2.95.82-2.5-.62-3.41-2.55-4.65-2.46-1.58-5.24-3.11-6.32-6.2-.44-1.27-1.94-1.68-2.45-2.38-1.62-2.21-3.26-1.86-5.31-1.28-.54.15-.73-.51-.71-1.16.13-3.09.1-3.09-2.68-1.81Z"/>
    <path class="cls-4" d="m129.08,143.59c-1.41-.29-2.98-.23-3.74-1.83.22-.24.43-.48.65-.73,3.17,1.99,6.47,1.05,9.75.44,3.5-.82,6.31-2.73,8.57-5.49,1.37-.83,1.9-2.32,2.8-3.52.33.02.66.04.99.06-1.8,5.44-8.54,10.41-14.67,10.82-1.45.1-2.89.17-4.34.25Z"/>
    <path class="cls-6" d="m183.01,142.84c-.24.96-.34,1.98-1.11,2.72-.68,0-1.17-.31-1.51-.91-.8-1.41-.6-3.09.53-3.75,1.62-.94,1.45,1.17,2.09,1.93Z"/>
    <path class="cls-2" d="m148.09,132.53c-.33-.02-.66-.04-.99-.06.15-1.25.56-2.5-.06-3.73.22-1.05.03-2.06-.3-3.05.19-.2.38-.4.57-.59,1.55,1.92,1.01,4.28,1.32,6.46,0,0,0,.18,0,.18-.18.27-.35.53-.53.8Z"/>
    <path class="cls-2" d="m143.02,125.12c1.42-.85,2.85-1.47,4.29-.03-.19.2-.38.39-.57.59-1.1-.52-2.18-.05-3.26.08-.15-.21-.3-.43-.45-.64Z"/>
    <path class="cls-6" d="m176.26,85.76c-.15.06-.35.2-.45.16-.11-.05-.13-.28-.19-.44.15-.06.34-.2.45-.15.11.05.13.28.19.44Z"/>
    <path class="cls-8" d="m135.68,102.61c-.12-.51-.12-1,.29-1.4.94.68.13,1-.29,1.4Z"/>
    <path class="cls-4" d="m148.62,131.73s0-.19,0-.18c.12.04.24.08.36.12-.12.02-.25.04-.37.06Z"/>
    <path class="cls-7" d="m189.02,137.93c1.14-2.46,1.35-5.27,2.82-7.61.14,2.93.16,5.83-2.82,7.61Z"/>
    <path class="cls-7" d="m194.03,121c-.82-.48-2.31-.55-1.29-2.14,1.29.19,2.2.61,1.29,2.14Z"/>
    <path class="cls-7" d="m192.99,115.65c-.2-.96-.16-1.81.97-2.17-.13.81.26,1.86-.97,2.17Z"/>
    <path class="cls-7" d="m194,112.84c-.61-.33-.74-.67-.05-1.06.51.33.53.68.05,1.06Z"/>
    <path class="cls-8" d="m130.15,129.26c-5.03-.06-6.11,1.11-6.1,6.27,0,1.07,1,2.72-.96,3.16-1.96.44-2.71-1.02-3.35-2.49-2.22-5.11-1.09-10.24,3.13-13.54.48,1.34-.1,2.49-.26,3.67-.09.65-.51,1.68.4,1.89,1.01.24.85-.87,1.07-1.5,1.48-4.26,4.04-7.69,8.03-9.87,1.01-.55,2.51-1.67,3.39-.28.82,1.3,1.18,3.07.17,4.63-.44.67-1.18,1.14-1.29,2.02-1.3.74-1.62,2.2-2.43,3.29-1.53.35-1.27,1.55-1.25,2.64-.18.03-.37.07-.55.1Z"/>
    <path class="cls-6" d="m135.74,141.48c-3.29.62-6.59,1.55-9.75-.44-.87-1.66.91-1.42,1.47-2.06,2.47-.49,3.82-2.12,4.48-4.45.89,2.52,1.07,5.43,3.8,6.94Z"/>
    <path class="cls-6" d="m147.04,128.74c.63,1.23.22,2.48.06,3.73-.9,1.2-1.43,2.69-2.8,3.52,0-3.07-2.86-4.47-4.03-6.85.12-.47.24-.95.36-1.42.42-.25.83-.51,1.25-.76,1.76.49,2.58,3.66,5.16,1.78Z"/>
    <path class="cls-8" d="m116.08,139.99c-.78-2.81-2.24-5.32-3.93-7.61-1.03-1.4-1.2-2.26.08-3.36,2.43,3.68,4.85,7.36,7.28,11.05-1.15-.03-2.29-.05-3.44-.08Z"/>
    <path class="cls-8" d="m127.35,138.05c-1.34.62-2.1.57-2.22-1.27-.33-4.86.65-6.51,4.48-6.94.15.53.3,1.06.44,1.58-.42.16-.85.3-1.27.47-2.01.84-1.57,3.07-2.49,4.55-.33.53.81.71,1.31,1-.08.2-.17.4-.25.6Z"/>
    <path class="cls-2" d="m131.95,126.52c.82-1.09,1.13-2.56,2.43-3.3.78,0,1.55,0,2.33-.01.14,0,.28.02.41.06-.66,1.29-1.32,2.59-1.97,3.88-.09.06-.13.15-.14.26-.99.51-1.59,2.13-2.87,1.57-.87-.38-.28-1.6-.18-2.46Z"/>
    <path class="cls-4" d="m127.35,138.05c.08-.2.17-.4.25-.6,3.13-1.07,2.7-3.58,2.45-6.02-.15-.53-.3-1.06-.44-1.58.18-.19.35-.39.53-.58.18-.03.37-.07.55-.1.4,1.15.79,2.31,1.19,3.46.02.64.03,1.27.05,1.91-.66,2.33-2.01,3.95-4.48,4.45-.03-.31-.07-.62-.1-.93Z"/>
    <path class="cls-9" d="m147.04,128.74c-2.57,1.88-3.4-1.3-5.16-1.78.21-.82,1.03-.83,1.59-1.19,1.09-.13,2.16-.6,3.26-.08.33,1,.52,2,.3,3.06Z"/>
    <path class="cls-2" d="m140.63,127.72c-.12.47-.24.95-.36,1.42-.81.79-1.59,1.61-2.44,2.37-.56.5-1.32.82-1.92.22-.56-.55-.43-1.37.05-1.95.74-.89,1.59-1.68,2.4-2.52.3-.11.59-.23.89-.34.29.56.8.75,1.38.81Z"/>
    <path class="cls-8" d="m136.72,123.22c-.02-1.81,1.44-1.81,2.61-2.01.9-.16,1.2.55,1.33,1.32.28,1.57.93,3.25-1.28,4.02-.15-.45-.48-.67-.94-.71-.05-.14-.1-.28-.16-.41-.12-.86.63-2.19-1.16-2.15-.13-.04-.27-.06-.41-.06Z"/>
    <path class="cls-6" d="m138.44,125.84c.46.04.79.26.94.71-.03.13-.07.25-.13.36-.3.11-.59.23-.89.34.02-.47.05-.94.07-1.41Z"/>
    <path class="cls-8" d="m109.4,94.31c-.04.25-.08.49-.12.74-.1-.07-.19-.13-.29-.2.15-.17.3-.34.44-.5,0,0-.04-.03-.04-.03Z"/>
    <path class="cls-8" d="m109.44,94.34c-.16-.5-.1-.93.37-1.25.08.08.17.15.25.23-.05.44-.06.91-.66.99,0,0,.04.03.04.03Z"/>
    <polygon class="cls-2" points="55 18.74 55.09 18.85 55.02 18.98 55 18.74"/>
    <path class="cls-6" d="m167.63,74.13c-.54,1.62-1.08,3.25-1.61,4.87-2.13-.27-3.2-2.47-5.24-2.9-.14-.8-.27-1.6-.41-2.4.1-.24.19-.48.29-.71,1.35-1.23,2.68-1.15,4.05,0,.83.7,1.76,1.26,2.93,1.14Z"/>
    <path class="cls-2" d="m160.36,73.71c.14.8.27,1.6.41,2.4.1,2.44.17,4.87.88,7.23.22.73.6,1.39,1.45,1.39.7,0,1.11-.58,1.37-1.17.59-1.32,1.13-2.66,1.7-3.99.22.22.43.43.65.65-.21,1.44-.78,2.76-1.45,4.04-.52.99-1.13,1.9-2.43,1.79-1.38-.11-1.95-1.1-2.35-2.27-.85-2.51-.9-5.12-1.02-7.72.34-.76-.58-1.94.79-2.36Z"/>
    <path class="cls-9" d="m150.37,74.58c.03-.64.07-1.28.1-1.92,1.9.08,3.71-.47,5.51-.94,1.34-.35,1.29.37,1.3,1.22-.32,1.27-.64,2.54-.96,3.81-1.49-2.08-3.66-2.28-5.95-2.18Z"/>
    <path class="cls-8" d="m166.17,79.57c-.56,1.33-1.11,2.67-1.7,3.99-.26.59-.67,1.17-1.37,1.17-.84,0-1.22-.66-1.45-1.39-.71-2.36-.78-4.8-.88-7.23,2.05.42,3.11,2.62,5.24,2.9.05.19.1.38.15.57Z"/>
    <path class="cls-8" d="m147.61,76.26c-.67,5.19-1.33,10.38-2.03,15.56-.13.97-.25,2.15-1.65,2.03-1.29-.11-1.83-1.05-1.9-2.26-.26-5.06-.5-10.11-.75-15.17-.05-1.07.26-1.79,1.51-1.68,1.5.85,3.06,1.51,4.82,1.52Z"/>
    <path class="cls-8" d="m150.37,74.58c2.29-.1,4.46.1,5.95,2.18-.1,4.43-.81,8.79-1.64,13.12-.12.64-.15,1.65-1.08,1.59-.83-.05-1.04-.98-1.13-1.65-.56-4.11-1.03-8.23-1.56-12.35-.12-.97-.34-1.93-.52-2.9Z"/>
    <path class="cls-9" d="m147.61,76.26c-1.76-.01-3.32-.67-4.82-1.52.85-.26,1.69-.54,2.54-.77.83-.23,1.84-1,2.48-.42.8.72.11,1.81-.2,2.72Z"/>
    <path class="cls-7" d="m138.44,125.84c-.02.47-.05.94-.07,1.41-.81.84-1.66,1.63-2.4,2.52-.48.58-.61,1.4-.05,1.95.61.6,1.36.28,1.92-.22.84-.75,1.63-1.58,2.44-2.37,1.17,2.38,4.02,3.78,4.03,6.85-2.26,2.76-5.07,4.67-8.57,5.49-2.73-1.51-2.91-4.42-3.8-6.94-.02-.64-.03-1.27-.05-1.91,1.5-1.46,3.39-2.69,3.12-5.21.01-.11.06-.19.15-.26,1.38.03,1.95-1.4,3.13-1.73.05.14.11.27.16.41Z"/>
    <path class="cls-6" d="m135.01,127.41c.27,2.52-1.62,3.75-3.12,5.21-.4-1.15-.79-2.31-1.19-3.46-.02-1.09-.28-2.29,1.25-2.64-.1.85-.69,2.07.18,2.46,1.28.56,1.88-1.05,2.87-1.57Z"/>
    <path class="cls-9" d="m130.06,131.43c.25,2.44.67,4.96-2.45,6.02-.5-.29-1.64-.48-1.31-1,.92-1.48.49-3.71,2.49-4.55.42-.17.85-.32,1.27-.47Z"/>
    <path class="cls-6" d="m138.28,125.43c-1.18.33-1.75,1.76-3.13,1.73.66-1.29,1.31-2.59,1.97-3.88,1.79-.04,1.03,1.29,1.16,2.15Z"/>
  </g>
</svg>