<?xml version="1.0" encoding="UTF-8"?>
<svg id="Layer_2" data-name="Layer 2" xmlns="http://www.w3.org/2000/svg" viewBox="0 0 127.23 127.45">
  <defs>
    <style>
      .cls-1 {
        fill: #fff;
        stroke-width: 0px;
      }
    </style>
  </defs>
  <g id="Layer_1-2" data-name="Layer 1">
    <g>
      <path class="cls-1" d="m81.73,25c-25.13,0-45.5,20.37-45.5,45.5s20.37,45.5,45.5,45.5,45.5-20.37,45.5-45.5-20.37-45.5-45.5-45.5Zm19.22,40.38c-.56.96-4.57.71-7.34-1.22-1.02-.71-1.99-1.53-2.45-1.22-.36.24-.13,1,0,2.45.15,1.61.08,2.99,0,3.67-.05.41-.49,4.34-2.45,4.9-1.81.51-4.07-2.55-4.9-3.67-2.42-3.27-2.63-6.15-3.67-6.12-.82.02-.91,1.72-2.45,3.67-1.74,2.21-5.09,3.36-6.12,2.45-.99-.88-.2-4.04,1.22-6.12,1.16-1.69,2.44-2.23,2.45-3.67,0-1.25-.95-2.2-1.19-2.41,0,0-.02-.02-.04-.03-1.41-1.26-10-5.28-9.79-6.12.11-.47,2.98-.25,6.12,0,2.78.22,3.59.33,4.9,0,.51-.13,2.42-.74,3.67-2.45,1.18-1.62.82-2.95,1.22-6.12.29-2.26.9-7.09,2.45-7.34,1.55-.25,4.04,3.61,4.9,7.34.75,3.28,0,5.44,1.22,6.12,1.06.59,2.03-.77,4.9-1.22.48-.08,4.98-.75,6.12,1.22.93,1.61-.63,4.55-2.45,6.12-1.8,1.56-3.66,1.61-3.67,2.45,0,.79,1.64,1,3.67,2.45,2.09,1.49,4.19,4.01,3.67,4.9Z"/>
      <path class="cls-1" d="m46.23,0c-7.53,0-14.58,1.99-20.69,5.46-.55-.42-1.03-.87-1.4-1.27-.43.53-2.46.39-3.9,1.81-1.28,1.25-.84,2.5-2,3-1.1.47-1.81-.52-3,0-1.09.47-.9,1.48-2,2-1.36.64-2.82-.33-3,0-.19.36,1.7,1.21,3,3,.28.38.5.78.69,1.17-6.05,7.28-9.69,16.63-9.69,26.83,0,18.94,12.54,34.95,29.78,40.19-1.8-4.89-2.78-10.17-2.78-15.69,0-25.13,20.37-45.5,45.5-45.5,2.07,0,4.11.15,6.11.42C75.64,8.64,61.95,0,46.23,0Z"/>
      <path class="cls-1" d="m15.15,99.23c.63-1.46,4.99-11.61,12.44-11.63,1.69,0,3.38.52,4.85,1.38-.12-1.04-.44-2.08-.93-3.02,0,0-.77-1.42-2.01-2.42-2.7-2.19-7.13-1.92-10.27-.54-.97.43-1.27.72-5,4-3.01,2.65-5.96,5.38-9,8C1.02,98.63-.22,99.38.03,100.31c.31,1.13,3.24,1.63,9.12,2.45,1.96.27,3.58.5,4.94.64.25-1.84.42-2.67,1.06-4.16Z"/>
      <path class="cls-1" d="m37.7,95.09c-.46-.58-3.65-4.59-8.24-4.6-6.89-.02-11.18,9-12.44,11.63-1.77,3.73-2.11,6.78-2.79,12.87-.71,6.44-1.17,10.58,1,12,1.82,1.19,4.55-.11,8.93-2.2,3.33-1.59,7.13-3.4,10.64-7.54,1.77-2.09,4.84-5.72,5.44-11.26.21-2,.73-6.81-2.54-10.91Zm-16.46,22.91c-.4-.2,1.4-4.81,3-8,.5-1,1.22-2.34,2.19-3.85,2.16-3.38,5.42-7.41,5.81-7.15.81.53-10.15,19.43-11,19Z"/>
    </g>
  </g>
</svg>