<?xml version="1.0" encoding="UTF-8"?>
<svg id="Layer_2" data-name="Layer 2" xmlns="http://www.w3.org/2000/svg" viewBox="0 0 148.62 171.43">
  <defs>
    <style>
      .cls-1 {
        fill: none;
        stroke: #fff;
        stroke-miterlimit: 10;
        stroke-width: 2px;
      }

      .cls-2 {
        fill: #fff;
        stroke-width: 0px;
      }
    </style>
  </defs>
  <g id="Layer_1-2" data-name="Layer 1">
    <g>
      <path class="cls-1" d="m41.22,112.23c13.89-23.58,20.52-43.56,23.91-56.72,0,0,7.95-30.86-1.62-39.57-.77-.7-1.51-1.42-2.27-2.13-5.41-5.05-6.47-5.78-6.67-7.23-.31-2.2,1.48-5.31,3.34-5.56,6.16-.82,15.67,29.52,20.02,46.71,5.24,20.74,3.67,25.1,8.9,38.92,5.58,14.76,13.34,25.55,18.91,32.25"/>
      <path class="cls-2" d="m124.62,107.22c-2.24-.04-7.56.37-13.9,6.12-.85,1.78-2.35,4.18-5,5.56-2.59,1.35-4.82.83-6.67,1.11-7.94,1.2-12.85,10.69-13.35,11.68-5.5,10.96.65,28.02,12.79,35.59,14.48,9.03,33.52,2.11,42.82-8.9,1.97-2.33,6.54-8.45,7.23-17.24,1.22-15.73-10.52-33.7-23.91-33.92Zm14.46,32.25c-.81,3.63-2.7,6.86-3.34,6.67-.62-.18.59-3.42,0-8.34-.29-2.42-.82-6.81-3.89-10.01-2.81-2.93-6.32-3.37-6.12-4.45.14-.77,2.04-1.11,3.34-1.11,4.75,0,8.03,4.56,8.34,5,3.33,4.77,2.1,10.3,1.67,12.23Z"/>
      <path class="cls-2" d="m64.57,122.24c-.73-1.76-3.07-7.42-8.34-9.45-2.76-1.07-6.24-1.1-7.78-1.11-4.01-.04-5.01.76-7.23,0-2.56-.88-3.27-2.66-5.56-5-3.08-3.15-7.02-5.29-10.01-6.12-6.41-1.77-13.8,1.05-18.35,5.56-4.13,4.1-5.15,8.83-6.12,13.35-.92,4.28-3.14,14.66,2.78,24.47,4.64,7.68,11.73,10.79,15.01,12.23,2.44,1.07,15.31,6.72,28.91.56,2.5-1.13,11.18-5.23,15.57-15.01.9-2.02,4.77-10.63,1.11-19.46Zm-7.78,8.9c-.55.04-.45-2.8-2.78-6.12-.92-1.3-2.22-3.16-4.45-3.89-1.14-.38-1.71-.19-6.67.56-4.7.71-6,.81-7.23,0-1.23-.81-2.02-2.3-1.67-2.78.46-.63,2.42,1.08,5.56,1.11,1.99.02,2.36-.66,7.23-2.22,4.69-1.51,5.61-1.29,6.12-1.11,2.32.82,3.31,3.46,3.89,5,1.72,4.58.72,9.4,0,9.45Z"/>
    </g>
  </g>
</svg>