<?xml version="1.0" encoding="UTF-8"?>
<svg id="Layer_2" data-name="Layer 2" xmlns="http://www.w3.org/2000/svg" viewBox="0 0 240.31 240.79">
  <defs>
    <style>
      .cls-1 {
        fill: #b7764a;
      }

      .cls-1, .cls-2, .cls-3, .cls-4, .cls-5, .cls-6, .cls-7, .cls-8, .cls-9, .cls-10, .cls-11, .cls-12, .cls-13, .cls-14, .cls-15, .cls-16 {
        stroke-width: 0px;
      }

      .cls-2 {
        fill: #fefefe;
      }

      .cls-3 {
        fill: #e3bb9c;
      }

      .cls-4 {
        fill: #160c0b;
      }

      .cls-6 {
        fill: #aa3b4b;
      }

      .cls-7 {
        fill: #4d322e;
      }

      .cls-8 {
        fill: #efdcc6;
      }

      .cls-9 {
        fill: #a4231c;
      }

      .cls-10 {
        fill: #731f18;
      }

      .cls-11 {
        fill: #f8f2f2;
      }

      .cls-12 {
        fill: #711c2a;
      }

      .cls-13 {
        fill: #ca7c77;
      }

      .cls-14 {
        fill: #616a5b;
      }

      .cls-15 {
        fill: #dbb17d;
      }

      .cls-16 {
        fill: #a15b2a;
      }
    </style>
  </defs>
  <g id="Layer_1-2" data-name="Layer 1">
    <path class="cls-5" d="m141.26,10.12c-.16-.98-.31-1.97-.48-2.95-.74-4.22,2.58-7.67,6.81-7.1,1.14.15,1.47,1,1.64,1.89.4,2.04.93,4.09,1.04,6.16.41,7.43.88,14.85.81,22.3-.03,3.17-1.7,5.17-3.71,7.03-.61.56-1.02.99-.9,1.72.99,6.19-1.99,11.71-3.05,17.54-.6,3.3-1.38,6.58-1.55,9.93-.73,14.55-.38,28.96,4.03,43.09,2.85,9.16,4.77,18.61,7.24,27.9,1.81,6.83,4.1,13.48,8.35,19.48,4.92-4.54,9.54-9.15,15.11-12.6,6.52-3.36,13.41-5.85,20.13-8.76,10.15-2.88,19.68-.69,29.18,3.11,7.65,3.05,12.09,8.53,13.74,16.3,1.04,4.9.72,9.98.14,14.93-.8,6.83-.94,13.75-2.68,20.45-1.43,5.52-3.48,10.8-6.34,15.74-.39.67-.75,1.48-1.66,1.68-.37-.18-.74-.37-1.11-.55,1.53-.68,2.25-1.96,2.6-3.52.9-.54-.25-1.57.51-2.14.21-.19.41-.38.62-.58.83-.44,1.04-1.2,1.02-2.07,3.41-5.95,3.81-12.66,4.84-19.21-.01-.2-.02-.41-.04-.61,1.24-6.72,1.83-13.51,1.45-20.33-.41-7.36-3.17-13.64-9.91-17.39-3.64-2.03-7.56-3.51-11.62-4.56-3.71-1.33-7.54-1.59-11.43-1.2-.56.02-1.11.04-1.67.07-.2,0-.4.01-.6.02-.32-.02-.65-.04-.97-.07-1.15,0-2.33-.39-3.4.36-7.56,2.94-15.22,5.69-22.33,9.65-2.51,1.4-5.26,2.74-6.54,5.65h0c-.57-.2-.89.14-1.19.54-.97.26-1.34,1.21-2.06,1.75-.69.56-1.39,1.1-2.05,1.67q-3.16,2.73-.76,6.53l.58,1.57c-.67,1.36,1.61,3.11-.55,4.28-1.26,1.28-2.52,2.56-3.79,3.85-.19.17-.37.33-.56.5-4.38,2.34-5.52,6.73-6.96,10.97,0-1.8-.11-3.55.22-5.37.32-1.78,1.5-3.59.41-5.49-.09-.03-.18-.05-.27-.05.42-1.29.98-2.56,1.23-3.88.69-3.58,2.12-6.74,4.81-9.25.88-.82,1.03-1.52.32-2.55-5.07-7.41-7.36-15.94-9.32-24.49-2.68-11.66-6.32-23.07-8.67-34.81-.71-3.57-1.38-7.14-1.33-10.78.14-8.79-.72-17.64,1.05-26.35.88-4.34,1.46-8.79,3.28-12.87,1.27-2.85.16-4.93-1.85-6.7-.71-.63-1.8-.67-2.56.39-8.99,12.51-20.87,22.18-31.98,32.61-9.65,9.05-16.25,20.13-21,32.37-3.09,7.94-5.98,15.96-9.06,23.91-3.59,9.26-4.19,18.88-3.76,28.65.04.89.26,1.43,1.21,1.83,1.08.46,2.4.78,2.95,2.07-.83.22-1.65.1-2.35-.33-3.29-2.04-6.87-2.24-10.57-1.75-1.88-1.69-4.11-2.78-6.35-3.86-5.32-3.83-11.48-4.91-17.81-5.46-2.44-.02-4.87-.05-7.31-.06-3.89-.01-7.47.94-10.61,3.32-3.64.94-5.47,4.43-8.6,6.09-.04.18-.08.36-.12.54-1.62-.12-2.04,1.64-3.29,2.1-.2-.2-.41-.4-.61-.6,5.51-6.7,12.61-11.49,21.01-12.52,10.58-1.3,21.01.67,30.24,6.68,2.41,1.57,4.82,2.93,7.82,1.75.08-.03.2-.04.27,0,4.22,2.31,3.09-1.24,2.96-2.94-.97-12.72,3.03-24.31,7.72-35.8,2.22-5.45,3.91-11.12,6.21-16.54,5.83-13.73,14.24-25.59,25.7-35.3,8.8-7.46,17.1-15.47,24.34-24.51,1.18-1.48,2.23-3.07,3.35-4.61,1.4-.41,2.46-2.11,4.26-1.09.33.19.67-.15.57-.61-.28-1.33,1.23-1.68,1.47-2.72,1.41.89,2.27.46,2.48-1.13.16-1.21.16-2.45.23-3.67.28-5.06.06-10.11-.4-15.15.24-3.09-.15-6.13-.7-9.16-.25-1.37.08-3.37-1.43-3.74-1.59-.38-3.37.43-4.75,1.57-1.68,1.39-.91,3.1-.52,4.75.34,2.63,1.18,5.1,2.22,7.52.11.74.22,1.47-.18,2.26-.42-.51-.55-1.11-1.17-1.2-.62-2.01-.4-4.25-1.66-6.09Zm22.66,153.95c-.46-1.04-.95-2-1.33-3-.8-2.09-1.61-2.04-3.12-.43-3.05,3.25-3.5,7.48-4.55,11.43-.46,1.76,1.51,1.12,1.98.63,2.33-2.43,4.89-4.69,6.61-7.66.18-.31.29-.65.42-.96Z"/>
    <path class="cls-1" d="m227.98,207.41c.37.18.74.36,1.11.55,0,0-.16.05-.16.04s-.13.11-.13.11c-.57-.21-1.03.11-1.52.32-.71-1.07-3.02-1.06-2.55-2.74.74-2.63-1.06-2.78-2.61-3.46-2.06-.89-4.44.16-6.37-.97-1.3-.76-1.87-.44-2.62.64-.72,1.03-2.11,2.35-3.05,1.59-1.85-1.51-2.66-.25-3.84.97-.74-2-2.3-2.53-4-2.7-2.5-.25-4.94-1.23-7.52-.57-1.61.42-3.36-1.1-4.5-.62-2.17.92-4.45,1.34-6.61,2.17-.05-1.2,1.82-1.22,1.49-2.86-1.01,1.04-1.63.52-2.08-.47,1-2.29,3.44-2.53,4.96-1.98,1.24.45,2.65-1.52,3.14.24.71,2.6,2.54,1.62,3.81,1.24,1.5-.44,2.85-.11,4.02.35,4.21,1.63,8.3.32,12.4-.23,2.06-.28,1.69-3.02,3.36-3.84.14,2.05,1.58,2.52,3.26,2.7.18.18.36.37.54.55.08.04.16.08.24.12-.08-.04-.15-.09-.23-.13-.18-.18-.37-.36-.55-.54-.09-.75.27-1.6-.54-2.17l-.02-.02c-.25-1.59-.46-3.19-.77-4.77-.12-.63-.15-.86.63-1.06,1.97-.51,2.61-1.78,1.31-3.69,3.46.3,5.01-1.94,6.56-4.17.99,2.7.96,5.5.74,8.31-.05.05-.15.11-.14.13.05.12.12.22.19.33.26.22.52.43.78.65.16,1,.73,1.51,1.63.92,1.02-.67,2.17-1.45,1.31-3.01.04-.63.09-1.26.13-1.88,1.34.07,2.71.03,3.89.84,1.05.72.95,3.87-.13,4.41q-1.15.56.05,1.95c-1.4-.55-2.59,1.45-3.23.31-1.08-1.95-2.06-.41-3.08-.41-.1-.07-.2-.13-.29-.2.07.1.13.2.2.3.25.59.55,2.11.8,1.56.89-1.98,1.51-.15,1.58.07.47,1.64,2.05,1.95,3.15,2.81.02.86-.18,1.62-1.02,2.07-.9-.26-.33-1.78-1.62-1.81-.28,1.07-.03,1.88,1,2.38-.75.57.39,1.6-.51,2.14-.88.1-1.49-.34-2.13-.89-.31-.27-.86-.16-1.23.2-.28.26-.51.8-.22.89,2,.66.32,2.33.98,3.32Z"/>
    <path class="cls-13" d="m214.76,227.91c.01.18-.02.34-.09.5-.69-.38-1.39-.76-2.08-1.15-.19-.17-.39-.33-.58-.5-.08-.07-.17-.15-.25-.22.07.09.14.18.21.26.17.19.34.38.51.57-.24,1.2-4.48,5.91-5.45,5.72-3.02-.58-5.86.75-8.95.43-2.8-.29-5.85-.44-8.75.28-1.22.3-2.25-.33-3.21-1.09-1.91-1.49-1.49-3.97-2.54-5.82.99-.15,1.98-.29,2.8.53.66.66,1.68.79,2.27.34,1.96-1.5,4.19-.78,6.29-1,5.24-.54,10.4-1.4,15.38-3.2.49,1.06.85,1.51,2.39,1.02,1.59-.51,2.89-1.9,4.71-1.68-.03.46-.07.92-.1,1.38,0,0-.16.18-.16.18-1.64.55-3.43,1-2.38,3.43Z"/>
    <path class="cls-14" d="m82.81,167.23c6.33.61,11.53,4.18,17.13,6.65,4.45,1.96,6.59,6.3,9.27,10.08,4.65,6.57,2.78,13.74,2.19,20.8-.46,5.41-2.63,10.36-4.46,15.38-3.29,9-9.92,14.95-18.13,19.37-1.29.69-2.73.99-4.2,1.05-11.01.45-21.98.43-32.83-1.89-6.41-1.37-12.21-4.04-17.66-7.59-1.22-.79-2.48-1.5-3.73-2.24.02-.14,0-.28-.02-.41.25,0,.5-.01.76-.02.52,0,1.04,0,1.56,0,7.93,6.82,17.42,9.55,27.57,10.57,2.93.22,5.86.44,8.79.66.39,0,.79.02,1.18.03,2.7.03,5.42-.13,8.1.11,8.85.81,15.48-3.03,20.86-9.66,3.77-3.46,5.79-7.94,7.45-12.64,1.78-3.97,3.25-8.06,3.63-12.41.6-6.92,2.41-13.82-1.84-20.53-3.75-5.92-8.27-10.42-15.07-12.46-1.07-.32-1.72-.03-2.41.6-.21-.37-.41-.73-.62-1.1-.2-.28-.39-.56-.59-.84.06-.07.14-.12.18-.2.03-.07.05-.22.02-.24-2.16-1.53-5.03-.98-7.23-2.42l.11-.65Z"/>
    <path class="cls-4" d="m227.28,208.43c.48-.21.94-.53,1.52-.32-.09.27-.18.55-.28.82-.1.25-.19.51-.29.76-.34.25-.68.5-1.01.75-1.68.26-2.41,2.42-4.34,2.19-.46-2.04-2.06-.86-3.14-1.07-2.34-.46-3.89.09-3.39,3,.24,1.39-.55,1.96-1.93,1.91-2.27-.09-4.54-.11-6.81-.16q-4.91-1.71-5.97,2.99c-.1.44-.13.9-.19,1.35-.15,0-.31.02-.45.07-3.06.1-6.14.19-9.09-.77-1.69-.55-3.54-2.23-4.88-1.86-1.5.42-1.03,3.28-2.35,4.65-.37.06-.74.13-1.11.19-.54.03-1.09.06-1.63.09-2.25-.14-4.42-.55-6.44-1.63-.69-.37-1.29-.66-2.24-.39-3.34.96-6.34.22-8.78-2.37,2.28.47,4.23,2.03,6.67,2.02,1.41,0,2.02-.63,1.09-1.79-3.14-3.89-2.64-8.49-2.72-12.98-.01-.8-.55-2.05.71-2.31,1.02-.21,1.41.9,1.96,1.61,2.7,3.49,2.21,7.58,1.98,11.52-.17,2.97,1.44,4.02,3.8,4.67.78.21,1.59.45,2.39.45,1.47,0,3.27.81,4.26-.84,1.03-1.71,1.1-3.53-.14-5.36-1.34-1.98-2.14-4.21-1.87-6.68.31-.09.61-.18.92-.27.72.21,1.41.46,1.71,1.25-.56.1-1.42-.38-1.59.49-.26,1.37.43,2.45,1.38,3.53.6-1.47.63-2.76.18-4.05,1.35.2.88,1.31,1.13,2.11.48,1.54-.07,3.35,1,4.69,2.47,3.11,9.36,3.36,12.02.35,1.09-1.24,2.2-2.9-.27-4.22-.85-.45-1.47-1.33-2.16-2.06-.42-.44-1.04-.97-.38-1.6.52-.5,1.24-.35,1.75.08.83.7,1.77,1.39,2.3,2.29.82,1.38,2.04,2.09,3.41,2.51,2.85.88,5.75,1.69,8.79,1.37.83-.09,2,.5,2.38-.67.37-1.13.22-2.27-.66-3.3-.6-.71-1.91-.83-1.84-2.16,1.03-.55,1.67.45,2.5.59,4.17.68,8.4,1.85,12.09-1.45Zm-54.42,9.22c.64-8.55.81-9.16-2-11.46-.5,4.22-.7,8.07,2,11.46Z"/>
    <path class="cls-7" d="m89.74,170.74c.2.28.39.56.59.84-2.6.11-5.22.41-7.78-.32-1.1-.32-1.68.04-2.02,1.11-.54,1.68-1.71,2.96-3.46,3.01-3.75.1-7.57.78-11.22-.76.35-.07.71-.15,1.06-.2,3.75-.47,7.49-.93,10.88-2.85,1.43-.81,1.5-2.15,1.58-3.48.02-.29-.63-.93-.84-.88-1.23.3-2.72.2-3.42,1.6-.36.72-.5,1.63-1.66,1.28-.14-2.07.54-4.16-1.68-5.91-3.22-2.53-6.92-2.41-10.55-2.65-2.01-.13-2.38,1.41-1.69,3.01,1.15,2.66,2.83,4.84,5.85,5.58-1.03.85-2.15.37-3.25.25-1.96-2.51-4.59-4.65-4.48-8.29.01-.36-.26-.7-.71-.58-.51.13-.64.6-.74,1.03-.78,3.43.82,6.52,4.18,8.14.02.52.04,1.04.06,1.56-3.75-1.44-5.5-4.26-5.65-8.19.18-3.78.18-3.82,4.15-3.89,2.33-.04,4.66.09,6.98.15,3.7-.49,7.28-.29,10.57,1.75.7.43,1.52.55,2.35.33.58,0,.94.29,1.11.83,0,.3.01.6.02.89-1.77-.14-3.26-1.62-5.86-1.22,1.77,1.04,2.98,1.77,4.2,2.48,1.59.92,1.57-.24,1.64-1.28.21.01.43.03.64.04.13.27.26.54.39.81-.03.94-.18,1.96,1.26,1.95.19.11.38.23.57.34-.04.22-.07.44-.11.65-.57.11-1.38-.24-1.53.69-.16.96.61,1.31,1.31,1.4,2.41.32,4.83.53,7.25.78Z"/>
    <path class="cls-13" d="m167.25,229.55c-2.32-2.11-4.93-1.72-7.62-.96-1.95.55-5.05-1.34-5.26-3.38-.23-2.24-1.26-3.42-3.49-3.56-1.62-.1-2.16-1.52-3-2.52-3.39-4.07-4.15-9.32-1.94-13.1.19,0,.37,0,.56,0,1.83.46.85,1.19.29,2.07-.79,1.25-1.18,2.8-.66,4.15.38,1,2.37,2.22,2.43,2.2,4.54-.84,2.03,1.27,1.22,2.74-.41.75.62,1.55.11,2.38.45.01,1.07.22,1.31,0,1.85-1.64,2.84.09,3.81,1.06,1.04,1.04,1.85,1.2,2.88.17.31.08.62.16.94.24.2.16.39.33.59.5,1.07,1.47,2.76,1.9,4.32,2.56,4.62,1.95,9.53,2.37,14.45,2.75-.96.91-2.02,1.36-3.4,1.68-2.5.57-5.09.25-7.54,1.01Z"/>
    <path class="cls-3" d="m167.25,229.55c2.45-.76,5.03-.44,7.54-1.01,1.38-.31,2.44-.76,3.4-1.68.52.04,1.05.08,1.57.12.18.32.39.37.64.07,1.05-.25,2.11-.32,3.18-.13,1.05,1.85.62,4.32,2.54,5.82.96.75,1.99,1.39,3.21,1.09,2.9-.72,5.95-.57,8.75-.28,3.09.32,5.94-1.02,8.95-.43.97.19,5.21-4.52,5.45-5.72l.12-.12c.69.38,1.39.76,2.08,1.15-2.41,3.42-5.63,6.59-9.51,7.08-5.37.67-11.08,1.48-16.39-.23-2.35-.75-4.66-1.52-7.07-1.83-1.7-.22-2.67-1.56-4-2.27-2.97-1.57-5.81-1.53-8.83-.87-.83.18-1.43.27-1.61-.75Z"/>
    <path class="cls-7" d="m147.15,34.17c-.24,1.04-1.75,1.39-1.47,2.72.1.46-.24.8-.57.61-1.8-1.02-2.86.68-4.26,1.09.49-3.03.98-6.06,1.47-9.1,1.62-4.37.91-8.84.6-13.29.63.1.75.69,1.17,1.2.39-.79.28-1.52.18-2.26.06-.71.12-1.42.18-2.13.78.51.04,2.04,1.42,2.14-.5,2.54-.61,5.1-.44,7.67-.75,1.18.26.93.84,1.03-1.1,1.18-.86,2.56-.7,4.54,1.24-2.03,1.63-3.67,1.38-5.48.06-.58-.07-1.04-.74-1.15.48-2.43,1.04-4.84.89-7.35-.06-1-.34-1.12-.98-.35-.18-.89.24-2.14-1.33-2.17,1.89-1.67,2.81-.48,3.56,1.21,0,.28,0,.57,0,.85.6,5.54-.17,11.02-.66,16.52-.18,1.23-.36,2.47-.54,3.7Z"/>
    <path class="cls-3" d="m142.6,192.02c-1.85-1.12-.62-3.15-1.17-4.72-.86-2.46-1.19-5.23-2.18-7.78-.39-.99,2.22-4.19,3.46-4.52,1.47-.38,2.86-.44,3.7-2.38.64-1.47,2.91-1.51,4.53-.92.87.32,1.68.53,2.58.54.09,0,.18.01.27.05-.88,3-1.49,6.06-1.93,9.16q-.8-1.82-5.26-1.87c1.25-1.19,1.26-3.12,3.18-3.58.43-.1.69-.67.4-1.12-.39-.61-.73.07-1.1.12-1.8.23-3.44,1.2-5.32,1.06-.7-.05-1.11.41-1.52.95-1.71,2.23-1.35,4.3.31,6.35.61.75,1.51,1.58.93,2.61-.89,1.56-1,1.5.31,2.67-.85.97-.96,2.2-1.2,3.39Z"/>
    <path class="cls-15" d="m142.6,192.02c.24-1.19.35-2.42,1.2-3.39.68.53.63,1.97,2.06,1.59,1.09-.29,1.13-1.22,1.46-2.02.45-1.11.28-2.27.3-3.41.78.09,2.43-1.35,1.83,1.19-.2.86,1.01,1.02,1.82,1.05-.02,3.07-.05,6.13-.07,9.2-1.85-.39-2.54.95-2.98,2.25-.49,1.45-1.03,1.76-2.3.82-.39-.29-1.02-.24-1.55-.34,0,0-.03-.03-.03-.03-.66-1.67.99-2.18,1.61-3.22.21.66-.45,1.79.75,1.89.65.05.93-.73.88-1.39-.1-1.34-1.07-.31-1.58-.55-.6-1.53-1.11-3.17-3.33-2.72-.03-.31-.05-.63-.08-.94Z"/>
    <path class="cls-3" d="m3.57,193.49c-4.17-3.4-4.52-5.13-1.9-9.65.49-.85.72-1.85.31-2.59-1.12-2.01.67-4.3-.76-6.24-.1-.13.2-.68.44-.9,2.65-2.48,2.35-6.09,3.49-9.15.45-1.21,3.41-3.74,4.58-3.4.48.14.62.61.43,1.11l.13.14-.11.16c-2.59.05-4.03.92-3.95,3.96.07,2.88-3.07,5.54-.78,8.69-2.47,2.16-.45,5.11-1.35,7.55-.28.19-.37.42-.21.73-.07.31-.14.63-.21.94-3.4-.22-.57,3.31-2.42,4.02.4,1.05,1.08,1.79,2.25,1.97.02.89.04,1.77.06,2.66Z"/>
    <path class="cls-10" d="m3.69,184.85c.07-.31.14-.63.21-.94.07-.24.14-.49.21-.73.89-2.44-1.13-5.39,1.34-7.55.13,0,.25-.03.36-.1-.57,2.72,2.51,1.71,3.2,3.13,0,.54.1,1.09,0,1.61-.76,4.49-.95,8.9.86,13.25.64,1.54,1.73,3.02,1.43,4.86-2.19-1.38-2.18-4.29-4.22-5.88-1.03-.81-1.92-2.43.22-3.53.74-.38.34-1.25.09-1.72-.91-1.76-.55-3.59-.55-5.41,0-.77-.07-1.51-.92-2.13-.77,4.53-1.42,8.88-.99,13.32-.07.32-.13.63-.2.95-.35.02-.71.04-1.06.06-.05-.18-.08-.35-.11-.53-.02-.89-.04-1.77-.06-2.66.06-2,.12-3.99.18-5.99Z"/>
    <path class="cls-3" d="m196.71,135.75c-6.72,2.9-13.61,5.4-20.13,8.76-.02-.76.53-1.09,1.06-1.45,4.32-2.93,8.16-6.75,13.39-8.04,1.78-.44,4.04-1.4,5.67.73Z"/>
    <path class="cls-3" d="m142.92,16.21c.32,4.45,1.02,8.93-.6,13.29-1.26-4.18-2-8.43-2.11-12.83-.06-2.32.62-4.38,1.05-6.55,1.26,1.84,1.04,4.08,1.66,6.09Z"/>
    <path class="cls-3" d="m23.13,223.65c-1.56-.7-3.21-1.1-4.75-1.94-1.17-.64-2.08-.83-1.74-2.52.18-.89-1.1-1.23-1.73-1.82-1.9-1.77-4.29-3.33-4.11-6.46,1.16,1.11,2.19,2.39,3.34,3.46,2.88,2.68,4.82,6.37,8.58,8.11l-.02-.03.64,1.02c-.07.06-.14.13-.2.19Z"/>
    <path class="cls-7" d="m22.72,222.47c-3.76-1.74-5.7-5.42-8.58-8.11-1.15-1.07-2.18-2.34-3.34-3.46-.28-.51-.57-1.01-.85-1.52.27-.03.55-.06.82-.09.33.22.67.44,1,.66,1.39,1.51,2.61,3.19,4.35,4.35.35,1.52,1.68,2.26,2.59,3.33,1.35,1.59,3.52,2.52,4.01,4.83Z"/>
    <path class="cls-3" d="m144.38,198.98c.52.1,1.16.05,1.55.34,1.27.94,1.81.62,2.3-.82.44-1.3,1.14-2.64,2.98-2.25.03.73.06,1.46.08,2.19-.77.06-1.19.53-1.75,1.05-1.56,1.45-1.78,3.51-2.72,5.22-.11-.1-.21-.2-.32-.3-.71-1.81-1.42-3.62-2.13-5.44Z"/>
    <path class="cls-14" d="m10.77,209.29c-.27.03-.55.06-.82.09-3.9-4.38-5.39-9.75-6.27-15.36.35-.02.71-.04,1.06-.06.54,2.42.68,4.94,1.86,7.18.77,2.88,2.05,5.47,4.15,7.63,0,.17,0,.34.02.51Z"/>
    <path class="cls-1" d="m222.89,212.63c1.93.23,2.65-1.93,4.34-2.19.01.54.03,1.08.04,1.62-.04.16-.11.31-.18.45-.98.07-1.43.51-1.09,1.54.64,2-.66,1.95-1.99,1.84-.73.24-1.89-1.39-2.22.52-.4-.05-.8-.1-1.19-.16.27-1.07,1.36-1.48,1.87-2.36.43-.34.86-.67.45-1.3l-.02.03Z"/>
    <path class="cls-7" d="m10.16,162.68c.28,0,.55,0,.83,0,.11.12.22.25.34.36-.04.53-.09,1.06-.13,1.59-2.6,2.9-3.33,6.59-4.25,10.2-.21.07-.42.15-.63.22-.14-.02-.27-.01-.4.03-.35-.95.11-1.76.39-2.62,1.06-3.26,2.05-6.54,3.88-9.49l.11-.16-.13-.14Z"/>
    <path class="cls-3" d="m142.68,192.96c2.22-.45,2.73,1.19,3.33,2.72l-.05.05c-.62,1.03-2.27,1.55-1.61,3.22-1.07-1.85-2.64-3.56-1.67-5.99Z"/>
    <path class="cls-3" d="m224.01,215.9c1.33.1,2.63.16,1.99-1.84-.33-1.03.11-1.47,1.09-1.54.94,3.58-1.35,5.67-3.59,7.79-.01-.38-.03-.76-.04-1.15-.05-.55-.1-1.09-.16-1.64.75-.32.67-1,.71-1.62Z"/>
    <path class="cls-3" d="m30.36,228.44c.03.14.04.27.02.41-1.7,1.61-2.25-.62-3.32-1.04-1.91-.76-3.29-2.14-3.94-4.16.07-.06.14-.12.2-.19,2.31,1.7,4.24,3.94,7.03,4.98Z"/>
    <path class="cls-3" d="m217.3,224.31c.03-.46.07-.92.1-1.38.05-.15.09-.3.13-.45,1.65-.43.4-1.33.33-2.03l.21-.02.2.03c1.24.51,2.43.48,3.56-.31.16.02.32,0,.48-.06.03.1.05.19.05.3-1.74,1.24-3.11,2.96-5.06,3.93Z"/>
    <path class="cls-3" d="m214.76,227.91c-1.05-2.43.74-2.87,2.38-3.43.13,1.79-1.25,2.52-2.38,3.43Z"/>
    <path class="cls-14" d="m82.25,166.89c-1.44,0-1.29-1.01-1.26-1.95,1.1.21,1.15,1.1,1.26,1.95Z"/>
    <path class="cls-3" d="m227.27,212.06c-.01-.54-.03-1.08-.04-1.62.34-.25.67-.5,1.01-.75-.05.9.37,2-.97,2.37Z"/>
    <path class="cls-3" d="m146.5,206.03c-.19,0-.37,0-.56,0-.24-.69-.63-1.43.56-1.61.11.1.21.2.32.3-.11.44-.21.88-.32,1.33Z"/>
    <path class="cls-14" d="m80.6,164.13c-.21-.01-.43-.03-.64-.04h.02c0-.28-.01-.58-.02-.88.56.06.8.35.64.92Z"/>
    <path class="cls-13" d="m223.46,219.16c.01.38.03.76.04,1.15-.38.02-.76.05-1.15.07,0-.1-.02-.2-.05-.29.1-.67.51-.94,1.15-.92Z"/>
    <path class="cls-7" d="m11.22,162.37c.2.2.41.4.61.6-.16.06-.33.08-.51.07-.12-.12-.23-.24-.34-.36,0-.16.08-.26.23-.31Z"/>
    <path class="cls-14" d="m228.53,208.93c.09-.27.18-.55.28-.82,0,0,.13-.11.13-.11.18.45.03.75-.41.93Z"/>
    <path class="cls-13" d="m217.97,197.89c-1.68-.18-3.12-.65-3.26-2.7-.33-1.93.97-3.83.1-5.81-.2-.45.41-.71.87-.81.72-.11,1.87.46,2.01-.58.15-1.13-.75-1.68-1.93-1.52-.75-.41-1.49-.81-2.31-1.26.51-.69,1.97-.17,1.68-1.52.13-1.83-1.2-3.12-1.75-4.71-.39-1.13-.04-1.07.77-.73.07.04.15.08.22.12-.07-.04-.15-.08-.22-.12-1.2-1.49-.53-2.28.87-3.25,3.41-2.35,3.41-3.13.45-5.86-.42-.39-.93-.77-.76-1.31.54-1.7-1.41-1.85-1.63-1.72-1.31.8-2.8-.27-4.03.55-.38.25-.97.55-.6.99.77.89-.09,1.44-.22,2.15-.33,1.87-.96,3.8,1.01,5.29.96.72-.12,1.22-.41,1.77-.4.76-.69.24-1.2,0-1.65-.8-2.36-3.06-4.72-2.83-1.47.14-3.05,0-3.42-2.08-.06-.35-1.07-.53-1.64-.78-.03-.47-.07-.94-.1-1.41.78-2.59,2.51-4.77,3.1-7.46.86-3.89.09-5.73-3.77-6.64-6.17-1.46-12.35-1.73-18.17,1.59-1.08.62-2.15,1.39-3.5,1.36-.1-.42-.1-1.14-.32-1.21-1.44-.48-4.8,2.05-5.12,3.77-.16,1.33-1.48,1.75-2.1,2.72-1.16,1.79-2.05,1.08-2.87-.31-.19-.52-.39-1.05-.58-1.57,3.2-1.96,2.08-5.39,2.81-8.2.72-.55,1.1-1.5,2.06-1.75.49.04.95,0,1.19-.53h0c.45.01,1.06-.15,1.32.08,2.2,1.89,2.15.49,2.33-1.34.15-1.54,1.13-2.26,2.88-1.53,1.58.66,3.38,1.39,4.38-.97l.05-.05c.83-.09.92.71,1.33,1.12,1.78-2.97,2.26.09,3.25.71.39.24.76.19.93-.12.93-1.75,1.85-3.5,2.67-5.31.19-.41-.67-1.63.19-1.33.72.25,1.42-1,1.97.2.81,1.79,2.33.29,2.46-.09.5-1.52,1.82-1.57,2.87-2.17,1.68-.97,2.84-2.33,2.25-4.49,1.07-.75,2.25-.36,3.4-.36-.01.32-.03.64-.04.97-.94.72-2.19,1.62-.74,2.67,1.31.95,1.17-1.09,1.93-1.49.2-.1.28-.44.41-.68,1.56-.43,2.06,1.33,3.28,1.59.35-.06.71-.12,1.06-.18.88,1.59,2.01-1.32,2.58.03,1.02,2.43,3,1.74,4.78,1.84.68.04,1.27.17,1.35,1,.12,1.26-.74,1.23-1.59,1.22-.02-.06-.04-.14-.08-.19-.02-.03-.09-.03-.14-.04l.22.23c.65,1.26,4.39.63,1.28,4.46,3.82-2.5,5.09-.66,6.24,1.58.77,1.48.84,3.55,3.1,3.69-.33,1.61-2.15,1.48-2.56,2.74-.79-.72-1.57-1.45-2.37-2.15-1.78-1.57-3.2-3.65-5.73-4.2-.83-1.14-1.97-1.33-3.26-1.09-.78-.16-1.52-.06-2.19.37-.77.38-2.39.27-1.72,1.65.55,1.13.93,2.85,2.82,2.79.08.16.18.32.29.46-.3,2.99,2.13,3.51,4.07,4.46,1.02.69,2.44.92,3.01,2.14,2.4,5.18,5.28,10.21,5.43,16.15-2.4,1.65-1.96,4.52.95,6.17v-.02c-1.54,2.23-3.09,4.47-6.55,4.17,1.3,1.91.67,3.17-1.31,3.69-.78.2-.75.43-.63,1.06.3,1.58.52,3.18.77,4.77-.14.2-.28.39-.4.6,0,0,.13.09.2.14.07-.24.15-.48.22-.72.81.57.45,1.43.54,2.17,0,0,0,0,0,0Zm-37.82-46.6c-.02-.57-.28-.77-.67-.75-.39.01-.65.27-.67.66-.02.39.21.72.61.63.29-.07.53-.38.73-.54Zm38.52,32.49c-.18.21-.47.42-.43.52.06.19.29.4.48.43.14.02.32-.22.49-.35-.16-.17-.32-.35-.54-.6Zm2.06.65c-.16.13-.36.2-.38.3-.02.12.11.27.17.41.16-.13.32-.25.48-.38-.09-.11-.18-.23-.27-.34Zm-13.85-15.53c-.11.12-.22.2-.28.31-.03.06-.01.18.02.26.12.22.27.21.33-.04.04-.15-.05-.33-.08-.53Zm8.57,10.84c-.02.06-.05.13-.07.19.09,0,.19.02.28.03-.01-.07-.01-.15-.05-.2-.02-.03-.11-.02-.16-.02Z"/>
    <path class="cls-12" d="m182.62,208.94c-.27,2.48.53,4.7,1.87,6.68,1.24,1.83,1.17,3.65.14,5.36-1,1.65-2.79.84-4.26.84-.8,0-1.61-.24-2.39-.45-2.36-.65-3.98-1.7-3.8-4.67.23-3.94.73-8.02-1.98-11.52-.55-.71-.95-1.82-1.96-1.61-1.26.25-.72,1.5-.71,2.31.08,4.49-.42,9.09,2.72,12.98.93,1.15.32,1.78-1.09,1.79-2.44.01-4.39-1.55-6.67-2.02,0,0,.03.02.03.02.1-1-.41-1.7-1.07-2.36-5.46-5.52-8.19-11.9-6.18-19.77.2-.76.26-1.68-.91-1.89-2.96-1.32-3.28-2.13-1.69-5.07,1.02-1.88,1.92-3.65-.44-5.21.62-4.04,2.26-7.58,5.16-10.49.46-.47.83-.97.74-1.67.19-.17.37-.33.56-.5.47.01.95.02,1.42.03,1.4,2.32,4.89,3.43,4.07,7.03-1.8.54-1.77,1.61-1.81,3.42-.08,3.33,2.16,4.66,4.03,6.47-.01.9.11,1.82-.06,2.68-.42,2.13.1,3.27,2.5,3.56,1.75.21,3.21,1.35,4.08,3.02-.45,2.48,1.64,3.7,2.69,5.44-1.71-1.18-1.68.98-2.52,1.44-1.23.67-.55,1.5.55,1.81,1.85.51,2.41-.42,1.98-3.24.41.09.57-1.2,1.1-.25.62,1.1,1.57,2.26,1.58,3.4.02,1.81.96,2.18,2.31,2.44Z"/>
    <path class="cls-11" d="m217.44,137.01c4.06,1.05,7.99,2.54,11.62,4.56,6.73,3.75,9.49,10.03,9.91,17.39.38,6.81-.21,13.6-1.45,20.33-1.25-1.13-1.17-2.57-.74-3.96.5-1.61.17-2.8-1.34-3.61.03-.58.07-1.16.1-1.75,1.06-1.6,1.05-3.06-.22-4.63-.79-.98-2.17-1.96-.63-3.64.55-.6-.53-1.34-1.45-1.44.15-1.16-.4-1.72-1.53-1.78-.02-.45-.16-.94-.04-1.34.85-2.89.17-4.89-2.81-6.17-1.06-.46-2.49-2.09-2.34-2.92.38-2.05-.91-2.94-1.99-3.8-2.13-1.68-3.72-4.1-6.53-4.89-.61-.17-.54-.87-.72-1.36.05-.33.11-.66.16-.98Z"/>
    <path class="cls-7" d="m160.12,172.18c.09.7-.27,1.2-.74,1.67-2.9,2.92-4.54,6.45-5.16,10.49-1.6,4.93-2.05,9.96-1.45,15.1-.22,1.16-.12,2.29.09,3.47.9,5.19,4.07,9.13,7.2,13.05.86,1.08,1.35,2.96,3.4,2.64l-.02-.03c.19,1.8.55,3.47,2.87,3.49.4,0,.88.06.78.44-.57,2.2,1.35,1.77,2.28,2.02,5.35,1.46,10.86.79,16.3,1.04,3,.01,6,.03,9,.04,7.91-.86,15.53-2.6,21.96-7.67,1.7-1.34,3.3-2.83,4.94-4.25.3.07.59.14.89.22-.51.88-1.6,1.29-1.87,2.36,0,0-.03.06-.03.06-.9.24-1.54.68-1.38,1.75-.21.21-.43.42-.64.63-3.17.91-5.42,3.37-8.24,4.88-4.97,1.8-10.14,2.65-15.38,3.2-2.11.22-4.33-.5-6.29,1-.59.45-1.6.33-2.27-.34-.82-.83-1.8-.68-2.8-.53-1.07-.19-2.13-.12-3.18.13-.21-.02-.42-.05-.64-.07-.52-.04-1.05-.08-1.57-.12-4.92-.38-9.82-.8-14.45-2.75-1.56-.66-3.24-1.08-4.32-2.56.08-.09.16-.18.25-.27,1.26.38,2.52.76,3.77,1.14.03.07.04.14.08.19.03.03.1.02.15.04-.08-.07-.16-.15-.24-.22-.07-.98-.65-1.81-1.31-2.32-3.08-2.41-4.92-5.74-6.96-8.94-.42-.67-.69-1.52-1.55-1.83-.05-.35-.09-.71-.14-1.06-.1.05-.3.15-.3.16.13.31.28.6.43.9-.13,1.05.43,1.89.84,2.77,1.23,2.66,2.46,5.32,3.69,7.97-.1.09-.19.19-.29.28-1.15-.83-1.69-2.09-2.33-3.27-3.15-5.82-4.9-11.97-4.23-18.66-.03-.73-.06-1.46-.08-2.19.02-3.07.05-6.14.07-9.2,0-1.88,1.04-3.66.59-5.59.43-3.1,1.05-6.16,1.93-9.16,1.09,1.91-.08,3.72-.41,5.49-.33,1.82-.22,3.57-.22,5.37,1.45-4.24,2.58-8.63,6.96-10.97Z"/>
    <path class="cls-6" d="m15.25,160.34c3.13-1.66,4.96-5.15,8.6-6.09,2.84-.79,6.04-.23,8.57-2.23.54-.43,1.24-.14,1.51.13,1.51,1.56,4.47,1.02,5.2,3.67.15.54.87.23,1.09.38,1.44,1.03,4.23-.52,4.64,2.19.29,1.91,1.44,2.81,2.92,3.6-.75,2.76-1.46,5.56-4.72,6.49-.06-.19-.13-.38-.19-.58.51-1.04,1.06-2.06,1.53-3.12.24-.54.07-1.11-.45-1.42-.72-.42-.78.25-1.1.67-1.45,1.9-2.95,1.75-3.73-.37-.24-.65-.42-1.02-1.16-1.24-2.66-.78-5.25-1.9-8.12-1.57-.55-.03-1.1-.06-1.65-.09-.24-1.75-1.56.43-2.05-.62.67-1.2,1.51-2.15,3.09-2.1.79.03,1.14-.45,1.11-1.19-.02-.49.09-.9-.72-1.12-2.22-.61-4.33.09-6.45.36-1.39.17-.48,1.69-.99,2.42-.14.2-.68.12-1.03.16l-.08-.08c-.09-.43-.58-1.09-.7-.68-.86,2.74-3.24,1.99-5.09,2.44Z"/>
    <path class="cls-13" d="m235.55,169.97c-.03.58-.07,1.16-.1,1.75.35,2.33.14,4.66,0,6.99-.13,2.03.77,1.95,2.12,1.19-1.03,6.55-1.44,13.25-4.84,19.21-1.1-.86-2.68-1.17-3.15-2.81-.06-.22-.69-2.05-1.58-.07-.25.55-.55-.97-.8-1.56l.1-.1c1.01,0,2-1.54,3.08.41.64,1.15,1.83-.86,3.23-.31q-1.19-1.39-.05-1.95c1.09-.54,1.18-3.69.13-4.41-1.18-.82-2.55-.77-3.89-.84-.19-1.3-.18-2.54,1.23-3.21.74-.35.75-1,.68-1.61-.41-3.34.14-6.65-.47-10.09-.82-4.63-2.18-8.82-4.74-12.68.54-3.03,1.69-3.46,4.27-1.63.25.18.64.17.97.25,1.13.06,1.68.62,1.53,1.78-.93.67-.43,1.86-1,2.71-.84,1.24-.83,2.17,1.1,2.22,1,.02,1.35.94.53,1.41-1.16.65-1.31,1.3-.85,2.39.52,1.24,1.53,1.04,2.52.98Zm-3.4,15.53c-.17-.21-.32-.54-.45-.53-.2,0-.48.22-.54.41-.1.29-.19.76.38.67.21-.03.37-.32.61-.55Z"/>
    <path class="cls-13" d="m47.76,161.98c-1.48-.78-2.63-1.69-2.92-3.6-.41-2.71-3.2-1.16-4.64-2.19-.22-.15-.94.16-1.09-.38-.73-2.64-3.69-2.11-5.2-3.67-.27-.28-.96-.56-1.51-.13-2.53,2-5.72,1.44-8.57,2.23,3.14-2.39,6.72-3.34,10.61-3.32,2.44,0,4.87.04,7.31.06-.43,1.87,1.85,2,2.19,3.47.47,2.05,3.38,2.19,3.75,4.53.07.44.84-.17,1.3-.43,1.28-.73,2.79-2.09,3.92-1.84,2.34.51,4.44-.57,6.65-.26,2.24,1.08,4.48,2.18,6.35,3.86-2.33-.05-4.66-.18-6.98-.15-3.96.06-3.96.11-4.15,3.89-2.16-1.31-5.18.32-7.03-2.06Zm6.57-.36c-.09-.14-.17-.27-.25-.4-.07.14-.21.28-.21.41,0,.14.14.27.22.4.08-.14.16-.27.24-.41Z"/>
    <path class="cls-15" d="m199.37,136.19c.59,2.17-.57,3.52-2.25,4.49-1.05.61-2.37.65-2.87,2.17-.13.39-1.65,1.88-2.46.09-.54-1.2-1.25.05-1.97-.2-.86-.3,0,.92-.19,1.33-.82,1.8-1.74,3.56-2.67,5.31-.16.31-.54.36-.93.12-.99-.62-1.47-3.68-3.25-.71-.41-.41-.5-1.21-1.33-1.12-.09-.07-.17-.14-.26-.22.07.09.14.18.21.27-1,2.36-2.8,1.63-4.38.97-1.75-.73-2.73,0-2.88,1.53-.18,1.83-.13,3.23-2.33,1.34-.27-.23-.87-.06-1.32-.08,1.28-2.91,4.04-4.25,6.54-5.65,7.11-3.96,14.76-6.72,22.33-9.65Z"/>
    <path class="cls-7" d="m165.02,163.56c.82,1.39,1.71,2.11,2.87.31.62-.97,1.95-1.39,2.1-2.72,2.08-.27,3.63-1.7,5.44-2.55,1.35.03,2.42-.74,3.5-1.36,5.82-3.32,11.99-3.05,18.17-1.59,3.86.91,4.64,2.75,3.77,6.64-.6,2.69-2.33,4.87-3.1,7.46-.56.1-1.13.21-1.69.31.03-.28.05-.56.07-.84,2.14-2.85,3.92-5.81,3.84-9.57-.02-1.25-.39-2.3-1.54-2.56-1.83-.42-3.53-1.29-5.53-1.23-4.71.15-9.55-.73-13.74,2.36-2.33,1.1-4.91,1.87-6.92,3.4-1.94,1.48-4.95,2.36-4.88,5.67-.02.32.11.51.45.52h.02c.65,2.82,2.49,4.68,4.87,6.11,0,.18-.02.35-.05.53-.15.14-.3.28-.44.42-2.2-1.14-3.72-2.91-4.91-5.04-.52-.93-.83-2.37-2.49-1.63-.12-.12-.25-.25-.37-.37,2.16-1.17-.12-2.92.55-4.28Z"/>
    <path class="cls-11" d="m59.57,156.44c-2.21-.31-4.32.77-6.65.26-1.13-.24-2.64,1.11-3.92,1.84-.45.26-1.23.87-1.3.43-.37-2.33-3.28-2.48-3.75-4.53-.34-1.47-2.61-1.6-2.19-3.47,6.33.54,12.49,1.62,17.81,5.46Z"/>
    <path class="cls-11" d="m163.92,164.07c-.14.31-.24.66-.42.96-1.71,2.97-4.27,5.23-6.61,7.66-.47.48-2.44,1.13-1.98-.63,1.04-3.95,1.5-8.18,4.55-11.43,1.51-1.61,2.32-1.66,3.12.43.38,1,.87,1.97,1.33,3Z"/>
    <path class="cls-9" d="m15.25,160.34c1.85-.45,4.23.3,5.09-2.44.13-.4.62.26.7.68-.07.09-.13.19-.2.28l.28-.2c.35-.05.89.04,1.03-.16.51-.73-.39-2.25.99-2.42,2.12-.27,4.23-.97,6.45-.36.81.22.7.63.72,1.12.02.75-.32,1.22-1.11,1.19-1.58-.05-2.42.9-3.09,2.1.49,1.05,1.8-1.13,2.05.62-.18.2-.35.39-.53.59,0,0,0,0,0,0-2.49-.26-3.06,1.19-2.72,3.66-.71-1.04-1.23-1.83-.94-2.57.7-1.79-.74-1.95-1.62-1.97-2-.05-4.12-.1-5.67,1.61-.33-.05-.66-.1-.99-.16-.45-.21-.54-.61-.56-1.05.04-.18.08-.36.12-.54Z"/>
    <path class="cls-3" d="m148.34,13.1c-.75-1.69-1.67-2.88-3.56-1.21-.41.29-.42.7-.33,1.13-.06.71-.12,1.42-.18,2.13-1.03-2.42-1.88-4.9-2.22-7.52,1.33-.03,1.66-1.25,2.39-1.99,1.25-1.26,3.44-1.1,3.49.3.08,2.39,1.47,4.72.4,7.16Z"/>
    <path class="cls-11" d="m148.34,13.1c1.07-2.44-.32-4.77-.4-7.16-.05-1.4-2.25-1.55-3.49-.3-.74.74-1.06,1.96-2.39,1.99-.39-1.65-1.16-3.36.52-4.75,1.37-1.14,3.16-1.95,4.75-1.57,1.51.37,1.18,2.37,1.43,3.74.55,3.03.94,6.07.7,9.16-.37-.09-.74-.17-1.11-.26,0-.28,0-.57,0-.85Z"/>
    <path class="cls-3" d="m148.34,13.95c.37.09.74.17,1.11.26.46,5.04.68,10.09.4,15.15-.72.37-1.45.74-2.17,1.11.48-5.5,1.26-10.98.66-16.52Z"/>
    <path class="cls-3" d="m167.25,153.78c-.73,2.8.39,6.24-2.81,8.2q-2.4-3.79.76-6.53c.67-.58,1.37-1.12,2.05-1.67Z"/>
    <path class="cls-8" d="m217.44,137.01c-.05.33-.11.66-.16.98-1.93-.18-3.9,1.1-5.86-.53-.68-.56-2.36-.37-2.75,1.25-.35.06-.71.12-1.06.19.24-1.43-1.05-2.07-1.61-3.09,3.89-.4,7.72-.14,11.43,1.2Z"/>
    <path class="cls-3" d="m237.56,179.9c-1.35.76-2.25.84-2.12-1.19.15-2.33.35-4.66,0-6.99,1.51.81,1.84,1.99,1.34,3.61-.43,1.4-.51,2.83.74,3.96.01.2.02.41.04.61Z"/>
    <path class="cls-15" d="m227.98,207.41c-.66-.99,1.02-2.66-.98-3.32-.29-.1-.06-.63.22-.89.37-.35.92-.46,1.23-.2.63.55,1.25.99,2.13.89-.34,1.56-1.06,2.84-2.6,3.52Z"/>
    <path class="cls-2" d="m147.69,30.47c.72-.37,1.45-.74,2.17-1.11-.07,1.23-.07,2.46-.23,3.67-.21,1.6-1.07,2.02-2.48,1.13.18-1.23.36-2.47.54-3.7Z"/>
    <path class="cls-16" d="m15.13,160.88c.02.44.11.84.56,1.05-.64,1.05-1.65,1.64-2.71,2.16-.59.18-1.19.36-1.78.55.04-.53.09-1.06.13-1.6.17.02.34,0,.51-.07,1.25-.45,1.67-2.22,3.29-2.1Z"/>
    <path class="cls-15" d="m204.34,137.3c-.13.23-.21.57-.41.68-.76.4-.62,2.43-1.93,1.49-1.46-1.05-.2-1.95.74-2.67.34-.3.68-.6,1.01-.9.2,0,.4-.01.61-.02,0,.47,0,.95,0,1.42Z"/>
    <path class="cls-3" d="m204.34,137.3c0-.48,0-.95,0-1.42.56-.02,1.11-.04,1.67-.07.56,1.02,1.85,1.65,1.61,3.09-1.23-.26-1.73-2.02-3.28-1.59Z"/>
    <path class="cls-7" d="m162.1,171.72c-.47-.01-.95-.02-1.42-.03,1.26-1.28,2.52-2.56,3.79-3.85.13.12.25.24.37.36-.52,1.48-1.78,2.38-2.74,3.52Z"/>
    <path class="cls-13" d="m231.08,201.75c-1.03-.5-1.28-1.31-1-2.38,1.29.03.72,1.55,1.62,1.81-.2.19-.41.38-.61.58Z"/>
    <path class="cls-3" d="m203.74,135.89c-.34.3-.68.6-1.01.9.01-.32.03-.65.04-.97.32.02.65.04.97.07Z"/>
    <path class="cls-15" d="m170.51,151.5c-.24.54-.7.57-1.19.53.3-.4.62-.74,1.19-.53Z"/>
    <path class="cls-3" d="m196.08,170.06c.56-.1,1.13-.21,1.69-.31.03.47.07.94.1,1.41-.19.43-2.02-.34-.87.79,1.3,1.28,1.24,2.62,1.41,4.14.16,1.5.9,2.22,2.27.78,1.11-1.16,2.16-1.67,3.45-.04,1.09,1.37,3.01,1.67,4.47,2.49,2.81,1.58,3.23,1.67.93,3.96,4.33-.4,4.65-.38,5.59.41.28,1.35-1.18.83-1.68,1.52.82.44,1.56.85,2.31,1.26-.03.7-.05,1.4-.08,2.1-.46.1-1.07.36-.87.81.87,1.98-.43,3.87-.1,5.81-1.66.82-1.3,3.56-3.36,3.84-4.11.56-8.19,1.86-12.4.23-1.17-.45-2.53-.79-4.02-.35-1.27.37-3.09,1.36-3.81-1.24-.48-1.76-1.9.21-3.14-.24-1.52-.55-3.96-.31-4.96,1.98-.33,0-.66,0-.98-.01-.08-.53-.26-1.48-.67-1.3-2,.89-3.47-1.21-5.32-.79,0,0-.05-.06-.05-.06-.49-1.54-2.63-2.25-2.17-4.27.25.09.6.1.73.28.88,1.19,1.61,2.25,3.52,1.59,1.3-.46,2.85-.19,4.28-.3.36-.03.66-.4.5-.8-.64-1.6.81-2.35,1.36-3.47,1.98-1.51,4.42-2.39,5.96-4.47,2.41-.74,3.01-3.47,5.06-4.61.69-.38,1.29-.94.69-1.71-.53-.68-1.32-1.42-2.3-.84-1.46.87-3.14,1.04-4.66,1.67,2.59-3.26,5.22-6.49,7.07-10.26,0,0,.04,0,.04,0Z"/>
    <path class="cls-12" d="m227.28,208.43c-3.69,3.3-7.92,2.13-12.09,1.45-.83-.14-1.47-1.14-2.5-.59-.07,1.32,1.24,1.45,1.84,2.16.88,1.03,1.02,2.17.66,3.3-.38,1.17-1.56.59-2.38.67-3.04.32-5.94-.5-8.79-1.37-1.38-.42-2.6-1.13-3.41-2.51-.53-.9-1.48-1.59-2.3-2.29-.51-.43-1.23-.58-1.75-.08-.66.63-.04,1.16.38,1.6.69.72,1.31,1.6,2.16,2.06,2.48,1.32,1.37,2.98.27,4.22-2.66,3.02-9.55,2.76-12.02-.35-1.07-1.34-.52-3.15-1-4.69-.25-.8.21-1.91-1.13-2.11l.03.03c-.3-.79-.99-1.03-1.71-1.25,1.72-1.95,0-3.95.08-5.92,2.17-.82,4.45-1.24,6.61-2.17,1.15-.49,2.9,1.03,4.5.62,2.58-.67,5.02.31,7.52.57,1.69.17,3.26.69,4,2.7,1.18-1.22,1.99-2.49,3.84-.97.94.77,2.33-.55,3.05-1.59.75-1.08,1.31-1.4,2.62-.64,1.92,1.13,4.3.08,6.37.97,1.55.67,3.35.83,2.61,3.46-.47,1.68,1.83,1.66,2.55,2.74Z"/>
    <path class="cls-11" d="m226.49,159.86c2.56,3.87,3.92,8.05,4.74,12.68.61,3.44.05,6.75.47,10.09.08.61.06,1.26-.68,1.61-1.41.67-1.41,1.91-1.23,3.21-.05.63-.09,1.26-.13,1.88-1.07,1.04-2.32,1.39-3.76.97.22-2.81.24-5.6-.74-8.31,0,0,0,.02,0,.02.13-2.12-.44-4.14-.95-6.17-.15-5.94-3.03-10.97-5.43-16.15-.57-1.22-1.98-1.45-3-2.14-.33-2.43-2.93-2.77-4.07-4.46-.11-.14-.21-.3-.29-.46,1.51-1.95-.77-2.95-1.11-4.44.68-.44,1.41-.54,2.19-.38.71,1.49,2.03,1.18,3.26,1.09,2.53.55,3.95,2.62,5.73,4.2.8.71,1.58,1.43,2.37,2.15.25,1.88,1.59,3.15,2.63,4.59Zm-1.72,14.2c.07-.16.18-.31.18-.45,0-.15-.12-.29-.18-.44-.06.14-.18.29-.18.43,0,.15.11.29.18.46Z"/>
    <path class="cls-6" d="m183.62,202.75c-.08,1.97,1.64,3.97-.08,5.92-.31.09-.61.18-.92.27-1.35-.26-2.29-.63-2.31-2.44-.01-1.14-.96-2.3-1.58-3.4-.53-.95-.69.34-1.1.25h0c-1.05-1.75-3.14-2.97-2.69-5.45.36-.21.72-.42,1.08-.64,0,0,.05.06.05.06,1.43,2.78,3.19,3.39,5.99,2.09.33,0,.66,0,.98.01.45,1,1.07,1.51,2.08.47.33,1.64-1.54,1.66-1.49,2.86Z"/>
    <path class="cls-13" d="m225.89,190.31c1.45.41,2.7.07,3.76-.97.86,1.56-.29,2.34-1.31,3.01-.9.59-1.48.08-1.63-.92-.26-.22-.52-.43-.78-.65-.06-.11-.14-.22-.19-.33,0-.02.09-.09.14-.13Z"/>
    <path class="cls-13" d="m218.52,198.44c-.18-.18-.36-.37-.54-.55,0,0,0,0,0,0,.18.18.37.36.55.54h-.01Z"/>
    <path class="cls-13" d="m218.53,198.43c.08.04.15.09.23.13-.08-.04-.16-.08-.24-.12,0,0,.01-.01.01-.01Z"/>
    <path class="cls-11" d="m225.94,190.78c.26.22.52.43.78.65-.26-.22-.52-.43-.78-.65Z"/>
    <path class="cls-13" d="m227.19,194.66c-.07-.1-.13-.2-.2-.3.1.07.2.14.29.2,0,0-.1.1-.1.1Z"/>
    <path class="cls-16" d="m210.3,223.59c2.82-1.51,5.07-3.97,8.24-4.88-.09.58-.18,1.16-.27,1.74l-.2-.03s-.21.02-.2.02c-1.57.44-1.15,1.2-.33,2.03-.04.15-.08.3-.13.45-1.82-.22-3.13,1.17-4.71,1.68-1.53.49-1.89.04-2.39-1.02Z"/>
    <path class="cls-3" d="m211.96,226.81c-.07-.09-.14-.18-.21-.26.08.07.17.15.25.22,0,0-.04.04-.04.04Z"/>
    <path class="cls-3" d="m212.47,227.39c-.17-.19-.34-.38-.51-.57,0,0,.04-.04.04-.04.19.17.39.33.58.5,0,0-.11.11-.11.11Z"/>
    <path class="cls-1" d="m47.76,161.98c1.85,2.38,4.87.75,7.03,2.06.15,3.93,1.91,6.75,5.65,8.19,0,0-.09-.03-.09-.03.63,1.05,2.17.94,2.68,2.13.94.1,1.88.2,2.81.29,3.65,1.54,7.47.86,11.22.76,1.75-.05,2.92-1.33,3.46-3.01.34-1.07.92-1.43,2.02-1.11,2.56.74,5.17.44,7.78.32.21.37.41.73.62,1.1.17.48.4,1.4.5,1.38,2.26-.34,2.23,1.66,2.98,2.84-1.42.99-2.75,1.91-.4,3.44.58.38.67,1.45,1.13,2.11.34.49.68.86.14,1.38-.45.44-1.02.52-1.48.15-1.34-1.07-3.43-1.2-4.03-3.19-.38-1.27-1.59-.43-1.54-.25.63,2.46-1.03.89-1.64.93-.62.03-1.32-.84-1.84.22.35.79,1.55.68,1.69,1.61.04.3-.14.69-.33.95-.16.21-.43.14-.63-.14-1.42-1.97-3.47-.18-5.09-1.14,1.08,1.19,3.36.2,3.59,2.12.08.67-.39,2.67-2.26,2.44-.31-1.17-1.07-1.42-1.98-.78-.57.4-1.08,1.23-.6,1.85.71.92,1.68.69,2.53,0,2.23-.1,1.47,1.56,1.59,2.7-2.01-.76-4.44-.14-6.18-1.9-.53-.53-1.42-.23-1.62.37-.88,2.6-4.9,3.06-4.19,6.74-.52-.64-.61-1.26-.96-1.58-1.96-1.75-.49-2.51.9-3.27.38-.21.87-.21,1.29-.36,1.4-.49.72-1.9.29-1.98-2.5-.42-2.51-3.49-4.88-3.93-1.04.95-2.11,2.69-3.56,3.1-3.45.97-1.98,3.18-1.84,5.15.04.59.71,1.12.14,1.87-3.69-.65-2.63-4.18-3.67-6.56-1.14,1.49-1.06,3.71-3.53,3.75-.36,0-1.99,1.37-.92,3.04.76,1.18,2.66,2.11,1.57,4.14-1.36-.73-2.74-1.35-3.75-2.65-1.57-2.01-2.31-4.75-5.03-5.75-.07-.03-.11-.14-.16-.22.45-1.58-.15-2.54-1.63-3.23-1.53-.71-2.1-4.71-.95-5.77,1.36-1.26,1.4-1.65-.23-2.37-1.9-.85-2.56-1.94-1.31-3.76.51-.74.79-1.72.29-2.29-1.54-1.79-.68-3.58-.28-5.39,3.27-.93,3.97-3.73,4.72-6.49Z"/>
    <path class="cls-11" d="m94.43,176.91c-.76-1.18-.72-3.18-2.98-2.84-.09.01-.33-.9-.5-1.38.69-.64,1.34-.93,2.41-.61,6.8,2.04,11.32,6.54,15.07,12.46,4.25,6.7,2.44,13.61,1.84,20.53-.38,4.34-1.85,8.44-3.63,12.41-.34-.34-.68-.68-1.02-1.02-.43-.27-.5-.68-.47-1.14,1.6-1.39.8-2.95.31-4.49.94-.35,1.37-1.03,1.27-2.03.79-1.02,1.74-2.02.59-3.38-1.11-2.25-1.77-4.48-.14-6.82.39-.56.49-1.33.69-2.02.43-1.51.37-3.61-.53-4.26-2.99-2.14-5.06-4.83-6.61-8.06l-.31-1.09c.46-1.14-.38-1.48-1.14-1.86-.32-1.83-.92-3.35-3.24-3.13-.9.08-1-.95-1.62-1.28Z"/>
    <path class="cls-3" d="m105.62,216.46c.34.34.68.68,1.02,1.01-1.66,4.7-3.68,9.19-7.45,12.64-.28-.19-.62-.61-.84-.55-4.37,1.08-8.55,2.71-12.73,4.34-.23.09-.53.28-.59.49-.64,1.94-2.31,1.99-3.9,2.2.53-3.43,1.88-6.16,5.43-7.58,1.02-.41,3.63-1.13,1.6-3.43-.03-.15-.03-.3.02-.45.79-.19,1.29-1.64,2.46-.34.71.79,1.61.5,1.99-.68.3-.93.69-1.82,1.04-2.73.2.03.4.06.6.09.25.74-.54,1.88.38,2.22.87.33,1.51-.67,2.23-1.19,1.28-.93,1.54-3.15,3.41-3.12,2.44.04,3.87-1.38,5.34-2.91Z"/>
    <path class="cls-11" d="m81.11,236.6c1.59-.21,3.26-.26,3.9-2.2.07-.21.36-.4.59-.49,4.18-1.63,8.37-3.26,12.73-4.34.22-.05.56.36.84.55-5.38,6.62-12.01,10.46-20.86,9.66-2.68-.24-5.4-.09-8.1-.11.31-1.61,2.1-.33,2.7-1.38.18-.02.36-.03.54-.02.82.86,1.83.47,2.79.42,1.07-.14,2.14-.28,3.21-.41.81.79.98.19,1.11-.51.03-.3.05-.6.08-.9.15-.11.3-.19.47-.26Z"/>
    <path class="cls-8" d="m60.24,238.97c-10.15-1.02-19.64-3.75-27.57-10.57,0,0,.02-.18.02-.18,0,0-.15-.1-.15-.1.55.04,1.16-.13,1.59.39.49,1.3,1.47,1.07,2.47.8l.16-.02c.33.84,1.05,1.06,1.84,1.37,3.47,1.37,6.88,2.86,10.32,4.3,1.38,1.68,3.19,1.79,5.14,1.41.19-.01.38-.03.58-.04,1.37-.07,2.6,1.59,4.07.32.78-.16,1.45.17,2.13.45.02.19.04.39.06.58-.48.29-.58.78-.65,1.28Z"/>
    <path class="cls-1" d="m32.55,228.13l.15.1s-.02.18-.02.18c-.52,0-1.04,0-1.56,0-2.65-2.22-5.01-4.83-8.42-5.97l.02.03c-.49-2.31-2.65-3.24-4.01-4.83-.91-1.08-2.24-1.82-2.59-3.33,0,0,.1-.11.1-.11,1.45-.37,3.66-1.26,4.02.51.59,2.93,3.53,3.43,4.71,5.66.42.79.87,2.45,2.17,2.48,3.55.07,3.77,3.38,5.43,5.29Z"/>
    <path class="cls-13" d="m89.74,170.74c-2.42-.25-4.84-.46-7.25-.78-.7-.09-1.47-.44-1.31-1.4.15-.92.96-.58,1.53-.69,2.2,1.44,5.06.88,7.23,2.42.04.03.02.17-.02.24-.04.08-.12.13-.18.2Z"/>
    <path class="cls-7" d="m22.7,222.44c3.41,1.14,5.77,3.75,8.42,5.97-.25,0-.5.01-.75.02-2.78-1.03-4.71-3.28-7.03-4.98l-.64-1.02Z"/>
    <path class="cls-11" d="m60.24,238.97c.07-.5.17-.99.65-1.28,1.81.46,3.58,1.34,5.49.44.47,1.24,2.37-.05,2.66,1.5-2.93-.22-5.86-.44-8.79-.66Z"/>
    <path class="cls-8" d="m69.04,239.63c-.29-1.55-2.19-.26-2.66-1.5,2.19-.61,4.37-.54,6.53.15-.59,1.05-2.39-.23-2.7,1.38-.39,0-.79-.02-1.18-.03Z"/>
    <path class="cls-6" d="m221.57,213.69c-1.64,1.42-3.24,2.91-4.94,4.25-6.43,5.07-14.05,6.81-21.96,7.67,1.49-1.75,2.97-3.53,5.51-3.76.67-.06.85-.55.82-1.15.15-.05.3-.07.45-.06,2.82-.35,5.73-.59,6.16-4.34,2.27.05,4.54.07,6.81.16,1.37.05,2.16-.52,1.93-1.91-.49-2.91,1.05-3.46,3.39-3,1.07.21,2.68-.97,3.14,1.07,0,0,.02-.03.02-.03-.66.1-.97.62-1.34,1.08Z"/>
    <path class="cls-12" d="m201.01,220.71c.03.6-.15,1.09-.82,1.15-2.55.22-4.02,2-5.51,3.76-3-.01-6-.03-9-.04,1.54-1.6-1.63-1.56-.99-2.85,1.32-1.37.84-4.23,2.35-4.65,1.35-.37,3.19,1.31,4.88,1.86,2.95.96,6.03.87,9.09.77Z"/>
    <path class="cls-6" d="m184.68,222.73c-.64,1.29,2.53,1.25.99,2.85-5.44-.25-10.95.41-16.3-1.04-.93-.25-2.85.17-2.28-2.02.1-.38-.38-.44-.78-.44-2.32-.02-2.68-1.69-2.87-3.49.36.02.72.05,1.07.07,0,0-.03-.02-.03-.02,2.44,2.59,5.44,3.33,8.78,2.37.95-.27,1.55.02,2.24.39,2.01,1.08,4.19,1.48,6.44,1.63.09.58.28,1.09,1.01.96.58-.1.61-.58.62-1.04.37-.06.74-.13,1.11-.19Z"/>
    <path class="cls-10" d="m207.63,216.31c-.44,3.75-3.34,3.98-6.16,4.34.06-.45.09-.91.19-1.35q1.05-4.7,5.97-2.99Z"/>
    <path class="cls-10" d="m172.87,217.65c-2.7-3.38-2.5-7.24-2-11.46,2.81,2.3,2.64,2.91,2,11.46Z"/>
    <path class="cls-16" d="m185.22,209.89c.44,1.3.42,2.58-.18,4.05-.95-1.08-1.64-2.16-1.38-3.53.17-.87,1.03-.39,1.59-.49l-.03-.03Z"/>
    <path class="cls-10" d="m183.57,222.92c-.01.47-.04.94-.62,1.04-.73.13-.92-.37-1.01-.96.54-.03,1.09-.06,1.63-.09Z"/>
    <path class="cls-1" d="m65.39,170.13c-3.02-.73-4.71-2.92-5.85-5.58-.69-1.6-.32-3.14,1.69-3.01,3.64.24,7.33.11,10.55,2.65,2.22,1.75,1.54,3.83,1.68,5.91-2.68,1.15-5.37.16-8.06.03Z"/>
    <path class="cls-11" d="m65.39,170.13c2.69.13,5.38,1.12,8.06-.03,1.16.35,1.3-.56,1.66-1.28.7-1.4,2.19-1.29,3.42-1.6.21-.05.86.59.84.88-.08,1.33-.16,2.67-1.58,3.48-3.38,1.92-7.13,2.38-10.88,2.85-.36.04-.71.13-1.06.2-.94-.1-1.88-.19-2.81-.29,1.24-3.39-1.62-1.63-2.68-2.13,0,0,.09.03.09.03-.02-.52-.04-1.04-.06-1.56.63.21,1.22.15,1.75-.29,1.1.11,2.23.6,3.25-.25Z"/>
    <path class="cls-1" d="m62.13,170.38c-.52.44-1.11.5-1.75.29-3.37-1.61-4.96-4.7-4.18-8.14.1-.43.23-.9.74-1.03.46-.12.73.22.71.58-.12,3.64,2.51,5.78,4.48,8.29Z"/>
    <path class="cls-13" d="m79.95,164.09c-.07,1.04-.05,2.2-1.64,1.28-1.22-.71-2.43-1.44-4.2-2.48,2.6-.4,4.08,1.08,5.86,1.22,0,0-.02-.01-.02-.01Z"/>
    <path class="cls-1" d="m151.29,198.44c-.67,6.69,1.07,12.83,4.23,18.66.64,1.19,1.18,2.45,2.34,3.27.04.15.05.3.04.45-1.03,1.03-1.84.87-2.88-.17-.97-.97-1.96-2.7-3.81-1.06-.25.22-.87,0-1.31,0,.51-.83-.52-1.63-.11-2.38.8-1.47,3.31-3.58-1.22-2.74-.06.01-2.05-1.21-2.43-2.2-.51-1.34-.13-2.9.66-4.15.56-.88,1.54-1.61-.29-2.07.11-.44.21-.89.32-1.33.94-1.71,1.16-3.77,2.72-5.22.55-.52.98-.99,1.75-1.05Z"/>
    <path class="cls-7" d="m157.9,220.81c0-.15,0-.3-.04-.45.1-.09.2-.18.29-.28.33.22.66.43.99.65-.1.1-.2.21-.29.32-.31-.08-.62-.16-.94-.24Z"/>
    <path class="cls-7" d="m159.42,221.55c-.2-.17-.39-.33-.59-.5.09-.11.19-.21.29-.32.18.18.36.36.54.55-.08.09-.16.18-.25.27Z"/>
    <path class="cls-13" d="m179.75,226.97c.21.02.42.05.64.07-.25.3-.46.25-.64-.07Z"/>
    <path class="cls-3" d="m145.43,22.83c-.17-2.58-.06-5.14.44-7.67.08-.37.16-.73.24-1.1.65-.77.92-.65.98.35.15,2.51-.41,4.92-.89,7.35-.26.36-.52.72-.78,1.07Z"/>
    <path class="cls-15" d="m146.94,22.91c.26,1.81-.14,3.45-1.38,5.48-.16-1.98-.4-3.36.7-4.53.23-.32.45-.63.68-.95Z"/>
    <path class="cls-14" d="m146.11,14.06c-.08.37-.16.73-.24,1.1-1.39-.11-.65-1.63-1.42-2.14-.09-.44-.08-.84.33-1.13,1.58.03,1.15,1.29,1.33,2.17Z"/>
    <path class="cls-14" d="m146.94,22.91c-.23.32-.45.63-.68.95-.58-.1-1.59.16-.84-1.03.26-.36.52-.72.78-1.07.67.11.8.57.74,1.15Z"/>
    <path class="cls-13" d="m151.87,181.45c.45,1.93-.59,3.71-.59,5.59-.82-.03-2.03-.19-1.82-1.05.6-2.54-1.05-1.1-1.83-1.19l-.12-.22-.09.1.22.12c-.02,1.14.16,2.29-.3,3.41-.33.8-.37,1.73-1.46,2.02-1.44.38-1.38-1.06-2.06-1.59-1.31-1.17-1.2-1.11-.31-2.67.59-1.02-.32-1.85-.93-2.61-1.66-2.05-2.02-4.12-.31-6.35.42-.54.82-1,1.52-.95,1.87.15,3.52-.83,5.32-1.06.37-.05.71-.72,1.1-.12.29.45.03,1.01-.4,1.12-1.92.46-1.92,2.39-3.18,3.58q4.46.05,5.26,1.87Z"/>
    <path class="cls-3" d="m146.01,195.68c.51.24,1.48-.8,1.58.55.05.66-.23,1.45-.88,1.39-1.2-.1-.54-1.23-.75-1.89,0,0,.05-.05.05-.05Z"/>
    <path class="cls-13" d="m10.18,162.98c-1.83,2.94-2.82,6.23-3.88,9.49-.28.86-.74,1.68-.39,2.62-.06.14-.09.29-.1.44h0c-.11.07-.23.11-.36.11-2.3-3.15.85-5.81.78-8.69-.08-3.04,1.36-3.91,3.95-3.96Z"/>
    <path class="cls-4" d="m11.31,198.38c.3-1.84-.79-3.32-1.43-4.86-1.81-4.35-1.62-8.76-.86-13.25.09-.52,0-1.07,0-1.61.12-.29.25-.57.37-.86.04-.22.09-.45.13-.67,0-.13-.01-.26-.05-.38.75-3.99.72-8.2,3.44-11.61-.22,3.75-2.15,7.22-2.09,11.68,1.7-2.1,2.96-3.71,4.28-5.26.51-.59.99-1.49,1.9-1.33,1.31.23.52,1.52.9,2.24-.21.63-.41,1.26-.62,1.89-.49.31-.69.71-.43,1.27l.02-.03c-2.89,3.83-4.18,8.29-4.44,12.93-.18,3.17.27,6.46.42,9.61.12,2.53-.3,5.3.03,7.99-.18.03-.36.02-.54-.01l-.02-.04c-.08-.2-.17-.4-.25-.6-.24-.71-.48-1.42-.72-2.13-.02-.18-.03-.37-.05-.55.26-.75.15-1.48-.12-2.2.04-.74.09-1.48.13-2.22Zm4.25-25.11c-5.35,4.63-7.47,13.87-4.21,19.54-.09-3.59-.1-6.84,1.06-9.96,1.16-3.12,2.21-6.29,3.3-9.43.06-.12.13-.24.19-.36-.12.07-.23.13-.35.2Z"/>
    <path class="cls-1" d="m11.31,198.38c-.04.74-.09,1.48-.13,2.22-.47-.97-1.07-1.77-2.23-1.97-1.43-.24-2.23-1-2.06-2.54.17-1.54-.6-2.49-1.95-3.06-.42-4.44.23-8.79.99-13.32.85.62.92,1.37.92,2.13,0,1.82-.37,3.66.55,5.41.25.47.64,1.34-.09,1.72-2.14,1.1-1.25,2.72-.22,3.53,2.04,1.59,2.03,4.51,4.22,5.88Z"/>
    <path class="cls-13" d="m4.94,193.02c1.36.57,2.12,1.53,1.95,3.06-.17,1.54.63,2.3,2.06,2.54,1.16.19,1.76,1,2.23,1.97.26.72.37,1.45.11,2.2-1.7-.16-3.19-.91-4.7-1.64-1.19-2.25-1.32-4.77-1.86-7.18.07-.32.13-.63.2-.95Z"/>
    <path class="cls-13" d="m9.39,177.8c-.12.29-.25.57-.37.86-.7-1.42-3.77-.41-3.2-3.13,0,0,0,0,0,0,.17-.16.34-.31.5-.47.21-.07.42-.15.63-.22.84.64,1.68,1.28,2.52,1.92.04.12.06.25.05.38-.07.06-.19.12-.19.18,0,.16.04.33.06.49Z"/>
    <path class="cls-1" d="m12.35,206.12c.18.04.36.04.54.01,0,0-.02-.05-.02-.05.07.68.16,1.33,1.12,1.12l-.03-.04c-.17,1.02-.1,1.91,1.12,2.23l-.04-.04c.37.37.74.73,1.11,1.1.02,1.25.04,2.5.06,3.75,0,0-.1.11-.1.11-1.74-1.16-2.95-2.84-4.35-4.35,1.14-1.14.38-2.56.57-3.84Z"/>
    <path class="cls-13" d="m12.35,206.12c-.19,1.28.56,2.7-.57,3.84-.33-.22-.67-.44-1-.66-.01-.17-.02-.34-.02-.51.77-.52.38-1.13.27-1.83-.18-1.19-.99-2.52.33-3.6.24.71.48,1.42.72,2.13-.14.1-.27.19-.41.29.22.11.44.21.66.32l.02.04Z"/>
    <path class="cls-8" d="m11.35,203.35c-1.32,1.08-.51,2.42-.33,3.6.11.71.5,1.31-.27,1.83-2.09-2.16-3.38-4.75-4.15-7.63,1.5.73,2.99,1.48,4.7,1.64.02.18.03.37.05.55Z"/>
    <path class="cls-13" d="m218.28,220.45c.09-.58.18-1.16.27-1.74.21-.21.43-.42.64-.63,1-.16,1.56-.66,1.38-1.75,0,0,.03-.06.03-.06.4.05.8.1,1.19.15,0,0,.02.02.02.02-.32,1.23-.9,2.47.03,3.69-1.12.79-2.32.82-3.56.31Z"/>
    <path class="cls-13" d="m224.01,215.9c-.04.63.05,1.31-.7,1.62-.5-.36-1-.72-1.5-1.08,0,0-.02-.02-.02-.02.33-1.92,1.5-.29,2.22-.52Z"/>
    <path class="cls-4" d="m221.57,213.69c.37-.46.68-.99,1.34-1.08.41.63-.02.96-.45,1.3-.3-.07-.59-.14-.89-.22Z"/>
    <path class="cls-9" d="m9.47,176.75c-.84-.64-1.68-1.28-2.52-1.92.91-3.61,1.64-7.29,4.25-10.2.59-.18,1.19-.36,1.78-.55-.03.36-.07.72-.1,1.07l.02-.02c-2.71,3.41-2.69,7.62-3.44,11.61Z"/>
    <path class="cls-10" d="m6.32,175.06c-.17.16-.34.31-.5.47,0-.15.04-.3.1-.44.13-.04.27-.06.4-.03Z"/>
    <path class="cls-1" d="m221.8,216.44c.5.36,1,.72,1.5,1.08.05.55.1,1.09.15,1.64-.64-.02-1.06.25-1.15.92-.15.06-.31.08-.48.06-.93-1.22-.35-2.46-.03-3.69Z"/>
    <path class="cls-13" d="m217.53,222.47c-.82-.83-1.24-1.6.33-2.03.07.71,1.32,1.61-.33,2.03Z"/>
    <path class="cls-15" d="m215.13,183.69c-.94-.78-1.26-.81-5.59-.41,2.29-2.29,1.88-2.38-.93-3.96-1.46-.82-3.39-1.12-4.47-2.49-1.29-1.63-2.35-1.12-3.45.04-1.37,1.43-2.11.72-2.27-.78-.16-1.51-.11-2.86-1.41-4.14-1.15-1.13.68-.37.87-.79.57.26,1.58.44,1.64.78.37,2.08,1.95,2.22,3.42,2.08,2.36-.23,3.07,2.03,4.72,2.83.51.25.81.76,1.2,0,.29-.55,1.37-1.05.41-1.77-1.97-1.49-1.34-3.43-1.01-5.29.13-.71.99-1.26.22-2.15-.38-.43.22-.73.6-.99,1.23-.82,2.72.25,4.03-.55.22-.13,2.17.02,1.63,1.72-.17.55.34.92.76,1.31,2.96,2.74,2.96,3.52-.45,5.86-1.4.96-2.07,1.76-.87,3.25h0c-.81-.34-1.16-.4-.77.73.54,1.59,1.88,2.88,1.75,4.71Z"/>
    <path class="cls-3" d="m226.49,159.86c-1.04-1.44-2.38-2.7-2.63-4.59.41-1.26,2.23-1.13,2.56-2.74-2.26-.14-2.34-2.21-3.1-3.69-1.16-2.24-2.42-4.08-6.24-1.58,3.11-3.83-.63-3.2-1.28-4.46h0c.85,0,1.72.03,1.59-1.22-.08-.83-.67-.97-1.35-1-1.78-.09-3.75.59-4.78-1.84-.57-1.35-1.7,1.56-2.58-.03.38-1.62,2.07-1.82,2.75-1.25,1.96,1.63,3.93.35,5.86.53.18.49.11,1.19.72,1.36,2.81.78,4.4,3.2,6.53,4.89,1.09.86,2.37,1.75,1.99,3.8-.15.84,1.28,2.47,2.34,2.92,2.98,1.28,3.66,3.29,2.81,6.17-.12.41.02.89.04,1.34-.33-.08-.72-.07-.97-.25-2.58-1.83-3.73-1.41-4.27,1.63Z"/>
    <path class="cls-1" d="m224.19,175.86c.51,2.03,1.08,4.04.95,6.17-2.91-1.65-3.35-4.51-.95-6.17Z"/>
    <path class="cls-3" d="m175.43,158.6c-1.81.85-3.35,2.28-5.44,2.55.33-1.72,3.69-4.25,5.12-3.77.22.07.22.79.32,1.21Z"/>
    <path class="cls-8" d="m210.3,148.21c.34,1.49,2.61,2.49,1.11,4.44-1.89.05-2.28-1.66-2.82-2.79-.67-1.38.95-1.27,1.72-1.65Z"/>
    <path class="cls-8" d="m211.69,153.11c1.13,1.69,3.74,2.04,4.07,4.46-1.94-.96-4.36-1.47-4.07-4.46Z"/>
    <path class="cls-1" d="m215.68,188.57c.03-.7.05-1.4.08-2.1,1.18-.16,2.08.39,1.93,1.52-.14,1.04-1.29.48-2.01.58Z"/>
    <path class="cls-8" d="m215.76,148.93c-1.24.08-2.55.4-3.26-1.09,1.29-.24,2.44-.05,3.26,1.09Z"/>
    <path class="cls-15" d="m180.15,151.29c-.2.15-.43.47-.73.54-.4.09-.63-.24-.61-.63.02-.39.28-.65.67-.66.39-.01.65.19.67.75Z"/>
    <path class="cls-1" d="m218.67,183.78c.23.25.38.42.54.6-.16.13-.35.38-.49.35-.19-.03-.42-.25-.48-.43-.03-.1.25-.31.43-.52Z"/>
    <path class="cls-1" d="m220.73,184.43c.09.11.18.23.27.34-.16.13-.32.25-.48.38-.06-.14-.19-.29-.17-.41.02-.1.21-.18.38-.3Z"/>
    <path class="cls-15" d="m206.88,168.9c.04.2.12.38.08.53-.06.25-.22.26-.33.04-.04-.07-.06-.19-.02-.26.06-.11.17-.2.28-.31Z"/>
    <path class="cls-1" d="m217.44,195.72c-.07.24-.15.48-.22.72-.07-.05-.2-.14-.2-.14.13-.2.27-.4.4-.6,0,0,.02.02.02.02Z"/>
    <path class="cls-15" d="m215.45,179.74c.06,0,.14,0,.16.02.04.05.03.13.05.2-.09,0-.19-.02-.28-.03.02-.06.05-.13.07-.19Z"/>
    <path class="cls-15" d="m214.16,178.25c.07.04.15.08.22.12-.07-.04-.15-.08-.22-.12h0Z"/>
    <path class="cls-3" d="m215.8,142.8l-.22-.23s.12.01.14.04c.04.05.05.13.08.19h0Z"/>
    <path class="cls-1" d="m162.1,171.72c.96-1.14,2.22-2.04,2.74-3.52,1.66-.74,1.97.71,2.49,1.63,1.2,2.13,2.72,3.9,4.91,5.04,1.32.8,2.81,1.11,4.32,1.39-.24.82-1.25,1.17-1.11,2.12,0,0,.04-.09.04-.09-.68-.19-1.28-.17-1.54.64-1.91.42-3.81,2-5.75,0-.13-.13-.65.13-.99.21-.35.04-.7.08-1.06.11,0-.17,0-.33.02-.5.82-3.6-2.67-4.71-4.07-7.03Z"/>
    <path class="cls-8" d="m168.4,188.64c-1.87-1.8-4.11-3.13-4.03-6.47.04-1.81,0-2.88,1.81-3.42-.02.17-.03.33-.02.5-.79,2.09.76,3.17,1.9,4.44.41.45,1.53.79,1.22,1.24-1.33,1.97.63,2.33,1.4,3.27.52.63.97,1.28.86,2.16-1.04-.57-2.09-1.14-3.13-1.72Z"/>
    <path class="cls-4" d="m164.52,218.65c-.36-.02-.72-.05-1.07-.07,0,0,.02.03.02.03-.22-1.44-1.33-2.33-2.17-3.34-3.5-4.17-6.37-8.52-5.52-14.36.1-.68.4-1.7-.77-2.01,0-.29.02-.58.03-.88.77-.06.76-.7.91-1.22.43-.31.45-.73.29-1.19.04-.33.09-.66.13-.99,1.17.21,1.11,1.13.91,1.89-2.02,7.88.71,14.25,6.18,19.77.66.67,1.18,1.36,1.07,2.36Z"/>
    <path class="cls-6" d="m168.4,188.64c1.04.57,2.09,1.14,3.13,1.72.77.88,1.53,1.75,2.3,2.63-.46,2.03,1.68,2.73,2.17,4.27-.36.21-.72.42-1.08.63-.87-1.67-2.33-2.81-4.08-3.02-2.41-.29-2.93-1.43-2.5-3.56.17-.86.05-1.79.06-2.68Z"/>
    <path class="cls-1" d="m156.36,194.62c-.04.33-.08.66-.13.99-.72.07-.98.58-1.13,1.19-1.16.34-1.03.75-.07,1.22,0,.29-.02.58-.03.88-.75.18-1.49.37-2.23.55-.6-5.14-.14-10.17,1.45-15.1,2.36,1.55,1.46,3.32.44,5.21-1.58,2.93-1.27,3.75,1.69,5.07Z"/>
    <path class="cls-16" d="m177.62,203.35c.43,2.82-.13,3.75-1.98,3.24-1.1-.3-1.77-1.14-.55-1.81.84-.46.81-2.62,2.52-1.44,0,0,0,0,0,0Z"/>
    <path class="cls-3" d="m235.55,169.97c-.99.06-2.01.26-2.52-.98-.46-1.1-.3-1.74.85-2.39.82-.47.48-1.39-.53-1.41-1.93-.05-1.94-.98-1.1-2.22.57-.85.07-2.04,1-2.71.91.1,2,.84,1.45,1.44-1.54,1.69-.17,2.66.63,3.64,1.27,1.57,1.28,3.03.22,4.63Z"/>
    <path class="cls-6" d="m152.78,199.44c.74-.18,1.49-.36,2.23-.55,1.17.31.87,1.33.77,2.01-.85,5.84,2.02,10.19,5.52,14.36.84,1,1.96,1.9,2.17,3.34-2.05.33-2.54-1.56-3.4-2.64-3.13-3.92-6.3-7.86-7.2-13.05-.21-1.18-.31-2.31-.09-3.47Z"/>
    <path class="cls-16" d="m159.67,221.28c-.18-.18-.36-.36-.54-.55-.33-.22-.66-.43-.98-.65-1.23-2.66-2.45-5.32-3.68-7.98-.41-.89-.98-1.72-.84-2.77h0c.86.32,1.12,1.17,1.55,1.83,2.04,3.2,3.88,6.53,6.96,8.94.65.51,1.24,1.34,1.31,2.32h0c-1.26-.39-2.52-.77-3.77-1.15Z"/>
    <path class="cls-1" d="m220.56,216.33c.18,1.09-.38,1.59-1.38,1.75-.16-1.08.48-1.51,1.38-1.75Z"/>
    <path class="cls-16" d="m153.62,209.34c-.15-.3-.3-.6-.43-.9,0,0,.19-.1.3-.16.05.35.09.71.14,1.06h0Z"/>
    <path class="cls-16" d="m163.43,222.43c.08.07.16.15.24.22-.05-.01-.12,0-.15-.04-.04-.05-.06-.13-.08-.19h0Z"/>
    <path class="cls-12" d="m43.04,168.47c-.4,1.82-1.25,3.6.28,5.39.49.57.21,1.55-.29,2.29-1.25,1.82-.59,2.92,1.31,3.76,1.62.72,1.59,1.12.23,2.37-1.16,1.07-.58,5.07.95,5.77,1.48.69,2.08,1.65,1.63,3.23-.9.26-1.39.96-.54,1.52,3.19,2.12.53,5.7,2.13,8.32.37.61.58,1.82,1.05,2.82,1.18,2.5,5.8,3.66,2.96,7.84,2.51-.47,4.36-.56,3.4,2.79-.29,1.01.63,2.24,2.04,1.74,1.53-.54,2.11.17,2.72,1.35.4.77,1.09,1.4,1.64,2.09,0,1.09-.16,2.28,1.54,2.15.19.36.37.71.56,1.07-.56.43-.45,1.05-.46,1.63-.61.3-1.17.77-1.03,1.45.51,2.53-1.09,3.51-3.01,4.27-1.15.45-2.41.54-3.52,1.26-.67.44-1.39-.14-1.65-.94-.25-.77-.45-1.56-.67-2.33-.09-.61.78-1.25.17-1.76-.76-.64-1.03.25-1.42.7-.63.73-1.38.86-2.38.92-2.32.14-3.98-.97-5.56-2.35-.86-.75-1.33-.81-1.63.46-.7,2.96-1.82,3.4-4.66,2.07-1.73-.82-2.79-2.59-4.66-3.19,0,0,.03.03.03.03-.2-1.04-.91-1.97-.41-3.14,1.67-3.83.68-7.88.88-11.82.05-.89-.08-2.13-1.15-2.14-1.15,0-1.46,1.15-1.47,2.23,0,2.81.02,5.62-.02,8.43,0,.78.43,1.86-.37,2.26-1.01.51-1.57-.64-2.14-1.24-7.5-7.99-9.36-17.64-8.28-28.16.4,1.09.82,2.18,1.2,3.27.32.92.88,1.34,1.84.98.75-.28,1.35-.85.95-1.65-1.54-3.04-.75-6.38-1.33-9.54-1.53-8.33,1.52-16.21,8.32-20.27.69-.21,1.32-.47,1.24-1.37,1.69-.33,4.64,1.2,5,2.86.25,1.14.71,1.45,1.76,1.5.88.04,1.74.34,2.61.53.06.19.13.38.19.58Z"/>
    <path class="cls-9" d="m42.85,167.89c-.87-.19-1.73-.49-2.61-.53-1.06-.05-1.51-.36-1.76-1.5-.36-1.66-3.31-3.19-5-2.86-.49.04-.97.08-1.46.12-1.49-.32-2.54.84-3.84,1.16-1.72-.69-.17-1.99-.54-2.93h0c.76-.04,1.58.25,2.18-.5,2.88-.34,5.46.78,8.12,1.57.73.22.92.58,1.16,1.24.78,2.13,2.29,2.27,3.73.37.32-.42.39-1.09,1.1-.67.52.3.69.87.45,1.42-.47,1.06-1.01,2.08-1.53,3.12Z"/>
    <path class="cls-10" d="m29.82,160.85c-.59.75-1.42.46-2.18.49.18-.2.35-.39.53-.59.55.03,1.1.06,1.65.09Z"/>
    <path class="cls-11" d="m232.14,185.5c-.24.23-.41.52-.61.55-.57.09-.48-.38-.38-.67.06-.19.35-.4.54-.41.13,0,.28.32.45.53Z"/>
    <path class="cls-1" d="m54.33,161.62c-.08.14-.16.28-.24.41-.08-.13-.22-.27-.22-.4,0-.14.13-.28.21-.41.08.13.17.26.25.4Z"/>
    <path class="cls-13" d="m181.41,147.73c-.07-.09-.14-.18-.21-.27.09.07.17.14.26.22,0,0-.05.05-.05.05Z"/>
    <path class="cls-4" d="m175.45,178.38c-.14-.95.87-1.3,1.11-2.12-1.51-.28-3-.58-4.32-1.39.15-.14.3-.28.44-.42.91.16,1.82.33,2.72.49,1,.02,2,.06,2.99.04.51,0,1.17.05,1.21-.74.11-2.39,1.98-3.28,3.67-4.28,1.91-1.12,4,.17,6.01-.33.78-.19.89.75.74,1.4-.21.89-.68,1.65-1.3,2.35-.48.54-1.65,1.03-.87,1.9.63.71,1.5.14,2.18-.38.29-.22.62-.4,1.22.18-2.98,2.47-5.69,5.2-9.62,6.15-.44-.12-.88-.23-1.32-.35.99-.38,2.03-.67,2.97-1.16,1.5-.78,1.7-1.63.07-2.64-2.55-1.58-4.55-1.26-6.75,1.24-.38.19-.76.5-1.16.03Z"/>
    <path class="cls-16" d="m175.41,174.95c-.91-.16-1.82-.33-2.72-.49.02-.18.04-.35.05-.53,1.93-1.39,5.19-2.09,2.93-5.65.6-.91.95-1.91.97-3.02.99-.23,1.67-.68,1.38-1.85-.04-.31-.08-.63-.12-.94,1.35-.06,2.29-.72,2.42-2.07.17-1.65,1.35-2.15,2.59-2.26,1.47-.12,2.8-.74,4.19-.9,2-.23,4.44-1.78,5.96.53,1.14,1.72,2.87,2.99,3.02,5.69.11,1.91-.71,3.89.09,5.76-.02.28-.05.56-.07.84,0,0-.04,0-.04,0-1.49-.14-.61-1.49-1.05-2.06-1.65-2.14,1.62-6.72-3.51-7.07-1.86-2.89-4.48.18-6.58-.84-2.26,2.98-5.99,4.88-7.04,8.68-.6,2.19-1.14,4.3-2.45,6.17Z"/>
    <path class="cls-13" d="m196.16,169.22c-.8-1.87.02-3.86-.09-5.76-.15-2.71-1.88-3.97-3.02-5.69-1.52-2.3-3.96-.75-5.96-.53-1.39.16-2.73.78-4.19.9-1.25.11-2.42.61-2.59,2.26-.14,1.35-1.07,2.01-2.42,2.07-1.45-.82-.37-1.69.25-1.83,1.68-.37.98-1.51,1.05-2.42,4.19-3.09,9.04-2.21,13.74-2.36,2-.06,3.69.81,5.53,1.23,1.15.26,1.51,1.3,1.54,2.56.07,3.76-1.71,6.73-3.84,9.57Z"/>
    <path class="cls-3" d="m179.19,158.23c-.07.91.63,2.05-1.05,2.42-.63.14-1.7,1.01-.25,1.83.04.31.08.63.12.94-.63.49-2.4.14-1.38,1.85-.02,1.1-.37,2.1-.97,3.02-1.33,1.14-3.38,1.99-4.3.64-1.14-1.67-2.08-1.54-3.5-1.08,0,0-.02-.01-.02-.01-.15-.17-.3-.35-.45-.52-.06-3.31,2.95-4.19,4.88-5.67,2-1.53,4.59-2.3,6.92-3.4Z"/>
    <path class="cls-13" d="m167.87,167.83c1.42-.45,2.36-.59,3.5,1.08.92,1.35,2.97.5,4.3-.64,2.26,3.56-1,4.26-2.93,5.65-2.38-1.43-4.22-3.29-4.87-6.09Z"/>
    <path class="cls-13" d="m167.39,167.3c.15.17.3.35.45.52-.34,0-.48-.2-.45-.52Z"/>
    <path class="cls-12" d="m27.63,161.35c.37.94-1.18,2.24.54,2.93-.35.36-.69.72-1.03,1.08-.49.35-.99.71-1.48,1.06-3.96.25-6.05,2.91-7.76,6.05-.38-.73.41-2.01-.9-2.24-.91-.16-1.39.74-1.9,1.33-1.33,1.55-2.58,3.16-4.28,5.26-.06-4.46,1.87-7.93,2.09-11.68,0,0-.02.02-.02.02,1.8-.37,3.13-1.31,3.79-3.08,1.55-1.71,3.66-1.66,5.67-1.61.89.02,2.33.18,1.62,1.97-.29.74.24,1.54.94,2.57-.34-2.47.23-3.93,2.72-3.66Z"/>
    <path class="cls-4" d="m16.67,162.08c-.66,1.77-1.99,2.71-3.79,3.08.03-.36.07-.72.1-1.07,1.06-.52,2.06-1.12,2.71-2.16.33.05.66.1.99.16Z"/>
    <path class="cls-16" d="m21.13,158.67l-.28.2c.07-.09.13-.19.2-.28,0,0,.08.08.08.08Z"/>
    <path class="cls-11" d="m173.83,192.99c-.77-.88-1.53-1.75-2.3-2.63.11-.88-.34-1.53-.86-2.16-.77-.94-2.73-1.3-1.4-3.27.3-.45-.82-.78-1.22-1.24-1.14-1.27-2.69-2.35-1.9-4.44.35-.04.7-.07,1.05-.11.78,1.6,1.79,2.67,3.8,1.89.91-.35,1.72-.33,1.84,1.02.03.29.64.72,1.01.75,1.95.18,3.92.26,5.87.36,1.06.06,2.03-.05,2.21-1.4.36.04.73.08,1.09.12.34.76.72.85,1.14.06,1.76-.04,3.31-.73,4.78-1.62,1.52-.63,3.2-.8,4.66-1.67.98-.58,1.76.15,2.3.84.61.77,0,1.33-.69,1.71-2.05,1.14-2.65,3.87-5.06,4.61-.05-.17-.14-.48-.16-.48-2.68.6-5.03,2.18-7.84,2.45.34,1.33,2.09,1.15,2.04,2.5-.55,1.12-2,1.87-1.36,3.47.16.39-.14.77-.5.8-1.43.12-2.98-.15-4.28.3-1.9.67-2.64-.39-3.52-1.59-.13-.18-.48-.19-.73-.28Z"/>
    <path class="cls-12" d="m188.96,180.33c-1.48.89-3.02,1.57-4.78,1.62-.36-.42-.75-.3-1.14-.06-.36-.04-.73-.08-1.09-.12-.1-.17-.2-.35-.3-.52,3.93-.95,6.64-3.67,9.62-6.15-.6-.58-.93-.4-1.22-.18-.68.52-1.55,1.09-2.18.38-.78-.88.39-1.37.87-1.9.62-.7,1.09-1.46,1.3-2.35.15-.65.04-1.6-.74-1.4-2.01.5-4.1-.79-6.01.33-1.69,1-3.56,1.89-3.67,4.28-.03.79-.69.73-1.21.74-1,.02-1.99-.03-2.99-.04,1.31-1.87,1.85-3.98,2.45-6.17,1.05-3.8,4.78-5.7,7.04-8.68,2.1,1.02,4.72-2.05,6.58.84,5.13.35,1.86,4.93,3.51,7.07.44.57-.44,1.92,1.05,2.06-1.85,3.77-4.48,7-7.07,10.26Z"/>
    <path class="cls-8" d="m184.21,190.28c.05-1.36-1.7-1.17-2.04-2.5,2.82-.27,5.16-1.85,7.84-2.45.02,0,.1.31.16.48-1.54,2.08-3.98,2.96-5.96,4.47Z"/>
    <path class="cls-1" d="m182.04,199.4c-2.8,1.3-4.56.69-5.99-2.09,1.86-.42,3.32,1.68,5.32.79.41-.18.58.77.67,1.3Z"/>
    <path class="cls-13" d="m224.76,174.06c-.07-.17-.18-.31-.18-.46,0-.14.11-.29.18-.43.06.15.18.29.18.44,0,.14-.11.29-.18.45Z"/>
    <path class="cls-6" d="m62.54,219.75c-.56-.69-1.24-1.31-1.64-2.09-.61-1.18-1.19-1.89-2.72-1.35-1.42.5-2.33-.73-2.04-1.74.96-3.34-.88-3.26-3.4-2.79,2.84-4.17-1.77-5.34-2.96-7.84-.47-1-.68-2.21-1.05-2.82-1.6-2.63,1.05-6.21-2.13-8.32-.84-.56-.35-1.26.54-1.52.05.07.09.19.16.22,2.72,1,3.46,3.75,5.03,5.75,1.01,1.29,2.39,1.91,3.75,2.65,1.09-2.03-.8-2.96-1.57-4.14-1.08-1.66.56-3.03.92-3.04,2.48-.04,2.4-2.26,3.53-3.75,1.04,2.38-.02,5.91,3.67,6.56.57-.76-.1-1.28-.14-1.87-.14-1.97-1.61-4.18,1.84-5.15,1.45-.41,2.52-2.15,3.56-3.1,2.37.44,2.38,3.51,4.88,3.93.43.07,1.11,1.49-.29,1.98-.42.15-.91.15-1.29.36-1.39.76-2.86,1.52-.9,3.27.36.32.45.94.96,1.58-.71-3.67,3.31-4.13,4.19-6.74.2-.6,1.1-.91,1.62-.37,1.75,1.76,4.17,1.14,6.18,1.9,1.52,1.14,1.91-.55,2.76-1.1,2.06-1.05,4.48.14,6.52-1.06,2.03.75,3.31,1.98,2.75,4.36-.37-.18-.73-.37-1.1-.55-.07-.4-.08-.93-.66-.8-.19.04-.28.52-.41.81-.35.04-.75.04-.82.5-.01.09.21.32.3.3.46-.07.44-.48.5-.82.37,0,.74,0,1.1,0,.11.69.16,1.49,1.08.54,2.21-.23,2.24-.23,2.71,1.77.09.4.29.35.51.38,3.72.61,1.22,4.68,3.41,6.14-.22.15-.44.3-.66.46-.46-.23-.93-.46-1.39-.7-1.33-1.72-3.2-1.8-5.12-1.7-.35,0-.71.01-1.06.02-.48-.4-.8-.14-1.08.27-4.34.42-7.36,2.46-8.41,6.9-1.03.03-2.05.07-3.08.1l-.02-.02c-.5-2.46-2.88-3.54-4.14-5.47-.46-.71-1.39,1.01-2.32,1.19-.2.04-.51-.08-.67-.24-.51-.52-1.02-1.28-1.54-.09-.35.78-.94,1.88.37,2.24.74.21,1.11,1.55,2.48.53.67-.5,1.67,1.39,2.29,2.3.68,1-.62,1.25-1.04,1.86-1.26,1.85-1.66,2.15-1.91-.36-.04-.45-.45-.81-.97-.77-.6.04-.98.42-1.19.97-.45,1.17-.85,2.39-2.28,2.75-.07-.04-.15-.08-.22-.13.08.04.15.08.23.13-.04,1.12-.83,1.11-2.11.56-.58.15-.24.35.21.5.27.09.31.06.25-.22-.08-.4.05-.91-.47-1.07-.14-.04-.37.2,0,.8-2.02.99-3.18,2.52-3.41,5.02-.1,1.08-1.01,1.8-2.11,2.1Zm-4.71-27.47c-.02.06-.05.13-.07.19.09,0,.19.02.28.03-.01-.07,0-.15-.05-.2-.02-.03-.11-.02-.17-.02Z"/>
    <path class="cls-13" d="m86.01,190.23c-.85.54-1.24,2.23-2.76,1.1-.11-1.15.64-2.8-1.59-2.7.02-.36.03-.71.05-1.07,1.87.23,2.34-1.77,2.26-2.44-.23-1.93-2.51-.93-3.59-2.12,1.61.95,3.66-.84,5.09,1.14.2.28.47.35.63.14.2-.26.38-.65.33-.95-.13-.93-1.34-.82-1.69-1.61.52-1.05,1.22-.18,1.84-.22.61-.03,2.27,1.54,1.64-.93-.05-.18,1.16-1.02,1.54.25.6,1.99,2.69,2.12,4.03,3.19.46.37,1.03.28,1.48-.15.54-.52.2-.89-.14-1.38-.45-.66-.54-1.73-1.13-2.11-2.35-1.53-1.01-2.45.4-3.44.62.33.71,1.36,1.62,1.28,2.32-.21,2.92,1.3,3.24,3.13-.27,1.02.22,1.57,1.14,1.86.1.36.21.72.31,1.09-.45.82-1.35,2.33-1.29,2.37,1.78,1.15,2.01,3.55,3.76,4.64,1.33.83,3.26,2.56,2.65,3.23-1.93,2.15.1,4.77-1.38,6.83-.3.41-.8,1.69.65,2.14.83.26.44,1.26.59,1.94-.82.65-1.66.69-2.52.09-.12.04-.25.05-.37.04.36-1.4-.65-2.06-1.52-2.79-.06-.16-.09-.33-.08-.5.22-.15.44-.3.66-.46-2.19-1.46.31-5.53-3.41-6.14-.22-.04-.41.02-.51-.38-.47-2-.5-1.99-2.71-1.77,0,0,0,.01,0,.01.56-2.38-.72-3.61-2.75-4.36-.52-1.43-1.58-2.63-1.63-4.27-.05-1.41-.67-1-1.57-.51-2.37,1.28-2.9,3.5-3.31,5.84Z"/>
    <path class="cls-16" d="m81.71,187.55c-.02.36-.03.71-.05,1.07-.85.7-1.83.92-2.53,0-.48-.62.04-1.45.6-1.85.91-.64,1.67-.39,1.98.78Z"/>
    <path class="cls-7" d="m60.35,172.21c1.06.5,3.92-1.26,2.68,2.13-.51-1.19-2.05-1.08-2.68-2.13Z"/>
    <path class="cls-16" d="m103.21,205.51c.86.6,1.7.56,2.52-.09.18.17.36.35.54.52,0,.98-.48,2.04.47,2.86.09,1-.33,1.67-1.27,2.03-.76.89-.89,2.9-.31,4.49-.03.46.03.87.47,1.14-1.47,1.53-2.9,2.95-5.34,2.91-1.86-.03-2.13,2.19-3.41,3.12-.72.52-1.36,1.52-2.23,1.19-.92-.34-.13-1.48-.38-2.22,1.93-3.95,5.01-7.05,7.75-10.41.62-.06.91-.43.98-1.01.28-.35.55-.71.83-1.06.88-.59,1.05-1.09-.19-1.39-.18,0-.36,0-.53.01.04-.7.08-1.4.11-2.1Z"/>
    <path class="cls-15" d="m106.26,205.94c-.18-.17-.36-.35-.54-.52-.15-.67.24-1.68-.59-1.94-1.44-.45-.95-1.73-.65-2.14,1.48-2.06-.56-4.68,1.38-6.83.61-.68-1.32-2.41-2.65-3.23-1.75-1.09-1.99-3.49-3.76-4.64-.06-.04.84-1.55,1.29-2.37,1.54,3.23,3.62,5.92,6.61,8.06.9.64.96,2.74.53,4.26-.2.69-.3,1.46-.69,2.02-1.63,2.34-.98,4.57.14,6.82-.35.17-.71.34-1.06.52Z"/>
    <path class="cls-3" d="m105.15,215.32c-.59-1.59-.45-3.6.31-4.49.49,1.54,1.29,3.09-.31,4.49Z"/>
    <path class="cls-13" d="m106.26,205.94c.35-.17.71-.34,1.06-.52,1.15,1.36.2,2.36-.59,3.38-.95-.82-.48-1.88-.47-2.86Z"/>
    <path class="cls-15" d="m100.42,183.19c-.92-.29-1.41-.84-1.14-1.86.77.39,1.6.73,1.14,1.86Z"/>
    <path class="cls-11" d="m103.21,205.51c-.04.7-.08,1.4-.11,2.1-1.02.49-.66,1.44-.75,2.24-.47.3-.56.71-.34,1.21-2.74,3.35-5.82,6.45-7.75,10.41-.2-.03-.4-.06-.6-.09-1.18-.23-1.98,1.74-3.14.75-1.3-1.11-1.88-.04-2.67.53-1.41,1.02.57,1.6.33,2.48-.05.15-.05.3-.02.45-2.68,1.52-5.34,3.06-8.04,4.53-.85.46-1.49,1.56-2.59,1.31-2.42-.56-4.87-.15-7.3-.28-2.06-.12-1.48-.94-.91-2,.48-.2.96-.4,1.44-.6,1.26-.03,2.8.39,2.76-1.72,2.71-1.78,5.42-3.58,8.15-5.33,1.07-.68,2.12-1.33,2.86-2.43.37-.56.88-1.05.14-1.55-.5-.34-.9-1.17-1.83-.48-.55.41-1.24,1.48-2.03.64-.76-.81.13-1.67.45-2.48.26-.66.55-1.32.83-1.97.1-.22.2-.43.3-.65.31-.71.62-1.41.93-2.12.81-.34,1.22-.83.57-1.67.1-.58.2-1.15.3-1.73,1.04-4.44,4.06-6.48,8.4-6.9.52.55.85.32,1.08-.27.35,0,.71-.01,1.06-.02-.07,1.16.26,1.93,1.64,1.83,1.16-.09,2.33-.09,3.49-.13.46.23.93.46,1.39.7,0,.17.02.34.08.5-.41.75-1.85.86-1.54,1.96.28,1.03,1.45-.17,2.07.5.21.22.66.22,1,.32.13.01.25,0,.37-.04Zm-4.77-1.62c-.25.09-.41.16-.57.22.19.16.37.36.59.46.09.05.28-.09.42-.15-.15-.18-.31-.36-.45-.53Z"/>
    <path class="cls-6" d="m69.31,229.14c-.57,1.06-1.15,1.88.91,2,2.43.14,4.87-.28,7.3.28,1.1.26,1.74-.84,2.59-1.31,2.7-1.47,5.37-3.02,8.04-4.53,2.03,2.3-.58,3.03-1.6,3.43-3.55,1.42-4.9,4.14-5.43,7.58-.17.07-.32.16-.47.26-1.98-.22-4.08.63-5.94-.74-.17-.13-.78.05-.95.27-.86,1.12-1.78.6-2.65.13-1.37-.75-2.45-1.69-4.14-.13-.8.74-2.57,1.17-4.06.26-.61-.37-1.59-.59-2.07.47-.68-.28-1.35-.61-2.13-.45-1.33-.42-2.58-1.9-4.07-.32-.19.01-.38.03-.58.04-1.57-.98-3.35-1.22-5.14-1.41-3.43-1.45-6.85-2.94-10.32-4.3-.79-.31-1.51-.53-1.84-1.37.85-.97,1.63-.12,2.38.14,1.54.53,3.08.8,4.69.4,1.24,1.75,2.95,3.04,5.04,2.83,1.06-.11,1.63-.51,2.35.61.71,1.1,2.07.9,2.81.16.84-.83.12-1.86-.54-2.63-.55-.64-1.77-.61-1.8-1.79.86-.25,1.72-.49,2.59-.74.22.78.42,1.57.67,2.34.26.8.97,1.38,1.65.94,1.11-.72,2.36-.8,3.52-1.26,1.92-.75,3.52-1.74,3.01-4.27-.14-.68.42-1.15,1.03-1.45.43,1.84,1.94,1.56,3.25,1.64l.03.03c.34,1.14.28,2.53,1.84,2.88Z"/>
    <path class="cls-8" d="m88.16,225.13c.24-.87-1.74-1.46-.33-2.48.79-.57,1.38-1.64,2.67-.53,1.16.99,1.96-.98,3.14-.75-.35.91-.74,1.81-1.04,2.73-.38,1.18-1.28,1.47-1.99.68-1.17-1.3-1.67.15-2.46.34Z"/>
    <path class="cls-3" d="m60.83,237.12c.48-1.06,1.46-.85,2.07-.47,1.49.92,3.26.49,4.06-.26,1.69-1.56,2.77-.62,4.14.13.86.47,1.79,1,2.65-.13.17-.22.78-.4.95-.27,1.86,1.37,3.96.52,5.94.74-.03.3-.05.6-.08.9-.47-.04-.88.04-1.11.51-1.07.14-2.14.28-3.21.42-.7-1.66-1.77-.85-2.79-.43-.18,0-.36,0-.54.02-2.16-.68-4.34-.76-6.53-.15-1.91.9-3.69.03-5.49-.44-.02-.19-.04-.39-.06-.58Z"/>
    <path class="cls-8" d="m73.46,238.26c1.02-.42,2.09-1.23,2.79.43-.96.04-1.97.43-2.79-.43Z"/>
    <path class="cls-8" d="m79.45,238.27c.23-.47.64-.55,1.11-.51-.13.7-.3,1.3-1.11.51Z"/>
    <path class="cls-12" d="m16.22,214.19c-.02-1.25-.04-2.5-.06-3.75q2.74,1.16,2.73-1.76c0-.36-.03-.72-.01-1.08.29-5.93-.5-11.9.48-17.81.1-.11.2-.22.3-.33l.23.06c.04,1.81.1,3.62.1,5.43.02,4.61.11,9.16,1.66,13.62,2.4,6.92,6.73,12.29,12.53,16.59,0,0-.03-.03-.03-.03-.16,1.08,1.21,1.45,1.14,2.48-.09.68-.66.74-1.16.9-.43-.52-1.04-.36-1.59-.39-1.66-1.9-1.87-5.21-5.43-5.29-1.3-.03-1.75-1.69-2.17-2.48-1.18-2.24-4.12-2.74-4.71-5.66-.36-1.77-2.56-.89-4.02-.51Z"/>
    <path class="cls-4" d="m35.3,227.62c.07-1.03-1.3-1.41-1.14-2.48,1.87.6,2.93,2.37,4.66,3.19,2.84,1.34,3.96.89,4.66-2.07.3-1.27.76-1.21,1.63-.46,1.58,1.38,3.24,2.49,5.56,2.35.99-.06,1.75-.19,2.38-.92.39-.45.65-1.34,1.42-.7.6.51-.26,1.15-.17,1.76-.86.24-1.72.49-2.59.74-2.77,1.11-4.86-.22-6.85-2.12-.38,1.11-.7,2.02-1.01,2.93-1.61.41-3.15.14-4.69-.4-.76-.26-1.53-1.11-2.38-.14,0,0-.16.02-.16.02.23-1.08-.55-1.38-1.31-1.7Z"/>
    <path class="cls-3" d="m48.92,234.98c1.79.19,3.56.43,5.14,1.41-1.95.38-3.76.27-5.14-1.41Z"/>
    <path class="cls-3" d="m54.64,236.34c1.49-1.57,2.74-.09,4.07.32-1.47,1.27-2.7-.4-4.07-.32Z"/>
    <path class="cls-1" d="m35.3,227.62c.76.32,1.54.62,1.31,1.7-1,.27-1.98.51-2.47-.8.5-.16,1.07-.22,1.16-.9Z"/>
    <polygon class="cls-15" points="147.62 184.8 147.4 184.68 147.5 184.58 147.62 184.8"/>
    <path class="cls-8" d="m19.9,189.53s-.23-.06-.23-.06c-1-.5-1.55-1.23-1.85-2.4-.96-3.78-.96-7.62-.94-11.47,0,0-.02.03-.02.03.56-.28.52-.77.43-1.27.21-.63.41-1.26.62-1.89,1.71-3.14,3.8-5.79,7.76-6.05,1.13.54,1.41-.11,1.48-1.06.34-.36.69-.72,1.03-1.08,1.3-.32,2.35-1.48,3.84-1.16.07.42.14.84.22,1.26-6.8,4.06-9.85,11.94-8.32,20.27.58,3.16-.21,6.49,1.33,9.54.4.8-.19,1.36-.95,1.65-.97.36-1.52-.06-1.84-.98-.38-1.1-.8-2.18-1.2-3.27-.36-.75.44-2.25-1.35-2.06Z"/>
    <path class="cls-12" d="m16.88,175.6c-.02,3.85-.03,7.68.94,11.47.3,1.17.85,1.89,1.85,2.4-.1.11-.2.22-.3.33-1.77.39-1.47,1.83-1.47,3.04-.03,4.69-.15,9.4.07,14.08.12,2.48-.58,3.24-2.92,2.43,0,0,.04.04.04.04.04-.95-.18-1.77-1.12-2.22,0,0,.03.04.03.04-.08-.66-.39-1.11-1.12-1.12,0,0,.02.05.02.05-.33-2.69.09-5.46-.03-7.99-.15-3.15-.6-6.44-.42-9.61.26-4.64,1.56-9.11,4.44-12.93Z"/>
    <path class="cls-10" d="m15.72,173.42c-1.1,3.15-2.15,6.31-3.31,9.43-1.15,3.12-1.14,6.37-1.06,9.96-3.27-5.68-1.15-14.91,4.21-19.54l.16.16Z"/>
    <path class="cls-1" d="m12.32,206.08c-.22-.11-.44-.21-.66-.32.14-.1.27-.19.41-.29.08.2.17.4.25.6Z"/>
    <path class="cls-10" d="m17.28,174.36c.09.5.13.99-.43,1.27-.26-.56-.06-.96.43-1.27Z"/>
    <path class="cls-9" d="m9.39,177.8c-.02-.16-.07-.33-.06-.49,0-.06.12-.12.19-.18-.04.22-.09.45-.13.67Z"/>
    <path class="cls-10" d="m15.56,173.26c.12-.07.23-.13.35-.2-.06.12-.13.24-.19.36,0,0-.16-.15-.16-.15Z"/>
    <path class="cls-4" d="m15.05,209.34c2.33.81,3.03.05,2.92-2.43-.22-4.68-.1-9.39-.07-14.08,0-1.2-.29-2.65,1.47-3.04-.99,5.91-.2,11.88-.48,17.81-.02.36.01.72.01,1.08q0,2.92-2.73,1.76c-.37-.37-.74-.73-1.11-1.1Z"/>
    <path class="cls-4" d="m13.96,207.16c.95.45,1.17,1.27,1.12,2.22-1.23-.31-1.29-1.21-1.12-2.22Z"/>
    <path class="cls-4" d="m12.87,206.08c.74.01,1.04.46,1.12,1.12-.96.21-1.06-.44-1.12-1.12Z"/>
    <path class="cls-8" d="m181.65,181.25c.1.17.2.35.3.52-.18,1.34-1.15,1.46-2.21,1.4-1.96-.11-3.92-.18-5.87-.36-.37-.03-.99-.46-1.01-.75-.12-1.36-.93-1.37-1.84-1.02-2,.77-3.02-.29-3.8-1.89.34-.08.87-.34.99-.21,1.94,2,3.84.41,5.75,0,.29,0,.59,0,.88-.02.24.25.44.22.61-.08.05-.06.16-.11.15-.17,0-.13-.06-.25-.1-.38,0,0-.04.09-.04.09.4.47.78.16,1.16-.03.64,1.72,2.07,2.29,3.72,2.55.44.12.88.23,1.32.35Z"/>
    <path class="cls-4" d="m174.83,178.91c-.29,0-.59.01-.88.02.27-.81.86-.83,1.54-.64.04.13.09.25.1.38,0,.05-.1.11-.15.17-.23-.2-.43-.16-.61.08Z"/>
    <path class="cls-16" d="m155.04,198.02c-.96-.46-1.09-.88.07-1.22.28,0,.56,0,.84,0-.14.53-.14,1.16-.91,1.22Z"/>
    <path class="cls-10" d="m155.94,196.79c-.28,0-.56,0-.84,0,.15-.61.41-1.12,1.13-1.19.16.46.14.87-.29,1.19Z"/>
    <path class="cls-9" d="m67.43,226.23c-1.32-.08-2.82.21-3.25-1.64.01-.58-.1-1.2.46-1.63.75-.02.54,1.85,1.3,1,.98-1.09.47-2.47-.58-3.6-.5.51-.4,1.45-1.29,1.53-1.7.13-1.54-1.06-1.54-2.15,1.1-.3,2.01-1.03,2.11-2.1.24-2.5,1.39-4.03,3.89-4.49.8.02,1.59.03,1.64-1.09h0c1.43-.36,1.82-1.58,2.28-2.75.21-.55.59-.93,1.19-.97.52-.03.93.32.97.77.24,2.51.65,2.21,1.91.36.42-.61,1.72-.86,1.04-1.86-.62-.91-1.62-2.8-2.29-2.3-1.37,1.01-1.75-.33-2.48-.53-1.32-.37-.72-1.46-.37-2.24.52-1.19,1.03-.42,1.54.09.15.16.46.28.67.24.93-.18,1.85-1.9,2.32-1.19,1.26,1.93,3.64,3.01,4.14,5.47-.4.08-.8.16-1.2.24.05.07.08.19.14.21.47.16.82-.03,1.07-.43,1.02-.03,2.05-.07,3.08-.1-.1.58-.2,1.15-.3,1.73-.73.37-.64,1.02-.57,1.67-.31.71-.62,1.41-.93,2.12-.14-.41-.3-.82-.84-.76-.12.01-.27.22-.3.37-.13.66.3.9.84,1.04-.28.66-.57,1.31-.83,1.97-.32.81-1.21,1.67-.45,2.48.79.84,1.48-.23,2.03-.64.93-.69,1.33.14,1.83.48.74.5.24.99-.14,1.55-.73,1.1-1.79,1.74-2.86,2.43-2.73,1.75-5.44,3.55-8.15,5.33-1.43-.25-2.45.18-2.76,1.72-.48.2-.96.4-1.44.6-1.56-.35-1.51-1.74-1.84-2.88.62-.29,1.24-.58,2.18-1.03-1.66-.89-2.25-.52-2.21,1.01Zm9.43-12.58c.38,0,.65-.09.53-.41-.07-.19-.33-.38-.54-.44-.29-.08-.52.15-.43.43.06.19.32.32.44.42Zm4.63-4.32c-.65-.33-1.14-.11-1.63.34.63.28,1.18.4,1.63-.34Zm-14.22,6.62c-.07-.14-.11-.35-.21-.39-.1-.04-.28.08-.42.13.09.17.18.34.26.51.12-.08.24-.16.36-.25Zm.76,7.44c.05-.14.18-.32.13-.4-.07-.12-.25-.17-.39-.26-.05.14-.18.32-.13.41.05.11.25.16.39.24Z"/>
    <path class="cls-4" d="m19.9,189.53c1.79-.19,1,1.31,1.35,2.06-1.09,10.52.78,20.17,8.28,28.16.57.61,1.12,1.75,2.14,1.24.8-.4.36-1.48.37-2.26.03-2.81.01-5.62.02-8.43,0-1.07.31-2.23,1.47-2.23,1.07,0,1.19,1.25,1.15,2.14-.2,3.95.78,8-.88,11.82-.51,1.17.21,2.1.41,3.14-5.8-4.3-10.13-9.67-12.53-16.59-1.55-4.46-1.65-9.02-1.66-13.62,0-1.81-.07-3.62-.1-5.43Z"/>
    <path class="cls-16" d="m64.08,221.9c.88-.08.79-1.02,1.29-1.53,1.05,1.13,1.56,2.52.58,3.6-.77.85-.55-1.02-1.3-1-.19-.36-.37-.71-.56-1.07Z"/>
    <path class="cls-3" d="m32.23,164.38c-.07-.42-.14-.84-.22-1.26.49-.04.98-.08,1.46-.12.08.91-.56,1.16-1.24,1.37Z"/>
    <path class="cls-10" d="m180.33,180.9c-1.64-.26-3.08-.83-3.72-2.55,2.2-2.51,4.2-2.82,6.75-1.24,1.63,1.01,1.43,1.86-.07,2.64-.94.49-1.97.78-2.97,1.16Z"/>
    <path class="cls-13" d="m176.63,165.26c-1.02-1.72.75-1.36,1.38-1.85.29,1.17-.39,1.63-1.38,1.85Z"/>
    <path class="cls-3" d="m27.14,165.37c-.07.95-.35,1.6-1.48,1.06.49-.35.99-.71,1.48-1.06Z"/>
    <path class="cls-8" d="m183.04,181.89c.39-.24.78-.36,1.14.06-.42.79-.8.7-1.14-.06Z"/>
    <path class="cls-1" d="m86.01,190.23c.41-2.34.95-4.56,3.31-5.84.9-.49,1.53-.9,1.57.51.05,1.64,1.11,2.84,1.63,4.27-2.04,1.2-4.46,0-6.52,1.06Z"/>
    <path class="cls-8" d="m99.84,201.57c-1.16.04-2.33.05-3.49.13-1.38.1-1.7-.67-1.64-1.83,1.93-.1,3.8-.02,5.12,1.69Z"/>
    <path class="cls-9" d="m67.59,212.09c.1-.06.33-.31.47-.27.52.16.39.67.47,1.07.06.28.02.31-.25.22-.45-.14-.79-.34-.69-1.03Z"/>
    <path class="cls-13" d="m93.09,192.99c.14-.28.23-.76.41-.81.58-.13.6.4.66.8h0c-.37,0-.74-.01-1.1-.01l.02.02Z"/>
    <path class="cls-13" d="m93.07,192.97c-.06.34-.04.75-.5.82-.09.01-.31-.21-.3-.3.07-.46.47-.46.82-.5,0,0-.02-.02-.02-.02Z"/>
    <path class="cls-8" d="m93.65,199.89c-.24.59-.56.82-1.08.27.28-.41.6-.67,1.08-.27Z"/>
    <path class="cls-13" d="m94.17,192.98c.37.18.73.37,1.1.55,0,0,0-.01,0-.01-.93.95-.98.15-1.08-.54,0,0,0,0,0,0Z"/>
    <path class="cls-1" d="m57.83,192.28c.06,0,.14,0,.17.02.04.05.03.13.05.2-.09,0-.19-.02-.28-.03.02-.06.05-.13.07-.19Z"/>
    <path class="cls-9" d="m70.17,212.07c-.08-.04-.15-.08-.23-.13.07.04.15.08.22.13h0Z"/>
    <path class="cls-8" d="m102.83,205.55c-.34-.1-.79-.1-1-.32-.62-.67-1.78.52-2.07-.5-.3-1.1,1.13-1.21,1.54-1.96.87.73,1.88,1.39,1.52,2.79Z"/>
    <path class="cls-8" d="m102.34,209.85c.09-.8-.27-1.75.75-2.24.18,0,.36-.01.53-.01.06.46.12.93.19,1.39-.28.35-.55.71-.83,1.06-.21-.07-.42-.13-.64-.2Z"/>
    <path class="cls-15" d="m103.81,208.99c-.06-.46-.13-.93-.19-1.39,1.24.31,1.07.8.19,1.39Z"/>
    <path class="cls-15" d="m102.34,209.85c.21.07.42.13.64.2-.07.59-.36.96-.98,1.01-.21-.5-.13-.91.34-1.21Z"/>
    <path class="cls-16" d="m70.74,228.54c.31-1.55,1.32-1.97,2.76-1.72.04,2.11-1.5,1.69-2.76,1.72Z"/>
    <path class="cls-16" d="m82.07,213.23c-.54-.14-.97-.38-.84-1.04.03-.14.18-.35.3-.37.54-.06.7.35.84.76-.1.22-.2.43-.3.65Z"/>
    <path class="cls-16" d="m83.29,210.46c-.07-.64-.16-1.3.57-1.67.65.84.24,1.33-.57,1.67Z"/>
    <path class="cls-8" d="m98.44,203.9c.14.16.29.35.45.53-.14.06-.33.2-.42.15-.22-.11-.4-.3-.59-.46.16-.06.32-.12.57-.22Z"/>
    <path class="cls-10" d="m43.84,229.84c.32-.91.63-1.82,1.01-2.93,1.99,1.9,4.08,3.23,6.85,2.12.03,1.18,1.25,1.15,1.8,1.79.65.76,1.37,1.8.54,2.63-.74.73-2.11.94-2.81-.16-.72-1.12-1.29-.72-2.35-.61-2.09.21-3.8-1.09-5.04-2.83Z"/>
    <path class="cls-1" d="m174.83,178.91c.18-.24.38-.27.61-.08-.17.3-.37.32-.61.08Z"/>
    <path class="cls-16" d="m67.43,226.23c-.03-1.53.55-1.89,2.21-1.01-.95.45-1.57.74-2.18,1.03,0,0-.03-.03-.03-.03Z"/>
    <path class="cls-16" d="m76.86,213.66c-.12-.11-.38-.23-.44-.42-.09-.28.14-.51.43-.43.21.06.47.25.54.44.12.32-.16.41-.53.41Z"/>
    <path class="cls-16" d="m81.49,209.34c-.45.74-1,.62-1.63.34.49-.45.98-.67,1.63-.34Z"/>
    <path class="cls-16" d="m67.26,215.96c-.13.09-.25.17-.36.25-.09-.17-.18-.34-.26-.51.14-.05.31-.17.42-.13.1.04.14.25.21.39Z"/>
    <path class="cls-16" d="m81.09,207.17c-.25.41-.6.59-1.07.43-.06-.02-.1-.14-.14-.21.4-.08.8-.16,1.2-.24,0,0,.02.02.02.02Z"/>
    <path class="cls-16" d="m68.03,223.4c-.14-.08-.34-.13-.39-.24-.04-.1.08-.27.13-.41.14.08.32.14.39.26.05.08-.08.25-.13.4Z"/>
  </g>
</svg>