<?xml version="1.0" encoding="UTF-8"?>
<svg id="Layer_2" data-name="Layer 2" xmlns="http://www.w3.org/2000/svg" viewBox="0 0 185.01 232.13">
  <defs>
    <style>
      .cls-1 {
        fill: #fefefe;
      }

      .cls-1, .cls-2, .cls-3, .cls-4, .cls-5, .cls-6, .cls-7, .cls-8, .cls-9, .cls-10, .cls-11, .cls-12, .cls-13, .cls-14, .cls-15 {
        stroke-width: 0px;
      }

      .cls-2 {
        fill: #b52e2e;
      }

      .cls-3 {
        fill: #c7ecbf;
      }

      .cls-4 {
        fill: #d76258;
      }

      .cls-5 {
        fill: #b01912;
      }

      .cls-6 {
        fill: #d57c74;
      }

      .cls-7 {
        fill: #160f0e;
      }

      .cls-8 {
        fill: #528e66;
      }

      .cls-9 {
        fill: #4e4d35;
      }

      .cls-10 {
        fill: #e4adaa;
      }

      .cls-11 {
        fill: #7a6961;
      }

      .cls-12 {
        fill: #76cd68;
      }

      .cls-13 {
        fill: #4d1f17;
      }

      .cls-14 {
        fill: #d04a3f;
      }

      .cls-15 {
        fill: #97de89;
      }
    </style>
  </defs>
  <g id="Layer_1-2" data-name="Layer 1">
    <g>
      <path class="cls-7" d="m158,106.56c2.58,2.82,6.73,3.55,8.98,6.8-.08.33-.16.66-.24.99-2.8-1.81-5.6-3.61-8.4-5.42-.77-.83-1.79-1.06-2.96-1.21-.5,2.24.78,4.06,1.14,6.05.3,1.64,2.86,2.56,1.42,4.68-4.07-3.38-3.99-8.47-5.24-12.97-2.22-7.99-2.37-8.17-10.81-6.92.7,2.82,1.93,5.44,2.41,8.38.53,3.24-.31,6.15-.39,9.2-.06,2.09-1.59,3.97-.88,6.18-1.95,1.82-.71,2.93.88,3.95l-.05-.07c.85.91,2.35,1.17,2.68,2.61-1.02,1.41-1.89.08-2.38-.38-3-2.81-3.9-.78-4.81,2,1.75,0,3.32-.16,4.84.05,1.53.21,2.01-.53,2.25-1.76.3.06.6.13.9.19,1.6.84,4.34-.3,4.7,2.72.02.16.45.29.71.4,3.67,1.63,13.69-.4,16.49-3.36.45-.48.76-1.1,1.15-1.68-2.83-1.75-7.05-1.42-7.2-5.96,1.63,1.32,3.12,2.92,5.28,3.35,3.69.73,4.6,2.53,2.15,5.71,2.14.31,3.25.39,4.2-2.2,1.58-4.33-2.01-5.26-3.68-7.5-.32-.58-.64-1.16-.96-1.74.2-.27.41-.53.61-.8,2.1,2.75,6.01,4.07,5.62,8.78-.25,2.96-1.04,4.71-3.81,5.54-4.16.92-8.33,1.84-12.49,2.76-1.19-.03-2.39-.06-3.58-.08-.2-.2-.39-.2-.58,0-.65-.07-1.29-.14-1.94-.21-.23-.76-.78-.82-1.43-.63-1.08.08-2.35-1.19-2.79,1.33-.66,3.85-1.96,7.65-4.97,10.5-1.1-1.1.03-1.89.39-2.79,1.14-2.78,2.32-5.55,3.4-8.36.31-.81.97-2.41-.39-2.34-2.61.13-4.92-1.27-7.78-.5-2.96.79-2.32,1.84-1.51,3.59-.23.28-.45.56-.68.84-.47-.66-.95-1.32-1.4-1.99-1.39-2.06-2.97.08-4.47-.14-.54-.08-1.31.7-1.11,1.85,1.38,8.18,5.88,11.48,13.57,9.84-2.98,3.5-7.48,3.37-10.38-.39-2.57-3.34-3.86-7.24-4.57-11.42-1.77-.09-2.2,1.65-3.39,2.23-.23-.31-.46-.62-.69-.92l.3-1.42h-.02c2.39-1.64,3.59-3.32.18-5.18-.74-.85-1.15-1.77-1.15-2.96,0-1.63-.89-1.37-1.85-.67-.24-.23-.48-.45-.72-.68.09-.26.13-.53.1-.8l-.05.04c.48.07.79-.09.84-.6.78-.71,2.55.48,2.67-1.72.11-2.09,2.17-1.93,3.02-1.02,1.57,1.66,3.91,1.76,5.44,3.28.65-.36.92-.91.88-1.64l-.03.04c5.12-5.88,4.18-12.87,3.4-19.73-.19-1.67-.25-3.85-3.08-4.62-1.17-.31-3.97-1.75-3.38-4.52.98.72,1.96,1.44,3.12,2.29.04-1.75-2.12-2.58-.93-4.22.8.04,1.4,1.31,2.19.65.63-.54.48-1.51.06-2.3-1.14-2.14-3.24-2.59-5.74-3.4.84,1.15,1.38,1.89,1.92,2.63-1.84,1.72-2.47-1.33-4.28-.98,1.22,1.79,2.35,3.45,3.48,5.12-2.48.55-2.84-1.7-3.86-3-1.92-2.43-3.88-4.63-7.43-3.03-3.34-2.52-6.91-2.14-10.27-.36-5.35,2.84-10.95,5.02-16.7,6.83-2.51.79-4.29,2.26-5.1,4.62-1.45,4.17-3.16,8.32-2.54,12.91.44,3.7-1.65,7.72,1.44,11.07-.05,1.92,1.19,3.37,1.88,5.01-1.65.97-1.72-.93-2.56-1.41-.04-.16-.14-.29-.28-.38l-.1-.33c-2.4-3.59-2.45-7.63-2.33-11.73.03-.97.59-2.68-1.1-2.64-1.32.03-1.37,1.55-1.36,2.72,0,.99-.11,1.99.03,2.96.4,2.93.87,5.85,1.37,8.76.43,2.48-.44,5.38,2.24,7.16.12.65.25,1.29.37,1.94-.27.27-.54.55-.81.82-4.13-4.42-5.41-9.78-5.25-15.64.1-2.28.21-4.56.31-6.84-1.19,2.32-3.03,4-4.08,6.15-.3.05-.6.1-.9.14l-.72-.71c.62-.92,1.12-1.95,1.89-2.72.71-.73,1.7-1.37.82-2.36-.62-.69-1.49.03-2.29.31-1.42.5-2.21,2.74-4.23,1.55.5-.48,1-.95,1.84-1.74-4.14-1.15-5.09,2.82-7.5,3.98-.26-.24-.51-.49-.77-.73,1.32-2.75-1.01-1.76-2.05-1.94-6.28-1.1-12.92-1.46-16.17-8.4.25-.25.51-.49.76-.74.93.78,1.86,1.56,2.79,2.34l-.04-.05c.12,1.71,2.07,3.05,2.67,2.89,4.65-1.24,8.7,2.4,13.24,1.36.92-.21,1.82-.36,2.42-1.28-2.13-1.15-4.28-2.16-6.24-3.44-1.38-.9-1.27-1.11-.15-2.87,2.81,4.29,7.03,5.11,11.72,4.78-.57.85-1.77,1.25-1.84,2.51,5.22.16,6.05-.39,6.39-4.44-1.61.7-3.13,1.36-4.66,2.02-.7-3.03,2.33-2.31,3.49-3.47,4.06-.79,7.09-2.39,8.25-7.01.64-2.57,2.78-4.81,6.15-6.02-2.09-.19-3.64-.11-3.99-1.99-.14-.72-.05-1.5.63-1.89,1.96-1.14.84,1.65,1.99,1.61,1.26-.05,2.9.4,3.7-.22,1.99-1.59,4.77-2.42,5.82-5.12-3.57-1.16-5.94,2.34-9.72,2.4,1.57-2.36,3.56-2.95,5.45-3.65.74-.27,1.97.12,2.09-.98.52-4.84,1.99-9.62.54-14.59-.68-2.32-1.22-3.16-3.99-2.44-2.21.58-6.2,1.52-6.95-.71-.93-2.77-3.17-2.78-4.6-4.23.13-2.55-.76-5.2.73-7.62.75-.44,1.49-.87,2.29-1.33-2.3-1.01-4.34-1.9-6.38-2.8-7.39-4.14-15.57-3.58-19.68,1.35-.6-.52-1.19-1.04-1.79-1.56-1.23-2-2.57-.29-3.48.18-3.31,1.7-6.45,3.71-9.94,5.26,1.03-2.08,3.06-3.18,4.94-4.16,10.65-5.54,21.57-9.14,33.5-3.85,4.05,1.79,6.75,5.3,10.28,7.75.72.5.87,2.01,2.2,1.38,1.27-.61.9-1.76.9-2.91,0-6.3-4.11-9.63-8.78-12.65-1.31-.85-3.22-1.18-3.34-3.28,7.6,2.05,13.73,6.8,19.73,11.5,1.03.81,1.43,2.5,4.78,1.54-3.92,3.11-3.77,5.89-2.64,8.71.32.79.09,2.33,1.45,2.26,1.47-.08,1.43-1.43,1.52-2.57.46-5.72-1.34-10.77-4.38-15.52-1.8-2.82-3.38-5.79-5.06-8.68.4-.21.79-.42,1.19-.64,3.85,5.7,7.52,11.51,9.75,18.69.11-2.22.19-3.89.27-5.57.39-8.1,1.43-16.27-2.8-23.83-.83-2.58-2.75-4.23-4.85-5.73-.37-.83-.77-1.62-1.78-1.82-.1-1.65.17-2.06,1.77-.92,6.31,4.5,8.87,11.08,9.26,18.29.29,5.34,2.82,10.24,2.29,15.62-.27,2.77,2.39,1.98,3.57,2.49,1.75.75,1.49-1.24,1.82-2.41,1.29-4.59,2.55-9.22,7.59-11.38,1.52-.65,2.95-1.59,4.25-2.61,7.86-6.19,16.86-6.66,26.23-5.35.42.87,1.14.8,1.9.61.26.04.51.12.76.22,2.25,1.28,4.53,2.5,6.73,3.86,2.27,1.4,1.04,1.83-.66,2.03-.23-.18-.48-.3-.77-.34-.59-.58-1.15-1.2-1.77-1.75-.67-.59-1.63-.89-2.11-.13-.21.34.67,1.34,1.05,2.04-.5.1-1,.21-1.5.31-1.29-1.1-2.52-2.27-4.29-2.56-.57,0-1.13,0-1.7,0-3.41.43-6.81-1.81-10.22-.04-3.05.12-5.83,1.25-8.62,2.33-1.06.44-2.53-.57-3.29.93-9.74,3.07-9.46,4.79-9.44,12.39,0,2.58.96,3.19,3.18,2.89,2,.12,3.76-.61,5.46-1.55,6.22.03,12.23-2.73,18.62-1.12,2.26.57,3.81.66,2.91,3.56-.4,1.28-.66,3.26,1.46,3.15,3.68-.19,3.59,2.11,3.56,4.56-.1.25-.17.52-.21.79-.57.3-1.15.59-1.72.89-.01-.54-.08-1.08-.02-1.61.11-1.02,1.45-2.18.19-2.99-.81-.52-2.21-.55-3.21-.28-2.04.54-.6,2-.53,3.08.06.94-.99,1.79-.2,2.78,1.31-.19,2.25-1.79,3.8-1.02-1.88,2.51-4.84,3.41-7.29,5.37q-.63-3.81.8-8c-3.09,1-3.05.99-3.45-1.94-.06-.42-.57-.89-.99-1.14-4.64-2.79-8.73-.81-9.34,4.58-.2,1.76-.03,3.57-.03,5.43-1.96-.51-1.87-2.09-1.92-3.65-.08-2.49.95-4.68,1.88-6.87.52-1.24.94-2.14-.93-2.25-1.04-2.8-2.92-1.54-4.73-1.04-2.08.57-5.47.64-4.84,3.29.66,2.76,3.48.07,5.34.27-.33,3.22-3,1.16-4.41,1.94-4.46-.39-6.09,1.87-5.52,7.63,1.8,3,4.6.75,6.86,1.3.68.65,1.36,1.3,2.04,1.94-2.99.95-7.4-2.45-8.98,2.13-1.15,3.32.52,6.8,2.04,10.04,1.06,2.26,2.42,2.36,4.33,1.49,2.04,1.49,3.78,3.68,7.24,2.91-1.87-2.49-3.1-4.94-2.93-7.84.61-2.59-.3-5.05-.69-7.55.86.33,2.05-3,2.47-.03.64,4.47,3.96,7.06,6.27,10.38-3.31.67-3.59-3.21-5.99-4.17-.81,5.73,2.18,9.05,6.57,11.56,1.67,1.28,3.53,1.95,5.8,2.05-.35-2.12-1.65-3.1-3.1-3.96-.81-1.1-1.62-2.2-2.56-3.47,1.76-.28,2.13.99,2.86,1.29,3.13,1.28,3.93,6.58,8.64,5.02.15,1.26.5,2.53.42,3.78-.28,4.24-.1,4.38,4.16,2.59,3.15-.26,5.93-1.61,8.68-3.03.24.23.47.47.71.7-2.67,2.64-6.48,2.74-9.63,4.28-1.4-.2-3.28.76-2.7,1.59,1.86,2.64.91,6.62,4.2,8.44Zm-58.13-36.59c-.04,1.43-.09,2.87-.13,4.3-.16,1.4-.22,2.81-.5,4.19-.25,1.23-1.05,2.69.55,3.3,1.39.52,2.98.59,4.26-.86,1.77-2,1.87-4.22,1.34-7.04-.82.87-.6,2.29-1.84,2.39-.79-.82-.27-1.86-.44-2.78.06-.37.13-.74.19-1.11,2.8-1.91-.15-4.48.75-6.61,4.67,2.96,3.14-2.34,5.34-3.4-1.97-.51-3.59,1.04-4.74-.72-.07-2.54-1.96-4.54-1.79-7.43-3.52,2.39-2.09,5.5-2.09,8.28.42,1.74,2.93,1.4,3.25,3.24-1.46.94-2.75-.51-4.44-.27.09,1.49.19,3,.28,4.51Zm39.77,49.35c-1.22,2.85-5.41,5.1-1.87,9.23,1.91-2.3,2.84-4.67,2.86-7.4.87-2.35,2.04-4.68.68-8.34-.73,2.85-1.2,4.68-1.67,6.51Zm4.45-27.21c-1.91-1.3-3.83-2.61-6.23-4.24,1.03,2.55,2.05,4.38,2.5,6.35.43,1.9,1.5,1.14,2.5,1.06,2.54.23,5.09.46,7.72.7-.43-4.37-3.69-3.72-6.49-3.87Zm-30.88-24.64c-.58-3.79,1.09-7.41.84-11.18.2-1.86.78-4.4-1.96-4.3-2.09.08-.78,2.66-1.3,4.03-.04.12.02.27.03.41.05.58.09,1.16.14,1.75,0,.83,0,1.66,0,2.49-1.41,2.45-.69,4.71.6,6.93-.67,1.23-1.4,2.46.25,4.22.15-1.78,2.99-2.05,1.4-4.34Zm-5.02,9c.28,2.25-1.87,3.74-1.58,6.27,1.08-1.87,8.75,4.59,4.45-4.11-.09-.18.05-.59.22-.76,3.26-3.21-.64-2.08-1.63-2.71,1.87-2.26-.03-4.15-.64-6.15-.17-.56-.85-.78-1.38-.41-.43.3-1.07,1.06-.97,1.21,1.28,2.06-.22,4.74,1.53,6.65Zm-14.48-18.83c-1.06-1.13-2.08-2.29-3.17-3.38-1.92-1.9-4.12-1.85-6.09-.31-1.87,1.45-1.03,3.84-.6,5.47.65,2.49,3.16,1.1,4.69.87,1.83-.27,3.87-.76,5.17-2.65Zm16.09,27.12c-4.72-.7-7.88.34-10.15,4.1,4.14.67,6.56-2.05,10.15-4.1Zm8.66-8.81c1.07-2.15.53-3.84.68-5.47.12-1.36-.43-2.25-1.91-2-1.57.27-2.07,1.47-1.5,2.79.64,1.5,1.64,2.85,2.73,4.68Zm31.94-22.76c.73.58,1.66.19,1.78-1.04.23-2.43-2.07-1.74-3.29-2.25-.81-.34-2.12-.43-2.21,1.06-.16,2.61,2.03,1.64,3.72,2.23Zm-32.51,4.21c-.99,2.12.27,4.33-.95,6.25-.37.57-.63,1.72.66,1.95,1.01.19,1.5-.51,1.92-1.31,1.42-2.74-.16-4.69-1.63-6.89Zm-2.24-3.21c.63,3.64-2.24,7.18-.49,10.83.51-3.61,2.11-7.14.49-10.83Zm17.12,72.2c-1.56-1.39-2.79-3.45-5.17-2.52-.89.35-.98,1.61-.48,2.17,1.62,1.79,3.67.83,5.65.35Zm2.74-92.95c3.57-.92,7.15-1.84,10.72-2.76-4.19-1.14-7.62.54-10.72,2.76Zm7.23,19.5c.93-.25,2.53.68,2.6-1.15.05-1.24-.88-2.16-2.23-1.93-1.25.22-2.7.78-2.69,2.24.02,1.57,1.53.47,2.32.83Zm-12.07,79.76c3.07-.53,4.42-1.71,3.57-4.61-1.47,1.17-3.03,2.13-3.57,4.61Z"/>
      <path class="cls-8" d="m107.18,22.3c4.22,7.56,3.18,15.73,2.8,23.83-.08,1.68-.16,3.36-.27,5.57-2.22-7.18-5.9-12.98-9.75-18.69-.4.21-.79.42-1.19.64,1.68,2.9,3.26,5.86,5.06,8.68,3.04,4.75,4.83,9.8,4.38,15.52-.09,1.14-.05,2.49-1.52,2.57-1.36.08-1.13-1.46-1.45-2.26-1.14-2.81-1.28-5.6,2.64-8.71-3.35.96-3.74-.73-4.78-1.54-6-4.7-12.13-9.45-19.73-11.5,0,0,.01-.17.01-.17-2.62-3.68-5.21-7.37-7.87-11.02-.51-.7-.97-1.87-2.25-1.03,0,0,0-.01,0-.01-1.76-5.58.92-11.92-3.1-17.21-.72-.94-.55-3.25.12-4.39.85-1.45,2.94-.89,4.26-.41,2.18.79,4.71.74,6.51,2.49,2.19,2.23,4.25,4.63,7.22,5.92.51,3.3,1.01,6.59,1.52,9.89,3.13,3.65,7.31,3.32,9.85-.77.33,0,.66,0,.98,0,1.18.37,3.05-.52,3.3,1.52.36,2.92,2.07,1.09,3.28,1.06Zm-31.11-13.68c-.37-.71-.86-1.88-1.68-1.12-.81.76.41,1.28,1,1.74.48,2,1.36,3.9,1.29,6.04-.1,3.22.37,6.33,2.39,9.01.33,1.65,1.5,2.71,2.76,3.59,4.57,3.2,9.98,1.68,14.96,2.72-1.71-1.72-3.93-2.49-6.03-2.25-4.7.54-8.09-1.39-10.97-4.74-.94-2.49-1.21-5.07-1.35-7.74-.14-2.55-.18-5.31-2.37-7.27Zm-3.27-2.96c-.34-.63-.48-1.28-.88-1.53-.55-.34-1.01.02-1.04.72-.02.59.17,1.12.82,1.19.3.04.63-.21,1.1-.38Z"/>
      <path class="cls-7" d="m64.97,116.98c-.45,2.28-3.6,3.43-2.55,6.31.96-.06.63-1.93,2.16-1.5.02.28.19.73.04.95-7.29,10.7-8.19,23.06-9.37,35.4-.79,8.22-2.54,16.37-2.86,24.6-.32,8.3-.27,16.84,4.48,24.31,2.21,3.48,3.83,7.05,3.79,11.31-.01,1.32.69,2.69,1.23,3.96.68,1.6,2.31,2.82-.2,4.67-1.34.98,1.53,3.22.34,5.14-1.68-.9-2.02-2.95-1.94-4.15.48-7.88-4.87-13.72-6.99-20.68-2.08-6.86-3.68-13.69-4.16-20.76-.77-11.3.58-22.29,4.38-33.09,1.68-4.77,1.98-10.1,2.47-15.21.66-6.94,4.45-12.86,5.89-19.52,0,0-.16-.07-.16-.07.86-.07,1.09-.56.89-1.33.95.24,1.2-.7,1.79-1.07l.77.73Zm-11.26,42.92c-5.2,9.99-2.7,20.7-2.96,31.18.18-10.44,1-20.83,2.96-31.18Z"/>
      <path class="cls-7" d="m184.72,68.41c.84,4.86-1.17,8.4-4.42,11.98-4.22,4.65-8,9.62-14.18,11.85-.24-.23-.47-.47-.71-.7.16-2.99-2.33.39-2.77-1.15,1.14-2,3.75-1.64,5.15-3.22,7.82-2.6,13.43-8.6,13.48-14.56,0-1.03.77-2.52-.53-3.03-1.28-.5-2.43.54-3.21,1.55-1.21,1.58-2.04,3.57-4.52,3.78-.71-3.27,1.7-4.12,3.35-5.54,1.99-1.71,3.98-4.9,2.5-6.37-2.16-2.13-3.53,1.3-4.99,2.84-1.64,1.72-3.33,3.42-5.71,4.1-.22.06-.9-.51-.87-.66.62-2.51,2.57-4.31,4.55-5.28,5.12-2.5,4.72-6.61,4.19-11.91-1.68,2.99-3.2,5.14-5.23,6.84-.79.66-1.38,2.24-2.67,1.37-.81-.54-.47-1.82-.19-2.79.19-.67.38-1.34.57-2.01.9-1.06,1.8-2.13,2.7-3.19,1.24-.04,2.12-.64,2.66-1.75,1.5-1.53.52-3.59,1.12-5.38.49-1.47-1.01-1.55-2.18-1.34-1.13-1.43,1.17-1.42,1.04-2.47-.12-.92-2.08-1.94-.39-2.66,1.66-.71,1.99,1.4,2.86,2.33.54.59,1.11,1.15,1.67,1.72,0,0,.04.05.04.05,2.14,7.12,5.73,13.83,5.85,21.53.02,1.27-1.26,3.13.85,4.06Zm-8.19-23.23c-.57,5,2.88,9.61,1.23,14.68-.05.16.44.67.76.77,2.99.94,1.85,3.34,1.87,5.3,0,.78-1.43,1.95.49,2.1,1.47.12,1.3-1.25,1.25-2.17-.4-7.27-2.74-14.03-5.59-20.68Z"/>
      <path class="cls-6" d="m34.28,81.32c.31-.33.63-.66.94-.99,3.08-.67,4.72-2.07,2.71-5.33-1.97-2.79-1.8-6.04-1.88-9.2-.03-1.02.34-1.03,1.49,0,.07.65-.1,1.63.26,1.88.76.55.76-.67,1.27-.92.59-.29,1.1-.73,1.64-1.1.63.35,1.26.69,1.89,1.04.62,3.99.36,7.91-1.06,11.69-.68,1.8-.23,3.33,1.44,3.83,1.73.52,3.3-.24,3.7-2.35.13-.69.36-1.37.54-2.05,2.06-1.22,2.11-2.44-.01-3.64.31-2.7.68-5.39.28-8.11.09-.4.19-.79.28-1.19.55-.31,1.11-.63,1.66-.94.39.4.79.8,1.18,1.21.1,3.62-.66,7.28.61,10.83.42,3.02,2.84,1.34,4.32,1.84-.2,2.06.05,4.06-2.68,5.11-2.72,1.05-2.2-1.72-3.87-2.76.29,3.09-3.18,5.55-2.88,6.06,1.75,2.9-.74,5.93.81,8.59-3.97-2.71-9.77-3.57-10.14-9.93-.08-1.39-.42-2.45-1.89-2.84-.15-.17-.35-.23-.58-.17-.13-.18-.14-.37-.03-.56Zm5.8,8.12c.11-.05.23-.1.34-.15-.1-.07-.19-.2-.29-.21-.11-.01-.22.09-.34.14.1.07.19.15.29.22Z"/>
      <path class="cls-7" d="m126.51,136.25c-3.91,2.99-8.55,4.84-12.76,7.25-3.59,2.06-9.02.98-14.07-.21.82,9.8-2.2,18.64-6.82,27.05-1,1.82-1.89,3.77-4.14,4.43-.23-.24-.46-.47-.69-.71,3.8-3.56,5.66-8.21,7.27-13,2.19-5,2.83-10.36,3.51-15.69.28-2.24-1.03-3.43-3.43-2.93-1.05-1.57-2.05-3.26-4.37-1.91-3.44,1.09-1.85,3.86-2.03,6.05-.01.61-.02,1.22-.03,1.83-.55,2.28-.53,4.76-2.19,7.04-1.24-2.22-.39-4.26-.86-6.12-.27-4.82-.54-9.65-.8-14.47.27-.27.54-.55.8-.82.66.19,1.32.38,1.98.57.71.77,1.4,1.58,2.52,1.79,5.45,3.11,10.57,6.5,17.45,6.53,3.82.02,6.22-.64,8.96-3.99-5.72.58-10.53-.14-15.3-1.27-1.96-.46-1.97-.42-2.58-2.33,2.34,1.38,5.12.81,7.56,1.75,2.89,1.61,6.02.47,9.02.78,2.75.29,3.83-.37,1.86-3.1-2.26-3.13-2.3-6.36.25-9.44l-.06.04c1.65-.44,3.72,1.27,5.03-.97.24.23.48.45.72.68-.31,1.05-.62,2.1-.97,3.32-1.34-.86-2.87-2.09-4.15-1.02-1.41,1.18-.89,3.22-.44,4.78.4,1.41,1,2.92,2.5,3.71.06,1.17-.31,2.83,1.83,1.59,1.25-.72,2.51-1.44,3.77-2.15.23.31.46.62.69.92Z"/>
      <path class="cls-7" d="m34.9,82.05c1.47.39,1.81,1.45,1.89,2.84.37,6.36,6.17,7.22,10.14,9.93.65,1.73,2.29,1.97,3.75,2.38,2.97.83,5.2,2.79,8.21,4.77q-6.54-1.09-7.44,4.79c-.21,1.33-1.49-.03-1.97.72,0,0,.04.05.04.05.66-2.01-.75-3.3-2.09-3.83-1.81-.72-1.14.63-.71,1.49-.25.25-.51.49-.76.74-.91-1.19-1.77-2.42-2.74-3.57-1.27-1.5-1.89-3.92-4.65-3.4-9.23-.49-17.26,3.4-25.45,6.85-4.32,1.82-8.48,1.35-12-2.1.28-.18.55-.36.83-.54,5.4,2.98,12.61,2.23,15.38-1.61.56,0,1.18.17,1.68,0,5.93-2.05,11.57-5.03,18.24-4.39,2.59.25,1.28-2.05.88-3.07-1.54-3.9-3.66-7.61-3.26-12.02Z"/>
      <path class="cls-10" d="m173.87,50.55c-.53,1.12-1.41,1.71-2.66,1.75-2.2-.81-2.89.67-3.46,2.3-.54,0-1.08,0-1.62-.01-2.81-1.27-4.69-3.2-4.63-6.51.93-.37,1.62-.96,1.88-1.97,2.14-1.95.63-4.42.87-6.63.19-1.69-.07-3.38,1.82-4.28,1.7-.2,2.93-.63.66-2.03-2.2-1.36-4.48-2.58-6.73-3.86,3.49.74,7.26-1.25,10.6,1.28,4.09,3.11,6.04,7.44,7.38,12.17-.56-.57-1.12-1.14-1.67-1.72-.86-.94-1.19-3.04-2.86-2.33-1.68.72.28,1.73.39,2.66.14,1.05-2.16,1.04-1.04,2.47-.26,2.33.61,4.49,1.06,6.71Zm-7.87.03c.96-1.72,4.71-1.04,3.94-3.96-.85-3.26-.47-6.29.92-10.31-4.05,1.76-3.45,4.68-2.79,6.64,1.02,3.04.03,4.73-2.36,6.17-1.7-.23-1.32.88-1,1.72.2.52.56,1.3,1.4.87.12-.06-.07-.73-.12-1.12Z"/>
      <path class="cls-6" d="m38.6,98.94c2.76-.52,3.38,1.9,4.65,3.4.97,1.14,1.83,2.38,2.74,3.57,3.25,6.93,9.89,7.3,16.17,8.4,1.04.18,3.37-.82,2.05,1.94-.59.37-.83,1.31-1.79,1.07-.81.1-1.25.45-.89,1.33,0,0,.16.07.16.07-3.61-2.17-7.61-.98-11.4-1.04-1.63-.02-2.5-.14-3.42-1.45-.95-1.36-2.09-2.67-3.39-3.68-3.2-2.48-5.39-5.12-3.88-9.59.37-1.1-.63-2.67-1-4.02Z"/>
      <path class="cls-12" d="m67.11,148.21c1.91-1.95,1.07-4.42,1.23-6.69,1.19-.98.7-1.6-.46-2.06-.11-.22-.25-.42-.42-.6-.07-1.11,1.46-2.16.12-3.31-.02-2.83-.03-5.66-.05-8.49,1.19-1.43,2.17-3.2,2.12-4.9-.08-3,1.65-2.71,3.53-2.62-2.06,7.12-2.98,14.34-2.62,21.78.24,4.89-.06,9.8-.12,14.71-.4-.08-.79-.16-1.19-.24,0-1.07-.08-2.12-1.17-2.73-.24-1.02-.48-2.05-.72-3.07-.09-.59-.18-1.18-.27-1.78Z"/>
      <path class="cls-7" d="m81.04,4.67c-1.8-1.75-4.33-1.7-6.51-2.49-1.32-.48-3.41-1.04-4.26.41-.67,1.14-.84,3.45-.12,4.39,4.02,5.28,1.34,11.63,3.1,17.21-2.71-3.05-5.62-18.88-4.21-22.5.28-.72.57-1.34,1.37-1.35,2.69-.04,5.77-.85,7.98.18,3.91,1.82,7.85,3.47,11.94,5.03-1.17,0-2.33,0-3.5,0-1.81-1.1-3.81-.97-5.8-.88Z"/>
      <path class="cls-15" d="m157.95,118.45c1.44-2.12-1.13-3.04-1.42-4.68-.36-1.99-1.64-3.81-1.14-6.05,1.17.15,2.19.38,2.96,1.21-1.1,1.65.07,5.19,2.48,6.23,1.68.72,2.78,1.74,3.68,3.2,1.62,2.6,3.72,3.66,6.64,2.03,1.67,2.24,5.26,3.18,3.68,7.51-.94,2.59-2.06,2.51-4.2,2.2,2.45-3.18,1.54-4.98-2.15-5.71-2.16-.43-3.64-2.04-5.28-3.35,0,0-.09.03-.09.03-1.58-1.16-2.33-3.99-5.19-2.57l.02-.05Z"/>
      <path class="cls-7" d="m70.45,156.02c.06-4.9.36-9.82.12-14.71-.36-7.44.56-14.66,2.62-21.78.42-.53.84-1.05,1.25-1.57.24.24.48.47.72.71-3.03,8.84-4.21,17.94-3.42,27.22.52,6.08-.97,12.61,3.51,17.93.21,2.6.92,5.12.77,7.78-.1,1.73.04,4.25,1.89,4.55,2.43.39,5.51,1.48,7.36-1.64.99.26,1.93.24,2.77-.43.23.24.46.47.69.71-1.76,1.6-3.69,3.29-6.08,3.25-6.15-.1-6.61,2.31-8.66-8.42.89-4.84-2.6-8.49-3.51-12.85.06-.25.05-.5-.04-.74Z"/>
      <path class="cls-7" d="m34.28,81.32c-.11.19-.1.38.03.56-9.94.41-18.64,4.07-26.46,10.07-.32.35-.63.7-.95,1.05l.04-.05c-.46.11-.93.22-1.39.33-.31-.24-.63-.48-.94-.73,6.61-5.15,13.62-9.45,21.85-11.67,2.82-.76,5.21.61,7.82.44Z"/>
      <path class="cls-12" d="m160.13,134.93c4.16-.92,8.33-1.84,12.49-2.76-.38,2.31-.4,5.55-3.42,5.27-3.02-.27-7.13,2.01-9.07-2.52Z"/>
      <path class="cls-10" d="m184.72,68.41c-2.11-.93-.83-2.79-.85-4.06-.12-7.71-3.71-14.41-5.85-21.53,4.28,6.02,7.73,12.3,6.86,20.1-.2,1.81-.11,3.66-.15,5.49Z"/>
      <path class="cls-3" d="m74.44,117.96c-.42.52-.84,1.05-1.25,1.57-1.88-.09-3.62-.37-3.53,2.63.05,1.7-.93,3.47-2.12,4.9.61-4.21-1.98-9.23,3.1-12.31,2.01,1.19,2.81-1.05,4.23-1.55.8-.28,1.67-1,2.29-.31.88.99-.1,1.63-.82,2.36-.76.77-1.27,1.8-1.89,2.72Z"/>
      <path class="cls-3" d="m157.43,122.83c-1.08,2.82-3.78,2.19-5.77,2.72-1.64.43-2.74-.83-2.49-2.53.29-1.98.93-4.27,3.51-3.86,2,.32,3.92,1.45,4.75,3.67Z"/>
      <path class="cls-7" d="m73.25,24.2c1.29-.84,1.74.33,2.25,1.03,2.66,3.65,5.25,7.34,7.87,11.02-2.18-.31-3.54-1.76-4.51-3.52-1.65-3-4.56-5.16-5.61-8.53Z"/>
      <path class="cls-12" d="m158,106.56c-3.29-1.82-2.34-5.8-4.2-8.44-.58-.83,1.3-1.78,2.7-1.59-.59,2.76,2.3,4.6,1.92,7.38-.12.88.5,1.87-.42,2.65Z"/>
      <path class="cls-12" d="m99.62,19.71c-2.53,4.09-6.72,4.42-9.85.77,2.2.02,1.88-1.96,2.58-3.37,1.34,1.1-.06,3.91,2.34,3.95.8.01.62-1.34.76-2.12.82.19,1.64,1.65,2.44-.01,0,0,.08-.06.08-.06.55.28,1.1.56,1.65.84Z"/>
      <path class="cls-12" d="m81.04,4.67c1.99-.09,3.99-.22,5.8.88-.06,1.27.94,1.84,1.66,2.62.76.83,1.37,1.77-.25,2.41-2.96-1.29-5.02-3.69-7.22-5.92Z"/>
      <path class="cls-3" d="m70.49,156.76c.91,4.35,4.4,8,3.51,12.85-2.22-3.68-2.9-7.98-4.63-11.87-.06-.13.73-.64,1.12-.98Z"/>
      <path class="cls-13" d="m44.4,60.88c2.7-2.58,5.4-5.17,8.11-7.75.21.32.43.65.64.97-2.27,3.22-4.28,6.76-8.75,7.35.05-.19.05-.38,0-.57Z"/>
      <path class="cls-13" d="m57.07,48.71c.6.52,1.19,1.04,1.79,1.56-1.77,1.29-3.55,2.57-5.32,3.86,0,0-.4-.03-.4-.03-.21-.32-.43-.65-.64-.97,1.52-1.47,3.04-2.94,4.57-4.42Z"/>
      <path class="cls-10" d="m37.93,75.01c2.01,3.26.38,4.66-2.71,5.33-1.43-2.96,2.33-3.28,2.71-5.33Z"/>
      <path class="cls-3" d="m99.62,19.71c-.55-.28-1.1-.56-1.65-.84.14-1.82,1.39-2.95,2.58-4.12,1.01.2,1.41.99,1.78,1.82-.11,1.3-1.83,1.72-1.72,3.14-.33,0-.66,0-.98,0Z"/>
      <path class="cls-13" d="m40.72,65.67c-.54.37-1.06.81-1.64,1.1-.52.25-.51,1.47-1.27.92-.35-.26-.19-1.23-.26-1.88,2.09-.99,3.2-3.72,6.04-3.39-.29.56-.57,1.12-.86,1.68,0,0,0,0,0,0-.67.52-1.33,1.04-2,1.57Z"/>
      <path class="cls-7" d="m41.48,56.03c-.24,1.99-1.08,2.91-1.77,3.94-.68,1.02-1.15,2.17-1.72,3.26-1.04-2.07-.27-3.78,3.49-7.2Z"/>
      <path class="cls-7" d="m1.14,103.69c-1.85-2.63-1.32-5.06.64-7.36.24.23.49.46.73.69-1.2,1.96-.88,4.04-.54,6.13-.28.18-.55.36-.83.54Z"/>
      <path class="cls-7" d="m1.79,96.33c.94-1.26,1.88-2.52,2.82-3.78.31.24.63.48.94.73-.55,1.62-1.86,2.62-3.03,3.74-.24-.23-.49-.46-.73-.69Z"/>
      <path class="cls-3" d="m67.59,135.55c1.34,1.15-.19,2.2-.12,3.31-2.99-1.21-.54-2.23.12-3.31Z"/>
      <path class="cls-3" d="m68.09,153.06c1.09.61,1.16,1.65,1.17,2.73-2.24-.12-1.89-1.34-1.17-2.73Z"/>
      <path class="cls-7" d="m170.19,118.64c-1.25-.76-2.07-1.77-2.06-3.6,1.85.18,1.9,1.86,2.67,2.8-.2.27-.41.53-.61.8Z"/>
      <path class="cls-3" d="m97.88,18.93c-.81,1.66-1.63.2-2.44.01.8-3.23,1.63.3,2.44-.01Z"/>
      <path class="cls-10" d="m42.72,64.1c.29-.56.57-1.12.86-1.68.08-.62,0-1.32.82-1.55.05.19.05.38,0,.57-.13,1.16.47,2.77-1.68,2.65Z"/>
      <path class="cls-3" d="m67.89,139.46c1.16.47,1.64,1.08.46,2.06-.87-.53-.88-1.25-.46-2.06Z"/>
      <path class="cls-3" d="m67.11,148.21c.09.59.18,1.19.27,1.78-.57.01-1.17-.07-1.27-.73-.1-.66.43-.92,1-1.05Z"/>
      <path class="cls-12" d="m152.6,134.01c.65-.19,1.2-.13,1.43.63-.71.32-1.09-.1-1.43-.63Z"/>
      <path class="cls-10" d="m159.24,29.09c-.76.19-1.48.26-1.9-.61.75-.17,1.36.13,1.9.61Z"/>
      <path class="cls-7" d="m166.98,113.36c.24.28.72.6.67.82-.1.5-.54.45-.91.17.08-.33.16-.66.24-.99Z"/>
      <path class="cls-12" d="m155.96,134.85c.19-.21.39-.21.58,0-.2,0-.39,0-.58,0Z"/>
      <path class="cls-5" d="m81.9,60.68c1.43,1.44,3.66,1.45,4.6,4.23.75,2.23,4.74,1.29,6.95.71,2.78-.72,3.31.12,3.99,2.44,1.46,4.97-.01,9.75-.54,14.59-.12,1.1-1.35.7-2.09.98-1.89.7-3.89,1.3-5.45,3.65,3.78-.06,6.14-3.56,9.72-2.4-1.06,2.7-3.83,3.53-5.82,5.12-.79.63-2.44.18-3.7.22-1.15.05-.03-2.75-1.99-1.61-.68.39-.77,1.17-.63,1.89.36,1.88,1.9,1.8,3.99,1.99-3.37,1.2-5.51,3.45-6.15,6.02-1.15,4.62-4.19,6.22-8.25,7.01-.02-.46-.04-.91-.07-1.37,2.08-2.92,1.32-4.78-2.12-5.17-1.09-.12-2.41.18-2.59-1.46-.1-.93.14-1.76,1.35-1.52,4.47.85,2.15-2.15,2.46-3.68-2.27,1.51-4.31,2.69-7.13,2.45-2.97-.25-.8-5.67-5.2-4.11,1.46-1.2,1.4-2.9,2.84-3.57,2.2-1.01.36-3.33.13-3.36-2.3-.29-2.84-2.85-4.78-3.45,0,0,0,0,0,0,3.73-1.7,3.33-5.44,4.23-8.54,0-1.4.23-2.84-.02-4.19-.56-2.98,1.79-3.76,3.54-4.94,1.18-.81,2.54.87,3.59.28,2.63-1.48-1.84-1.19-.7-2.41.17-.19.57-.47.61-.43,2.91,2.59,6.23-.66,9.21.66Z"/>
      <path class="cls-2" d="m166.13,54.59c.54,0,1.08,0,1.62.02.25.3.51.59.76.89-.19.67-.38,1.34-.57,2.01-.28.97-.62,2.25.19,2.79,1.29.87,1.88-.7,2.67-1.37,2.03-1.7,3.55-3.85,5.23-6.84.53,5.3.92,9.42-4.19,11.91-1.98.97-3.92,2.77-4.55,5.28-.04.15.64.72.87.66,2.38-.68,4.07-2.38,5.71-4.1,1.46-1.54,2.83-4.97,4.99-2.84,1.49,1.46-.5,4.66-2.5,6.37-1.66,1.42-4.07,2.27-3.35,5.54,2.48-.21,3.31-2.2,4.52-3.78.78-1.02,1.94-2.05,3.21-1.55,1.3.51.54,2.01.53,3.03-.05,5.96-5.66,11.96-13.48,14.56-1.13-2.27-3.27-1.64-5.14-1.8.08-1.97-4.41-1.85-2.19-4.89.39-.54-.46-.69-1.06-.73-2.8-.18-5.1.13-4.42,3.88-1.37,1.2-1.72,2.79-1.7,4.51l-1.13.06c-4.72,1.56-5.51-3.75-8.64-5.02-.74-.3-1.11-1.56-2.86-1.29.93,1.27,1.74,2.37,2.55,3.47-.9.64-1.8,1.28-2.71,1.91-4.39-2.51-7.39-5.83-6.57-11.56,2.4.96,2.68,4.84,5.98,4.17,1.88-1.15,3.74-1.82,5.56.16,1.1,1.2,2.43,1.55,2.62-.47.35-3.87,4.35-4.98,5.35-8.33.55,1.21.63,2.17.72,3.14.25,2.67,3.11.12,3.97,1.97.28.6,1.69-.26,1.56-.7-.99-3.28,2.01-7.05-.33-9.68-1.76-1.98-.83-3.53-.95-5.31.04-.27.1-.53.21-.79,3.2-.78,6.18-1.87,7.53-5.29Z"/>
      <path class="cls-5" d="m86.29,110.91c-.62-4.59,1.09-8.74,2.54-12.91.82-2.36,2.59-3.83,5.1-4.62,5.74-1.81,11.35-3.99,16.7-6.83,3.36-1.78,6.93-2.16,10.27.36.02.62.04,1.23.05,1.85-.42-.02-.89.07-1.26-.09-4.95-2.07-6.44-1.27-6.95,3.65-.16,1.52-.41,3.05-2.08,3.87-4.7,2.32-.56,5.89-1.15,8.81-.12.59.72.71,1.27.77.66.36.8.97.77,1.65-.71.11-1.16.37-1.47,1.17-.85,2.17-2.21,4.14-2.27,6.58-3.63-2.17-3.14,2.09-4.76,3.05-.45.63-.9,1.26-1.35,1.89-.39.04-.79.09-1.18.13-.82-.5-1.64-.45-2.47,0-3.45-.79-5.5-2.69-4.49-6.43.62-2.28-1.08-2.87-2.16-4.08-1.69-1.88-1.78.39-2.63.8-.71.35-1.64.26-2.47.36Z"/>
      <path class="cls-5" d="m158.4,60.67c.12,1.78-.81,3.33.95,5.31,2.34,2.64-.66,6.4.33,9.68.13.44-1.29,1.3-1.56.7-.86-1.86-3.71.7-3.97-1.97-.09-.96-.17-1.93-.72-3.14-1,3.35-5,4.46-5.35,8.33-.18,2.03-1.51,1.68-2.62.47-1.81-1.98-3.68-1.31-5.56-.16-2.3-3.32-5.63-5.91-6.26-10.38-.42-2.97-1.61.36-2.47.03-.33-.39-.67-.78-1.01-1.17-.68-.65-1.36-1.3-2.04-1.94.72-1.3.77-2.47-.66-3.34,0-.27.06-.52.16-.77.26-.26.79-.71.75-.76-.49-.68-.53.04-.75.28-1.36-1.24-.76-2.86-.85-4.34,1.41-.78,4.07,1.28,4.41-1.94l-.04.03c2.35.67,3.32-.96,4.3-2.57l-.03.03c1.87.11,1.46,1.01.93,2.25-.93,2.19-1.95,4.38-1.88,6.87.05,1.56-.04,3.15,1.92,3.65,0-1.86-.17-3.66.03-5.43.61-5.4,4.71-7.37,9.34-4.58.42.25.93.72.99,1.14.4,2.93.36,2.94,3.45,1.94q-1.43,4.19-.8,8c2.46-1.96,5.41-2.87,7.29-5.37l-.03.03c.57-.3,1.15-.59,1.72-.89Zm-20.31,6.48c3.41,3.69,7.3,3.91,10.28.71-3.64.65-7,.7-10.28-.71Z"/>
      <path class="cls-6" d="m120.95,88.76c-.02-.62-.04-1.23-.05-1.85,3.54-1.61,5.5.59,7.43,3.02,1.03,1.3,1.38,3.55,3.86,3,.05.09.11.15.19.2-.59,2.77,2.21,4.21,3.38,4.52,2.83.76,2.89,2.94,3.08,4.62.78,6.85,1.72,13.85-3.4,19.72-.02-1.16-.04-2.31-.05-3.47.1-.05.22-.09.31-.16.04-.04.02-.15.03-.23l-.27.44c-2.92.07-5.16-.7-5.24-4.18.08-.84.17-1.69.25-2.53,1.73-.8,2.01-3.49,4.71-3.32.74.04,1.9-1.97,2.35-3.22.88-2.47-1.79-3.43-2.73-5.12-.54-.98-1.79-.21-2.41.64-2.39,3.26-5.54,6.38-2.15,10.8-1.51.02-3,.15-4.48-.48-1.26-.53-2.16-.11-2.24,1.42-.42.07-1.07-.19-1.03.56,0,.14.63.24.98.36-.01.78-.02,1.55-.04,2.33-.48.1-.97.2-1.45.3-1.25-.19-2.46-.29-2.81,1.37-1.14-.07-2.27-.15-3.41-.22-2.31-.6-2.36.77-2.09,2.41-1.75,2.81-3.56,2.18-5.39.09.21-.26.42-.52.63-.78,5-.36,1.49-4.4,2.75-6.38.27-.28.55-.57.82-.85.86.27,1.02,2.06,2.32,1.22,1.3-.84.73-1.81.01-2.86-.65-.95-1-2.1-1.62-3.47,1.79.11,2.69,2.5,4.36,1.33,1.74-1.21.75-3.12.81-4.71.04-1.09-.41-2.19-.64-3.29,3.69-2.99,2.34-7.44,3.25-11.24Z"/>
      <path class="cls-8" d="m75.24,163.81c-4.48-5.32-2.99-11.85-3.51-17.93-.79-9.28.39-18.38,3.42-27.22.3-.05.6-.1.9-.14,1.26.23,2.51.46,3.77.7-.17,5.86,1.12,11.22,5.25,15.64.27,4.83.54,9.65.8,14.47-2.52,1.82-4.25-.11-6.16-1.76-.85,2.96,2.01,3.42,2.74,5.32-.72.31-1.33.55-1.93.85-1.01.5-2.31.95-2.18,2.28.13,1.36,1.6.7,2.43,1.06,2.77,1.23,3.9,2.89,1.7,5.5-1.2,1.43-1.89,2.58.37,3.53,0,.87,0,1.75,0,2.62-1.77.55-3.17.36-4.17-1.52-.76-1.44-1.8-2.77-3.44-3.4Z"/>
      <path class="cls-8" d="m157.95,118.45s-.02.05-.02.05c1.59,1.13,2.55,3.55,5.19,2.57,0,0,.09-.03.09-.03.14,4.54,4.37,4.21,7.2,5.96-.39.58-.7,1.2-1.15,1.68-2.79,2.96-12.82,4.98-16.49,3.36-.26-.11-.69-.24-.71-.4-.36-3.03-3.1-1.89-4.7-2.72.49-3.02-1.87-2.39-3.48-2.71,0,0,.05.07.05.07.17-1.42-.29-2.7-.88-3.95-.71-2.2.82-4.09.88-6.18.08-3.06.93-5.97.39-9.2-.48-2.94-1.71-5.56-2.41-8.38,8.44-1.25,8.59-1.06,10.81,6.92,1.25,4.5,1.18,9.59,5.24,12.97Z"/>
      <path class="cls-14" d="m49.48,107.47c.47-.75,1.76.61,1.97-.72q.91-5.88,7.44-4.79c-3.01-1.98-5.24-3.94-8.21-4.77-1.46-.41-3.1-.64-3.75-2.38-1.55-2.66.94-5.7-.81-8.59-.31-.51,3.16-2.97,2.88-6.06,1.67,1.04,1.15,3.82,3.87,2.76,2.73-1.06,2.48-3.06,2.68-5.12,0,0,.02-.03.02-.03,2.9-1.03,1.23-3.43,1.56-5.23.19-1.4.39-2.79.58-4.19.35,0,.7,0,1.04-.01.08,2.66.02,5.34.31,7.98.11,1.04-.22,3.33,2.29,2.17.02.59.05,1.18.07,1.77,0,0,0,0,0,0-.2.19-.6.44-.56.57.98,3.31.51,6.56-.1,9.87-.18.97.36,2.92.89,3.05,4.3,1,3.52,5.52,5.76,7.87-.88,1.21-1.79,2.37-3.33.84-3.31-3.3-2.33.23-2.67,1.66-1.13,1.76-1.23,1.97.15,2.87,1.96,1.28,4.11,2.29,6.24,3.44-.6.92-1.49,1.07-2.42,1.28-4.54,1.03-8.59-2.61-13.24-1.36-.61.16-2.55-1.17-2.67-2.89Zm9.12-14.66c-2.26-.14-2.32-3.12-4.53-3.47-.65-.1-1.23.84-1.03,1.54.48,1.74,1.21,3.44,3.3,3.76,1.03.15,1.9-.27,2.26-1.83Zm.05,3.7c-.1-.22-.15-.54-.32-.63-.15-.08-.44.09-.66.15.11.22.17.51.35.63.12.08.41-.09.63-.15Z"/>
      <path class="cls-5" d="m166.13,54.59c-1.35,3.42-4.33,4.52-7.53,5.29.03-2.46.13-4.76-3.56-4.56-2.11.11-1.85-1.87-1.46-3.15.9-2.89-.65-2.99-2.91-3.56-6.4-1.61-12.4,1.15-18.62,1.12-.35-3.54,1.92-4.89,4.81-5.13,4.83-.4,6.86-3.09,7.11-7.61.28-.32.55-.64.83-.95,1.63-.32,3.44-.29,4.83-1.04,1.74-.94,4.44.53,5.36-2.21.57,0,1.13,0,1.7,0-.29,3.23.84,4.62,4.14,3.22.05.63.1,1.25.14,1.88l-.12-.1c-.95.64-1.33,1.87-1.71,2.68-.79,1.69-2.91,4.62,1.61,4.82.32.91-.14,2.03.73,2.79-.06,3.31,1.82,5.24,4.63,6.51Z"/>
      <path class="cls-1" d="m135.4,118.53c.02,1.16.04,2.31.05,3.47,0,0,.03-.04.03-.04-.8.27-1.02.86-.88,1.64-1.53-1.53-3.87-1.63-5.44-3.28-.86-.9-2.91-1.06-3.02,1.02-.12,2.2-1.9,1.01-2.67,1.72-.28.2-.56.4-.84.61,0,0,.05-.04.05-.04-1.92-.01-3.64.54-5.13,1.78,0,0,.06-.04.06-.04-2.27-.17-3.09,1.13-3.54,3.14-.49,2.21-1.28,4.03-4.3,4.08-2.47.04-3.09,2.35-3.29,4.53-2.44-.94-5.23-.36-7.56-1.75,0,0-.02.11-.02.11-.57-1.59-2.26-1.68-3.39-2.53,0,0,0,0,0,0-.3-1.63-2.22-1.92-2.78-3.34,2.15-.78,4.29-1.56,6.44-2.34.46.09.92.18,1.38.28.35.94,1.41,1.55,1.81.76,1.46-2.85,5.24-4.3,4.94-8.17.32-.12.65-.24.97-.35,1.83,2.09,3.64,2.72,5.39-.09.97-.57,2.07-1.02,2.09-2.41,1.14.07,2.27.15,3.41.22,1.24.16,2.52.43,2.81-1.37.48-.1.97-.2,1.45-.3,2.53.76,4.13-2.86,6.8-1.43.08,3.48,2.32,4.25,5.24,4.18l-.06-.05Z"/>
      <path class="cls-14" d="m81.9,60.68c-2.98-1.32-6.3,1.93-9.21-.66-.04-.04-.44.25-.61.43-1.14,1.22,3.33.93.7,2.41-1.06.6-2.41-1.08-3.59-.28-1.74,1.18-4.09,1.96-3.54,4.94.25,1.35.03,2.79.02,4.19-2.78-1.66-2.8-4.12-1.68-6.67.76-1.71.89-3.17-.31-4.68-1.18-1.48-2.65-1.83-4.4-1.31-.93.28-1.87.56-2.8.83-.35-1.56.6-2.42,1.42-3.62,1.22-1.79,3.83-1.83,4.46-4.07,1.98-.82,5.99,2.96,5.87-2.6,2.91.26,4.84,1.53,6.12,4.41.88,1.99,2.71,4.76,4.95.71,1.5.22,1.19-3.2,3.34-1.67-1.5,2.42-.6,5.07-.73,7.62Z"/>
      <path class="cls-3" d="m138.96,135.43c-.81-1.74-1.46-2.8,1.51-3.59,2.86-.76,5.17.64,7.78.5,1.35-.07.7,1.54.39,2.34-1.07,2.81-2.26,5.58-3.4,8.36-.37.9-1.5,1.69-.39,2.79,0,0,.02-.02.02-.02-7.69,1.64-12.19-1.66-13.57-9.84-.19-1.15.58-1.93,1.11-1.85,1.5.22,3.09-1.92,4.47.14.45.67.93,1.33,1.4,1.99,2.4,2.63.44,6.64,3.19,9.66-.39-3.93,1.13-7.79-2.51-10.5Z"/>
      <path class="cls-6" d="m62.35,52.2c-.63,2.24-3.24,2.28-4.46,4.07-.82,1.2-1.77,2.07-1.42,3.62-2.04,2.26,1.55,3.73.8,5.81-.68-.2-1.35-.39-2.03-.59-.2-.07-.4-.15-.58-.25.04-2.19-.97-3.6-3.09-4.19,1.73-1.86,1.9-4.19,1.97-6.56,1.77-1.29,3.55-2.57,5.32-3.86,4.1-4.92,12.29-5.49,19.68-1.35.25,1.93.5,3.87.75,5.8-2.24,4.05-4.07,1.29-4.95-.71-1.27-2.88-3.21-4.15-6.12-4.41-1.22-1.31-2.88-2.33-4.36-1.25-.92.67-3.35,1.7-1.51,3.85Z"/>
      <path class="cls-13" d="m130.17,68.38c.34.39.67.78,1.01,1.17.39,2.5,1.3,4.95.69,7.55-.98,2.04-2.36,3.74-4.31,4.94-1.91.88-3.28.78-4.33-1.49-1.51-3.24-3.18-6.72-2.04-10.04,1.58-4.58,5.99-1.18,8.98-2.13Z"/>
      <path class="cls-2" d="m86.29,110.91c.83-.1,1.76-.01,2.47-.36.85-.42.95-2.68,2.63-.8,1.08,1.21,2.78,1.8,2.16,4.08-1.01,3.74,1.04,5.64,4.49,6.43.18,1.39.35,2.78.53,4.16-2.94.18-5.86.12-8.63-.43-.31-1.54,2.23-.86,1.5-2.51-1.31.18-2.51.34-3.72.5-3.08-3.35-.99-7.38-1.44-11.07Z"/>
      <path class="cls-4" d="m61.42,104.12c.35-1.43-.64-4.96,2.67-1.66,1.53,1.53,2.45.37,3.33-.84,3.04.73,6.73-.87,9.04,2.52.02.46.05.91.07,1.37-1.17,1.15-4.19.44-3.49,3.47,0,0,.11-.08.11-.08-4.69.33-8.91-.49-11.72-4.78Z"/>
      <path class="cls-6" d="m144.8,36.03c-.28.32-.55.64-.83.95-1.42-.08-3.14-.42-3.92.97-3.03,5.42-10.35,5.49-13.36,10.86-1.55-3.49.08-6.56,4.22-7.96,1.33.38,1.95-.13,1.9-1.5.06-.24.16-.46.31-.65,1.19-.42,2.51-.64,3.54-1.3,1.55-.99,1.56-1.98-.52-2.34,2.79-1.07,5.57-2.21,8.62-2.33.01,1.1.02,2.2.04,3.29Z"/>
      <path class="cls-2" d="m126.7,48.82c3.01-5.37,10.32-5.44,13.36-10.86.78-1.39,2.5-1.05,3.92-.97-.25,4.52-2.28,7.21-7.11,7.61-2.89.24-5.16,1.59-4.81,5.13-1.7.94-3.46,1.68-5.46,1.55.04-.82.07-1.65.1-2.47Z"/>
      <path class="cls-6" d="m120.22,135.89c-1.5-.78-2.1-2.3-2.5-3.71-.45-1.56-.97-3.61.44-4.78,1.29-1.07,2.82.16,4.15,1.02.36-1.22.67-2.27.97-3.32.96-.7,1.84-.96,1.85.67,0,1.18.41,2.11,1.15,2.96-.06,1.73-.12,3.46-.18,5.19,0,0,.02-.01.02-.01-2.43-.71-3.88,1.51-5.91,1.99Z"/>
      <path class="cls-1" d="m126.7,48.82c-.03.82-.07,1.64-.1,2.47-2.21.3-3.17-.31-3.18-2.89-.02-7.61-.3-9.33,9.44-12.4.09.9.18,1.8.27,2.71-.14.2-.24.42-.31.66-1.06-.04-1.64.53-1.9,1.5-4.15,1.4-5.77,4.46-4.22,7.96Z"/>
      <path class="cls-6" d="m93.72,57.64c-1.3,1.89-3.34,2.39-5.17,2.65-1.53.22-4.04,1.62-4.69-.87-.42-1.63-1.27-4.02.6-5.47,1.97-1.53,4.17-1.59,6.09.31,1.09,1.09,2.11,2.25,3.17,3.38Z"/>
      <path class="cls-13" d="m85.51,132.1c-2.68-1.78-1.81-4.68-2.24-7.16-.5-2.91-.97-5.83-1.37-8.76-.13-.97-.02-1.97-.03-2.96-.01-1.16.04-2.68,1.36-2.72,1.69-.04,1.13,1.67,1.1,2.64-.12,4.1-.08,8.14,2.33,11.72,0,0-.12.18-.12.18l.22.15c.14.09.23.22.28.38-2.17,1.78.57,4.72-1.54,6.52Z"/>
      <path class="cls-13" d="m103.1,73.47c.17.92-.34,1.96.44,2.78,1.24-.1,1.02-1.52,1.84-2.39.54,2.82.44,5.04-1.34,7.04-1.28,1.45-2.87,1.38-4.26.86-1.6-.6-.8-2.07-.55-3.3.28-1.37.34-2.79.5-4.19,1.12-.27,2.24-.54,3.36-.81Z"/>
      <path class="cls-4" d="m87.73,121.99c1.2-.16,2.41-.33,3.72-.5.73,1.66-1.8.97-1.5,2.51,2.78.55,5.69.62,8.63.43.98.83,2.66,1.21,1.97,3.11-.46-.09-.92-.18-1.38-.27-2.97-2.43-5.52-.01-8.22.71-.47-.32-.94-.64-1.41-.96h.08c-.7-1.66-1.93-3.1-1.88-5.02Z"/>
      <path class="cls-4" d="m127.63,62.33c-.1.25-.15.5-.15.77-2.07.68-4.13,1.36-6.2,2.04-.57-5.76,1.06-8.02,5.52-7.63.09,1.48-.51,3.1.85,4.34-.02.16-.02.32,0,.48Z"/>
      <path class="cls-13" d="m109.66,75.15c1,.62,4.89-.5,1.63,2.71-.17.17-.31.58-.22.76,4.3,8.7-3.37,2.24-4.45,4.11-.29-2.53,1.86-4.02,1.58-6.26.49-.44.97-.88,1.46-1.32Z"/>
      <path class="cls-3" d="m162.64,90.4c.44,1.55,2.93-1.83,2.77,1.15-2.75,1.42-5.53,2.77-8.68,3.03-.72-1.59-1.44-3.18-2.16-4.78,2.76-.77,5.31,1.22,8.06.59Z"/>
      <path class="cls-1" d="m110.96,58.17c-.05-.58-.09-1.16-.14-1.75,1.08-.04,2.15-.09,3.23-.13.25,3.77-1.42,7.39-.84,11.18-.55.04-1.1.08-1.65.12-1.28-2.22-2.01-4.48-.6-6.92,1.07-.83.91-1.67,0-2.5Z"/>
      <path class="cls-5" d="m131.19,55.57c-1.86-.19-4.68,2.49-5.34-.27-.64-2.65,2.75-2.71,4.84-3.29,1.81-.5,3.69-1.76,4.73,1.04,0,0,.03-.03.03-.03-2.3-.6-3.33.93-4.3,2.57l.04-.03Z"/>
      <path class="cls-2" d="m144.8,36.03c-.01-1.1-.02-2.2-.04-3.29,3.42-1.76,6.81.47,10.22.04-.92,2.74-3.62,1.27-5.36,2.21-1.39.75-3.2.72-4.83,1.04Z"/>
      <path class="cls-3" d="m104.02,65.72c-.32-1.84-2.83-1.5-3.25-3.24,1.29-.28,2.58-.57,3.87-.85,1.14,1.76,2.77.21,4.74.72-2.19,1.05-.67,6.36-5.34,3.4,0,0-.03-.02-.03-.02Z"/>
      <path class="cls-14" d="m127.56,82.03c1.95-1.2,3.32-2.9,4.31-4.94-.16,2.9,1.06,5.35,2.93,7.84-3.46.78-5.2-1.42-7.24-2.91Z"/>
      <path class="cls-5" d="m156.71,61.53c-1.56-.77-2.49.83-3.8,1.02-.79-.99.26-1.85.2-2.78-.07-1.08-1.52-2.54.53-3.08,1-.27,2.4-.24,3.21.28,1.26.81-.08,1.97-.19,2.99-.06.53.01,1.07.02,1.61,0,0,.03-.03.03-.03Z"/>
      <path class="cls-11" d="m85.51,132.1c2.11-1.8-.63-4.74,1.54-6.52.85.49.91,2.39,2.56,1.42,0,0-.08.01-.08.01-.7.82.16,1.65-.03,2.48-.83,1.62-1.82,3.19-1.64,5.13-.66-.19-1.32-.38-1.98-.57-.12-.65-.25-1.3-.37-1.94Z"/>
      <path class="cls-8" d="m104.65,61.63c-1.29.28-2.58.57-3.87.85,0-2.78-1.43-5.89,2.09-8.28-.17,2.89,1.71,4.89,1.79,7.43Z"/>
      <path class="cls-8" d="m144.09,92.11c2.8.15,6.07-.5,6.49,3.87-2.63-.24-5.17-.47-7.72-.7.41-1.06.82-2.11,1.22-3.17Z"/>
      <path class="cls-11" d="m140.63,121.15c-.03,2.73-.95,5.1-2.86,7.4-3.53-4.13.66-6.38,1.87-9.23.33.61.66,1.22.99,1.83Z"/>
      <path class="cls-13" d="m109.8,84.76c-3.59,2.05-6.01,4.76-10.15,4.1,2.27-3.76,5.43-4.8,10.15-4.1Z"/>
      <path class="cls-3" d="m144.09,92.11c-.41,1.06-.82,2.11-1.22,3.17-1,.08-2.07.84-2.5-1.06-.44-1.97-1.46-3.8-2.5-6.35,2.4,1.63,4.31,2.93,6.23,4.24Z"/>
      <path class="cls-8" d="m154.58,89.8c.72,1.59,1.44,3.18,2.16,4.78-4.26,1.8-4.44,1.65-4.16-2.59.08-1.24-.27-2.52-.42-3.78.38-.02.75-.04,1.13-.06.43.55.86,1.1,1.3,1.65Z"/>
      <path class="cls-4" d="m99.87,69.97c-.09-1.51-.19-3.03-.28-4.51,1.69-.24,2.97,1.21,4.44.27,0,0,.02.02.03.02-.9,2.13,2.05,4.69-.75,6.6-.13-2.26-1.74-2.38-3.43-2.38Z"/>
      <path class="cls-9" d="m118.47,75.96c-1.09-1.82-2.09-3.17-2.73-4.68-.57-1.32-.06-2.52,1.5-2.79,1.47-.25,2.03.64,1.91,2-.15,1.63.39,3.32-.68,5.47Z"/>
      <path class="cls-2" d="m121.27,65.14c2.07-.68,4.14-1.36,6.2-2.04,1.42.87,1.38,2.04.66,3.34-2.26-.55-5.06,1.7-6.86-1.3Z"/>
      <path class="cls-11" d="m73.14,108.9s-.11.08-.11.08c1.52-.66,3.04-1.32,4.66-2.02-.34,4.05-1.16,4.61-6.39,4.44.07-1.25,1.27-1.66,1.84-2.51Z"/>
      <path class="cls-9" d="m109.66,75.15c-.49.44-.97.88-1.46,1.32-1.74-1.92-.24-4.6-1.53-6.66-.1-.15.55-.91.97-1.21.52-.37,1.21-.15,1.38.41.6,2,2.51,3.89.64,6.15Z"/>
      <path class="cls-4" d="m132.38,93.13c-.08-.05-.15-.11-.19-.2-1.13-1.67-2.27-3.33-3.48-5.12,1.8-.36,2.43,2.7,4.28.98l-.06-.06c-.65,1.97-.29,2.5,1.7,2.55l-.06-.07c-1.19,1.64.97,2.46.93,4.22-1.16-.85-2.14-1.57-3.12-2.29Z"/>
      <path class="cls-11" d="m160.98,37.89c-.05-.63-.1-1.25-.14-1.88.08-.21.13-.43.15-.66.5-.1,1-.21,1.5-.31.94-.06,1.88-.11,2.82-.17.29.04.54.16.77.34-1.88.9-1.63,2.59-1.82,4.28-.24,2.21,1.26,4.68-.87,6.64-.04-1.68.17-3.42-.19-5.03-.27-1.22.42-3.48-2.21-3.2Z"/>
      <path class="cls-5" d="m150.41,53.2c-1.69-.59-3.88.38-3.72-2.23.09-1.49,1.4-1.4,2.21-1.06,1.22.51,3.52-.18,3.29,2.25-.12,1.23-1.05,1.61-1.78,1.04Z"/>
      <path class="cls-12" d="m100.6,19.72c-.11-1.42,1.61-1.84,1.72-3.14,2.11,1.5,4.03,3.15,4.86,5.73-1.21.03-2.91,1.85-3.28-1.06-.25-2.04-2.13-1.16-3.3-1.52Z"/>
      <path class="cls-3" d="m117.91,57.41c1.47,2.2,3.05,4.16,1.63,6.89-.42.8-.91,1.5-1.92,1.31-1.29-.24-1.03-1.38-.66-1.95,1.22-1.92-.03-4.13.95-6.25Z"/>
      <path class="cls-10" d="m79.29,54.73c-.25-1.93-.5-3.87-.75-5.8,2.04.9,4.09,1.79,6.38,2.8-.79.46-1.54.9-2.29,1.33-2.16-1.53-1.84,1.89-3.34,1.67Z"/>
      <path class="cls-15" d="m79.83,119.22c-1.26-.23-2.52-.46-3.77-.7,1.05-2.15,2.89-3.83,4.08-6.15-.1,2.28-.21,4.56-.31,6.84Z"/>
      <path class="cls-3" d="m115.67,54.2c1.63,3.69.02,7.22-.49,10.83-1.76-3.65,1.12-7.19.49-10.83Z"/>
      <path class="cls-3" d="m146.45,128.71c-.24,1.24-.72,1.97-2.25,1.76-1.52-.21-3.09-.05-4.84-.05.91-2.78,1.81-4.81,4.81-2,.49.46,1.36,1.79,2.38.38,0,0-.1-.1-.1-.1Z"/>
      <path class="cls-1" d="m132.79,126.4c-1.98.49-4.02,1.44-5.65-.35-.51-.56-.41-1.82.48-2.17,2.38-.93,3.61,1.13,5.17,2.52Z"/>
      <path class="cls-15" d="m114.06,56.29c-1.08.04-2.15.09-3.23.13-.01-.14-.07-.29-.03-.41.52-1.37-.79-3.95,1.3-4.03,2.74-.1,2.16,2.44,1.96,4.3Z"/>
      <path class="cls-6" d="m135.52,33.46c3.09-2.22,6.53-3.9,10.72-2.76-3.57.92-7.15,1.84-10.72,2.76Z"/>
      <path class="cls-5" d="m142.75,52.95c-.79-.36-2.3.73-2.32-.83-.02-1.46,1.44-2.03,2.69-2.24,1.35-.23,2.28.68,2.23,1.93-.07,1.82-1.67.9-2.6,1.15Z"/>
      <path class="cls-10" d="m132.98,88.79c-.54-.74-1.08-1.48-1.92-2.63,2.5.81,4.6,1.25,5.74,3.4.42.79.58,1.76-.06,2.3-.78.66-1.38-.61-2.19-.65,0,0,.06.07.06.07-.12-1.15-.56-2.08-1.7-2.55l.06.06Z"/>
      <path class="cls-13" d="m140.5,87.29c.9-.64,1.8-1.28,2.71-1.91,1.44.86,2.74,1.83,3.1,3.96-2.27-.1-4.13-.77-5.8-2.05Z"/>
      <path class="cls-10" d="m133.13,38.71c-.09-.9-.18-1.8-.27-2.71.76-1.5,2.23-.49,3.29-.93,2.08.36,2.07,1.35.52,2.34-1.04.66-2.35.88-3.54,1.3Z"/>
      <path class="cls-2" d="m99.87,69.97c1.69,0,3.3.12,3.43,2.38-.06.37-.13.74-.19,1.11-1.12.27-2.24.54-3.36.81.04-1.43.09-2.87.13-4.3Z"/>
      <path class="cls-3" d="m120.22,135.89c2.03-.48,3.48-2.7,5.91-1.99-.1.47-.2.95-.3,1.42-1.26.72-2.52,1.43-3.77,2.15-2.15,1.24-1.77-.42-1.83-1.59Z"/>
      <path class="cls-9" d="m140.63,121.15c-.33-.61-.66-1.22-.99-1.83.47-1.83.94-3.67,1.67-6.51,1.36,3.66.19,5.99-.68,8.34Z"/>
      <path class="cls-2" d="m160.98,35.35c-.02.23-.07.45-.15.66-3.3,1.4-4.44.01-4.14-3.22,1.77.29,3.01,1.46,4.29,2.56Z"/>
      <path class="cls-9" d="m111.57,67.59c.55-.04,1.1-.08,1.65-.12,1.58,2.29-1.25,2.56-1.4,4.34-1.64-1.76-.92-2.99-.25-4.22Z"/>
      <path class="cls-1" d="m130.68,132.72c.54-2.48,2.11-3.43,3.57-4.61.85,2.89-.5,4.08-3.57,4.61Z"/>
      <path class="cls-3" d="m126.11,133.92c.06-1.73.12-3.46.18-5.19,3.41,1.85,2.22,3.54-.18,5.19Z"/>
      <path class="cls-14" d="m46.74,105.18c-.44-.85-1.11-2.21.71-1.49,1.33.53,2.75,1.82,2.09,3.83-.93-.78-1.86-1.56-2.79-2.34Z"/>
      <path class="cls-4" d="m117.55,125.39c1.49-1.24,3.21-1.79,5.13-1.78.02.27-.01.54-.1.8-1.31,2.24-3.38.53-5.03.97Z"/>
      <path class="cls-2" d="m165.3,34.86c-.94.06-1.88.12-2.82.17-.38-.7-1.26-1.71-1.05-2.04.47-.76,1.44-.46,2.11.13.62.55,1.18,1.16,1.77,1.75Z"/>
      <path class="cls-3" d="m143.04,122.31c.59,1.25,1.05,2.53.88,3.95-1.6-1.03-2.83-2.13-.88-3.95Z"/>
      <path class="cls-3" d="m143.87,126.2c1.61.32,3.97-.32,3.48,2.71-.3-.06-.6-.13-.9-.19,0,0,.1.1.1.1-.33-1.45-1.83-1.7-2.68-2.61Z"/>
      <path class="cls-15" d="m110.96,58.17c.92.83,1.07,1.66,0,2.5,0-.83,0-1.66,0-2.5Z"/>
      <path class="cls-6" d="m134.6,123.59c-.14-.78.08-1.37.88-1.64.04.73-.23,1.28-.88,1.64Z"/>
      <polygon class="cls-11" points="86.77 125.2 86.55 125.05 86.67 124.87 86.77 125.2"/>
      <path class="cls-4" d="m122.62,123.66c.28-.2.56-.4.84-.61-.05.52-.36.68-.84.61Z"/>
      <path class="cls-7" d="m79.79,23.61c2.88,3.36,6.27,5.28,10.97,4.75,2.1-.24,4.33.53,6.03,2.25-4.98-1.05-10.39.48-14.96-2.72-1.26-.88-2.43-1.94-2.76-3.59.24-.23.48-.45.72-.68Z"/>
      <path class="cls-7" d="m76.07,8.62c2.18,1.96,2.23,4.72,2.37,7.27.15,2.66.41,5.24,1.36,7.73-.24.22-.48.45-.71.68-2.03-2.67-2.49-5.79-2.4-9.01.07-2.15-.81-4.04-1.29-6.04.23-.21.45-.42.68-.62Z"/>
      <path class="cls-7" d="m72.8,5.66c-.47.17-.8.42-1.1.38-.65-.08-.84-.6-.82-1.19.03-.69.49-1.06,1.04-.72.39.25.54.89.88,1.53Z"/>
      <path class="cls-7" d="m75.39,9.24c-.6-.46-1.81-.98-1-1.74.82-.76,1.31.4,1.68,1.12-.23.21-.45.42-.68.62Z"/>
      <path class="cls-1" d="m53.71,159.9c-1.97,10.36-2.78,20.74-2.96,31.18.26-10.48-2.24-21.19,2.96-31.18Z"/>
      <path class="cls-1" d="m61.52,118.65c-.35-.88.09-1.23.89-1.33.2.78-.04,1.26-.89,1.33Z"/>
      <path class="cls-6" d="m154.58,89.8c-.43-.55-.86-1.1-1.3-1.65-.02-1.72.33-3.31,1.7-4.51.86.01,1.71.02,2.57.03l-.03-.03c.61,3.83,2.38,4.22,5.12,1.72,1.87.16,4.01-.47,5.14,1.8-1.4,1.59-4.01,1.22-5.15,3.23-2.75.63-5.3-1.36-8.06-.59Z"/>
      <path class="cls-2" d="m176.54,45.19c2.85,6.65,5.19,13.4,5.59,20.68.05.92.22,2.28-1.25,2.17-1.91-.15-.48-1.32-.49-2.1-.02-1.95,1.12-4.35-1.87-5.3-.32-.1-.81-.6-.76-.77,1.65-5.07-1.8-9.68-1.23-14.68Z"/>
      <path class="cls-4" d="m173.87,50.55c-.44-2.22-1.32-4.38-1.06-6.71,1.16-.21,2.67-.13,2.18,1.34-.6,1.79.38,3.85-1.12,5.38Z"/>
      <path class="cls-4" d="m168.51,55.5c-.25-.3-.51-.59-.76-.89.58-1.64,1.26-3.11,3.46-2.3-.9,1.06-1.8,2.13-2.7,3.19Z"/>
      <path class="cls-8" d="m7.85,91.95c7.82-5.99,16.52-9.66,26.46-10.07.24-.07.43,0,.58.16-.4,4.41,1.72,8.12,3.26,12.02.4,1.02,1.71,3.32-.88,3.07-6.67-.64-12.31,2.33-18.24,4.39-.5.17-1.12.01-1.68,0-1.24-.2-2.41-.17-3.69.17-5.54,1.47-8.21-1.28-6.74-6.81.17-.66.56-1.3.01-1.95,0,0-.04.05-.04.05.98.25,1.11-.26.95-1.05Zm25.9-1.88c.31.35.47,1.22,1.07.71.47-.39.04-.98-.48-1.29-3.2-2.32-7.68-2.12-11.65.51-.64.3-1.29.65-.96,1.49.1.26.64.34.97.5.18-.47.37-.94.55-1.41,3.45-1.26,6.94-1.38,10.49-.51Z"/>
      <path class="cls-1" d="m53.54,54.13c-.07,2.36-.24,4.69-1.97,6.56-.71,1.08-1.43,2.17-2.15,3.25-.55.31-1.11.63-1.66.94-.46.05-1.09-.12-1.12.57,0,.19.55.41.84.62.41,2.72.03,5.42-.28,8.11-.34,1.22-.41,2.43.02,3.64-.18.68-.41,1.36-.54,2.05-.4,2.12-1.97,2.88-3.7,2.35-1.67-.5-2.12-2.03-1.44-3.83,1.42-3.78,1.68-7.7,1.06-11.69.04-.87.07-1.74.11-2.61,0,0,0,0,0,0,2.15.12,1.55-1.5,1.68-2.65,4.48-.59,6.48-4.13,8.75-7.35l.4.03Z"/>
      <path class="cls-1" d="m54.66,64.88c.19.1.38.18.59.25.1,1.67.21,3.35.31,5.02-1.85,1.62-.31,3.32-.12,4.98-1.43.16-3.05-.61-4.23.85-1.27-3.55-.51-7.21-.61-10.83,1.35-.09,2.7-.18,4.06-.27Z"/>
      <path class="cls-10" d="m54.66,64.88c-1.35.09-2.71.18-4.06.27-.39-.4-.79-.8-1.18-1.2.72-1.08,1.43-2.17,2.15-3.25,2.12.59,3.13,2,3.09,4.19Z"/>
      <path class="cls-10" d="m51.22,75.97c1.17-1.46,2.79-.69,4.23-.85.04.88.08,1.77.12,2.65,0,0-.02.03-.02.03-1.49-.5-3.9,1.18-4.32-1.84Z"/>
      <path class="cls-10" d="m47.22,77.83c-.42-1.21-.36-2.43-.02-3.64,2.13,1.21,2.07,2.42.02,3.64Z"/>
      <path class="cls-10" d="m42.72,64.1c-.04.87-.07,1.74-.11,2.61-.63-.35-1.26-.69-1.89-1.04.67-.52,1.33-1.04,2-1.57Z"/>
      <path class="cls-10" d="m47.48,66.07c-.3-.21-.85-.43-.84-.62.03-.69.66-.52,1.12-.57-.09.4-.19.79-.28,1.19Z"/>
      <path class="cls-7" d="m40.08,89.45c-.1-.07-.19-.15-.29-.22.11-.05.23-.15.34-.14.1.01.2.13.29.21-.11.05-.23.1-.34.15Z"/>
      <path class="cls-12" d="m82.85,166.11c-2.27-.95-1.58-2.1-.38-3.53,2.2-2.61,1.07-4.27-1.7-5.5-.82-.36-2.3.3-2.43-1.06-.12-1.33,1.18-1.78,2.18-2.28.59-.29,1.21-.53,1.93-.85-.73-1.9-3.6-2.36-2.74-5.32,1.91,1.65,3.65,3.58,6.16,1.76.48,1.86-.38,3.9.86,6.12,1.66-2.28,1.65-4.76,2.19-7.04,2.6,1.86,2.91,4.88,3.84,7.59,1.45,1.93-1.04,3.92.07,5.85-3.03,2.12-6.67,2.82-9.99,4.24Z"/>
      <path class="cls-6" d="m98.92,135.36c.61,1.9.62,1.87,2.58,2.33,4.77,1.12,9.58,1.85,15.3,1.27-2.74,3.35-5.14,4.01-8.96,3.99-6.89-.04-12-3.42-17.45-6.53.89-.55.84-3.09,2.9-1.26.88.78,2.16.48,3.29.36.77-.35,1.58,1.22,2.34-.04l.02-.11Z"/>
      <path class="cls-4" d="m106.48,137.11c.2-2.18.83-4.48,3.29-4.53,3.01-.05,3.81-1.87,4.3-4.08.45-2.02,1.27-3.32,3.54-3.14-2.55,3.08-2.51,6.3-.25,9.44,1.97,2.73.9,3.39-1.86,3.1-3-.31-6.13.83-9.02-.78Z"/>
      <path class="cls-1" d="m88.04,174.07c-.84.67-1.79.7-2.77.43-.55-1.89-1.11-3.79-1.66-5.68.83-1.58,1.96-2.44,3.87-2.82,2.46-.5,4.84-1.59,6.18-4.03.36-.64.93-.91,1.65-.9-1.61,4.79-3.47,9.43-7.27,13Z"/>
      <path class="cls-15" d="m92.78,156.02c-.93-2.71-1.24-5.73-3.84-7.59.01-.61.02-1.22.03-1.83,1.76.14,3.64.03,4.49-1.67,1.2-2.38-1.84-2.78-2.46-4.38,2.33-1.35,3.33.34,4.38,1.91.25,1.21.57,2.42.73,3.65.5,3.83,1.76,7.95-3.33,9.91Z"/>
      <path class="cls-3" d="m92.78,156.02c5.09-1.97,3.83-6.08,3.33-9.91-.16-1.23-.48-2.43-.73-3.65,2.41-.5,3.72.69,3.43,2.93-.67,5.33-1.31,10.69-3.51,15.69-.72-.02-1.29.26-1.65.9-.27-.04-.53-.07-.8-.11-1.11-1.94,1.38-3.92-.07-5.85Z"/>
      <path class="cls-10" d="m96.56,135.51c-1.13.12-2.41.42-3.29-.36-2.05-1.83-2,.71-2.9,1.26-1.11-.21-1.8-1.02-2.52-1.79-.18-1.94.81-3.51,1.64-5.13,1.81,1.48,3.29,3.55,6,3.46,0,0,0,0,0,0-1.11,1.45.89,1.63,1.05,2.56Z"/>
      <path class="cls-12" d="m91,140.55c.62,1.6,3.65,2,2.46,4.38-.85,1.7-2.73,1.81-4.49,1.67.18-2.19-1.41-4.96,2.03-6.05Z"/>
      <path class="cls-1" d="m6.94,92.95c.55.65.16,1.29-.01,1.95-1.47,5.53,1.2,8.28,6.74,6.81,1.28-.34,2.45-.37,3.69-.17-2.78,3.84-9.99,4.6-15.38,1.61-.34-2.09-.65-4.18.54-6.13,1.17-1.12,2.48-2.12,3.03-3.74.46-.11.93-.22,1.39-.33Z"/>
      <path class="cls-3" d="m165.72,49.12c2.39-1.44,3.38-3.13,2.36-6.17-.66-1.96-1.26-4.88,2.79-6.64-1.4,4.02-1.77,7.06-.92,10.31.76,2.92-2.98,2.24-3.94,3.96-.09-.49-.19-.98-.28-1.46Z"/>
      <path class="cls-3" d="m160.98,37.89c2.63-.28,1.94,1.98,2.21,3.2.36,1.61.16,3.35.19,5.03-.26,1-.95,1.6-1.88,1.97-.88-.76-.41-1.88-.73-2.79.03-2.5.06-5,.09-7.5,0,0,.12.1.12.1Z"/>
      <path class="cls-11" d="m165.72,49.12c.1.49.19.98.28,1.46.05.39.24,1.06.12,1.12-.84.43-1.2-.35-1.4-.87-.32-.84-.7-1.95,1-1.72Z"/>
      <path class="cls-7" d="m163.11,121.06c-2.64.98-3.59-1.44-5.19-2.57,2.86-1.42,3.61,1.41,5.19,2.57Z"/>
      <path class="cls-3" d="m83.6,168.83c.55,1.89,1.11,3.79,1.66,5.68-1.84,3.13-4.93,2.03-7.36,1.64-1.85-.3-1.99-2.82-1.89-4.55.16-2.66-.56-5.19-.77-7.78,1.64.63,2.68,1.96,3.44,3.4,1,1.88,2.4,2.07,4.17,1.52.25.03.5.06.75.09Z"/>
      <path class="cls-1" d="m7.85,91.95c.16.79.03,1.3-.95,1.05.32-.35.63-.7.95-1.05Z"/>
      <path class="cls-2" d="m76.46,104.14c-2.3-3.39-5.99-1.79-9.04-2.52-2.24-2.35-1.46-6.87-5.76-7.87-.53-.12-1.07-2.07-.89-3.05.61-3.31,1.08-6.56.1-9.87-.04-.12.37-.37.56-.57,1.94.6,2.48,3.17,4.78,3.45.23.03,2.07,2.35-.13,3.36-1.44.66-1.38,2.37-2.84,3.57,4.39-1.55,2.23,3.86,5.2,4.11,2.83.24,4.87-.94,7.13-2.45-.31,1.53,2.01,4.53-2.46,3.68-1.22-.23-1.45.59-1.35,1.52.18,1.64,1.5,1.34,2.59,1.46,3.44.39,4.2,2.25,2.12,5.17Z"/>
      <path class="cls-2" d="m57.28,65.71c.74-2.08-2.84-3.55-.8-5.81.94-.28,1.87-.56,2.8-.83,1.75-.52,3.22-.17,4.4,1.31,1.2,1.51,1.06,2.96.31,4.68-1.13,2.55-1.1,5.01,1.68,6.67-.91,3.1-.5,6.85-4.23,8.54-.02-.59-.05-1.18-.07-1.77.07-3.37.15-6.75.2-10.12.01-1.19-.33-2.45-1.71-2.39-1.42.06-.74,1.55-1.08,2.37-.35,0-.7,0-1.04.01-.08-.89.37-1.87-.44-2.65Z"/>
      <path class="cls-14" d="m157.55,83.68c-.86-.01-1.71-.02-2.57-.03-.68-3.75,1.62-4.06,4.42-3.89.6.04,1.45.19,1.06.73-2.22,3.04,2.27,2.92,2.19,4.89-2.74,2.5-4.51,2.11-5.12-1.72.07-.11.14-.21.21-.32-.06.12-.12.23-.19.35Z"/>
      <path class="cls-2" d="m120.95,88.76c-.91,3.8.44,8.25-3.25,11.24-.52-.66-1.04-1.32-1.95-2.46-.58,3.82-1.16,7.13-4.97,8.25-.56-.06-1.39-.18-1.27-.77.58-2.92-3.55-6.49,1.15-8.81,1.67-.83,1.92-2.35,2.08-3.87.52-4.93,2-5.72,6.95-3.65.37.15.84.06,1.26.09Z"/>
      <path class="cls-14" d="m110.78,105.78c3.81-1.12,4.39-4.43,4.97-8.25.91,1.15,1.43,1.81,1.95,2.46.23,1.1.68,2.21.64,3.29-.06,1.59.93,3.49-.81,4.71-1.66,1.16-2.57-1.23-4.36-1.33.62,1.36.97,2.52,1.62,3.47.72,1.05,1.29,2.02-.01,2.86-1.3.84-1.46-.95-2.32-1.22-.31-1.45-.62-2.89-.93-4.34.03-.68-.11-1.29-.77-1.65Z"/>
      <path class="cls-10" d="m100.55,127.53c.69-1.89-.98-2.28-1.97-3.11-.18-1.39-.35-2.78-.53-4.16.82-.46,1.64-.5,2.47,0,.19,1.01.78.98,1.51.6,1.56.19,2.98.17,2.95-1.99,1.26-.48,1.72.53,2.32,1.26.3,3.87-3.48,5.32-4.94,8.17-.4.79-1.46.18-1.81-.76Z"/>
      <path class="cls-2" d="m107.3,120.13c-.6-.73-1.06-1.74-2.32-1.26-.64-.21-1.29-.42-1.93-.63,1.62-.96,1.13-5.22,4.76-3.05.06-2.44,1.42-4.42,2.27-6.58.31-.8.76-1.05,1.47-1.17.31,1.44.62,2.89.93,4.33-.27.28-.55.57-.82.85-2.58,1.41-1.77,4.28-2.75,6.38-.21.26-.42.52-.63.78-.32.12-.65.23-.97.35Z"/>
      <path class="cls-6" d="m103.04,118.24c.64.21,1.29.42,1.93.63.03,2.16-1.39,2.19-2.95,1.99-.03-.28-.15-.52-.33-.73.45-.63.9-1.26,1.35-1.89Z"/>
      <path class="cls-2" d="m101.7,120.13c.19.21.3.45.33.73-.73.38-1.33.41-1.51-.6.39-.04.79-.09,1.18-.13Z"/>
      <path class="cls-7" d="m138.09,67.15c3.28,1.41,6.64,1.36,10.28.71-2.98,3.2-6.87,2.98-10.28-.71Z"/>
      <path class="cls-7" d="m131.15,55.6c.96-1.64,1.99-3.17,4.3-2.57-.98,1.62-1.95,3.25-4.3,2.57Z"/>
      <path class="cls-2" d="m127.63,62.33c-.01-.16,0-.32,0-.48.21-.23.25-.96.74-.27.03.05-.49.49-.75.76Z"/>
      <path class="cls-10" d="m130.23,111.64c-3.39-4.42-.24-7.54,2.15-10.8.62-.84,1.87-1.62,2.41-.64.94,1.7,3.61,2.65,2.73,5.12-.45,1.25-1.61,3.26-2.35,3.22-2.7-.16-2.98,2.52-4.71,3.32,0,0-.24-.23-.24-.23Z"/>
      <path class="cls-10" d="m130.22,114.4c-2.67-1.42-4.27,2.19-6.8,1.43.01-.78.02-1.56.04-2.33l.1-.12c.1-.08.3-.19.28-.23-.08-.2-.21-.38-.32-.56h-.01c.08-1.55.99-1.97,2.24-1.43,1.48.63,2.97.5,4.48.48,0,0,.23.22.23.22-.08.85-.16,1.69-.25,2.53Z"/>
      <path class="cls-14" d="m108.9,118.99c.98-2.1.17-4.97,2.75-6.38-1.26,1.98,2.24,6.01-2.75,6.38Z"/>
      <path class="cls-10" d="m115.75,117.28c-.03,1.39-1.13,1.84-2.09,2.41-.26-1.64-.21-3,2.09-2.41Z"/>
      <path class="cls-10" d="m121.97,116.14c-.28,1.79-1.57,1.53-2.81,1.37.35-1.66,1.56-1.56,2.81-1.37Z"/>
      <path class="cls-10" d="m123.46,113.5c-.34-.12-.97-.22-.98-.36-.04-.75.61-.49,1.03-.56,0,0,.01.01.01.01.03.26.04.53.03.79l-.1.12Z"/>
      <path class="cls-1" d="m135.46,118.58l.27-.44c0,.08.02.19-.03.23-.08.07-.2.11-.31.16,0,0,.06.05.06.05Z"/>
      <path class="cls-15" d="m83.6,168.83c-.25-.04-.5-.07-.75-.09,0-.87,0-1.75,0-2.62,3.33-1.42,6.97-2.12,10-4.24.27.03.53.07.8.1-1.34,2.44-3.73,3.53-6.18,4.03-1.9.38-3.04,1.24-3.87,2.82Z"/>
      <path class="cls-10" d="m58.76,68.35c.34-.82-.33-2.31,1.08-2.37,1.39-.05,1.73,1.2,1.71,2.39-.04,3.37-.13,6.75-.2,10.12-2.51,1.16-2.18-1.13-2.29-2.17-.29-2.64-.23-5.32-.31-7.98Z"/>
      <path class="cls-4" d="m58.61,92.8c-.36,1.55-1.23,1.98-2.26,1.83-2.09-.32-2.81-2.01-3.3-3.76-.19-.7.38-1.64,1.03-1.54,2.2.35,2.26,3.33,4.53,3.47Z"/>
      <path class="cls-6" d="m55.57,77.78c-.04-.88-.08-1.77-.12-2.65-.19-1.67-1.74-3.36.11-4.98.52.8,1.05,1.6,1.57,2.4-.33,1.8,1.34,4.2-1.56,5.23Z"/>
      <path class="cls-10" d="m57.13,72.55c-.52-.8-1.05-1.6-1.57-2.4-.1-1.67-.21-3.35-.31-5.02.68.2,1.35.39,2.03.59.8.77.36,1.75.44,2.65-.2,1.4-.39,2.79-.58,4.19Z"/>
      <path class="cls-4" d="m58.66,96.5c-.23.06-.51.23-.63.15-.18-.12-.24-.41-.35-.63.23-.06.51-.23.66-.15.17.09.22.41.32.63Z"/>
      <path class="cls-7" d="m160.86,37.79c-.03,2.5-.06,5-.09,7.5-4.53-.21-2.4-3.13-1.61-4.82.38-.81.76-2.05,1.71-2.68Z"/>
      <path class="cls-10" d="m90.94,127.98c2.7-.73,5.25-3.14,8.22-.71-2.15.78-4.29,1.56-6.44,2.34-.59-.54-1.19-1.09-1.78-1.63Z"/>
      <path class="cls-7" d="m90.94,127.98c.59.54,1.19,1.09,1.78,1.63.56,1.42,2.48,1.71,2.78,3.34-2.72.09-4.19-1.98-6-3.46.18-.82-.67-1.66.03-2.48.47.32.94.64,1.41.96Z"/>
      <path class="cls-7" d="m96.56,135.51c-.16-.93-2.16-1.11-1.05-2.56,1.12.85,2.82.93,3.39,2.53-.76,1.26-1.56-.31-2.34.04Z"/>
      <path class="cls-4" d="m62.35,52.2c-1.84-2.15.59-3.18,1.51-3.85,1.48-1.08,3.14-.06,4.36,1.25.12,5.56-3.89,1.78-5.87,2.6Z"/>
      <path class="cls-7" d="m138.96,135.43c3.64,2.71,2.12,6.58,2.51,10.5-2.75-3.02-.79-7.04-3.19-9.66.23-.28.45-.56.68-.84Z"/>
      <path class="cls-10" d="m130.92,40.86c.26-.97.84-1.54,1.9-1.5.05,1.37-.56,1.89-1.9,1.5Z"/>
      <path class="cls-7" d="m132.92,88.73c1.14.46,1.58,1.4,1.7,2.55-2-.04-2.36-.58-1.7-2.55Z"/>
      <path class="cls-7" d="m22.69,90c3.98-2.63,8.46-2.82,11.66-.5-.22.17-.42.37-.59.59-3.55-.88-7.04-.76-10.49.5-.17-.21-.37-.4-.58-.58Z"/>
      <path class="cls-7" d="m23.26,90.58c-.18.47-.37.94-.55,1.41-.34-.16-.87-.24-.97-.5-.34-.84.32-1.19.95-1.49.2.17.4.37.57.58Z"/>
      <path class="cls-7" d="m34.34,89.5c.52.31.95.89.48,1.29-.61.51-.77-.36-1.07-.71.17-.22.37-.41.59-.58Z"/>
      <path class="cls-6" d="m157.55,83.68c.06-.12.12-.23.19-.35-.07.11-.14.21-.21.32,0,0,.03.03.03.03Z"/>
      <path class="cls-6" d="m123.56,113.38c0-.26,0-.53-.03-.79.11.19.24.37.32.56.01.03-.18.15-.28.23Z"/>
    </g>
  </g>
</svg>