<?xml version="1.0" encoding="UTF-8"?>
<svg id="Layer_2" data-name="Layer 2" xmlns="http://www.w3.org/2000/svg" viewBox="0 0 96.75 130.12">
  <defs>
    <style>
      .cls-1 {
        fill: none;
        stroke: #fff;
        stroke-miterlimit: 10;
        stroke-width: 3px;
      }

      .cls-2 {
        fill: #fff;
        stroke-width: 0px;
      }
    </style>
  </defs>
  <g id="Layer_1-2" data-name="Layer 1">
    <g>
      <path class="cls-1" d="m35.16,51.01c-2.08,4.9-5.13,14.05-3.81,25.27,2.21,18.82,15.16,30.18,20.73,35.08,17.3,15.18,37.39,16.97,44.61,17.26"/>
      <path class="cls-2" d="m37.82,94.75c.3-.48-5.42-7.15-14.46-8.91-7.05-1.37-17.67-.07-21.13,6.73-1.19,2.35-1.65,5.59-.95,8.52.21.86,1.48,3.04,4.03,7.4,1.56,2.66,1.92,3.18,2.63,3.36.61.15,2.13.22,6.72-5.27,4.08-4.87,4.2-6.48,7.51-9.69,2.23-2.17,3.87-3.77,6.44-4.32,4.87-1.04,8.95,2.57,9.19,2.19Z"/>
      <path class="cls-2" d="m61.83,111.66c-.33.31-6.43-3.01-9.3-9.72-2.23-5.23-2.99-13.67,1.7-17.48,1.62-1.31,4.05-2.21,6.44-2.15.7.02,2.6.64,6.4,1.9,2.32.76,2.78.95,3.04,1.48.22.45.52,1.61-2.96,6.08-3.09,3.97-4.32,4.33-6.26,7.42-1.31,2.08-2.27,3.62-2.27,5.71,0,3.95,3.48,6.5,3.22,6.75Z"/>
      <path class="cls-2" d="m9.88,20.81C.69,25.83-2.7,37.34,2.32,46.53c5.01,9.19,16.53,12.58,25.72,7.56,9.19-5.01,12.58-16.53,7.56-25.72-5.01-9.19-16.53-12.58-25.72-7.56Zm4.21,13.45c-1.2,2.43-3.45,3.78-5.01,3.01-1.56-.77-1.86-3.37-.65-5.81,1.2-2.43,3.45-3.78,5.01-3.01,1.56.77,1.86,3.37.65,5.81Z"/>
      <path class="cls-2" d="m43.78,2.32c-9.19,5.01-12.58,16.53-7.56,25.72,5.01,9.19,16.53,12.58,25.72,7.56,9.19-5.01,12.58-16.53,7.56-25.72C64.49.69,52.97-2.7,43.78,2.32Zm15.3,7.53c-.33,1.71-2.76,2.69-5.42,2.17-2.67-.51-4.56-2.32-4.23-4.03.33-1.71,2.76-2.69,5.42-2.17,2.67.51,4.56,2.32,4.23,4.03Z"/>
      <path class="cls-2" d="m42.83,37.23c-9.19,5.01-12.58,16.53-7.56,25.72,5.01,9.19,16.53,12.58,25.72,7.56,9.19-5.01,12.58-16.53,7.56-25.72-5.01-9.19-16.53-12.58-25.72-7.56Zm15.73,23.59c-.87,1.75-3.01,2.45-4.8,1.57s-2.53-3.02-1.66-4.77c.87-1.75,3.01-2.45,4.8-1.57s2.53,3.02,1.66,4.77Z"/>
    </g>
  </g>
</svg>