<?xml version="1.0" encoding="UTF-8"?>
<svg id="Layer_2" data-name="Layer 2" xmlns="http://www.w3.org/2000/svg" viewBox="0 0 364.82 150.19">
  <defs>
    <style>
      .cls-1 {
        fill: #fff;
        stroke-width: 0px;
      }
    </style>
  </defs>
  <g id="Layer_1-2" data-name="Layer 1">
    <g>
      <g>
        <path id="Path_2671" data-name="Path 2671" class="cls-1" d="m32.98,0s-7.82,2.83-9.96,8.43c-2.14,5.6,1.73,10.74,1.73,10.74,0,0,2.83-1.01,3.98-2.19,1.15-1.18,2.92-5.77,2.86-8,.05-2.01.27-4,.64-5.98l.75-3Z"/>
        <path id="Path_2672" data-name="Path 2672" class="cls-1" d="m0,28.99s3.73-7.33,9.49-8.75c5.76-1.41,10.33,3.01,10.33,3.01,0,0-1.34,2.65-2.64,3.64-1.3.99-6.02,2.16-8.2,1.83-1.98-.19-3.96-.23-5.94-.1l-3.04.37Z"/>
        <path id="Path_2673" data-name="Path 2673" class="cls-1" d="m22,20.9S3.63,4.65,14.02.18"/>
        <path class="cls-1" d="m79.13,63.34c-.17-5.06-.75-10.1-1.73-15.07-.23-1.37-.61-3.84-1.27-6.79-.04.11-.94-3.92-1.21-4.73-1.86-6.32-5-13.33-10.35-16.77-9.52-6.14-13.91-7.27-23.95-5.26-5.91,1.13-11.3,4.11-15.4,8.51,0,0-11.23,8.74-11.37,21.02-.14,12.28,3.27,22.16,16.49,28.38,13.21,6.22,23.75,9.2,28.13,10.19,4.51.85,11.02.09,14.11-1.94,2.03-1.33,5.33-4.33,6.11-7.62.68-3.26.83-6.6.44-9.9Z"/>
        <path class="cls-1" d="m26.37,48.84c-.71-.2-1.39-.52-2-.93-.5-.46-1.3-1.68-.81-2.53.49-.85,2.73-.53,2.73-.53,0,0,1.56-.04,3.57,2.18,2.01,2.22-2.09,2.14-3.49,1.81Z"/>
        <path class="cls-1" d="m34.26,23.88c-.26-.63-.47-2.07.33-2.63.8-.56,2.7.67,2.7.67,0,0,1.43.63,2.31,3.49.88,2.86-2.8,1.06-3.92.16-.56-.49-1.04-1.06-1.42-1.69Z"/>
        <path class="cls-1" d="m41.82,69.69c-.74-.04-1.47-.19-2.16-.45-.59-.34-1.64-1.34-1.36-2.28.29-.94,2.54-1.13,2.54-1.13,0,0,1.51-.39,3.97,1.32,2.46,1.71-1.55,2.56-2.99,2.54Z"/>
        <path class="cls-1" d="m48.05,50.43c-.6-.44-1.13-.96-1.56-1.56-.31-.61-.65-2.02.1-2.65.75-.63,2.75.43,2.75.43,0,0,1.48.5,2.61,3.27,1.13,2.77-2.7,1.3-3.9.5Z"/>
        <path class="cls-1" d="m57.5,28.74c-.42-.61-.75-1.27-.97-1.98-.1-.67.05-2.12.96-2.47.91-.35,2.46,1.3,2.46,1.3,0,0,1.24.95,1.4,3.94.16,2.99-2.97.35-3.85-.79Z"/>
        <path class="cls-1" d="m62.46,78.03c-.69-.28-1.33-.66-1.89-1.13-.45-.51-1.12-1.81-.54-2.6.58-.79,2.77-.24,2.77-.24,0,0,1.56.13,3.32,2.54,1.76,2.42-2.3,1.91-3.66,1.43Z"/>
        <path class="cls-1" d="m72.69,63.75c-.46,2.96-2.98-.27-3.6-1.57-.29-.68-.47-1.4-.54-2.14.05-.68.49-2.07,1.45-2.22.97-.15,2.13,1.79,2.13,1.79,0,0,1.01,1.19.55,4.15Z"/>
      </g>
      <g>
        <path class="cls-1" d="m94.81,27.69h21.61c8.12,0,25.26.82,25.26,13.71,0,4.55-2.16,8.72-8.12,10.8v.15c7.82,2.91,9.61,7.97,9.61,12.82,0,14.23-15.2,16.47-25.71,16.47h-22.65V27.69Zm23.02,21.91c2.83,0,4.17-1.49,4.17-3.35s-1.42-3.35-4.17-3.35h-.82v6.71h.82Zm.15,17.58c3.5,0,5.14-1.86,5.14-4.17s-1.71-4.17-5.14-4.17h-.97v8.35h.97Z"/>
        <path class="cls-1" d="m149.42,27.69h38.82v18.03h-16.62v2.91h13.41v12.82h-13.41v3.05h17.66v17.14h-39.86V27.69Z"/>
        <path class="cls-1" d="m196.29,27.69h22.13c11.1,0,26.23,2.76,26.23,17.14,0,5.81-2.76,9.98-6.78,12.82l12.29,23.99h-23.32l-8.05-17.73h-.3v17.73h-22.2V27.69Zm23.84,23.84c3.5,0,5.07-1.86,5.07-4.17s-1.64-4.1-5.07-4.1h-1.64v8.27h1.64Z"/>
        <path class="cls-1" d="m253.96,27.69h21.76c11.18,0,26.23,2.91,26.23,16.91,0,5.96-2.38,10.21-6.26,13.04.67,2.91,2.91,5.14,7.45,5.14,3.58,0,7.75-1.27,11.25-3.87v19.67c-3.28,2.16-8.72,3.87-14.31,3.87-12.74,0-21.61-7.97-23.77-18.7h-.15v17.88h-22.2V27.69Zm23.84,23.84c3.5,0,5.07-1.86,5.07-4.17s-1.64-4.1-5.07-4.1h-1.64v8.27h1.64Z"/>
        <path class="cls-1" d="m322.95,58.84l-19.82-31.14h25.03l6.11,12.29h.15l6.18-12.29h24.21l-19.67,30.47v23.47h-22.2v-22.8Z"/>
        <path class="cls-1" d="m17.47,127.46c7.23,4.69,14.53,6.41,17.73,6.41,2.24,0,2.76-.89,2.76-1.79,0-1.04-.67-1.49-1.64-1.71-2.61-.67-10.13-1.49-15.65-6.33-2.83-2.53-4.77-6.04-4.77-11.25,0-10.8,8.35-18.18,21.98-18.18,6.56,0,14.31,1.71,19.22,4.25v17.66c-7-3.5-13.56-4.77-16.32-4.77-2.16,0-2.76.82-2.76,1.64,0,1.12.82,1.56,1.71,1.86,2.24.67,9.69,1.56,14.98,5.74,3.65,2.98,5.44,6.78,5.44,11.62,0,10.36-8.34,17.58-22.5,17.58-6.78,0-14.9-1.64-20.19-4.4v-18.33Z"/>
        <path class="cls-1" d="m96.6,94.61c6.11,0,12.44,1.34,15.87,3.13v19.89c-3.73-1.86-8.42-3.43-13.41-3.43-7.6,0-11.7,3.65-11.7,8.64s4.1,8.57,11.7,8.57c4.99,0,9.98-1.49,13.71-3.58v19c-3.5,1.86-9.98,3.35-16.39,3.35-18.03,0-31.22-11.77-31.22-27.79s13.11-27.79,31.44-27.79Z"/>
        <path class="cls-1" d="m120.37,95.43h22.2v53.94h-22.2v-53.94Z"/>
        <path class="cls-1" d="m150.61,95.43h38.82v18.03h-16.62v2.91h13.41v12.82h-13.41v3.05h17.66v17.14h-39.86v-53.94Z"/>
        <path class="cls-1" d="m197.48,95.43h20.19l15.87,23.02.15-.07v-22.95h19.97v53.94h-20.19l-15.87-23.02-.15.07v22.95h-19.97v-53.94Z"/>
        <path class="cls-1" d="m291.95,94.61c6.11,0,12.44,1.34,15.87,3.13v19.89c-3.73-1.86-8.42-3.43-13.41-3.43-7.6,0-11.7,3.65-11.7,8.64s4.1,8.57,11.7,8.57c4.99,0,9.98-1.49,13.71-3.58v19c-3.5,1.86-9.98,3.35-16.39,3.35-18.03,0-31.22-11.77-31.22-27.79s13.11-27.79,31.44-27.79Z"/>
        <path class="cls-1" d="m315.72,95.43h38.82v18.03h-16.62v2.91h13.41v12.82h-13.41v3.05h17.66v17.14h-39.86v-53.94Z"/>
      </g>
    </g>
  </g>
</svg>