<?xml version="1.0" encoding="UTF-8"?>
<svg id="Layer_2" data-name="Layer 2" xmlns="http://www.w3.org/2000/svg" viewBox="0 0 84.29 88.92">
  <defs>
    <style>
      .cls-1 {
        fill: #fff;
        stroke-width: 0px;
      }
    </style>
  </defs>
  <g id="Layer_1-2" data-name="Layer 1">
    <g>
      <path id="Path_2671" data-name="Path 2671" class="cls-1" d="m35.42,0s-8.37,2.95-10.69,8.9c-2.33,5.95,1.75,11.47,1.75,11.47,0,0,3.03-1.05,4.27-2.31,1.24-1.25,3.16-6.13,3.12-8.5.07-2.14.32-4.27.73-6.37l.83-3.19Z"/>
      <path id="Path_2672" data-name="Path 2672" class="cls-1" d="m0,30.63s4.04-7.79,10.19-9.25c6.15-1.46,10.99,3.3,10.99,3.3,0,0-1.45,2.82-2.84,3.86s-6.44,2.25-8.76,1.88c-2.1-.22-4.22-.27-6.34-.16l-3.24.37Z"/>
      <path id="Path_2673" data-name="Path 2673" class="cls-1" d="m23.53,22.2S4.08,4.71,15.2.03"/>
      <path class="cls-1" d="m84.09,67.94c-.14-5.4-.71-10.78-1.71-16.08-.23-1.47-.62-4.1-1.29-7.25-.05.12-.08.22-.14.35-1.04,2.3-2.36-.89-2.57-2.08-.08-.62-.07-1.24.04-1.86.17-.48.72-1.34,1.41-1.46-1.93-6.75-5.22-14.25-10.89-17.98-10.1-6.63-14.77-7.87-25.5-5.82-6.31,1.15-12.08,4.28-16.49,8.94,0,0-12.05,9.23-12.3,22.32-.26,13.09,3.3,23.66,17.34,30.41,14.04,6.75,25.25,10.01,29.91,11.11,4.8.94,11.75.19,15.06-1.95,2.17-1.4,5.72-4.58,6.58-8.08.75-3.47.94-7.03.55-10.56Zm-56.14-15.91c-.76-.22-1.47-.56-2.13-1.01-.53-.5-1.37-1.8-.84-2.7.53-.9,2.92-.54,2.92-.54,0,0,1.67-.03,3.79,2.36,2.12,2.38-2.25,2.27-3.73,1.9Zm8.63-26.54c-.27-.67-.48-2.21.38-2.81.86-.59,2.87.74,2.87.74,0,0,1.52.68,2.44,3.74.92,3.06-3,1.11-4.19.14-.59-.52-1.1-1.13-1.5-1.81Zm7.67,48.91c-.79-.05-1.56-.22-2.3-.5-.63-.37-1.74-1.45-1.43-2.44.31-1,2.72-1.19,2.72-1.19,0,0,1.62-.4,4.22,1.44,2.6,1.85-1.68,2.72-3.21,2.69Zm6.81-20.49c-.63-.47-1.19-1.03-1.66-1.67-.32-.65-.67-2.16.13-2.83.81-.66,2.93.49,2.93.49,0,0,1.58.54,2.75,3.51,1.18,2.97-2.89,1.36-4.16.5Zm10.26-23.04c-.45-.65-.79-1.37-1.02-2.12-.1-.72.07-2.26,1.05-2.63.98-.37,2.61,1.41,2.61,1.41,0,0,1.31,1.03,1.46,4.22.15,3.19-3.17.35-4.09-.88Zm4.87,52.6c-.73-.3-1.41-.72-2.01-1.22-.47-.55-1.18-1.94-.55-2.78.62-.84,2.96-.24,2.96-.24,0,0,1.66.15,3.52,2.74,1.86,2.59-2.47,2.02-3.91,1.49Zm11.02-15.14c-.52,3.15-3.18-.32-3.82-1.71-.3-.73-.49-1.5-.56-2.29.06-.72.54-2.2,1.57-2.36,1.03-.15,2.26,1.92,2.26,1.92,0,0,1.07,1.28.55,4.43Z"/>
    </g>
  </g>
</svg>