<?xml version="1.0" encoding="UTF-8"?>
<svg id="Layer_2" data-name="Layer 2" xmlns="http://www.w3.org/2000/svg" viewBox="0 0 386.06 170.46">
  <defs>
    <style>
      .cls-1 {
        letter-spacing: .02em;
      }

      .cls-1, .cls-2, .cls-3, .cls-4 {
        font-family: AzoSansUber-Regular, 'Azo Sans Uber';
      }

      .cls-2, .cls-5 {
        letter-spacing: .02em;
      }

      .cls-6 {
        font-size: 74.51px;
      }

      .cls-6, .cls-7 {
        fill: #fff;
      }

      .cls-7 {
        stroke-width: 0px;
      }

      .cls-5 {
        font-family: BDJupiter-Bold, 'BD Jupiter';
        font-weight: 700;
      }

      .cls-3 {
        letter-spacing: -.16em;
      }

      .cls-4 {
        letter-spacing: -.03em;
      }
    </style>
  </defs>
  <g id="Layer_1-2" data-name="Layer 1">
    <g>
      <g>
        <path id="Path_2671" data-name="Path 2671" class="cls-7" d="m32.98,0s-7.82,2.83-9.96,8.43c-2.14,5.6,1.73,10.74,1.73,10.74,0,0,2.83-1.01,3.98-2.19,1.15-1.18,2.92-5.77,2.86-8,.05-2.01.27-4,.64-5.98l.75-3Z"/>
        <path id="Path_2672" data-name="Path 2672" class="cls-7" d="m0,28.99s3.73-7.33,9.49-8.75c5.76-1.41,10.33,3.01,10.33,3.01,0,0-1.34,2.65-2.64,3.64-1.3.99-6.02,2.16-8.2,1.83-1.98-.19-3.96-.23-5.94-.1l-3.04.37Z"/>
        <path id="Path_2673" data-name="Path 2673" class="cls-7" d="m22,20.9S3.63,4.65,14.02.18"/>
        <path class="cls-7" d="m79.13,63.34c-.17-5.06-.75-10.1-1.73-15.07-.23-1.37-.61-3.84-1.27-6.79-.04.11-.94-3.92-1.21-4.73-1.86-6.32-5-13.33-10.35-16.77-9.52-6.14-13.91-7.27-23.95-5.26-5.91,1.13-11.3,4.11-15.4,8.51,0,0-11.23,8.74-11.37,21.02-.14,12.28,3.27,22.16,16.49,28.38,13.21,6.22,23.75,9.2,28.13,10.19,4.51.85,11.02.09,14.11-1.94,2.03-1.33,5.33-4.33,6.11-7.62.68-3.26.83-6.6.44-9.9Z"/>
        <path class="cls-7" d="m26.37,48.84c-.71-.2-1.39-.52-2-.93-.5-.46-1.3-1.68-.81-2.53.49-.85,2.73-.53,2.73-.53,0,0,1.56-.04,3.57,2.18,2.01,2.22-2.09,2.14-3.49,1.81Z"/>
        <path class="cls-7" d="m34.26,23.88c-.26-.63-.47-2.07.33-2.63.8-.56,2.7.67,2.7.67,0,0,1.43.63,2.31,3.49.88,2.86-2.8,1.06-3.92.16-.56-.49-1.04-1.06-1.42-1.69Z"/>
        <path class="cls-7" d="m41.82,69.69c-.74-.04-1.47-.19-2.16-.45-.59-.34-1.64-1.34-1.36-2.28.29-.94,2.54-1.13,2.54-1.13,0,0,1.51-.39,3.97,1.32,2.46,1.71-1.55,2.56-2.99,2.54Z"/>
        <path class="cls-7" d="m48.05,50.43c-.6-.44-1.13-.96-1.56-1.56-.31-.61-.65-2.02.1-2.65.75-.63,2.75.43,2.75.43,0,0,1.48.5,2.61,3.27,1.13,2.77-2.7,1.3-3.9.5Z"/>
        <path class="cls-7" d="m57.5,28.74c-.42-.61-.75-1.27-.97-1.98-.1-.67.05-2.12.96-2.47.91-.35,2.46,1.3,2.46,1.3,0,0,1.24.95,1.4,3.94.16,2.99-2.97.35-3.85-.79Z"/>
        <path class="cls-7" d="m62.46,78.03c-.69-.28-1.33-.66-1.89-1.13-.45-.51-1.12-1.81-.54-2.6.58-.79,2.77-.24,2.77-.24,0,0,1.56.13,3.32,2.54,1.76,2.42-2.3,1.91-3.66,1.43Z"/>
        <path class="cls-7" d="m72.69,63.75c-.46,2.96-2.98-.27-3.6-1.57-.29-.68-.47-1.4-.54-2.14.05-.68.49-2.07,1.45-2.22.97-.15,2.13,1.79,2.13,1.79,0,0,1.01,1.19.55,4.15Z"/>
      </g>
      <text class="cls-6" transform="translate(14.05 81.64)"><tspan class="cls-5" x="0" y="0" xml:space="preserve">  </tspan><tspan class="cls-1" x="77.49" y="0">Ber</tspan><tspan class="cls-3" x="236.63" y="0">r</tspan><tspan class="cls-4" x="289.46" y="0">y</tspan><tspan class="cls-2" x="348.17" y="0"> </tspan><tspan class="cls-2"><tspan x="0" y="67.73">Science</tspan></tspan></text>
    </g>
  </g>
</svg>