<?xml version="1.0" encoding="UTF-8"?>
<svg id="Layer_2" data-name="Layer 2" xmlns="http://www.w3.org/2000/svg" viewBox="0 0 198.57 196.15">
  <defs>
    <style>
      .cls-1 {
        fill: #fefefe;
      }

      .cls-1, .cls-2, .cls-3, .cls-4, .cls-5, .cls-6, .cls-7, .cls-8, .cls-9, .cls-10, .cls-11, .cls-12 {
        stroke-width: 0px;
      }

      .cls-2 {
        fill: #cd9697;
      }

      .cls-3 {
        fill: #4e332e;
      }

      .cls-4 {
        fill: #746a5e;
      }

      .cls-5 {
        fill: #f6d294;
      }

      .cls-6 {
        fill: #614973;
      }

      .cls-7 {
        fill: #ab5d54;
      }

      .cls-8 {
        fill: #e1abb4;
      }

      .cls-9 {
        fill: #efe0c0;
      }

      .cls-10 {
        fill: #c97876;
      }

      .cls-11 {
        fill: #d1a461;
      }

      .cls-12 {
        fill: #a0473d;
      }
    </style>
  </defs>
  <g id="Layer_1-2" data-name="Layer 1">
    <path class="cls-3" d="m105.19,195.1c-2.65,1.3-5.49.87-8.28.96-8.71.27-17.37.04-25.86-2.22-4.61-1.22-9.24-2.35-13.87-3.52-.55-.88-1.53-1.09-2.39-1.47-.83-.37-1.98-.33-1.94-1.68.5.06,1,.11,1.5.17.55.16,1.09.33,1.64.49.88.45,1.72,1.17,2.65,1.31,5.22.79,10.43,1.56,15.25,3.93.73.36,1.76.11,2.65.15,3.85,1.5,7.87,1.74,11.91,1.38,1.34-.12,2.91-.38,3.63-1.93,2.27-.52,2.22-2.43,2.22-4.07.02-3.43.48-6.8.91-10.18.41-2.22.84-4.44,1.24-6.66.11-.6.03-1.47.9-1.36.78.1.65.95.72,1.57.19,1.62.39,3.23.59,4.84.03,3.09.07,6.17.08,9.26,0,5.07.71,5.83,5.83,6.13.91.05,1.84.16,2.72.01,5.31-.87,10.66-.65,16.01-.69.93,0,1.78-.24,2.7-1.01-2.34.09-4.38-.37-6.44-.59-2.41-.25-3.05-1.35-2.96-3.55.2-4.82,1.16-9.53,1.98-14.24,1.14-6.6,2.34-13.17,2.97-19.84-.23-2.98.89-5.8,1.04-8.74.36-4.29.72-8.58,1.07-12.87.04-.49.37-1.27-.34-1.35-2.28-.25-1.63-1.95-1.72-3.25-.12-1.61-.14-3.23-.21-4.85.03-3.16.13-6.33.05-9.49-.06-2.23-3.22-4.93-4.94-4.42-1.2.36-4.87,5.68-4.87,7.19.03,10.95.1,21.89.15,32.84,0,.2,0,.4,0,.6,0,.71,0,1.42-.01,2.13-.03,1.54-.04,3.08-.08,4.61-.22,9.12.62,18.29-1.03,27.36-.35,1.94-.46,3.91-1.39,5.76-1.18,2.33-3.04,2.26-5.09,1.81-2.07-.46-3.67-1.27-3.78-3.86-.12-2.74.5-5.39.5-8.1.78-2.02,1.29-4.09,1.03-6.28,0-3.17,1.53-6.1,1.59-9.24.32-15.83.43-31.66.08-47.49-.03-.71-.05-1.42-.08-2.12-.21-1.2,1.11-3.21-1.31-3.29-2.06-.06-3.81-.67-5.61-1.55-2.54-1.24-4.4-.05-4.61,2.81-.07.98-.01,1.97-.02,2.95-.08,3.72-.57,7.5.22,11.12,1.17,5.32,1.6,10.65,1.62,16.06.02,4.98.09,9.97.13,14.95,0,.52,0,1.04,0,1.56l-.02,3.35c0,2.16.01,4.31.02,6.47-.29,3.82-.2,7.64-.02,11.46-.04,1.52-.11,3.05-.11,4.57-.01,6.15-1.54,7.2-7.59,5.29-1.4-.44-2.46-1.09-2.38-2.76.02-.54.03-1.08.05-1.62.62-21.85-.6-43.64-2.26-65.41-.18-1.64-.36-3.27-.54-4.91-.3-1.47-.67-2.94-.88-4.42-.15-1.06-.25-2.01-1.66-1.89-.99-.07-1.97-.19-2.96-.19-4.33-.03-4.33-.02-4.32,4.23.07.94.14,1.89.21,2.83.21,1.45.43,2.91.64,4.36.05.19.1.37.15.56.54,6.03,2.56,11.86,2.47,17.98,0,.35-.01.71-.02,1.06,0,.19,0,.37,0,.56,0,.35,0,.7.01,1.06-.12,8.93-.24,17.86-.36,26.79-.21,4.91-.4,9.81-1.27,14.66-.63,1.58-1.19,3.17-1.14,4.91-.16.32-.35.63-.49.96-1.57,3.73-3.1,3.86-5.73.82-2.15-2.49-2.12-5.42-2.27-8.36-.13-10.01,1.28-20.12-1.98-29.92-1.36-6.67-1.86-13.46-2.66-20.21-1.29-6.01-2.1-12.1-3.63-18.07-.86-3.35-1.84-5.44-6.12-5.77-6.85-.52-6.59-1.08-5.01,5.7,1.6,6.85,2.4,13.88,4.11,20.7,2.04,8.15,4.67,16.16,7.05,24.22.35,1.8.7,3.59,1.05,5.39.2,1.8.41,3.6.61,5.4-.29,1.25-.22,2.48.1,3.73,1.17,4.6,2.32,9.2,3.48,13.8.03,1.58-.23,2.94-2.25,2.96-.69-.02-1.38-.05-2.08-.07-.49-.14-.99-.27-1.48-.41-.75-1.55-1.77-2.47-3.64-1.66.37.96,1.62.91,1.83,1.89-.36,0-.73,0-1.09,0-2.58-1.58-5.35-2.94-6.62-5.96-.06-.39-.12-.79-.18-1.18l-.31.69c-.91.17-1.26-.51-1.68-1.09-.44-3.11-.88-6.22-1.33-9.48-.79,2.08.42,4.24-.77,6.11-.62-4.92-.98-9.85-1.95-14.74-1.2-6.07-3.64-11.71-5.26-17.63-2.05-7.49-2.86-15.28-5.41-22.63-1.41-4.06-1.62-8.55-4.27-12.17,0-.46-.13-.83-.64-.93,0,0,0,0,0,0,.21-.37.43-.74.64-1.11,0,0,.26-.05.26-.05h.27c1.75,2.48,2.65,5.33,3.7,8.81v-12.52c-2.41-3.51-5.59-5.41-9.99-4.72-.3-.04-.61-.08-.91-.13.05-.4.09-.81.14-1.21.55-.18.98-.5,1.14-1.09.14.05.28.09.43.13-.15,1.33.68,1.42,1.69,1.38,2.51-.1,5.03-.28,7.04,1.77.53.54,1.54.72,1.92.05.99-1.73,2.27-.89,3.51-.66,1.67,1.56,2.98,3.13,5.97,2.02,2.17-.81,4.99-1.77,7.51.09.53.39,1.57.08,2.37.09.35,1.14-.5,1.06-1.17,1.15-1.11.16-1.99-.58-3.01-.79-.28-.05-.57-.11-.85-.16-.08.48.36.34.56.48,1.75,1.67,3.92,1.42,6.05,1.27.52-.04,1.08-.31,1.05-.99-.03-.66-.52-.86-1.11-.89-.51-.03-1.03-.05-1.54-.07-.34-.96,2.06-.78.93-1.73-3.34-2.83-3.59-6.4-2.9-10.29.21-1.22,1.04-2.81.03-3.54-.97-.7-1.85,1.06-2.93,1.41-1.64.34-2.91-.81-4.4-1.1-1.04-1.7-2.33-3.45-1.24-5.51,1.1-2.08,3.28-1.11,4.96-1.18,2.75-.12,3.59-1.16,2.53-3.78-.6-1.5-1.66-2.58-3.2-3.16-1.97-.74-3.7-1.9-5.5-2.96-2.18-1.29-3.82-3.38-6.31-4.2-1.36-1.34-2.92-2.32-4.85-2.59-.59-.39-1-1.5-1.94-.49l.13-.19-.16-.17c-1.29-1.17-2.75-2.23-2.68-4.25-.18-2.41-.37-4.82-.55-7.19-.91-.3-1.56.71-2.41.29,2.07-1.99,4.11-4.01,5.64-6.47,1.03-.59,2.06-1.18,3.08-1.77.54.15.41,1.08,1.15.99,3.05-1.28,5.79-3.36,9.25-3.59,4.25-.89,8.33-2.89,11.62-5.19,3.39-2.36,6.83-5.26,9.6-8.61,0,0-.04.03-.04.03,2.05.48,3.39-1.72,5.4-1.4-.59.62-1.19,1.24-1.78,1.86,0,0-.21.05-.21.05-1.85.21-3.26,1.13-4.72,2.31-2.88,2.32-5.13,5.93-8.24,7.19-3.98,1.6-7.45,4.33-11.69,5.26-1.8,0-3.74.06-5.09,1.23-1.74,1.51-3.67,2.02-5.82,2.2-1.97,1.57-4.57,2.67-4.34,5.86v4.36c.61,1.71-.56,4.15,2.06,5.04,1.87,1.31,3.89,2.31,6.08,2.98.17.1.35.2.52.3,3.41,2.12,6.29,5.03,9.94,6.79,1.07.94,2.37,1.39,3.72,1.73,1.16,1.57,2.79,2.88,2.74,5.11-.03,1.5-.36,3.09,1.64,3.81.73.26.17.94.07,1.54-.56,3.63-.91,7.3-1.29,10.96-.05.5-.11,1.17.53,1.4.65.24.91-.4,1.27-.76,2.07-2.09,3.94-2.35,6.49-.95,1.15.63,1.99,1.56,2.77,2.56.75.97,1.6,1.67,2.94,1.64,3.35-.07,6.69-.08,10.04-.11,3.01.42,4.98-1.59,7.18-3.06,1.07-.48,1.45-1.33,1.75-2.46.32-1.23.3-2.87,2.03-3.31.5,1.07-.91,1.58-.75,2.55-.19.2-.32.41-.03.6.05.03.24-.18.37-.27,1.54-.5,2.25-1.78,3-3.09-1.02-.44-1.71.88-2.6.21.49-.52.97-1.04,1.46-1.55,2.05-1.6,4.78-1.75,6.91-3.2,4.76-.5,9.5-1.07,12.9-5.05,2.25-1.52,4.52-3.02,6.46-4.94,3.17-3.13,3.74-6.85,2.38-10.98.05-1.72-1.14-1.58-2.28-1.53-.77-1.2-1.43-2.53-3.24-2.2-.19-.17-.38-.34-.57-.51-.35-1.55-.91-3,.26-4.6.83-1.14.24-2.47-.95-3.26-.81-.54-1.75-.9-2.63-1.35-.26-.59-.52-1.19-.78-1.78-.04-.74-.07-1.48-.11-2.22.62-1.83.88-3.85,2.63-5.1,1.82-.48,3.6.42,5.42.13.54-.01,1.07-.03,1.61-.04.27.63.63.73,1.11.21.54.02,1.09.04,1.63.07.2.27.36.73.62.79,3.43.81,6.15,2.75,8.49,5.3-.02.22-.05.44-.07.67-.11.26-.23.53-.34.79-.38-.17-.77-.35-1.15-.52-1.66-1.26-2.82-3.34-5.31-3.22-.25-1.22-1.35-1.18-2.2-1.62-2.16-1.11-3.73,1.07-5.69.82-1.54-.59-3.06-.62-4.3.59-.77.75-.6,1.64.11,2.41.46,1.28,1.33,2.17,2.3,3.15,2.27,2.28,4.62,4.55,6.33,7.32,1.79,2.9,2.65,3.19,5.57,1.4.98-.6,1.83-1.42,2.74-2.14,1.66-.86,3.42-1.61,3.67-3.82.07-.59.29-1.22-.4-1.63.1-.78.63-.66,1.16-.55.01.72.03,1.44.04,2.17.25,1,.38,2.15-.54,2.73-2.78,1.77-4.68,4.77-8.18,5.56-2.09.47-3.55,1.45-3.17,4.3.64,4.77-1.39,8.55-5.39,11.31-1.25.86-2.73,1.44-3.64,2.74-3.47,3.06-7.18,5.62-12.33,5.19l.23.72c.98.43,1.96.86,2.95,1.29.38.52.75,1.03,1.13,1.55.55,1.78,2.4,2.96,2.16,5.13-.47,4.24-4.3,7.64-8.62,7.56-.99-.02-1.99.02-2.98.04-2.69-.95-5.63-1.78-7-4.47-.99-1.94-1.46-.98-2.27-.15-1.54.55-2.91,1.41-4.22,2.36-3.36.05-6.72.23-10.07.1-2.27-.09-3.67.32-3.29,3,6.99.65,14.18-.9,20.99,1.8,1.81,1.2,3.83,1.71,5.99,1.78,2.51.55,5.02,1.18,7.63.88,2.16.27,3.62-.82,4.67-2.52,1.22-1.98,2.33-4.02,3.49-6.04,2.97-2.43,6.49-2.36,10.01-2.16,2.56.14,3.23,2.46,4.15,4.21,1.03,1.94,2.34,1.51,3.83,1.01,5.49-.84,11.02-.32,16.54-.41,1.52-.02,2.7-.38,3.91-1.44,2.51-2.19,5.43-3.16,8.73-1.67.4.99,1.02.95,2.07.96,3.75.06,7.13-1.84,10.83-1.85,1.45-1.26,3.14.35,4.75-.49,2.2-1.17,4.6-1.97,6.92-2.92.12.12.24.25.37.36.28.44.49.7,1.21.6,2.11-.31,4.2-.59,6.21-1.32.22.22.44.43.67.65-.08.07-.14.16-.17.27-4.26,1.93-9.63.44-13.27,4.32-.1.11-.37.14-.52.09-3.35-1.05-2.29,1.36-2.31,2.93-.05.36-.1.73-.15,1.09-1.21,3.51-1.9,7.11-2.14,10.81-.52,4.79-1.04,9.57-1.54,14.36-.11,1.07-.19,2.14-.28,3.21-.48,4.12-1.25,8.24-1.39,12.37-.27,8.19-2.57,16.06-3.65,24.11-.66,4.9-1.82,9.74-1.89,14.74-.32,0-.64,0-.97,0-.06-1.42-.11-2.85-.17-4.27.11-1.53-.14-3.19.38-4.56,2.19-5.9,2.01-12.21,3.44-18.25,1.48-6.28,1.89-12.81,2.76-19.24.05-.39.09-.77.14-1.16.01-.49.03-.97.04-1.46.25-6.82,1.73-13.53,1.72-20.37.27-1.43.54-2.87.81-4.3.29-1.72.59-3.45.88-5.17.53-1.06.66-2.22.94-3.35.47-1.89-.19-2.33-1.81-1.75-1.09.39-2.05,1.25-3.16,1.48-1.78.36-2.91,1.63-3.06,3-.15,1.34,1.93.75,2.75,1.53.1.16.21.32.31.48.21,2.75-.11,5.45-.6,8.15-.67,3.83-2.34,7.46-2.35,11.42-.09.25-.24.5-.26.76-.83,11.51-2.87,22.84-4.93,34.17-1.35,7.4-2.79,14.8-2.31,22.4-.21,1.43-.42,2.86-.63,4.29-1.8,2.25-4.41,3.06-6.98,3.95-.37.12-.75.25-1.12.37-.53.06-1.06.11-1.59.16-3.4,0-6.76.21-9.79,2.11h5.43c-.02.33-.04.66-.07.99-.18.02-.35.07-.51.17-.89,0-1.78.02-2.68.03-4.5-.32-8.94-.35-12.86,2.42-5.16.76-10.38-.12-15.55.5Zm-68.71-46.09c.05.41.11.82.16,1.23.11-.06.31-.11.33-.2.11-.46-.02-.84-.48-1.04-.05-.45.23-.99-.44-1.47-.11.66-.1,1.13.43,1.48Zm-.97-3.92c-.13-.38-.27-.75-.4-1.13-.06.06-.16.11-.18.18-.11.45-.05.85.35,1.14.02.48-.1,1.01.43,1.35.49-.59.28-1.08-.2-1.54Zm2.56,3.91c.01.68,0,1.37.56,1.89.87,5.09,2.95,9.89,3.55,15.04.14,1.2.72,1.77,1.96,1.49.72.75.96,1.69,1.18,2.68.5,2.33.15,4.71.43,7.03.26,2.2.24,4.61,2.66,6.29,0-2.1.17-3.84-.03-5.52-.49-4,.45-8.18-1.51-11.99-.81-4.7-1.48-9.43-2.45-14.1-.97-4.67-2.22-9.28-3.48-13.88-1.44-5.29-2.06-10.81-4.59-15.8-2.24-4.42-2.76-9.31-3.8-14.06-.17-.87-.29-1.75-.52-2.61-.18-.69-.43-1.5-1.32-1.46-1.14.05-.74,1.08-.76,1.66-.05,1.69.06,3.39.1,5.09-.25,3.42-.09,6.81.49,10.19.3,1.74,1.65,3.25,1.13,5.17.16,1.34.27,2.69.5,4.01.87,4.96,1.49,10.01,4.61,14.24l.12.08c0,1.64.35,3.19,1.19,4.61l-.03-.04Zm70.98,44.36h-2.71c0,.09,0,.17,0,.26h2.68c3.91.22,7.84.6,11.63-.71-3.9-.31-7.79-.59-11.61.45Zm40.33-93.98c-3.59-.65-6.85,1.5-10.4,1.18-5.45.08-10.92-.7-16.33.53-.87.05-1.73.13-2.52.79.99,1.56,2.23,2.72,4.12,3.03,1.86,1.32,6.26,1.31,8.38.05,2.16-1.28,3.73-3.49,6.35-4.03,1.25.11,2.49.25,3.73.42,2.42.32,5.13.97,6.66-1.98.04-.07.08-.13.13-.2-.04.07-.07.14-.11.21Zm-20.7,88.37c1.44.19,1.05-.91,1.18-1.65.44-.56.37-1.15.11-1.75.15-4.71.45-9.43-.14-14.14.47-5.58.13-11.16.21-16.75,0-.43,0-.86,0-1.29.01-1.99.32-3.99-.14-5.97.05-.49.11-.98.16-1.47.24-.61.23-1.22,0-1.83.02-5.09.27-10.15.91-15.23.58-4.57,1.67-9.04,2.11-13.62.55-1.22.94-2.55,1.69-3.64,1.02-1.48.92-2.17-.97-2.41-.69-.09-1.31-.61-2-.76-1.86-.4-3.24-.07-3.15,2.3.07,2.06.1,4.13-.62,6.12-1.3,1.51-.78,3.46-1.27,5.17-2.52,8.84-2.7,17.98-3.46,27.05-.4,4-.8,7.99-1.21,11.99-.83,2.31-.77,4.78-1.29,7.16-1.27,5.89-2.04,11.89-3.02,17.84-.37,2.27.23,3.6,2.8,4.14,2.27.48,4.48.27,6.72.32.88.02,1.57-.45,1.42-1.53l-.04-.05Zm-6-73.65v12.58c.24,0,.48.01.73.02.97-3.81,1.64-7.67,1.54-11.65.18-1.33.41-2.66.51-4,.11-1.36,2.13-2.74.89-3.74-.96-.78-2.94-.33-4.47-.35-.47,0-1.06-.26-1.56.45,2.81,1.51,2.08,4.26,2.36,6.69Zm-48-9.3c-.85.24-1.54-.69-2.54-.13-3.87,2.17-8.03,2.23-12.26,1.34l-1.01-.02c-.39,0-.77,0-1.16,0-2.27-.39-3.11.07-2.17,2.64,2.63,7.21,3.06,14.94,4.9,22.34-.03,2.89.46,5.73.77,8.6.71,6.44,2.65,12.66,3.29,19.1l.33,19.23c-.33,3.38-.36,6.65,2.09,9.45,1.69,1.93,2.48,1.94,3.34-.4.62-1.68,1.1-3.42,1.04-5.25,1.81-4.01,1.69-8.28,1.7-12.53,0-2.73,0-5.45,0-8.18.12-1.99.35-3.97.33-5.96-.09-8.85.99-17.72-.75-26.55-1.19-6.03-1.89-12.15-2.81-18.23-.15-2.47.29-4.38,3.49-3.8,1.36.25,1.35-.76,1.4-1.67,3.11,1.29,6.3,1.19,9.52.65-.63-.53-1.31-.74-1.97-1.01-.75-.3-1.47-.7-2.24-.97-2.34-.84-4.81-.19-5.3,1.34Zm19.52,88.3c-.69.47-1.38.94-2.07,1.41,2.04.53,3.9.64,5.75.5,1.82-.14,3.79.7,5.43-.74.46.1,1.05.15,1.14-.36.15-.84-.65-.63-1.11-.73q-5.74-1.18-5.74-7.02c0-1,0-1.99,0-2.99,0-2.33,0-4.67,0-7h-.86c-.28,2.01-.43,4.07-.86,6.06-.77,3.59.42,7.49-1.69,10.86Zm10.93-83.41c-.5,3.67-.43,7.34-.17,11.02-.37,10.34-.06,20.68.16,31.02-.4,5.38-.53,10.75-1.41,16.12-.95,5.83-2.19,11.7-1.83,17.69-.48,2.64,1.65,2.64,3.21,3.04,2.18.55,3.33-.92,3.69-2.68.43-2.09,1.09-4.22.71-6.42.23-1.25.46-2.5.68-3.76.57-.69.42-1.46.28-2.24v-1.02c-.01-.21-.02-.42-.03-.63l-.02-5.35c.25-1.3.25-2.61.01-3.92,0-1.05-.01-2.11-.02-3.16,0-.59-.01-1.17-.02-1.76,0-.33,0-.65-.01-.98,0-.58.02-1.16.03-1.75.18-2.36.32-4.72,0-7.08.01-1.05.02-2.11.03-3.16,0-.22.01-.44.02-.67,0-9.43.02-18.85.03-28.28-.38-2.98,1.34-5.05,3.07-7.11.39-.49,1.72-.97.5-1.61-2.09-1.11-7.49.65-8.92,2.66Zm51,25.87c.66-5.34,1.33-10.68,1.99-16.02,1.25-4.5,2.67-8.98,2.75-13.71.02-1.14.38-2.42-1.41-2.67-1.64-.23-2.03.92-2.35,2.04-.9,3.12-1.71,6.25-2.56,9.38-.26,6.73-.52,13.46-.78,20.19-.69,8.82-1.14,17.66-2.19,26.47,1.63-8.55,3.8-16.99,4.55-25.68Zm-121.91-25.81c.33,1.47.65,2.93.98,4.4.13.91.19,1.84.77,2.61-.2.96.2,1.81.56,2.62,2.41,5.29,3.99,10.8,5.23,16.5,1.55,7.14,3.62,14.16,4.95,21.38,1.52,8.29,3.02,16.53,2.83,24.99-.03,1.4.55,1.71,1.79,1.64,1.06-.06,2.31-.36,3.06.65,1.07,1.43,2.56,2.21,3.97,1.32,1.38-.88.44-2.64.33-4.03-.03-.35-.25-.68-.33-1.03-1.09-4.75-2.95-9.35-2.78-14.34.17-.89-.26-1.79-.18-2.61.23-2.41-2.07-4.21-1.45-6.66.21-1.23-.27-2.33-.63-3.44-3.27-10.08-6.1-20.27-8.25-30.66-.86-4.14-.33-8.56-2.41-12.45-.25-.87-.8-1.76-.71-2.59.36-3.29-1.68-4.1-4.28-4.52-1.18-.19-4.48,1.49-4.34,2.32.22,1.32.59,2.61.89,3.92Zm51.56-19.25c-2.36.62-2.05,2.65-2.23,4.36-.18,1.66,1.26,1.88,2.3,2.55,1.58,1.02,3.21.83,4.88.55,3.76-.66,5.1-3.6,6.16-6.7.35-1.03,0-2.08-.91-2.92-3.12-2.88-6.06-2.69-8.73.61-.45.55-.98,1.03-1.48,1.55Zm48.28,27.11c-.53.74-1.01,1.5-1.09,2.44-.47,5.67-1.81,11.25-1.68,16.98,0,3.82,0,7.65,0,11.47.03,11.8.06,23.6.09,35.41,0,.53.01,1.06.02,1.59.17,1.33-.83,2.43-1,4.09,3.61-1.73,7.14-1.79,10.68-1.93,2.67-.1,5.15-1.08,7.37-2.56,1.67-1.11,1.8-1.79,1.22-4.01-2.98,4.69-3.8,5.03-9.55,3.92-.09-.02-.18-.02-.27-.03-1.88-.18-2.44-1.15-2.56-3.07-.46-7.74,1.49-15.3,1.45-23.02-.02-2.91.24-5.93.61-8.87,1.19-9.54,4.03-18.72,6.07-28.08,1.1-5.03.93-10.16,1.3-15.43-2.39.8-4.44,2.09-6.44,2-2.84-.12-4.13,1.12-5.05,3.38-1.08,1.76-.81,3.8-1.17,5.71Zm19.62-4.63c.72-2.54,1.45-5.08,2.17-7.61-.16-.87,1.27-1.92-.05-2.57-2.91-1.43-8.03,1.95-8.02,5.2.02,5.26-.24,10.46-1.55,15.63-.97,3.84-2.17,7.68-2.38,11.69-.18.4-.39.8-.53,1.21-2.94,8.97-3.03,18.29-3.36,27.58-.6,5.82-2.03,11.57-1.48,17.48.06.69-.05,1.35.78,1.84,4.57,2.67,9.22.28,9.53-4.99.14-2.35.14-4.71.21-7.06,1.6-13.08,3.13-26.17,3.56-39.36.16-4.57.82-9.13.56-13.72-.1-1.8.1-3.58.55-5.32Zm-69.84,10.68c-.98,2.4-.53,4.81-.05,7.23.46,9.13.91,18.26,1.37,27.39-.01,6.53-.02,13.06-.04,19.6-.02,2.27.03,4.54-.08,6.8-.1,1.95.91,2.57,2.63,2.6.72.01,1.49-.06,2.16.15,2.4.77,2.83-.5,2.83-2.48-.03-13.62-.03-27.24-.04-40.86.03-3.89.41-7.8-.29-11.67-1.21-6.78-2.12-13.58-1.75-20.5.09-1.68.27-3.23,1.28-4.58-3.3-2.22-6.65-.74-9.97-.35-.6.07-.61.48-.53.99.52,3.12,1.01,6.25,1.51,9.37.14,2.13-.58,4.39.96,6.3Zm17.21-19.47c2.57-.15,5.11.65,4.84-2.98-.06-.85.64-1.26,1.47-1.26,1.35,0,2.78-.31,3.96.59,1.76,1.33,3.63.75,5.49.45.58-.09,1.25-.39.84-1.01-.89-1.33-1.39-3.09-2.94-3.8-3.15-1.45-8.5.04-10.55,2.9-1.04,1.46-1.87,3.07-3.1,5.11Zm-42.01-2.02c2.75,3.52,10.24,3.37,15.07,0h-15.07Zm88.36,1.68c2.67-1.18,4.56-2.48,6.77-2.24,2.58.28,4.07-.65,4.56-3.2-5.94-.32-7.76.48-11.33,5.44Zm-14.18,2.31c4.92,3.56,6.1-2.5,9.79-3.09q-3.54-1.56-9.79,3.09Zm-74.68-9.29c-1.46-2.75-3.23-4.06-5.79-3.95-1.74.07-2.46,1.39-3.07,3.07,2.99.03,5.74-.06,8.86.88Zm-8.02.7c2.59,1.6,5.37,2.42,8.38,2.38.51,0,1.21.09,1.31-.61.08-.62-.52-.88-1.02-1.08-2.78-1.14-5.66-1.4-8.67-.69Zm72.1,8.23c-1.74-1.13-2.56-2.32-3.55-3.36-.83-.88-1.98-.57-2.81-.2-1.08.49-.68,1.74-.61,2.65.09,1.23,1.2.85,1.93.89,1.45.07,2.9.02,5.03.02Zm17.31.94c1.93-.64,4.13-.1,5.89-1.46.78-.6,1.09-1.36.68-2.08-.51-.88-1.15-.14-1.79.14-1.81.8-3.42,1.85-4.77,3.4Zm-30.67-2.33c1.55.65,2.87.91,4.25.89.8-.01,1.48-.11,1.42-1.14-.06-1.02-.7-1.55-1.64-1.3-1.28.33-2.65.52-4.04,1.55Zm-50,.43c-.99-1.98-2.35-2.23-3.86-2.07-.63.07-1.68-.41-1.74.66-.06,1.08.77,1.48,1.85,1.42,1.16-.06,2.32-.01,3.75-.01Zm38.94,2.11c1.29,1.37,2.7,1.04,4.02,1.04.54,0,1.19-.02,1.22-.75.03-.73-.42-1.16-1.16-1.25-1.39-.17-2.66.17-4.08.96Zm-53.73,71.57c-.08-3.1.64-6.25-.76-9.2.15,3.09-.67,6.24.76,9.2Zm61.76-73.76c-.61.27-1.83-.36-1.83.89,0,.56,0,1.93,1.26,1.57.95-.28,2.47-.16,2.57-1.47.07-.86-1.11-.97-2.01-.99Zm5.48-2.62c-1.86-1.15-3.18-1.49-4.54-.78-.46.24-.46,1.13-.06,1.42,1.43,1.02,2.62-.12,4.6-.64Zm-76.17.22c-.34-.69-.93-1.24-1.64-1.24-.89,0-1.49.77-1.44,1.58.04.68.86.84,1.5.82.77-.02,1.41-.29,1.58-1.17Zm2.55.05c1.47.51,2.48,1.24,3.6.3.12-.1.09-.65-.05-.74-1.09-.73-2.15-.57-3.56.43Zm9.84,1.5c2.83,1.15,3.09,1.15,5,0h-5Zm78.57,11.44c1.38-2.01,1.01-3.61.98-5.6-1.34,1.74-1.01,3.34-.98,5.6Zm-18.43-74.11c-1.3-.78-2.48-1.01-3.49,1.02,1.6-.47,2.54-.74,3.49-1.02Zm18.09,74.86c-.02.07-.07.14-.06.2.05.25.14.26.24.03.02-.06,0-.14-.03-.2-.01-.02-.09-.01-.14-.02Z"/>
    <path class="cls-3" d="m91.04,2.26c.35,0,.7,0,1.06,0,4.94.46,10.2-1.1,14.67,2.33,2.09.76,4.11,1.65,6.01,2.82,1.32,1.56,2.47,3.29,4.3,4.36,0,.14.05.26.16.35-.01.36.14.52.51.44,10.06,7.17,20.61,13.18,33.28,14.24-.02.29-.04.58-.06.87-.81.24-.71.62-.17,1.09,1.15,1.01,2.29,2.04,3.44,3.05,3.18,2.77,5.76,6.76,10.98,5.32.88-.13,1.9.63,2.65-.4.21-.21.42-.42.63-.64.41.17.83.49,1.24.5,5.46.09,9.09,2.57,10.42,8,.39,1.56,1.52,1.55,2.74,1.48,2.65-.16,4.29,1.17,5.07,3.6,1.59,4.92,1.64,9.87.12,14.82-.19.35-.37.7-.56,1.05-1,1.08-2.84,2.04.07,3.2,1.42.57,1.78,2.26,1.92,3.69.2,2.06.14,4.14.19,6.21-1.6,2.2-3.05,4.53-4.84,6.56-2.5,2.82-5.04,5.69-8.69,7.16-.13-.12-.25-.24-.37-.36,1.47-1.35,2.94-2.7,4.41-4.05,2.34-1.42,4.26-3.21,5.17-5.88,2.05-1.52,3.72-3.25,3.22-6.12,0-.99.12-1.98,0-2.96-.37-3.09-1.21-3.77-4.36-3.67-.97-.81-.34-1.35.28-1.96.44-.43,1.21-1,.88-1.56-1.84-3.04-.15-6.41-1.01-9.52.05-.84.11-1.68.16-2.53.26-.24.51-.48.77-.72.81,3.68-.04,7.48.65,11.37.43-.28.7-.37.83-.56,1.97-2.91,1.59-12.71-.57-15.43-1.23-1.54-3.35-1.73-4.6-.42-.21.21-.41.43-.62.64-.78-1.05-1.55-1.98-2.6-.21-.42.71-1.2.82-1.93.75-.67-.06-1.65.44-1.93-.45-.31-.98.73-1.15,1.36-1.31,1.49-.37,1.54-1.27,1.1-2.45.22-.22.45-.43.67-.65.54.63.18,2.05,2,2.02-.7-1.78-1.24-3.37-1.94-4.89-.76-1.66-2.15-2.65-3.88-3.13-.33-.09-.99-.4-.84.41.05.26.54.44.84.65-.2.21-.4.41-.61.62-2-1.09-4.25-1.26-6.43-1.64-.99-.02-1.98-.03-2.97-.07-1.69-.08-3.64.52-4.96-.77-3.14-3.06-6.87-5.49-9.57-9.01.19-.25.39-.51.58-.76-.08-.05-.15-.09-.23-.14l-.36.89c-2.39-.7-4.78-1.37-7.3-.62-2.42-2.16-5.47-2.92-8.46-3.83v.02c-.16-.66-.66-.39-1.06-.39-2.33-.4-4.57-.09-6.71.91-1.96.04-3.92.07-5.89.11-.19,0-.38-.01-.58-.02-.34,0-.68-.01-1.02-.02-2.29-.37-4.71-.96-5.18-3.55-.42-2.35,2.36-1.95,3.5-3.05.35-.02.7-.05,1.05-.07,1.04-.04,2.54.46,2.98-.44.47-.96-.56-1.91-1.64-2.35-4.91-2.11-7.99-6.75-13.15-8.87-4.3-1.77-8.11-3-12.67-1.97-7.03,1.58-13.86,3.51-19.14,8.85-1.24.8-2.48,1.6-3.72,2.4-.13-.79-.69-1.31-1.17-1.88,2.79-1.48,5.29-3.44,8.03-5.02,4.43-2.57,7.57-7.76,13.81-6.49Zm35.06,21.16c.04-.22.08-.44.13-.65-.81-.54-1.91-.9-2.38-1.65-1.93-3.04-4.64-2.06-7.23-1.57-.87.16-2.23.21-2.16,1.57.06,1.14,1.19,1.56,2.1,1.87,3.16,1.07,6.36.3,9.55.44ZM82.47,6.07c3.33-.31,5.87-1.66,8.58-2.45-3.05-.41-6-.48-8.58,2.45Z"/>
    <path class="cls-9" d="m188.1,64.49c1.52-4.95,1.47-9.9-.12-14.82-.78-2.43-2.42-3.76-5.07-3.6-1.22.07-2.36.08-2.74-1.48-1.34-5.43-4.96-7.91-10.42-8-.42,0-.83-.33-1.24-.5-2.03-3.82-5.35-6.03-9.32-7.41,2.64-.61,5.31-.81,7.76.52,2.44,1.33,5.28,1.07,7.76,2.48,3.46,1.96,7.37,3.2,9.11,7.26.43,1.02.89,1.84,2.12,2.25,1.32.44,1.64,1.83,2.29,3.03,2.57,4.7,1.97,10.36,4.76,14.9,1.26,2.05-.57,3.57-.52,5.37-1.45,0-2.9,0-4.35,0Z"/>
    <path class="cls-8" d="m156.96,180.61c.07-5,1.23-9.84,1.89-14.74,1.09-8.06,3.38-15.93,3.65-24.11.14-4.14.91-8.25,1.39-12.37.18.19.49.37.52.58,1.1,7.12,1.92,14.25-.17,21.33-.51,1.72.03,3.28.38,4.8,1.05,4.58-2.45,8.17-2.47,12.46-.02,3.81-1.42,7.19-3.11,10.49-.45.88-.7,1.91-1.83,2.22-.08-.22-.17-.43-.25-.65Z"/>
    <path class="cls-9" d="m91.04,2.26c-6.23-1.27-9.37,3.92-13.81,6.49-2.74,1.59-5.24,3.54-8.03,5.02-.94.25-1.69.76-2.13,1.65-2.18,5.14-6.27,7.98-11.4,9.63-2.1.68-3.98,1.75-5.42,3.48-.41-.02-.82-.03-1.24-.05,1.02-1.96,2.29-3.67,4.49-4.46.7-.25,1.05-.91,1.48-1.51,2.42-3.35,4.43-7.15,8.9-8.37.43-.12.99-.72,1.04-1.15.32-2.66,3.53-2.65,4.38-4.81.1-.25.81-.37,1.23-.35,2.23.12,4.04.08,4.84-2.79.54-1.95,3.08-1.28,4.57-1.36,1.31-.07,1.86-.52,2.6-1.28,2.13-2.22,6.15-2.26,8.5-.15Z"/>
    <path class="cls-3" d="m10.94,55.35c1.08-.48,2.24-.38,3.37-.41.29-.12.58-.24.87-.36.27.22.54.44.81.66-.27,2.03,1.15,3.57,1.55,5.4-.05.14-.06.28-.03.42.08,1.54-.78,3.27,1.08,4.42.71.44,1.26,1.16.71,2.07-.56.92-1.36,1.35-2.52,1.17-4.2-.63-6.23,1.75-4.81,5.6-1.92-1.47-2.86-.65-3.11,1.41-.43,3.52-.24,7.06-.09,10.59-.29,3.54,1.02,6.22,4.22,7.9.33.31.66.61.99.92.56.89,1.33,1.55,2.24,2.06.02.36.04.72.07,1.09-4.08-2.71-8.22-5.37-8.81-10.9,0-3.82.02-7.63.02-11.45.39-.87.74-1.76.71-2.74.51-.41.43-1.04.57-1.59.72-1.08-.14-1.82-.79-2.22-1.54-.95-2.21-2.53-3.24-3.85-.36-1.64-.72-3.28-1.07-4.92.11-.25.18-.69.32-.72,2.98-.53,5.34-1.96,6.93-4.57Zm5.17,7.78c.26-1.92.43-3.82-1.33-5.32-.97,1.61-.68,3.17-.22,4.73-.44,1.01-.32,2.02-.26,3.25,1.17-.75,2.04-1.34,1.81-2.66Zm-3.23-1.5c.23-1.39.45-2.79.69-4.24-3.95.83-4.23,1.17-3.56,4.16-.06,1.71-.13,3.42-.17,5.13,0,.51-.13,1.21.54,1.38.85.21.54-.83.78-.96,2.28-1.33,1.76-3.46,1.72-5.47Z"/>
    <path class="cls-5" d="m168.02,99.9c.02-1.57-1.03-3.98,2.31-2.93.15.05.42.01.52-.09,3.63-3.88,9.01-2.38,13.27-4.31.41,1.23-.53,2.3-.4,3.5-.17.02-.34.04-.52.06-1.78-.68-3.26-.07-4.81.87-1.91,1.16-3.95,2.1-5.94,3.11-.68.35-1.36.53-1.93-.24q-1.34-1.81-2.5.04Z"/>
    <path class="cls-4" d="m188.1,64.49c1.45,0,2.9,0,4.35,0,5.29,1.83,6.9,4.71,5.79,10.19-.32,1.57-1.58,2.33-2.6,3.32-3.27,2.05-4.52,5.66-6.66,8.58-1.46,1.99-2.41,4.4-4.7,5.71-.22-.22-.44-.43-.67-.65,3.28-3.31,5.32-7.45,7.7-11.37.11-.14.25-.26.34-.41,1.31-2.1,4.24-2.68,5.16-4.96,2.03-5.03-.57-8.88-6.03-9.27-1.08-.08-2.16-.06-3.24-.09.19-.35.37-.7.56-1.05Z"/>
    <path class="cls-9" d="m10.94,55.35c-1.59,2.62-3.95,4.05-6.93,4.57-.14.03-.22.47-.32.72-1.35.4-2.65,1.06-2.4,2.66.35,2.28.06,4.98,2.88,6.14.2.4.4.8.6,1.2.41.84.81,1.68,1.22,2.52,0,0-.07.07-.07.07-4.19-2.75-7.78-7.86-4.84-12.79.4-.67.58-1.32.55-2.06-.06-1.54.76-2.14,2.2-2.05,1.52.09,2.65-.23,3.72-1.61,1.06-1.37,2.43-.55,3.4.62Z"/>
    <path class="cls-9" d="m184.28,92.3c2.29-1.31,3.24-3.71,4.7-5.71,2.14-2.92,3.39-6.54,6.66-8.58-.35,2.96-.36,6.04-3.21,8.02-.77.53-1.02,1.47-1.53,2.21-2.02,2.95-4.32,5.65-7.19,7.82-.13-1.2.82-2.27.4-3.5.03-.11.09-.2.17-.27Z"/>
    <path class="cls-3" d="m50.25,28.53c1.44-1.73,3.31-2.8,5.42-3.48,5.13-1.65,9.23-4.49,11.4-9.63.52.17,1.05.34,1.57.5l.03.03c-.19.35-.39.7-.58,1.04-1.47,1.22-2.02,3.1-3.26,4.48-2.01,1.43-4.01,2.86-6.02,4.29l.04-.03c-3.19.7-6.64,1.41-8.2,4.52-1.84,3.68-4.47,4.82-8.26,4.25-.52-.08-1.07.08-1.6.13-.17-.03-.35-.07-.52-.12.02-.32.04-.65.06-.97.56-.06,1.12-.11,1.68-.17,4.29,1.01,6.82-.97,8.22-4.85Z"/>
    <path class="cls-9" d="m15.19,54.58c-.29.12-.58.24-.87.36.76-2.84.72-6.29,2.96-8.18,1.77-1.49,4.05-3.24,6.88-2.85-1.53,2.47-3.57,4.48-5.63,6.47,0,0-.07.19-.07.19-1.35,1.12-2.24,2.62-3.27,4.01Z"/>
    <path class="cls-4" d="m137.94,192.23c-.18-.01-.36-.03-.54-.04-.21-.07-.41-.14-.62-.2.02-.33.04-.66.07-.99.55-.05,1.11-.1,1.66-.16.93.11,1.86.18,2.7-.37,4.9.04,9.38-1.31,13.57-3.84.96-.58,1.28-1.15,1.07-2.15,0-.91,0-1.82.01-2.74.05-.38.09-.76.14-1.14.32,0,.64,0,.96,0,.08.22.17.43.25.65.9,4.58-1.51,6.77-5.49,8.31-4.47,1.73-9.11,2.17-13.78,2.67Z"/>
    <path class="cls-9" d="m168.02,99.9q1.16-1.85,2.5-.04c.57.77,1.25.59,1.93.24,1.99-1.02,4.04-1.95,5.94-3.11,1.54-.94,3.03-1.54,4.81-.87-2.23,1.29-4.63,2.37-6.64,3.93-2.38,1.84-4.91,1.78-7.59,1.51-.37-.19-.73-.38-1.1-.57.05-.36.1-.73.15-1.09Z"/>
    <path class="cls-4" d="m21.69,104.31c.47-2.23.1-3.98-2.52-4.51-.6-.12-.7-.77-.95-1.24,4.4-.69,7.58,1.21,9.99,4.72-.69-.02-1.39-.04-2.08-.06-.88-.39-1.64-2.33-2.62-.89-.94,1.36-1.46,3.33.47,4.72-.21.37-.43.74-.64,1.11-1.82-.74-1.51-2.39-1.65-3.85Zm1.78-4.1c-.11-.21-.19-.36-.26-.51-.12.19-.3.36-.35.56-.03.12.13.29.21.44.14-.17.28-.34.4-.49Z"/>
    <path class="cls-9" d="m106.77,4.6c-4.47-3.43-9.73-1.87-14.67-2.33,1.9-1.42,3.96-2.79,6.39-2.06,2.48.74,5.6-.36,7.39,2.5.38.61.95,1.1.89,1.9Z"/>
    <path class="cls-5" d="m50.25,28.53c-1.4,3.88-3.93,5.86-8.22,4.85,1-3.53,4.15-3.99,6.99-4.9.41.02.82.03,1.24.05Z"/>
    <path class="cls-4" d="m159.18,28.68c3.97,1.38,7.29,3.59,9.32,7.41-.21.21-.42.42-.63.64-2.8-3.88-6.5-6.4-11.17-7.51-1.93-.45-3.82-1.03-5.73-1.55.02-.29.04-.58.06-.87,2.82.16,5.42,1.31,8.15,1.87Z"/>
    <path class="cls-4" d="m40.35,33.55c-.02.32-.04.65-.06.97-5.25,1.1-8.95,4.33-11.89,8.61-.75.09-.61-.84-1.15-.99,2.65-3.39,6.05-5.89,9.72-8.01.99-.57,2.16-.97,3.38-.58Z"/>
    <path class="cls-5" d="m167.86,101c.37.19.74.38,1.1.57-.4,3.63-1.33,7.1-3.25,10.25.24-3.7.93-7.31,2.14-10.81Z"/>
    <path class="cls-9" d="m117.08,11.78c-1.83-1.07-2.98-2.8-4.3-4.36,2.16-1.08,4.01-.29,4.33,1.92.12.79-.01,1.63-.03,2.44Z"/>
    <path class="cls-4" d="m23.33,108.16c.51.1.65.47.64.93-.21-.31-.43-.62-.64-.93Z"/>
    <path class="cls-9" d="m117.75,12.56c-.37.08-.52-.08-.51-.44.17.15.34.29.51.44Z"/>
    <path class="cls-11" d="m125.82,24.62c2.14-1,4.38-1.31,6.71-.91.26.4.64.45,1.07.39,0,0,0-.02,0-.02-.03.36-.07.72-.08,1.08-.02,1.91.31,3.32,2.76,2.21.67-.3,1.54-.84,2.18.14,1.05,1.6,2.32.9,3.59.39,2.51-.75,4.91-.09,7.3.62h0c2.7,3.53,6.43,5.96,9.57,9.02,1.32,1.29,3.27.7,4.96.77.99.04,1.98.05,2.97.07.56,2.57.35,5-1.58,7.58-.29-2.56-1.88-2.75-3.74-2.97-3.16-.37-6.3-.52-9.45-.11-2.95.38-5.5.2-7.56-2.6-2.29-3.1-5.68-3.05-9.1-1.95-.92.3-1.72.77-1.78,1.8-.07,1.08,1.17.65,1.54,1.08,1.06,1.2,3.06.05,3.9,1.8,1.76,3.67,5,4.37,8.67,4.01,0,.2-.01.41-.02.61,0,.13,0,.26.03.39-.03.54-.06,1.08-.1,1.62-.55.17-1.57-.12-1.58.44-.03.91.99.69,1.64.78l.03.04c-.54,1.2-.71,2.64-2.1,3.3-.61-1.9-1.32-2.38-2.9-.62-1.56,1.74-2.24,3.55-2.8,5.86-.54,2.2-.39,3.33,1.28,4.51-4.17.13-5.47,1.24-6.44,5.51-2.2.2-4.47-.27-6.6.65-1.32-.06-2.6.08-2.73,1.73-.14,1.7,1.5,1.37,2.41,1.85.21.11.52.05.79.06,2.44,3.32,6.04,4.29,9.84,4.84,5.72,1.86,12.07,1.3,17.41,4.6.98,1.62,2.79,2.21,4.28,2.04,1.46-.16,3.53-.47,3.86-2.7.59-.12,1.3.05,1.64-.69.46-1.02,1.33-1.81,1.2-3.16-.23-2.45,2.1-3.86,2.7-6,.91,0,1.16.72,1.44,1.37.3.7.29,1.81,1.38,1.64.9-.14,1.5-.96,1.86-1.79.2-.47.11-1.05.2-1.58.28-1.81,1.04-2.85,3.09-2.01.74.3,1.53.46,2.3.68,4.18.23,4,.47,4.57,4.63.29,2.12,0,4.41.98,6.44-.91,2.68-2.83,4.46-5.17,5.88-2.21-.47-4.21.36-5.86,1.54-3.24,2.3-7.2,3.29-10.21,5.94-3.7.01-7.07,1.91-10.83,1.85-1.04-.02-1.67.03-2.07-.96.36-1.32.72-2.62,1.75-3.62,1.28-1.25.54-2.49-.44-3.28-2.75-2.22-6.41-2.12-9.54-3.42-.4-.17-.63.23-.84.53-1.86,2.67-5.02,1.36-7.16,1.45-2.58.11-5.23.26-7.86.45-1.93.13-3.1,1.57-3.21,2.79-.26,2.98-1.81,5.63-1.88,8.61-1.49.5-2.8.93-3.83-1.01-.93-1.75-1.59-4.06-4.15-4.21-3.52-.2-7.04-.26-10.01,2.16-.22-1.35-1.06-2.69.21-4.03.58-.61.28-1.39-.41-1.83-.7-.44-.97-1.01-.87-1.8.52-.73.89-1.71,1.6-2.16,2.54-1.61,3.28-5.85,7.44-5.12.38.07.63-.34.49-.76-.16-.48-.59-.81-1.04-.73-2.26.37-3.95-1.06-5.86-1.77.92-1.3,2.4-1.89,3.64-2.74,4.01-2.76,6.03-6.54,5.39-11.31-.38-2.85,1.08-3.83,3.17-4.3,3.5-.79,5.4-3.8,8.18-5.56.92-.59.79-1.73.54-2.73,2.76-1.55,3.85-4.55,5.76-6.83.66-.78-.32-2.96-.59-2.92-2.11.29-2.79-2.06-4.53-2.22-1.89-.17-3.12-1.28-4.08-2.8.48-1.23,1.54-1.66,2.68-2.02,2.23-.7,2.88-2.02,2.67-4.51-.21-2.47-1.85-3.98-2.66-6Z"/>
    <path class="cls-11" d="m71.86,96.72c-3.35.03-6.69.04-10.04.11-1.34.03-2.19-.67-2.94-1.64-.78-1.01-1.62-1.93-2.77-2.56-2.55-1.4-4.42-1.13-6.49.95-.36.36-.62,1-1.27.76-.64-.23-.58-.9-.53-1.4.38-3.66.73-7.33,1.29-10.96.09-.6.65-1.27-.07-1.54-2-.72-1.67-2.31-1.64-3.81.05-2.23-1.58-3.54-2.74-5.11.32-1.39,1.59-2.33,2.59-2.45,3.24-.37,3.27-2.87,3.91-5.05,2.38.27,4.26-1.35,6.46-1.73,2.41-.42,5.33-3.48,5.61-5.96,2.81-3.12,3.11-7.13,3.82-10.97.28-1.5.63-2.78,2.14-3.48.47-.22,1.29-.37.89-1.43-2.11.22-3.3,1.53-4.1,3.33-.95.1-1.2-1.11-2.1-1.12-.89-3.53-1.65-3.91-5.1-2.56-.33.13-.67.25-1.01.37-.23.13-.47.27-.7.4-.33.2-.67.4-1,.59-3.08.65-5.41,2.65-7.9,4.38-2.55,1.77-3.48,4.18-3.36,7.15-.23,0-.45.02-.68.02-1.81-1.23-3.22-2.91-5.1-4.15-1.64-1.07-3.91-2.99-1.62-5.74.37-.44.13-1.38.17-2.1,4.24-.93,7.71-3.66,11.69-5.26,3.11-1.25,5.36-4.86,8.24-7.19,1.46-1.18,2.87-2.1,4.72-2.31.09,2.31,3.35,5.31,5.81,5.5,2.44.19,4.04-1.12,5.52-2.76.55-.18,1.09-.36,1.64-.54-.19,1.84-1.38,3.48-.13,5.57,1.66,2.77,3.76,4.83,6.64,6.16.97.44,1.4,1.07,1.71,2.18.53,1.92-1.06,3.98.51,5.74-.97,1.21-1.93,2.42-2.9,3.63-1.54,1.25-1,2.97-1.02,4.56-.01.66-.36.93-1,.9-.64-.46-.92-.16-1.09.48-.35,1.36-.72,2.71-1.08,4.06-.18.18-.36.36-.54.54-1.51.1-1,1.3-1.16,2.14-.71.33-.07,2.01-1.15,1.61-2.19-.81-3.22.75-4.55,1.77-.75.58-1.22,1.58-2.38,1.5-.87-.9-1.43-.42-1.83.46-.41.9-.57,2.01-1.2,2.7-2.2,2.43-1.81,5.06-.91,7.79.19.58.23,1.36,1.08,1.32,2.18-.1,3.72,1.44,5.6,2.11,1.04.37,1.9,1.16,1.32,2.53-.19.45-.27.94.16,1.23,2.36,1.62.72,2.96-.38,4.17-1.41,1.56-1.34,2.83.38,3.97.45.3.58.64.58,1.11Z"/>
    <path class="cls-5" d="m71.86,96.72c0-.47-.14-.81-.58-1.11-1.72-1.15-1.78-2.42-.38-3.97,1.09-1.21,2.73-2.55.38-4.17-.43-.29-.35-.79-.16-1.23.58-1.37-.28-2.16-1.32-2.53-1.88-.67-3.42-2.21-5.6-2.11-.86.04-.89-.74-1.08-1.32-.91-2.73-1.29-5.36.91-7.79.63-.69.78-1.8,1.2-2.7.4-.88.96-1.36,1.83-.46-1.94,3.24-3.18,6.69-3.07,10.57.42-.13.96-.48,1.22-.33,2.07,1.17,3.05.44,3.89-1.65.83-2.05,2.59-3.39,4.89-3.61,1.1-.11,2.04-.35,3.06-.84,3.25-1.54,6.48-3.59,10.34-1.79.38.18.86.49,1.22.02.31-.41.2-.92-.15-1.23-1.02-.88-.8-1.91-.83-3.12-.07-2.4.13-4.83-.07-7.18-.23-2.71.27-4.71,2.52-6.17,1.18-.76,1.29-2.05.79-2.84-.66-1.04-1.26-2.99-2.41-2.79-1.62.28-3.01-.5-4.52-.23-1.57-1.77.02-3.82-.51-5.74-.31-1.11-.74-1.73-1.71-2.18-2.88-1.32-4.98-3.38-6.64-6.16-1.25-2.1-.07-3.73.13-5.57.07-.15.12-.3.18-.45,1.9-1.37,3.27-4.92,2.07-5.86-1.33-1.04-2.31-2.55-4.01-3.12,1.29-1.64,2.88-2.67,5.05-2.56,1.24,2.49.99,5.99,4.73,6.78,1.4.3,1.26,1.55,1.29,2.65.01.59-.01,1.82.4,1.63,1.53-.7,3.42,1.46,3.88.37,1.1-2.62,2.39-4.53,5.35-4.93.13-.02.21-.47.3-.73,1.08-2.9,3.21-3.64,6.04-2.91.44.11.86.33,1.28,0,1.1-.87,1.68-1.23,1.55.79-.07,1.05,1.02.65,1.54.1,2.98-3.21,3.57-3.3,7.01-.95-2.47,2.71-2.81,5.85-1.81,9.24-.96.27-1.96-1.81-2.41-.51-.44,1.26-2.27,2.55-.88,4.15.69.8.2,1.47.25,2.21.14,2.05-2.71,3.01-1.76,5.25-1.74,1.25-2.01,3.27-2.62,5.1-1.44,1.55-3.08,2.06-5.14,1.24-.76-.3-2.23.24-2.16.65.44,2.36-1.91,3.28-2.36,5.13-.18.74-.46,1.46.24,1.99,1.41,1.06,1.17,2.72,1.68,4.11.55,1.5-.31,3.36.67,4.47,1.62,1.84,1.46,5.37,5.09,5.51.31.01,1.6,1.19,2.3,2.01.67.78.2,1.34.02,1.99-.22.81-.91.93-1.52.68-1.17-.47-2.27-.47-3.41.04-.67.3-1.87-.28-1.97.91-.09,1.12.91,1.73,1.75,2.24.42.26,1.06.14,1.58.27,1.69.43,3.38.89,4.71,2.13-3.4,3.98-8.14,4.55-12.9,5.05-1.42-.25-2.87-.22-4.31-.39-3.07-.38-3.94.52-4,3.43-.53.8-2.19-.48-2.25,1.23,0,.26.06.54-.54.25-1.45-.71-1.63-.58-1.59.91.06,1.7.36,3.39.55,5.09-2.2,1.46-4.18,3.47-7.18,3.06Z"/>
    <path class="cls-10" d="m58.88,106.01c.34,0,.67.01,1.01.02,1.68,2.94,6.56,5.03,9.9,4.25.92,6.08,1.63,12.2,2.81,18.23,1.74,8.83.66,17.7.75,26.55.02,1.98-.21,3.97-.33,5.96-.74-.01-1.13.53-1.53,1-1.51,1.79-2.8.63-3.24-.67-1.53-4.57-3.92-8.89-3.69-14.03.07-1.62.17-3.61-.76-5.28-.6-1.08-.81-2.05,1.04-1.5.38.11.75.14.91-.25.2-.49-.1-.81-.49-1.11-1.9-1.49-1.71-4.01-2.72-5.96-.58-1.12-.87-1.93-2.09-2.22-1.85-7.4-2.28-15.13-4.9-22.34-.94-2.57-.1-3.03,2.17-2.64.09.33.14.75.58.75.44,0,.49-.42.58-.75Z"/>
    <path class="cls-10" d="m131.38,183.93c-.03-11.8-.06-23.6-.09-35.41.56-.09.99-.29,1.18-.93.57-1.96.95-4.02,1.85-5.82,1.34-2.65.42-5.57,1.39-8.24.52-1.43,2.18-3.03-.15-4.48-.42-.26.02-.84.34-1.14,1.04-.99,1.24-2.33,1.7-3.61.77-2.15,1.18-4.84,4.61-4.43.8.1.75-.99.58-1.53-.67-2.14-.3-4.49-1.46-6.57-.41-.73-.44-1.54-1.52-1.5-.91.03-1.96-.1-2.29,1-.46,1.55-1.33,1.12-2.29.65.92-2.26,2.21-3.5,5.05-3.38,2,.08,4.06-1.21,6.44-2-.37,5.28-.21,10.4-1.3,15.43-2.04,9.36-4.88,18.54-6.07,28.08-.37,2.94-.62,5.96-.61,8.87.04,7.72-1.91,15.28-1.45,23.02.11,1.91.68,2.89,2.56,3.07.09,0,.18,0,.27.03,5.76,1.11,6.57.77,9.55-3.92.58,2.22.45,2.9-1.22,4.01-2.22,1.48-4.69,2.45-7.37,2.56-3.54.14-7.07.19-10.68,1.93.16-1.66,1.17-2.76,1-4.08,2.82-.1,4.66-1.12,4.5-4.39-.04-.8.47-1.67-.61-1.99-1.17-.35-1.62.6-1.94,1.45-.46,1.24-.46,2.73-1.97,3.34Z"/>
    <path class="cls-8" d="m81.63,118.49c1.65,21.77,2.87,43.56,2.26,65.41-1.72.08-3.31-.08-4.94-.93-1.78-.93-3.72-1.72-5.82-1.81.87-4.85,1.06-9.76,1.27-14.66,1.04-.8,1.77-2.03,1.79-3.14.05-4.14,1.26-8.26.43-12.41-.67-3.34-1-6.7-.58-10.08.16-1.27-.6-1.05-1.27-1.16,0-.35,0-.7-.01-1.06.06-.06.19-.13.18-.16-.04-.14-.12-.27-.18-.4,0-.35.01-.71.02-1.06,1.8-1.19,1.81-3.08,1.38-4.75-.38-1.49-.38-2.91-.5-4.39-.27-3.19-.56-6.54-3.35-8.84-.05-.19-.1-.37-.15-.56,3.26-.61.93-3.01,1.45-4.51.9.03,1.81.06,2.71.1,1.65,1.62,2.9,3.73,5.34,4.4Z"/>
    <path class="cls-10" d="m42.65,110.64c2.08,3.89,1.55,8.31,2.41,12.45,2.15,10.4,4.98,20.58,8.25,30.66.36,1.12.85,2.22.63,3.44-2.57.06-3.36,1.09-3.1,3.63.26,2.55,1.26,5.06.51,7.7-.24.84.2.92,1.05.95,2.18.06,1.95-2.19,3.17-2.99-.17,4.99,1.69,9.59,2.78,14.34.08.35.3.68.33,1.03.11,1.38,1.06,3.15-.33,4.03-1.41.89-2.9.11-3.97-1.32-.75-1.01-2-.71-3.06-.65-1.23.07-1.82-.25-1.79-1.64.19-8.46-1.3-16.7-2.83-24.99-1.33-7.23-3.4-14.24-4.95-21.38-1.24-5.7-2.82-11.21-5.23-16.5-.37-.81-.77-1.66-.56-2.62,2.01.84,3.48-.16,4.49-1.67,1.34-1.99-1.5-1.72-1.79-2.9-.12-.49-.62-.6-.91-.9-1.03-1.05-.33-2.48-.48-3.7-.12-.95,1.4-.27,2.04-.26,1.66.02,1.05,1.68,1.31,2.64.15.57-.72,1.46.39,1.78.86.25,1.25-.53,1.64-1.14Z"/>
    <path class="cls-10" d="m55.24,156.15c-2.37-8.07-5-16.07-7.05-24.22-1.71-6.81-2.51-13.85-4.11-20.7-1.58-6.78-1.84-6.22,5.01-5.7,4.28.33,5.26,2.41,6.12,5.77,1.53,5.96,2.34,12.06,3.63,18.07-.99.13-2.77-.52-1.31,1.71.63.96,1.2,2.87.71,3.49-1.95,2.46,1.5,5-.41,7.27,2.37,2.11.72,5.31,2.07,7.69-.93,1.27.27,2.55-.02,3.83-1,1.84-2.23,3.3-4.65,2.79Z"/>
    <path class="cls-8" d="m93.94,166.97c0-2.16-.01-4.31-.02-6.47,1.17.05,1.48-.59,1.48-1.66,0-1.05-.28-1.72-1.46-1.69,0-.52,0-1.04,0-1.56,2.15-.37,3.81-1.02,2-3.6-.04-.06-.01-.17-.01-.26.59-.05,1.02-.28,1.07-.95.05-.76-.28-1.18-1.06-1.24-.29-1.31-.19-2.73-.4-3.93-.3-1.75,1.13-3.23.35-4.79-.83-1.65-.26-2.8,1.04-3.73.74-.53,1.46-1.09.72-1.93-1.33-1.5-1.62-3.55-2.86-5.07.68-.47,1.98.24,2.18-1.13.13-.89-.16-1.5-.99-2.01-2.1-1.28-2.86-6.23-1.32-8.18.14-.18.48-.28.73-.29,3.22-.25,6.21-.97,8.21-3.83.35,15.83.24,31.66-.08,47.49-.06,3.14-1.59,6.06-1.59,9.24-1.08-.41-2.14-.83-2.91-1.76-1.32-1.57-3.06-2.38-5.07-2.64Zm5.9-22.95c-1.46.61-2.66.34-3.13,1.58-.05.12.27.54.41.54,1.1-.03,2.05-.35,2.72-2.12Zm.53,24.23c-.16.15-.27.26-.39.37.17.16.31.41.5.47.24.07.57-.04.44-.39-.07-.19-.36-.3-.55-.45Z"/>
    <path class="cls-10" d="m100.9,177.66c0,2.71-.62,5.37-.5,8.1.11,2.59,1.71,3.4,3.78,3.86,2.04.45,3.91.53,5.09-1.81.93-1.84,1.04-3.82,1.39-5.76,1.65-9.07.81-18.24,1.03-27.36.04-1.54.06-3.08.08-4.61,1.25-.7,1.29-1.42.01-2.14,0-.2,0-.4,0-.6.79-.11,1.58-.28,2.38-.33.85-.05,1.95.23,1.68,1.18-.57,1.97.56,1.83,1.81,1.92,1.6.12,2.82,1.04,3.89,2.17-.63,6.67-1.83,13.25-2.97,19.84-.81,4.71-1.78,9.43-1.98,14.24-.09,2.2.54,3.3,2.96,3.55,2.06.22,4.1.67,6.44.59-.91.78-1.77,1.01-2.7,1.01-5.34.03-10.69-.19-16.01.69-.88.14-1.82.04-2.72-.01-5.12-.3-5.82-1.06-5.83-6.13,0-3.09-.05-6.17-.08-9.26.81.1,1.8-.29,2.22.84Z"/>
    <path class="cls-2" d="m121.55,152.29c-1.07-1.13-2.29-2.05-3.89-2.17-1.26-.09-2.38.05-1.81-1.92.27-.95-.83-1.22-1.68-1.18-.8.04-1.59.21-2.38.33-.05-10.95-.12-21.89-.15-32.84,0-1.52,3.67-6.83,4.87-7.19,1.72-.52,4.88,2.19,4.94,4.42.08,3.16-.03,6.33-.05,9.49-1.61-.28-3.83.78-3.36,1.64,1.33,2.43-.74,4.27-.35,6.41.23,1.26-.17,2.8,2.01,1.93.57-.23,1.29-.01,1.21.62-.41,3.15,1.15,6.32.1,9.38-.66,1.91-.39,2.54,1.6,2.33-.15,2.94-1.27,5.76-1.04,8.74Z"/>
    <path class="cls-7" d="m152.56,132.05c-.43,13.19-1.96,26.28-3.56,39.36-.7-.11-1.96.16-1.99-.4-.13-2.42-4.16-2.17-3.35-5.13.1-.36-.47-.55-.81-.49-1.26.21-1.81-1.12-2.89-1.26.32-9.29.41-18.61,3.36-27.58.14-.42.35-.81.53-1.21,1.64.37,2.49-.61,3.15-1.87,1.65-3.14,3.03-3.5,5.57-1.43Z"/>
    <path class="cls-11" d="m104.08,78.1c-1.33-1.24-3.01-1.7-4.71-2.13-.52-.13-1.16,0-1.58-.27-.84-.51-1.84-1.11-1.75-2.24.1-1.19,1.3-.61,1.97-.91,1.14-.51,2.24-.51,3.41-.04.61.25,1.3.13,1.52-.68.18-.65.65-1.21-.02-1.99-.7-.81-1.99-1.99-2.3-2.01-3.63-.14-3.47-3.67-5.09-5.51-.98-1.11-.12-2.97-.67-4.47-.51-1.39-.27-3.05-1.68-4.11-.7-.53-.42-1.25-.24-1.99.45-1.85,2.8-2.77,2.36-5.13-.08-.41,1.4-.95,2.16-.65,2.07.81,3.7.31,5.14-1.24.03.74.07,1.48.11,2.22-1.4,1.96-1.26,4.19-1.46,6.46-.44,5.03.87,7.16,5.73,8.47,1.99.53,3.95.31,5.93.3,1.36,4.13.79,7.84-2.38,10.98-1.94,1.92-4.21,3.42-6.46,4.94Z"/>
    <path class="cls-7" d="m122.09,99.82c.07-2.98,1.61-5.62,1.88-8.61.11-1.22,1.27-2.66,3.21-2.79,2.63-.18,5.28-.33,7.86-.45,2.15-.09,5.3,1.22,7.16-1.45.21-.3.44-.7.84-.53,3.13,1.3,6.79,1.2,9.54,3.42.98.79,1.72,2.03.44,3.28-1.03,1.01-1.39,2.31-1.75,3.62-3.3-1.49-6.22-.52-8.73,1.67-1.21,1.05-2.39,1.41-3.91,1.44-5.51.09-11.04-.43-16.54.41Z"/>
    <path class="cls-2" d="m85.15,158.3c-.46-9.13-.91-18.26-1.37-27.39,1.41.88,2.87,1.71,1.34,3.69-.21.27-.12,1.18.07,1.27,2.04.96,1.04,2.69.84,3.95-.31,1.97.86,2.92,2.19,3.04,1.92.17,2.35.62.72,2.58,1.65-.59,2.66-.96,3.68-1.33.01,13.62.01,27.24.04,40.86,0,1.98-.43,3.25-2.83,2.48-.67-.21-1.44-.14-2.16-.15-1.72-.03-2.73-.65-2.63-2.6.11-2.26.06-4.53.08-6.8,1.49.25,2.94-.85,4.49-.1.42.21.87-.33.83-.82-.2-2.8-.58-6.05-1.82-8.05-1.67-2.69-1.82-5.34-1.13-7.56.92-2.97-.24-3.05-2.33-3.07Z"/>
    <path class="cls-11" d="m30.98,64.97c2.49.82,4.13,2.91,6.31,4.2,1.8,1.06,3.53,2.22,5.5,2.96,1.54.58,2.6,1.67,3.2,3.16,1.06,2.62.21,3.66-2.53,3.78-1.68.07-3.85-.91-4.96,1.18-1.09,2.06.2,3.81,1.24,5.51-.7.76-.85,1.73-1.02,2.68-.87-.76-1.87-1.41-2.58-2.3-2.45-3.07-5.74-2.25-8.91-2.11-.68.35-1.37.67-2.17.57-.51-1.12,1.66-1.8.46-3.08-.9-.96-1.12-2.2-1.01-3.5.08-.96-.39-1.5-1.27-1.77,0-1.03,0-2.07.01-3.1,3.36-1.99,7.25-3.48,7.73-8.19Z"/>
    <path class="cls-10" d="m36.91,144.45s-.12-.08-.12-.08c1.09-.96.79-2.02.4-3.22-1.04-3.22-1.67-6.62-3.04-9.68-.79-1.77-.18-4.28-2.48-5.35.52-1.92-.83-3.43-1.13-5.17-.59-3.38-.74-6.77-.49-10.19.8-.93.51-2.85,2.49-2.68,1.05,4.75,1.57,9.64,3.8,14.06,2.52,4.98,3.14,10.5,4.59,15.8,1.26,4.61,2.51,9.22,3.48,13.88.97,4.67,1.65,9.4,2.45,14.1-1.12.21-1.81-.54-2.72-1.37v2.88c-1.24.28-1.82-.28-1.96-1.49-.6-5.15-2.68-9.96-3.55-15.05-.03-.67.2-1.43-.56-1.88,0,0,.03.04.03.04.47-1.76.3-3.36-1.19-4.61Z"/>
    <path class="cls-10" d="m92.61,144.13c-1.01.37-2.03.73-3.68,1.33,1.63-1.97,1.21-2.41-.72-2.58-1.33-.12-2.5-1.07-2.19-3.04.2-1.26,1.19-2.99-.84-3.95-.19-.09-.28-1-.07-1.27,1.53-1.99.07-2.82-1.34-3.69-.48-2.41-.93-4.83.05-7.23.67-1.5.06-3.28.51-4.59.72-2.1-.29-1.75-1.47-1.71-.5-3.12-.99-6.25-1.51-9.37-.08-.51-.07-.92.53-.99,3.32-.39,6.67-1.87,9.97.35-1.02,1.36-1.19,2.9-1.28,4.58-.37,6.93.54,13.72,1.75,20.5.69,3.87.32,7.78.29,11.67Z"/>
    <path class="cls-10" d="m162.59,131.66c-.01.49-.03.97-.05,1.46-.4.11-.98.06-.93.66.02.19.51.33.78.5-.88,6.42-1.28,12.96-2.76,19.24-1.43,6.05-1.25,12.36-3.44,18.25-.51,1.38-.27,3.04-.38,4.56-.6.3-.91.8-1.01,1.45-.29,1.92-1.4,2.68-3.29,2.33-.48-7.59.96-15,2.31-22.4,2.06-11.33,4.09-22.66,4.93-34.17.02-.26.17-.51.26-.76.82,1.03.68,2.56,1.97,3.41.68.45.27,1.33-.14,1.95-1.5,2.22.28,2.79,1.74,3.53Z"/>
    <path class="cls-10" d="m76.55,193.22c-.89-.03-1.92.21-2.65-.15-4.83-2.37-10.03-3.14-15.25-3.93-.93-.14-1.77-.86-2.65-1.31.08-.15.13-.31.16-.48.69.02,1.38.05,2.08.07.69,1.09,2.03,1.2,2.4.36.38-.86,2.03-2.37-.15-3.32-1.16-4.6-2.31-9.2-3.48-13.8-.32-1.24-.39-2.48-.1-3.73,1.19.57,1.36,1.83,1.21,2.76-.2,1.28.44,1.78,1.3,1.95,2.8.56,2.38,2.69,2.39,4.61,0,.71-.19,1.42-.26,2.13-.2,1.86.78,1.64,1.95,1.1.15,2.95.12,5.87,2.27,8.36,2.63,3.04,4.15,2.91,5.73-.82.14-.33.33-.64.49-.96,1.03.03,1.87-.25,2.59-1.09,1.8-2.1,2.72-2.07,4.65.03.46.5.9,1.55,1.61.79,1.04-1.1,2.03,0,2.99-.27-.08,1.67.98,2.31,2.38,2.76,6.06,1.92,7.58.87,7.59-5.29,0-1.52.07-3.05.11-4.57.43,0,.87,0,1.3,0-.43,3.38-.9,6.75-.91,10.18,0,1.64.04,3.55-2.22,4.07-1.44-.05-2.96.18-4.3-.19-3.16-.88-6.35.65-9.49-.34-.71-.22-1.29.51-1.75,1.09Z"/>
    <path class="cls-10" d="m129.83,170.22c.59,4.71.29,9.42.14,14.14-1.67-.12-3.1.66-4.61,1.15-.75.24-1.85.05-1.4,1.32.3.85.94,1.56,2.09,1.11.87-.34,1.77-.23,2.67-.12.15,1.09-.54,1.55-1.42,1.53-2.24-.05-4.45.16-6.72-.32-2.57-.54-3.18-1.87-2.8-4.14.98-5.95,1.75-11.95,3.02-17.84.51-2.38.46-4.85,1.29-7.16,2.24.02,3.38.71,2.81,3.35-.67,3.07.71,6.69-2.61,9-.16.11-.12.51-.17.78-.04.07-.08.14-.13.21.04-.07.08-.14.12-.22,1.61-.52,2.06.94,2.95,1.69.5.42,1,1.23,1.84.72.7-.43,1.16-.94.91-1.98-.39-1.62.46-2.69,2.02-3.21Z"/>
    <path class="cls-2" d="m110.4,166.52c0,1.78.01,3.57.02,5.35-.19.11-.37.22-.56.33.19.1.38.2.58.3,0,.34,0,.68,0,1.02-1.28.6-1.1,1.38-.28,2.24-.23,1.25-.46,2.5-.68,3.76-2.01,2.68-4.56,4.68-7.61,6.05-.36-5.99.88-11.86,1.83-17.69.88-5.37,1.01-10.74,1.41-16.12,2.12.11,3.96-.14,3.94-2.94,0-.83.71-.88,1.34-.94.31,2.36.17,4.72,0,7.08-1.15.57-1.13,1.15-.03,1.75,0,.33,0,.65.01.98-.67.17-1.03.68-1,1.28.02.51.63.39,1.02.47,0,1.05.01,2.11.02,3.16-1.32,1.3-1.33,2.61-.01,3.92Z"/>
    <path class="cls-5" d="m37.58,41.04c-.04.71.19,1.66-.17,2.1-2.29,2.75-.02,4.67,1.62,5.74,1.88,1.23,3.29,2.92,5.1,4.15-.18,1.27.43,2.65-.5,3.83-3.55.4-2.63,2.73-2.3,4.99.19,1.28.34,2.45,1.79,2.52,1.6.07,2.06-1.14,2.13-2.54.64,0,1.29,0,1.93,0-.84,1.29-1.7,2.57-2.5,3.89-.27.44-.59,1.08,0,1.46.61.38,1.09-.11,1.25-.63.74-2.38,2.66-3.02,4.81-3.35.14.28.28.57.41.85-.64,2.18-.67,4.67-3.91,5.05-.99.11-2.26,1.06-2.59,2.45-1.35-.34-2.65-.79-3.72-1.73-1.24-1.53.9-3.08-.12-4.72-1.1-1.78-1.93-3.67-1.93-5.92,0-1.13-.16-2.67-1.61-3.17-1.23-.43-1.54-1.02-.97-2.2.31-.64.05-1.31-.62-1.57-.79-.31-1.07.37-1.4.91-.32.53-.68,1.04-1.03,1.55-.6-1.39.36-2.99-.62-4.33,1.34-.36,1.11-.94.19-1.56-2.2-1.49-4.43-1.67-6.68-.1.32-1.39.67-2.77.53-4.22,2.15-.18,4.08-.7,5.82-2.2,1.35-1.17,3.29-1.22,5.09-1.23Z"/>
    <path class="cls-8" d="m130.06,144.75c-.05.49-.11.98-.16,1.47-1.19.26-2.34.63-2.05,2.19.14.73.05,1.23-.62,1.53-.81.35-1.39-.11-1.85-.68-.56-.68-.99-1.52-2.09-1.36.75-9.07.93-18.21,3.46-27.05.49-1.71-.03-3.66,1.27-5.17,1.68-.55,3.14-1.82,5.06-1.61-.44,4.58-1.53,9.05-2.11,13.62-.64,5.08-.89,10.14-.91,15.23-1.16.61-1.18,1.23,0,1.84Z"/>
    <path class="cls-10" d="m152.56,132.05c-2.54-2.07-3.92-1.71-5.57,1.43-.66,1.26-1.51,2.24-3.15,1.87.21-4.02,1.41-7.85,2.38-11.69,1.31-5.17,1.57-10.37,1.55-15.63-.01-3.25,5.11-6.63,8.02-5.2,1.33.65-.1,1.7.05,2.57-1.77,1.58-3.1,3.66-5.44,4.59-.6.24-.52,1.19.09,1.2,1.48.03,1.79,1.84,3.18,1.83-.45,1.75-.65,3.52-.55,5.32.26,4.59-.4,9.15-.56,13.72Z"/>
    <path class="cls-8" d="m110.41,147.88c-.63.05-1.35.1-1.34.94.02,2.8-1.82,3.05-3.94,2.94-.22-10.34-.53-20.68-.16-31.02,1.02-.17.6,1.73,1.67,1.26.87-.39,1.11-1.38,1.24-2.28.09-.62.02-1.26.1-1.89.18-1.46.88-2.34,2.51-2.05,0,9.43-.02,18.85-.03,28.28-.2.11-.39.21-.59.32.19.12.38.23.56.35-.01,1.05-.02,2.11-.03,3.16Z"/>
    <path class="cls-2" d="m123.29,147.9c1.1-.16,1.53.68,2.09,1.36.46.56,1.04,1.03,1.85.68.68-.3.76-.8.62-1.53-.29-1.56.86-1.93,2.05-2.19.46,1.98.15,3.98.14,5.97-.98.42-.99.85,0,1.29-.08,5.58.26,11.17-.21,16.75-1.56.51-2.4,1.58-2.02,3.21.25,1.04-.21,1.56-.91,1.98-.84.51-1.34-.3-1.84-.72-.89-.75-1.34-2.21-2.95-1.69h0c.05-.26,0-.66.17-.77,3.33-2.31,1.95-5.93,2.61-9,.57-2.63-.57-3.32-2.81-3.35.4-4,.8-7.99,1.2-11.99Z"/>
    <path class="cls-6" d="m122.1,55.74c-.91.72-1.76,1.54-2.74,2.14-2.92,1.79-3.78,1.5-5.57-1.4-1.71-2.77-4.06-5.04-6.33-7.32-.97-.98-1.84-1.87-2.3-3.15,2-.16,4.56.46,4.19-3,1.96.26,3.54-1.92,5.69-.82.85.44,1.95.4,2.2,1.62-.36.87-1.16,2.46.08,2.43,2.44-.06,2.94,1.77,4.11,3.02.11.53.23,1.05.34,1.58.11,1.63.22,3.27.34,4.9Z"/>
    <path class="cls-10" d="m139.96,164.14c1.08.14,1.63,1.47,2.89,1.26.34-.06.91.13.81.49-.82,2.95,3.21,2.71,3.35,5.13.03.56,1.29.28,1.99.4-.06,2.35-.07,4.71-.21,7.06-.31,5.27-4.96,7.66-9.53,4.99-.84-.49-.72-1.15-.78-1.84-.55-5.92.88-11.66,1.48-17.48Z"/>
    <path class="cls-2" d="m135.23,111.93c.95.47,1.83.9,2.29-.65.33-1.1,1.37-.98,2.29-1,1.08-.03,1.12.78,1.52,1.5,1.16,2.07.79,4.42,1.46,6.57.17.54.23,1.63-.58,1.53-3.43-.42-3.84,2.27-4.61,4.43-.46,1.28-.66,2.62-1.7,3.61-.32.31-.76.88-.34,1.14,2.33,1.45.67,3.05.15,4.48-.97,2.67-.05,5.59-1.39,8.24-.91,1.8-1.29,3.86-1.85,5.82-.19.64-.61.84-1.18.93,0-3.82,0-7.65,0-11.47.32-.14.86-.23.91-.44.58-2.14,1.27-4.24,1.21-6.53-.05-1.68-.4-3.55,1.56-4.75,1.31-.8,1.15-2.54.57-3.43-.9-1.36-.72-2.95-1.49-4.26.36-1.91.1-3.95,1.17-5.71Z"/>
    <path class="cls-12" d="m25.05,84.61c.8.1,1.49-.22,2.17-.57.07.26.17.74.2.73,2.52-.34,4.16,1.65,6.24,2.29,2.88.9,2.47,2.66,1.98,4.59-.34,1.31-.79,2.55-.24,3.89-1.14.81-.9,2.57-2.24,3.25-1.25-.23-2.53-1.07-3.51.66-.38.67-1.39.5-1.92-.05-2-2.04-4.53-1.86-7.04-1.77-1.01.04-1.84-.05-1.69-1.38-.11-2.07-1-4.58-.14-6.1,1-1.77,1.3-3.55,1.84-5.35.36-.24.72-.48,1.08-.72,1.08.23,2.11.82,3.28.52Zm-2.18,10.98c2.11-.46,4.76-.21,6.79-1.88,1.03-.85,2.16-1.88,1.47-3.65-.61-1.57-1.4-2.49-3.21-1.97-.31.09-.72.11-1-.02-3.04-1.37-5.34-.45-6.47,2.61-1.11,2.99-.3,4.88,2.43,4.91Z"/>
    <path class="cls-11" d="m33.16,98.8c1.33-.68,1.1-2.44,2.24-3.25,1.34.24,1.95-.8,2.62-1.6,1.02-1.22,1.89-2.56,2.82-3.86,1.04-1.14,3.14-1.2,3.28-3.24,1.09-.35,1.96-2.11,2.93-1.41,1.02.73.19,2.32-.03,3.54-.69,3.89-.43,7.45,2.9,10.29,1.13.96-1.27.78-.93,1.73,0,0,.01-.01.01-.01-.8-.01-1.85.3-2.37-.09-2.52-1.86-5.34-.9-7.51-.09-2.99,1.11-4.3-.45-5.97-2.02Z"/>
    <path class="cls-2" d="m95.93,151.74c0,.09-.03.2.01.26,1.81,2.58.16,3.22-2,3.6-.05-4.98-.12-9.97-.13-14.95-.02-5.41-.45-10.74-1.62-16.06-.79-3.62-.3-7.41-.22-11.12,1.61,1.48,3.75,1.66,5.7,2.27,1.15.36,2.13-.2,2.51-1.41.54-1.72,1.74-2.08,3.33-1.79.03.71.05,1.42.08,2.12-2,2.86-4.99,3.58-8.21,3.83-.25.02-.59.11-.73.29-1.54,1.95-.77,6.9,1.32,8.18.84.51,1.12,1.12.99,2.01-.2,1.38-1.5.66-2.18,1.13,1.24,1.52,1.53,3.57,2.86,5.07.74.84.02,1.4-.72,1.93-1.31.93-1.88,2.08-1.04,3.73.78,1.56-.65,3.04-.35,4.79.21,1.21.11,2.62.4,3.93l-.02.02c-.53.04-1.2.1-1.25.7-.08.8.67,1.13,1.27,1.47h0Z"/>
    <path class="cls-8" d="m63.49,179.49c-1.16.54-2.15.75-1.95-1.1.08-.71.27-1.42.26-2.13,0-1.92.42-4.05-2.39-4.61-.86-.17-1.5-.67-1.3-1.95.14-.93-.02-2.19-1.21-2.76-.2-1.8-.41-3.6-.61-5.4,2.07-.08,4.45-1.29,4.77-2.61.38-1.53.75-4.06-1.17-5.57.29-1.27-.91-2.56.02-3.83.53.01,1.07.03,1.6.04,3.26,9.8,1.84,19.91,1.98,29.92Z"/>
    <path class="cls-8" d="m64.84,177.92c-.11-6.41-.22-12.82-.32-19.23,1.11.15,1.52.84,1.41,1.89-.14,1.38.37,2.63.67,3.94.46,2.04,1.09,3.54,3.68,1.54-.06.86,0,1.31-.13,1.71-.23.69-.59,1.36.03,2,.84.88,1.18-.3,1.78-.45.34-.08.71-.08,1.06-.12-.02,4.25.11,8.52-1.7,12.53-1.07.14-1.84-.17-2.54-1.11-.97-1.31-2.3-2.27-3.94-2.69Z"/>
    <path class="cls-2" d="m73.02,169.19c-.36.04-.72.04-1.06.12-.6.14-.94,1.33-1.78.45-.62-.64-.26-1.31-.03-2,.13-.39.08-.85.13-1.71-2.59,2-3.22.5-3.68-1.54-.29-1.31-.81-2.56-.67-3.94.11-1.05-.3-1.74-1.41-1.89-.64-6.44-2.57-12.66-3.29-19.1-.32-2.86-.8-5.7-.77-8.6,1.22.29,1.51,1.1,2.09,2.22,1.01,1.95.82,4.47,2.72,5.96.39.31.7.63.49,1.11-.16.39-.53.37-.91.25-1.84-.55-1.64.42-1.04,1.5.93,1.67.83,3.66.76,5.28-.23,5.14,2.17,9.45,3.69,14.03.43,1.3,1.72,2.46,3.24.67.4-.47.79-1.02,1.53-1,0,2.73,0,5.45,0,8.18Z"/>
    <path class="cls-11" d="m33.25,54.68c.34-.52.7-1.02,1.03-1.55.33-.54.62-1.22,1.4-.91.68.26.93.94.62,1.57-.57,1.18-.26,1.77.97,2.2,1.45.51,1.61,2.05,1.61,3.17,0,2.24.84,4.14,1.93,5.92,1.01,1.64-1.12,3.19.12,4.72-3.66-1.76-6.53-4.67-9.94-6.79.21-.95,1.12-1.91,0-2.86.03-.37.06-.74.09-1.11.72-.05,1.04-.42.92-1.15.42-1.07.84-2.14,1.26-3.21Z"/>
    <path class="cls-2" d="m123.13,37.15c.96,1.52,2.18,2.62,4.08,2.8,1.74.16,2.42,2.51,4.53,2.22.27-.04,1.25,2.14.59,2.92-1.91,2.28-2.99,5.28-5.76,6.83-.01-.72-.03-1.44-.04-2.17.82-1.02,1.07-2.23,1.12-3.5.05-1.27-.59-1.58-1.71-1.22-1.44-1.41-2.88-2.81-4.32-4.22.14-.91.79-2.07-1.02-1.98-.8.04-1.29-.37-1.76-1.01-1.03-1.43-2.53-2.15-4.25-2.42-1.49-1.98-2.94-3.98-3.91-6.28.54,0,1.08.01,1.61.02,2.24,4.53,6.29,6.61,10.83,8.01Z"/>
    <path class="cls-6" d="m85.77,90.52c.49-.51,1.03-.99,1.48-1.55,2.66-3.31,5.61-3.5,8.73-.61.91.84,1.26,1.9.91,2.92-1.06,3.1-2.4,6.05-6.16,6.7.25-1.11-.66-1.59-1.24-2.22-1.47-1.59-2.81-3.26-3.71-5.25Z"/>
    <path class="cls-6" d="m95.93,105.33c-2.61.3-5.12-.33-7.63-.88-.02-1.19-1.52-1.54-1.53-2.74.99-.13,1.99-.24,1.4-1.68.99-.01,1.99-.06,2.98-.04,4.32.08,8.16-3.32,8.62-7.56.24-2.17-1.61-3.35-2.16-5.13.94.13,1.89.26,2.83.38.21.21.42.43.62.64,1.11,6.12.03,11.5-5.34,15.33-1.16.83.56,1.07.2,1.67Z"/>
    <path class="cls-9" d="m30.98,64.97c-.48,4.71-4.37,6.19-7.73,8.19-.75.08-.97.74-1.34,1.24-.72.96-1.94,1.54-2.83,1.22-1.22-.43-.44-1.9-.6-2.9-.17-1.1,1.11-1.64,1.12-2.7.34-.24.67-.48,1.01-.72,2.01-.31,2.82-1.76,3.15-3.51.26-1.39.28-2.84.41-4.26l.16.17s-.13.19-.13.2c1.67,1.51.37,3.58,1,5.29q.91-1.85.94-4.8c1.93.27,3.49,1.25,4.85,2.59Z"/>
    <path class="cls-5" d="m101.07,88.33c-.21-.21-.42-.43-.62-.64-.59-2.13-1.65-3.32-3.96-1.93-.98-.43-1.96-.86-2.95-1.29l-.23-.72c5.15.43,8.86-2.12,12.33-5.19,1.91.71,3.6,2.14,5.86,1.77.45-.07.88.26,1.04.73.14.42-.11.83-.49.76-4.15-.73-4.89,3.51-7.44,5.12-.71.45-1.07,1.43-1.6,2.16-.65-.26-1.3-.52-1.95-.78Z"/>
    <path class="cls-10" d="m103.52,112.53c-1.59-.3-2.79.07-3.33,1.79-.38,1.21-1.36,1.77-2.51,1.41-1.95-.6-4.09-.79-5.7-2.27,0-.99-.06-1.98.02-2.95.22-2.86,2.07-4.05,4.61-2.81,1.8.88,3.55,1.49,5.61,1.55,2.42.07,1.1,2.08,1.31,3.29Z"/>
    <path class="cls-9" d="m33.25,54.68c-.42,1.07-.84,2.14-1.26,3.21-.65.1-.98.47-.92,1.15-.03.37-.06.74-.09,1.11-.83.72-.4,1.7-.52,2.56-2.18-.67-4.2-1.67-6.08-2.98.57-1.6,1.14-3.2,1.7-4.81,1.35-3.9,2.35-4.59,6.54-4.56.98,1.33.02,2.94.62,4.33Z"/>
    <path class="cls-8" d="m85.15,158.3c2.09.02,3.25.1,2.33,3.07-.69,2.22-.54,4.87,1.13,7.56,1.24,2,1.62,5.26,1.82,8.05.04.49-.41,1.02-.83.82-1.55-.75-2.99.36-4.49.1.01-6.53.02-13.06.04-19.6Z"/>
    <path class="cls-2" d="m42.65,110.64c-.39.61-.78,1.39-1.64,1.14-1.11-.32-.23-1.2-.39-1.78-.26-.96.35-2.62-1.31-2.64-.64,0-2.16-.69-2.04.26.15,1.22-.55,2.65.48,3.7.29.3.79.42.91.9.3,1.17,3.14.9,1.79,2.9-1.02,1.51-2.48,2.51-4.49,1.67-.58-.78-.64-1.71-.77-2.61,1.86-2.74,1.72-3.37-.98-4.4-.31-1.3-.67-2.6-.89-3.92-.14-.84,3.16-2.51,4.34-2.32,2.6.41,4.63,1.23,4.28,4.52-.09.83.45,1.72.71,2.59Z"/>
    <path class="cls-10" d="m153.77,134.8c.26-6.73.52-13.46.78-20.19,3.05-.44,3.44-.03,2.64,3.08-.26,1.03.16,1.48.93,1.88-.66,5.34-1.33,10.68-1.99,16.01-.71-.51-1.47-.82-2.36-.79Z"/>
    <path class="cls-11" d="m101.04,104.22c1.23-2.04,2.06-3.65,3.1-5.11,2.05-2.86,7.4-4.35,10.55-2.9,1.55.72,2.06,2.47,2.94,3.8.41.61-.26.92-.84,1.01-1.86.3-3.73.88-5.49-.45-1.18-.89-2.61-.59-3.96-.59-.83,0-1.53.4-1.47,1.26.28,3.62-2.27,2.82-4.84,2.98Z"/>
    <path class="cls-2" d="m162.59,131.66c-1.46-.74-3.24-1.31-1.74-3.53.41-.61.82-1.5.14-1.95-1.29-.85-1.16-2.38-1.97-3.41.01-3.97,1.68-7.59,2.35-11.42.98-.02,1.96-.04,2.94-.06.02,6.84-1.46,13.55-1.72,20.37Z"/>
    <path class="cls-8" d="m122.59,143.55c-1.98.2-2.26-.43-1.6-2.33,1.06-3.06-.5-6.23-.1-9.38.08-.63-.64-.85-1.21-.62-2.18.87-1.78-.68-2.01-1.93-.39-2.14,1.68-3.97.35-6.41-.47-.86,1.75-1.92,3.36-1.64.07,1.62.1,3.24.21,4.85.09,1.31-.56,3.01,1.72,3.25.71.08.38.85.34,1.35-.35,4.29-.71,8.58-1.07,12.87Z"/>
    <path class="cls-7" d="m122.65,101.1c5.41-1.22,10.88-.45,16.33-.53.01.12.01.24,0,.37-2.62.54-4.19,2.75-6.35,4.03-2.12,1.26-6.52,1.27-8.38-.05.73-.5.47-.99.02-1.51-.61-.71-1.51-1.23-1.62-2.3Z"/>
    <path class="cls-11" d="m82.31,102.67c-6.82-2.7-14-1.16-20.99-1.8-.38-2.68,1.03-3.1,3.29-3,3.35.14,6.71-.05,10.07-.1.19.97.38,1.96,1.69.99,1.17-.87,2.02-.45,2.68.66.41.69.98,1,1.76,1.08,1.33.13,1.5,1.1,1.5,2.17Z"/>
    <path class="cls-10" d="m110.49,115.78c-1.63-.29-2.33.59-2.51,2.05-.08.62,0,1.27-.1,1.89-.13.9-.37,1.89-1.24,2.28-1.07.47-.64-1.43-1.67-1.26-.25-3.68-.32-7.35.18-11.02,2.82-.28,5.73.26,8.42-1.05-1.73,2.06-3.45,4.13-3.07,7.11Z"/>
    <path class="cls-9" d="m110.68,29.12c.96,2.31,2.41,4.31,3.91,6.28-.35.04-.76.23-1.04.11-2.49-1.02-3.04.23-2.89,2.38.04.62,0,1.25,0,1.88-1.81.29-3.6-.62-5.42-.13-.95-2.24,1.9-3.2,1.76-5.25-.05-.75.44-1.42-.25-2.21-1.39-1.6.44-2.89.88-4.15.45-1.3,1.46.78,2.41.51.21.19.43.39.64.58Z"/>
    <path class="cls-2" d="m158.12,119.57c-.77-.39-1.19-.85-.93-1.88.8-3.12.41-3.53-2.64-3.08.85-3.13,1.66-6.27,2.56-9.38.32-1.13.71-2.27,2.35-2.04,1.79.25,1.43,1.54,1.41,2.67-.09,4.74-1.5,9.21-2.75,13.71Z"/>
    <path class="cls-2" d="m95.22,178.42c-.43,0-.87,0-1.3,0-.18-3.82-.27-7.64.02-11.46,2.01.26,3.75,1.07,5.07,2.64.78.93,1.84,1.35,2.91,1.76.26,2.19-.24,4.26-1.03,6.28-.42-1.13-1.42-.74-2.23-.84-.2-1.61-.41-3.23-.59-4.84-.07-.62.06-1.47-.72-1.57-.87-.11-.79.75-.9,1.36-.4,2.22-.82,4.44-1.24,6.66Z"/>
    <path class="cls-5" d="m191.31,80.27c-2.38,3.92-4.42,8.07-7.7,11.37-2.01.74-4.11,1.01-6.21,1.32-.72.11-.93-.16-1.21-.6,3.65-1.46,6.19-4.33,8.69-7.16,1.8-2.02,3.24-4.36,4.84-6.56.73.34.4,1.72,1.59,1.62Z"/>
    <path class="cls-7" d="m112.92,62.18c-1.98.01-3.94.24-5.93-.3-4.86-1.3-6.17-3.44-5.73-8.47.2-2.28.06-4.51,1.46-6.46.26.59.52,1.19.78,1.78-1.74,2.83.02,7.72,3.32,9.2.19.17.38.34.57.51.45,1.66,1.38,2.62,3.24,2.2,1.14-.05,2.33-.18,2.28,1.53Z"/>
    <path class="cls-11" d="m32.63,50.36c-4.2-.03-5.19.67-6.54,4.56-.56,1.61-1.13,3.21-1.7,4.81-2.63-.89-1.45-3.33-2.06-5.04.92-1.31,1.73-2.66,1.62-4.35.73-.55,1.46-1.1,2.19-1.64,2.25-1.56,4.48-1.39,6.68.1.92.62,1.15,1.2-.19,1.56Z"/>
    <path class="cls-10" d="m101.07,88.33c.65.26,1.3.52,1.95.78-.09.79.18,1.36.87,1.8.69.44.99,1.22.41,1.83-1.27,1.34-.43,2.68-.21,4.03-1.16,2.02-2.27,4.06-3.49,6.04-1.05,1.7-2.52,2.79-4.67,2.52.35-.6-1.36-.84-.2-1.67,5.37-3.84,6.46-9.21,5.34-15.33Z"/>
    <path class="cls-2" d="m74.76,139.71c.67.1,1.43-.11,1.27,1.16-.42,3.38-.09,6.74.58,10.08.83,4.15-.37,8.27-.43,12.41-.01,1.11-.74,2.35-1.79,3.14.12-8.93.24-17.86.36-26.79Z"/>
    <path class="cls-11" d="m40.81,34.64c.53-.05,1.09-.2,1.6-.13,3.79.57,6.42-.57,8.26-4.25,1.55-3.11,5.01-3.82,8.2-4.52-2.77,3.35-6.21,6.25-9.6,8.61-3.3,2.3-7.37,4.3-11.62,5.19,1.06-1.63,2.11-3.27,3.16-4.9Z"/>
    <path class="cls-2" d="m64.84,177.92c1.64.42,2.97,1.39,3.94,2.69.7.94,1.47,1.25,2.54,1.11.05,1.83-.43,3.57-1.04,5.25-.86,2.34-1.64,2.33-3.34.4-2.45-2.8-2.43-6.07-2.09-9.45Z"/>
    <path class="cls-2" d="m44.14,167.43v-2.88c.91.83,1.6,1.58,2.72,1.37,1.96,3.81,1.02,7.99,1.51,11.99.21,1.69.03,3.42.03,5.52-2.41-1.68-2.4-4.09-2.66-6.29-.27-2.33.07-4.7-.43-7.03-.21-1-.45-1.93-1.18-2.68Z"/>
    <path class="cls-2" d="m55.56,166.48c-1.22.8-.99,3.06-3.17,2.99-.85-.03-1.29-.11-1.05-.95.76-2.64-.24-5.14-.51-7.7-.26-2.54.53-3.56,3.1-3.63-.62,2.45,1.68,4.25,1.45,6.66-.08.82.34,1.72.18,2.61Z"/>
    <path class="cls-10" d="m94.2,193.13c2.11-3.37.92-7.27,1.69-10.86.43-1.99.58-4.05.86-6.07h.86c0,2.35,0,4.68,0,7.01,0,1,0,1.99,0,2.99q0,5.85,5.74,7.02c.46.09,1.26-.12,1.11.73-.09.5-.69.46-1.14.36-2.96-.98-6.08-.72-9.11-1.17Z"/>
    <path class="cls-10" d="m133.08,114.06c-1.92-.21-3.38,1.06-5.06,1.61.73-1.99.7-4.06.62-6.12-.08-2.37,1.29-2.7,3.15-2.3.69.15,1.31.67,2,.76,1.89.24,1.99.93.97,2.41-.75,1.09-1.14,2.42-1.69,3.64Z"/>
    <path class="cls-7" d="m153.77,134.8c.88-.04,1.65.28,2.36.79-.75,8.69-2.92,17.13-4.55,25.68,1.05-8.81,1.5-17.65,2.19-26.47Z"/>
    <path class="cls-7" d="m69.78,110.28c-3.34.78-8.22-1.31-9.9-4.25,4.23.89,8.39.84,12.26-1.34,1-.56,1.69.37,2.54.13h-.01c-.05.9-.04,1.9-1.4,1.65-3.2-.58-3.64,1.33-3.49,3.8Z"/>
    <path class="cls-11" d="m24.16,61.53c-.13,1.42-.15,2.86-.41,4.26-.33,1.75-1.14,3.2-3.15,3.51.03-.9.41-2,.03-2.66-1.08-1.83.05-4.93-3.1-5.57-.02-.14-.01-.29.03-.42,1.78-.57,2.3-2.61,3.92-3.37-.07,2.03,1.39,3.09,2.68,4.25Z"/>
    <path class="cls-1" d="m110.66,39.77c0-.63.04-1.25,0-1.88-.15-2.15.4-3.4,2.89-2.38.28.12.69-.06,1.04-.11,1.72.27,3.22.99,4.25,2.42.47.65.96,1.05,1.76,1.01,1.81-.09,1.16,1.07,1.02,1.98-2.13-.85-4.3-1.41-6.61-.8-.54-.02-1.09-.04-1.63-.07-.29-.5-.64-.66-1.11-.21-.54.01-1.07.03-1.61.04Z"/>
    <path class="cls-8" d="m21.48,57.28c-1.62.76-2.14,2.8-3.92,3.37-.4-1.84-1.82-3.38-1.55-5.4.91-1.13,1.84-2.23,2.72-3.38.34-.45.9-1.08-.26-1.28,0,0,.07-.19.07-.19.85.42,1.49-.59,2.4-.29.18,2.36.37,4.77.55,7.19Z"/>
    <path class="cls-10" d="m101.88,185.57c3.05-1.38,5.59-3.38,7.61-6.05.37,2.2-.28,4.33-.71,6.42-.36,1.75-1.51,3.23-3.69,2.68-1.56-.4-3.69-.41-3.21-3.04Z"/>
    <path class="cls-9" d="m85.77,90.52c.91,1.98,2.25,3.65,3.71,5.25.58.63,1.49,1.11,1.24,2.22-1.68.28-3.3.46-4.89-.55-1.04-.67-2.48-.89-2.3-2.55.19-1.72-.13-3.74,2.23-4.36Z"/>
    <path class="cls-7" d="m20.7,84.81c-.54,1.8-.84,3.58-1.84,5.35-.86,1.52.03,4.03.14,6.1-.14-.03-.29-.08-.43-.13-1.56-1.41-1.61-4.05-3.93-4.85.18-3.42,3.19-6.64,6.06-6.47Z"/>
    <path class="cls-2" d="m31.68,126.12c2.3,1.07,1.69,3.57,2.48,5.35,1.37,3.07,2,6.46,3.04,9.68.38,1.2.69,2.26-.4,3.22-3.13-4.23-3.74-9.28-4.61-14.24-.23-1.33-.34-2.68-.5-4.01Z"/>
    <path class="cls-8" d="m134.06,117.64c.77,1.31.59,2.9,1.49,4.26.58.89.74,2.63-.57,3.43-1.96,1.2-1.61,3.08-1.56,4.75.06,2.3-.63,4.39-1.21,6.53-.06.22-.6.3-.91.44-.13-5.73,1.21-11.31,1.68-16.98.08-.94.55-1.7,1.09-2.44Z"/>
    <path class="cls-5" d="m164.16,95.42c3.01-2.64,6.98-3.63,10.21-5.94,1.65-1.17,3.65-2.01,5.86-1.54-1.47,1.35-2.94,2.7-4.41,4.05-2.32.96-4.71,1.76-6.92,2.92-1.61.85-3.3-.76-4.75.49Z"/>
    <path class="cls-10" d="m76.3,114.1c-.9-.03-1.81-.06-2.71-.1-.78-1.24-1.35.78-2.09.14-.07-.94-.14-1.89-.21-2.83q5.66.13,7.28-4.04c1.41-.12,1.51.83,1.66,1.89.21,1.49.58,2.95.88,4.42-1.03.27-2.08.6-3-.24-1.19-1.1-1.41,0-1.8.75Z"/>
    <path class="cls-9" d="m40.81,34.64c-1.05,1.63-2.11,3.27-3.16,4.9-3.46.23-6.2,2.31-9.25,3.59,2.95-4.28,6.64-7.51,11.89-8.61.17.05.35.09.52.12Z"/>
    <path class="cls-2" d="m82.31,102.67c0-1.07-.17-2.05-1.5-2.17-.79-.08-1.36-.39-1.76-1.08-.65-1.11-1.5-1.53-2.68-.66-1.31.96-1.5-.03-1.69-.99,1.32-.95,2.68-1.82,4.23-2.36.47,2.75,3.74,3.08,4.72,5.41.06.15.72.2,1,.07,1.02-.43,1.45.5,2.15.82,0,1.19,1.51,1.55,1.53,2.74-2.15-.06-4.17-.57-5.99-1.78Z"/>
    <path class="cls-7" d="m75.37,28.03c-.05.15-.11.3-.18.45-.55.18-1.09.36-1.64.54,0-.17-.02-.34-.03-.5.15-3.89-2.09-6.4-4.73-5.19-1.78.82-3.67,1.53-5.02,3.07l-1.35-.18c.59-.62,1.19-1.24,1.78-1.86,0,0,.05.03.05.03.44-.36.78-.76.55-1.39,0,0,0,0,0,0,.64.23,1.04-.13,1.39-.58l-.05.02c.29.02.58.04.87.06.55-.37,1.09-.75,1.64-1.12,1.23-.07,1.88-1.53,3.21-1.34.03.09.03.19.08.26,1.64,2.36,4.37,4.23,3.41,7.73Z"/>
    <path class="cls-2" d="m61.51,149.57c-.53-.01-1.07-.02-1.6-.04-1.34-2.39.3-5.58-2.07-7.69,1.91-2.27-1.53-4.81.41-7.27.49-.62-.08-2.53-.71-3.49-1.46-2.23.32-1.58,1.31-1.71.8,6.75,1.3,13.53,2.66,20.21Z"/>
    <path class="cls-10" d="m59.03,102.19h15.07c-4.83,3.37-12.32,3.52-15.07,0Z"/>
    <path class="cls-10" d="m161.66,102.73c-.82-.78-2.89-.19-2.75-1.53.15-1.38,1.28-2.65,3.06-3,1.11-.22,2.06-1.09,3.16-1.48,1.62-.58,2.28-.14,1.81,1.75-.28,1.13-.41,2.29-.94,3.35-1.02-1.53-2.03-1.95-3.13-.04-.24.41-.79.64-1.2.95Z"/>
    <path class="cls-9" d="m76.55,193.22c.46-.58,1.04-1.31,1.75-1.09,3.14.99,6.33-.54,9.49.34,1.35.38,2.86.15,4.3.19-.72,1.56-2.3,1.81-3.63,1.93-4.04.36-8.06.13-11.91-1.38Z"/>
    <path class="cls-2" d="m59.89,153.36c1.93,1.51,1.55,4.04,1.17,5.57-.32,1.32-2.7,2.53-4.77,2.61-.35-1.8-.7-3.59-1.05-5.39,2.41.51,3.65-.94,4.65-2.79Z"/>
    <path class="cls-2" d="m72.29,119.06c2.79,2.3,3.08,5.65,3.35,8.84.12,1.48.12,2.9.5,4.39.43,1.67.42,3.56-1.38,4.75.09-6.12-1.93-11.95-2.47-17.98Z"/>
    <path class="cls-10" d="m122.69,114.12c-.28-2.43.46-5.18-2.36-6.69.5-.71,1.09-.45,1.56-.45,1.53.02,3.51-.43,4.47.35,1.24,1-.79,2.37-.89,3.74-.1,1.34-.34,2.67-.51,4-1.05.38-1.66-.27-2.27-.95Z"/>
    <path class="cls-7" d="m78.56,107.28q-1.61,4.17-7.28,4.04c-.01-4.25-.01-4.26,4.32-4.23.99,0,1.97.13,2.96.19Z"/>
    <path class="cls-4" d="m106.82,57.94c-3.3-1.48-5.06-6.37-3.32-9.2.88.44,1.81.81,2.62,1.35,1.19.79,1.78,2.12.95,3.26-1.16,1.6-.6,3.05-.26,4.6Z"/>
    <path class="cls-7" d="m147.38,103.88c3.57-4.96,5.39-5.76,11.33-5.44-.49,2.55-1.99,3.48-4.56,3.2-2.21-.24-4.1,1.06-6.77,2.24Z"/>
    <path class="cls-8" d="m26.12,103.23c.69.02,1.39.04,2.08.06,0,3.95,0,7.9,0,12.52-1.04-3.47-1.94-6.33-3.7-8.8,1.05-1.04.03-2.97,1.62-3.78Z"/>
    <path class="cls-2" d="m83.84,185.53c-.96.27-1.95-.83-2.99.27-.71.76-1.15-.29-1.61-.79-1.93-2.1-2.85-2.13-4.65-.03-.72.84-1.57,1.12-2.59,1.09-.05-1.74.51-3.33,1.14-4.91,2.1.1,4.04.89,5.82,1.81,1.63.85,3.22,1.01,4.94.93-.02.54-.03,1.08-.05,1.62Z"/>
    <path class="cls-8" d="m133.6,192.18c-.83,1.37-1.76,2.45-3.63,1.7-1.65-.66-2.77.96-4.3,1.16-1.74.23-3.36.58-4.93-.44,3.92-2.78,8.36-2.75,12.86-2.42Z"/>
    <path class="cls-7" d="m133.2,106.18q6.24-4.65,9.79-3.09c-3.69.6-4.86,6.65-9.79,3.09Z"/>
    <path class="cls-12" d="m73.53,28.52c.01.17.02.34.03.5-1.48,1.63-3.08,2.95-5.52,2.76-2.46-.2-5.72-3.2-5.81-5.5,0,0,.21-.05.21-.05.45.06.9.12,1.34.18-.1,1.16.29,1.83,1.56,2.09,2.74.56,5.45,1.65,8.19.03Z"/>
    <path class="cls-9" d="m155.85,184.48c.21,1-.11,1.57-1.07,2.15-4.19,2.53-8.67,3.88-13.57,3.84,0-.19,0-.37,0-.56.83,0,1.64-.03,1.6-1.2.37-.12.75-.25,1.12-.37,1.93,1.05,3.54-.17,5.29-.68,2.41-.7,3.94-3.15,6.64-3.18Z"/>
    <path class="cls-4" d="m115.01,40c2.31-.61,4.48-.05,6.61.8,1.44,1.41,2.88,2.81,4.32,4.22-.42.68-.87,1.28-1.81,1.07-2.35-2.54-5.06-4.48-8.49-5.3-.25-.06-.41-.52-.62-.79Z"/>
    <path class="cls-11" d="m58.52,96.89c-3.12-.94-5.87-.86-8.86-.88.61-1.68,1.33-3,3.07-3.07,2.56-.11,4.34,1.2,5.79,3.95Z"/>
    <path class="cls-8" d="m122.69,114.12c.6.68,1.22,1.34,2.27.95.1,3.98-.57,7.83-1.54,11.65-.24,0-.48-.01-.73-.02v-12.58Z"/>
    <path class="cls-8" d="m86.78,101.71c-.69-.32-1.13-1.25-2.15-.82-.29.12-.94.07-1-.07-.98-2.34-4.25-2.66-4.72-5.41.81-.83,1.28-1.79,2.27.15,1.37,2.69,4.31,3.52,7,4.47.6,1.44-.41,1.55-1.4,1.68Z"/>
    <path class="cls-8" d="m155.85,184.48c-2.7.03-4.24,2.48-6.64,3.18-1.75.51-3.35,1.74-5.29.68,2.57-.89,5.18-1.7,6.98-3.95,2.25.24,2.99-2.37,4.96-2.65,0,.91,0,1.82-.01,2.74Z"/>
    <path class="cls-10" d="m164.31,111.29c-.98.02-1.96.04-2.94.06.49-2.7.81-5.4.6-8.15,1.96.5,1.82,2.76,3.15,3.79-.27,1.43-.54,2.87-.81,4.3Z"/>
    <path class="cls-11" d="m74.69,104.82c.49-1.53,2.96-2.18,5.3-1.34.76.27,1.48.67,2.24.97.66.26,1.33.48,1.97,1.01-3.22.55-6.41.65-9.52-.65,0,0,.01.01.01.01Z"/>
    <path class="cls-11" d="m50.51,97.59c3.01-.71,5.89-.45,8.67.69.49.2,1.1.46,1.02,1.08-.1.7-.79.6-1.31.61-3.01.03-5.79-.78-8.38-2.38Z"/>
    <path class="cls-11" d="m122.61,105.82c-2.13,0-3.59.05-5.03-.02-.73-.03-1.84.34-1.93-.89-.07-.91-.47-2.17.61-2.65.83-.37,1.98-.68,2.81.2.98,1.04,1.8,2.24,3.55,3.36Z"/>
    <path class="cls-2" d="m131.38,183.93c1.51-.61,1.5-2.1,1.97-3.34.32-.85.77-1.8,1.94-1.45,1.08.32.58,1.19.61,1.99.16,3.27-1.68,4.29-4.5,4.39,0-.53-.01-1.06-.02-1.59Z"/>
    <path class="cls-2" d="m155.86,181.75c-1.98.28-2.71,2.89-4.96,2.65.21-1.43.42-2.86.63-4.29,1.89.35,3-.41,3.29-2.33.1-.65.41-1.15,1.01-1.45.06,1.43.11,2.85.17,4.27-.05.38-.09.76-.14,1.14Z"/>
    <path class="cls-7" d="m113.56,108.67c-2.69,1.31-5.6.77-8.42,1.05,1.43-2.01,6.83-3.77,8.92-2.66,1.22.65-.11,1.13-.5,1.61Z"/>
    <path class="cls-9" d="m79.04,93.67c-.2-1.69-.5-3.39-.55-5.09-.05-1.5.13-1.62,1.59-.91.6.29.53.01.54-.25.06-1.71,1.72-.43,2.25-1.23.47.05.94.11,1.4.16-.49.52-.97,1.04-1.46,1.55,0,0,.01,0,.01,0-1.73.44-1.7,2.08-2.03,3.31-.3,1.13-.67,1.98-1.75,2.46Z"/>
    <path class="cls-2" d="m153.67,113.01c-1.39.01-1.71-1.8-3.18-1.83-.61-.01-.69-.96-.09-1.2,2.35-.93,3.67-3.01,5.44-4.59-.72,2.54-1.45,5.08-2.17,7.61Z"/>
    <path class="cls-2" d="m84.27,86.35c-.47-.05-.94-.1-1.4-.16.07-2.91.93-3.81,4-3.44,1.44.18,2.89.14,4.31.39-2.13,1.45-4.86,1.6-6.91,3.2Z"/>
    <path class="cls-2" d="m76.3,114.1c.39-.75.61-1.85,1.8-.75.91.84,1.97.51,3,.24.18,1.64.36,3.27.54,4.91-2.44-.67-3.68-2.78-5.34-4.4Z"/>
    <path class="cls-7" d="m128.73,187.82c-.9-.12-1.8-.22-2.67.12-1.15.45-1.79-.26-2.09-1.11-.45-1.27.65-1.07,1.4-1.32,1.52-.49,2.95-1.27,4.61-1.15.26.6.33,1.19-.11,1.75-1.2-.02-1.25.77-1.18,1.65l.04.05Z"/>
    <path class="cls-10" d="m14.64,91.28c2.32.8,2.37,3.44,3.93,4.85-.16.6-.58.91-1.14,1.09-.4,0-.8,0-1.2-.01-.91-.51-1.68-1.17-2.24-2.06,1.18-1.13-1.12-2.84.64-3.87Z"/>
    <path class="cls-9" d="m26.14,48.69c-.73.55-1.46,1.1-2.19,1.64-.54,0-1.08,0-1.62,0-.22-3.19,2.38-4.29,4.34-5.86.14,1.45-.21,2.83-.53,4.22Z"/>
    <path class="cls-2" d="m109.35,43c.37,3.47-2.19,2.84-4.19,3-.71-.77-.88-1.66-.11-2.41,1.25-1.21,2.76-1.18,4.3-.59Z"/>
    <path class="cls-2" d="m165.12,106.99c-1.33-1.03-1.18-3.29-3.15-3.79-.1-.16-.21-.32-.31-.48.41-.31.96-.54,1.2-.95,1.11-1.91,2.11-1.49,3.13.04-.29,1.73-.58,3.45-.88,5.18Z"/>
    <path class="cls-4" d="m138.98,100.94c.01-.12.01-.25,0-.37,3.55.32,6.82-1.82,10.4-1.18h-.01c-1.53,2.93-4.24,2.29-6.66,1.96-1.24-.17-2.48-.3-3.73-.42Z"/>
    <path class="cls-9" d="m124.12,46.09c.94.21,1.4-.39,1.81-1.07,1.12-.37,1.76-.06,1.71,1.22-.05,1.27-.29,2.48-1.12,3.5-.53-.11-1.06-.23-1.16.55-1.96-.26-.14-1.52-.57-2.19.12-.65.07-1.21-.75-1.35.02-.22.05-.44.07-.67Z"/>
    <path class="cls-10" d="m139.92,106.76c1.35-1.55,2.96-2.6,4.77-3.4.64-.28,1.28-1.02,1.79-.14.41.72.1,1.48-.68,2.08-1.76,1.36-3.96.83-5.89,1.46Z"/>
    <path class="cls-2" d="m121.43,49.25c-1.17-1.24-1.67-3.07-4.11-3.02-1.24.03-.44-1.56-.08-2.43,2.49-.12,3.65,1.96,5.31,3.22-1.41.22-.8,1.46-1.13,2.22Z"/>
    <path class="cls-4" d="m44.13,86.87c-.15,2.04-2.25,2.1-3.28,3.24-.45-.89-1.13-1.48-2.13-1.65.17-.96.32-1.93,1.02-2.68,1.49.28,2.75,1.44,4.4,1.1Z"/>
    <path class="cls-2" d="m138.51,190.84c-.55.05-1.11.1-1.66.16-1.81,0-3.62,0-5.43,0,3.04-1.9,6.39-2.11,9.79-2.11-.02.18-.03.36-.03.53-.16.16-.32.32-.48.48-.64.51-2.29-1.3-2.19.94Z"/>
    <path class="cls-8" d="m121.43,49.25c.33-.77-.28-2.01,1.13-2.22.38.17.77.35,1.15.52.36.19.72.37,1.09.56.43.66-1.39,1.92.57,2.19.69.4.47,1.03.4,1.63-1.48.19-2.46-1.5-4-1.08-.11-.53-.23-1.05-.34-1.58Z"/>
    <path class="cls-2" d="m121.77,50.83c1.55-.42,2.52,1.28,4,1.08-.25,2.21-2.01,2.96-3.67,3.82-.11-1.63-.22-3.27-.34-4.9Z"/>
    <path class="cls-8" d="m94.2,193.13c3.03.45,6.15.19,9.11,1.17-1.64,1.43-3.62.59-5.43.74-1.84.15-3.71.03-5.75-.5.69-.47,1.38-.94,2.07-1.41Z"/>
    <path class="cls-2" d="m26.12,103.23c-1.59.81-.57,2.74-1.62,3.78,0,0-.27,0-.27,0,0,0-.26.05-.26.05-1.93-1.39-1.41-3.35-.47-4.72.98-1.43,1.74.5,2.62.89Z"/>
    <path class="cls-11" d="m109.25,104.43c1.39-1.03,2.75-1.22,4.04-1.55.93-.24,1.57.28,1.64,1.3.06,1.03-.62,1.13-1.42,1.14-1.38.02-2.7-.24-4.25-.89Z"/>
    <path class="cls-8" d="m109.05,193.37c3.82-1.04,7.71-.77,11.61-.45-3.79,1.31-7.72.93-11.63.71,0,0,.02-.26.02-.26Z"/>
    <path class="cls-2" d="m32.54,108.08c-1.98-.17-1.69,1.75-2.49,2.68-.04-1.7-.15-3.39-.1-5.09.02-.58-.38-1.61.76-1.66.89-.04,1.14.77,1.32,1.46.23.86.35,1.74.52,2.61Z"/>
    <path class="cls-10" d="m59.25,104.86c-1.44,0-2.6-.05-3.75.01-1.07.06-1.9-.34-1.85-1.42.06-1.07,1.11-.59,1.74-.66,1.51-.16,2.87.09,3.86,2.07Z"/>
    <path class="cls-7" d="m98.19,106.97c1.42-.79,2.69-1.13,4.08-.96.74.09,1.2.51,1.16,1.25-.03.73-.68.75-1.22.75-1.33,0-2.73.34-4.02-1.04Z"/>
    <path class="cls-10" d="m44.84,101.36c1.02.21,1.9.95,3.01.79.67-.09,1.53-.01,1.17-1.15,0,0-.01.01-.01.01.51.02,1.03.04,1.54.07.58.03,1.08.22,1.11.89.03.68-.54.95-1.05.99-2.13.15-4.3.4-6.05-1.27.1-.11.19-.21.29-.32Z"/>
    <path class="cls-10" d="m44.47,178.54c-1.43-2.96-.6-6.12-.76-9.2,1.4,2.95.67,6.1.76,9.2Z"/>
    <path class="cls-11" d="m64.27,24.4s-.05-.03-.05-.03c-2-.32-3.35,1.88-5.4,1.4,2.01-1.43,4.01-2.86,6.02-4.29,0,.28.02.56.03.84-.02.23-.03.46-.05.69,0,0,0,0,0,0-.61.29-1.18.6-.55,1.39Z"/>
    <path class="cls-8" d="m82.86,117.39c1.18-.04,2.19-.4,1.47,1.71-.45,1.32.16,3.09-.51,4.59-1.54-1.91-.83-4.17-.96-6.3Z"/>
    <path class="cls-11" d="m122.65,101.1c.11,1.07,1,1.59,1.62,2.3.45.53.71,1.02-.02,1.51-1.88-.31-3.12-1.47-4.12-3.03.78-.66,1.65-.74,2.52-.79Z"/>
    <path class="cls-2" d="m71.49,114.14c.74.64,1.31-1.38,2.09-.14-.52,1.49,1.81,3.89-1.45,4.5-.21-1.45-.43-2.91-.64-4.36Z"/>
    <path class="cls-7" d="m106.22,104.78c.89.01,2.07.12,2.01.99-.1,1.3-1.62,1.19-2.57,1.47-1.27.37-1.26-1-1.26-1.57,0-1.25,1.23-.61,1.83-.89Z"/>
    <path class="cls-11" d="m111.7,102.16c-1.98.52-3.18,1.66-4.6.64-.4-.29-.4-1.18.06-1.42,1.36-.71,2.68-.37,4.54.78Z"/>
    <path class="cls-10" d="m96.49,85.76c2.31-1.39,3.37-.2,3.96,1.93-.94-.13-1.89-.26-2.83-.38-.38-.52-.75-1.03-1.13-1.55Z"/>
    <path class="cls-11" d="m35.53,102.39c-.18.87-.82,1.15-1.58,1.17-.64.01-1.47-.14-1.5-.82-.04-.81.55-1.58,1.44-1.58.71,0,1.3.54,1.64,1.24Z"/>
    <path class="cls-10" d="m34.22,109.78c2.7,1.03,2.84,1.67.98,4.4-.33-1.47-.65-2.93-.98-4.4Z"/>
    <path class="cls-2" d="m82.06,90.45c-.16-.97,1.26-1.48.76-2.55,0,0-.01,0-.01,0,.9.67,1.59-.65,2.6-.21-.75,1.31-1.46,2.58-3,3.09-.11-.12-.23-.23-.35-.33Z"/>
    <path class="cls-8" d="m26.13,62.39q-.03,2.95-.94,4.8c-.63-1.71.67-3.78-1-5.29.94-1.01,1.35.1,1.94.49Z"/>
    <path class="cls-7" d="m60.48,184.46c2.19.95.53,2.46.15,3.32-.37.84-1.71.73-2.4-.36,2.02-.03,2.28-1.38,2.25-2.96Z"/>
    <path class="cls-5" d="m22.32,50.33c.54,0,1.08,0,1.62,0,.12,1.69-.7,3.04-1.62,4.35,0-1.45,0-2.9,0-4.36Z"/>
    <path class="cls-10" d="m38.08,102.44c1.41-1.01,2.47-1.16,3.56-.43.13.09.16.64.05.74-1.12.93-2.13.21-3.6-.3Z"/>
    <path class="cls-2" d="m93.94,157.15c1.18-.03,1.46.63,1.46,1.69,0,1.07-.31,1.71-1.48,1.66,0-1.12.01-2.23.02-3.35Z"/>
    <path class="cls-4" d="m110.64,60.65c-1.87.42-2.79-.54-3.24-2.2,1.81-.34,2.48,1,3.24,2.2Z"/>
    <path class="cls-7" d="m52.86,187.18c-.21-.98-1.46-.93-1.83-1.89,1.87-.81,2.89.11,3.64,1.66-.1.13-.21.26-.32.39-.5-.06-1-.11-1.5-.17,0,0,0,0,0,0Z"/>
    <path class="cls-10" d="m47.91,103.94h5c-1.91,1.15-2.17,1.15-5,0Z"/>
    <path class="cls-7" d="m126.48,115.38c-.02-2.27-.36-3.86.98-5.6.03,1.99.4,3.59-.98,5.6Z"/>
    <path class="cls-2" d="m108.05,41.27c-.94.28-1.88.55-3.49,1.02,1-2.03,2.18-1.79,3.49-1.02Z"/>
    <path class="cls-10" d="m110.4,166.52c-1.32-1.31-1.31-2.62.01-3.92.24,1.31.24,2.61-.01,3.92Z"/>
    <path class="cls-2" d="m36.91,144.45c1.49,1.25,1.66,2.85,1.19,4.61-.84-1.42-1.18-2.97-1.19-4.61Z"/>
    <path class="cls-5" d="m30.46,62.71c.12-.86-.31-1.84.52-2.56,1.12.95.21,1.9,0,2.86-.17-.1-.35-.2-.52-.3Z"/>
    <path class="cls-10" d="m110.17,175.76c-.82-.86-1-1.64.28-2.24.14.77.29,1.55-.28,2.24Z"/>
    <path class="cls-10" d="m110.4,159.44c-.38-.09-.99.04-1.02-.47-.03-.6.33-1.12,1-1.28,0,.59,0,1.17.01,1.76Z"/>
    <path class="cls-10" d="m109.05,193.37s-.02.26-.02.26c-.89,0-1.79,0-2.68,0,0-.09,0-.17,0-.26h2.71Z"/>
    <path class="cls-8" d="m141.18,189.42c0-.18.01-.36.03-.53.53-.05,1.06-.11,1.59-.16.04,1.17-.77,1.19-1.6,1.19-.02-.17-.02-.33-.02-.5Z"/>
    <path class="cls-10" d="m128.68,187.77c-.07-.88-.02-1.67,1.18-1.65-.13.74.26,1.85-1.18,1.65Z"/>
    <path class="cls-2" d="m111.78,147.95c1.28.72,1.24,1.43-.01,2.14,0-.71,0-1.42.01-2.14Z"/>
    <path class="cls-7" d="m130.06,144.75c-1.18-.61-1.16-1.22,0-1.84.24.61.24,1.22,0,1.84Z"/>
    <path class="cls-10" d="m110.37,156.71c-1.11-.6-1.12-1.18.03-1.75,0,.58-.02,1.16-.03,1.75Z"/>
    <path class="cls-4" d="m16.24,97.22c.4,0,.8,0,1.2.01-.05.4-.09.81-.14,1.21-.33-.05-.66-.09-.99-.14-.02-.36-.04-.72-.07-1.09Z"/>
    <path class="cls-4" d="m112.26,39.73c.47-.45.82-.29,1.11.21-.48.52-.85.42-1.11-.21Z"/>
    <path class="cls-7" d="m130.04,153.48c-.98-.44-.97-.87,0-1.29,0,.43,0,.86,0,1.29Z"/>
    <path class="cls-2" d="m162.41,134.28c-.27-.16-.77-.31-.78-.5-.06-.6.53-.55.93-.66-.05.39-.09.77-.14,1.16Z"/>
    <path class="cls-7" d="m58.88,106.01c-.1.33-.15.75-.58.75-.44,0-.48-.42-.58-.75.39,0,.77,0,1.16,0Z"/>
    <path class="cls-10" d="m35.51,145.1c.48.46.68.95.19,1.54-.53-.34-.41-.87-.43-1.35.08-.07.15-.13.23-.19Z"/>
    <path class="cls-10" d="m36.48,149.02c-.54-.34-.54-.81-.43-1.48.67.48.38,1.02.44,1.47h0Z"/>
    <path class="cls-7" d="m56.16,187.35c-.03.17-.08.33-.16.48-.55-.16-1.09-.33-1.64-.49.11-.13.21-.26.32-.39.5.13.99.27,1.49.41Z"/>
    <path class="cls-10" d="m35.28,145.29c-.4-.29-.46-.69-.35-1.14.02-.07.12-.12.18-.18.13.38.27.75.4,1.13-.08.06-.16.13-.23.19Z"/>
    <path class="cls-10" d="m45.14,181.22c-.16-.16-.32-.33-.49-.49.1-.23.21-.46.31-.69.06.39.12.79.18,1.18Z"/>
    <path class="cls-10" d="m36.49,149.01c.47.21.59.59.48,1.04-.02.09-.22.13-.33.2-.05-.41-.11-.82-.16-1.23h0Z"/>
    <path class="cls-2" d="m38.07,149.01c.76.46.53,1.21.56,1.88-.56-.52-.55-1.2-.56-1.88Z"/>
    <path class="cls-4" d="m124.8,48.11c-.36-.19-.72-.37-1.09-.56.11-.26.23-.53.34-.79.81.14.87.69.75,1.35Z"/>
    <path class="cls-10" d="m110.44,172.5l-.58-.3c.19-.11.37-.22.56-.33,0,.21.01.42.02.63Z"/>
    <path class="cls-7" d="m126.14,116.13s.13,0,.14.02c.03.06.06.15.03.2-.09.23-.19.22-.24-.03-.01-.06.04-.13.06-.2Z"/>
    <path class="cls-8" d="m136.78,191.98c.21.07.41.14.62.2-.39.43-.77.46-1.12-.04.16-.09.33-.15.51-.17Z"/>
    <path class="cls-10" d="m110.44,144.72c-.19-.12-.38-.23-.56-.35.2-.11.39-.21.59-.32,0,.22-.01.44-.02.67Z"/>
    <path class="cls-10" d="m44.56,101.68c-.21-.14-.65,0-.56-.48.28.05.56.11.85.16-.09.11-.19.21-.28.32Z"/>
    <path class="cls-2" d="m74.74,138.1c.06.13.14.26.18.4,0,.04-.11.11-.18.16,0-.19,0-.37,0-.56Z"/>
    <path class="cls-4" d="m149.38,99.39c.04-.07.07-.14.11-.21-.04.07-.08.13-.13.2,0,0,.01.01.01.01Z"/>
    <path class="cls-2" d="m82.41,90.78c-.13.1-.33.3-.37.27-.3-.19-.17-.41.03-.6.12.11.24.22.35.33Z"/>
    <path class="cls-9" d="m111.85,19.29c-3.44-2.35-4.02-2.26-7.01.95-.52.55-1.61.95-1.54-.1.13-2.03-.45-1.66-1.55-.79-.42.33-.84.11-1.28,0-2.83-.73-4.95.01-6.04,2.91-.1.25-.17.71-.3.73-2.96.4-4.25,2.31-5.35,4.93-.46,1.08-2.35-1.08-3.88-.37-.41.19-.38-1.04-.4-1.63-.03-1.1.11-2.36-1.29-2.65-3.75-.79-3.5-4.29-4.73-6.78,1.85-.02,3.22,1,4.59,2.06,3.95,3.06,7.06,3.04,11.06-.05,1-.77,1.95-1.61,2.95-2.38,1.18-.9,2.64-1.76,3.98-1.04,1.87,1,3.36.65,5.07-.19.74-.36,1.66-.38,1.65-1.43,0-1-.89-1.37-1.65-1.58-3.93-1.06-8.11-1.69-11.52.8-3.74,2.74-6.84,3.45-10.97.72-2.79-1.85-6.35-.44-9.56-.15,5.28-5.34,12.11-7.26,19.14-8.85,4.56-1.03,8.37.2,12.67,1.97,5.16,2.12,8.24,6.76,13.15,8.87-.18.65-.45,1.21-1.22,1.31-.48-.06-.92-.02-1.18.46-2.06-.22-3.48.92-4.8,2.28Z"/>
    <path class="cls-5" d="m185.4,82.07c-.99-2.03-.69-4.32-.98-6.44-.57-4.16-.39-4.41-4.57-4.63-1.27-1.5-2.87-2.16-4.84-2.23-1.88-.07-3.65.49-5.47.7.82-1.28.56-2.39-.54-3.37-1.48-1.31-3.05-2.48-4.87-3.29-.03-.54-.06-1.08-.1-1.62,0-.37,0-.73,0-1.1.57-.84,1.72,1,2.11-.43.3-1.11-.07-2.06-1-2.77.07-.81.09-1.6-1.06-1.62.52-1.57-1.63-1.53-1.66-2.77,1.95-.54,4.04.05,5.98-1.37,1.12-.82,4.05-.96,4.51.15,1.02,2.48,2.7,2.02,4.49,2.12,1.34.07,2.56.42,3.66,1.44.86.8,1.91,1.73,3.36,1.45.86,3.11-.83,6.48,1.01,9.52.34.56-.44,1.13-.88,1.56-.63.61-1.25,1.15-.28,1.96-.06,3.2,2.7,4.55,4.35,6.62.49,2.86-1.17,4.59-3.22,6.12Z"/>
    <path class="cls-9" d="m184.42,56.29c-1.44.28-2.5-.65-3.36-1.45-1.1-1.02-2.32-1.36-3.66-1.44-1.79-.1-3.47.37-4.49-2.12-.46-1.12-3.39-.98-4.51-.15-1.94,1.42-4.03.83-5.98,1.37-.9-.72-1.8-1.43-2.7-2.15.22-1.5,1.44-1.01,2.33-1.17.98-.18.98-.9.94-1.65-.04-.63-.39-1.11-1.02-.92-3.12.94-6.22.11-9.33-.04-.72,0-1.45.01-2.17.02-.19,0-.37,0-.56,0-.17-.02-.35-.03-.52-.03-.19.16-.37.32-.56.48,0,0,0,0,0,0h-1.09c-3.68.36-6.91-.33-8.67-4.01-.84-1.75-2.84-.6-3.9-1.8-.38-.43-1.61,0-1.54-1.08.06-1.03.86-1.5,1.78-1.8,3.42-1.1,6.82-1.15,9.1,1.95,2.07,2.8,4.61,2.98,7.56,2.6,3.15-.41,6.29-.27,9.45.11,1.86.22,3.46.41,3.74,2.97,1.93-2.58,2.14-5.01,1.58-7.58,2.19.38,4.43.55,6.43,1.64,1.53,1.44,2.88,3.02,3.75,4.96.44,1.18.39,2.08-1.1,2.45-.63.16-1.67.33-1.36,1.31.28.89,1.26.39,1.93.45.73.06,1.51-.04,1.93-.75,1.04-1.77,1.81-.84,2.6.21.66,2.07,2.61,3.23,3.55,5.11l-.16,2.53Z"/>
    <path class="cls-1" d="m74.1,13.25c3.21-.29,6.77-1.7,9.56.15,4.13,2.73,7.23,2.02,10.97-.72,3.41-2.5,7.59-1.87,11.52-.8.76.21,1.64.58,1.65,1.58,0,1.05-.91,1.07-1.65,1.43-1.71.84-3.21,1.19-5.07.19-1.34-.72-2.8.14-3.98,1.04-1.01.76-1.95,1.61-2.95,2.38-4,3.09-7.11,3.11-11.06.05-1.37-1.06-2.74-2.08-4.59-2.06-2.17-.1-3.76.93-5.05,2.56-.62.17-1.23.34-1.55.99-1.34-.19-1.98,1.28-3.21,1.34-.14-2.12,1.99-3.57,1.7-5.73,1.24-.8,2.48-1.6,3.72-2.4Z"/>
    <path class="cls-7" d="m123.13,37.15c-4.55-1.41-8.59-3.49-10.83-8.01,1.24-1.95,2.43-3.94,5.29-3.49.54.08.67-.5.75-.96.34,0,.68.01,1.02.02.18.38.37.41.57.02,1.96-.04,3.93-.07,5.89-.11.81,2.02,2.45,3.52,2.66,6,.21,2.49-.44,3.8-2.67,4.51-1.14.36-2.2.8-2.68,2.02Z"/>
    <path class="cls-9" d="m191.31,80.27c-1.19.11-.85-1.28-1.59-1.62-.05-2.07,0-4.15-.19-6.21-.14-1.43-.5-3.13-1.92-3.69-2.91-1.16-1.07-2.12-.07-3.2,1.08.03,2.17,0,3.24.09,5.45.4,8.06,4.25,6.03,9.27-.92,2.28-3.85,2.86-5.16,4.96-.09.15-.23.27-.34.41Z"/>
    <path class="cls-11" d="m118.34,24.69c-.08.46-.21,1.04-.75.96-2.86-.45-4.05,1.53-5.29,3.49-.54,0-1.08-.01-1.61-.02-.21-.19-.43-.39-.64-.58-1-3.39-.66-6.53,1.81-9.24,1.32-1.35,2.74-2.49,4.8-2.28,0,.36,0,.72,0,1.08-1.14,1.09-3.92.7-3.5,3.05.47,2.59,2.88,3.17,5.18,3.55Z"/>
    <path class="cls-9" d="m181.65,48.01c1.25-1.31,3.37-1.12,4.6.42,2.17,2.72,2.54,12.52.57,15.43-.13.19-.4.28-.83.56-.69-3.89.16-7.7-.65-11.37-.75-2.03-2.5-3.33-3.69-5.03Z"/>
    <path class="cls-11" d="m126.11,23.41c-3.18-.14-6.39.63-9.55-.44-.92-.31-2.04-.73-2.1-1.87-.07-1.37,1.28-1.41,2.16-1.57,2.59-.49,5.3-1.47,7.23,1.57.48.75,1.57,1.11,2.38,1.65-.04.22-.08.44-.13.65Z"/>
    <path class="cls-5" d="m150.97,27.67c1.91.52,3.81,1.09,5.73,1.55,4.68,1.1,8.37,3.63,11.17,7.51-.75,1.03-1.77.27-2.65.4-.51-1.01-1.01-2.01-1.48-2.95-1.24.26-.06,1.37-1.11,1.82.2-2.07-1.35-2.89-2.51-4.09-1.58-1.62-2.94-1.45-4.54-.21-.3.23-.88.08-1.33.11-1.15-1.02-2.29-2.04-3.44-3.05-.54-.47-.65-.84.17-1.09Z"/>
    <path class="cls-11" d="m154.24,31.82c.45-.03,1.03.12,1.33-.11,1.61-1.24,2.97-1.42,4.54.21,1.16,1.2,2.71,2.02,2.51,4.09,1.05-.45-.13-1.56,1.11-1.82.47.94.98,1.95,1.48,2.95-5.22,1.45-7.8-2.55-10.98-5.32Z"/>
    <path class="cls-5" d="m142.05,27.91c-1.27.51-2.55,1.21-3.59-.39-.64-.99-1.51-.44-2.18-.14-2.46,1.11-2.79-.3-2.76-2.21,0-.36.05-.72.08-1.08,2.99.91,6.04,1.67,8.46,3.83Z"/>
    <path class="cls-9" d="m188.63,75.95c-1.66-2.07-4.42-3.42-4.35-6.62,3.14-.11,3.99.57,4.36,3.67.12.97,0,1.97,0,2.96Z"/>
    <path class="cls-4" d="m70.38,15.65c.28,2.16-1.84,3.61-1.7,5.73-.55.37-1.09.75-1.64,1.12-.02-.3-.03-.59-.05-.89-.78-.95.48-1.27.61-1.94.17-.89,1.54-1.55.51-2.68.19-.35.39-.7.58-1.04.09-.09.17-.18.26-.26-.1.08-.2.15-.29.23-.52-.17-1.05-.34-1.57-.5.44-.9,1.19-1.4,2.13-1.65.48.57,1.05,1.09,1.17,1.88Z"/>
    <path class="cls-5" d="m173.89,39.41c-.29-.21-.79-.39-.84-.65-.15-.82.51-.51.84-.41,1.73.48,3.12,1.47,3.88,3.13.69,1.52,1.24,3.1,1.94,4.89-1.82.03-1.46-1.39-2-2.02-.44-2.29-1.93-3.77-3.82-4.93Z"/>
    <path class="cls-5" d="m82.47,6.07c2.58-2.93,5.53-2.86,8.58-2.45-2.7.79-5.24,2.13-8.58,2.45Z"/>
    <path class="cls-4" d="m181.65,48.01c1.19,1.7,2.94,3,3.69,5.03-.26.24-.51.48-.77.72-.93-1.88-2.89-3.04-3.55-5.11.21-.21.41-.43.62-.64Z"/>
    <path class="cls-4" d="m173.89,39.41c1.89,1.16,3.38,2.64,3.82,4.93-.22.22-.45.43-.67.65-.87-1.94-2.22-3.52-3.75-4.96.2-.21.4-.41.61-.62Z"/>
    <path class="cls-11" d="m117.83,16.55c.77-.1,1.04-.66,1.22-1.31,1.08.44,2.11,1.39,1.64,2.35-.44.9-1.94.39-2.98.44.04-.49.08-.98.12-1.47Z"/>
    <path class="cls-5" d="m117.83,16.55c-.04.49-.08.98-.12,1.47-.35.02-.7.05-1.05.07,0-.36,0-.72,0-1.08.26-.48.7-.52,1.18-.46Z"/>
    <path class="cls-4" d="m149.35,28.52l.36-.89c.08.05.15.09.23.14-.19.25-.39.51-.58.76,0,0,0,0,0,0Z"/>
    <path class="cls-5" d="m133.59,24.1c-.43.06-.81.01-1.07-.39.4,0,.9-.26,1.07.39Z"/>
    <path class="cls-11" d="m119.93,24.72c-.2.39-.39.36-.57-.02.19,0,.38.01.57.02Z"/>
    <path class="cls-11" d="m14.64,91.28c-1.76,1.03.54,2.74-.64,3.87-.33-.31-.66-.61-.99-.92-.22-3.27-1.71-5.85-4.22-7.89-.15-3.53-.34-7.07.09-10.59.25-2.07,1.19-2.89,3.11-1.41,1.26-.03,2.53-.06,3.79-.08.62,2.85,2.05,3.56,4.64,2.45.71-.3,1.58-.23,2.37-.34-.56,2.54-1.27,5.07-1.02,7.72-.36.24-.72.48-1.08.72-2.86-.16-5.88,3.05-6.05,6.47Z"/>
    <path class="cls-6" d="m15.78,74.26c-1.26.03-2.53.06-3.79.08-1.42-3.85.61-6.23,4.81-5.6,1.16.17,1.97-.25,2.52-1.17.55-.91,0-1.64-.71-2.07-1.86-1.15-1-2.88-1.08-4.42,3.16.64,2.02,3.74,3.1,5.57.39.65,0,1.76-.03,2.66-.34.24-.67.48-1.01.72-2.15.62-3.04,2.38-3.81,4.24Z"/>
    <path class="cls-8" d="m4.17,69.45c-2.82-1.17-2.53-3.86-2.88-6.14-.24-1.6,1.06-2.26,2.4-2.66.36,1.64.72,3.28,1.07,4.92-1.55-.07-1.84.75-1.32,2,.26.62.94,1.08.72,1.89Z"/>
    <path class="cls-2" d="m4.17,69.45c.22-.81-.46-1.26-.72-1.89-.52-1.25-.23-2.07,1.32-2,1.03,1.32,1.7,2.9,3.24,3.85.64.4,1.5,1.14.79,2.22-1.56.57-2.5-1.42-4.03-.98-.2-.4-.4-.8-.6-1.2Z"/>
    <path class="cls-6" d="m12.88,61.62c.04,2.01.57,4.14-1.72,5.47-.24.14.07,1.18-.78.96-.67-.17-.55-.86-.54-1.38.03-1.71.11-3.42.17-5.13.96.03,1.91.05,2.87.07Z"/>
    <path class="cls-5" d="m8.8,86.34c2.51,2.04,4,4.63,4.22,7.89-3.2-1.68-4.51-4.36-4.22-7.89Z"/>
    <path class="cls-5" d="m7.5,87.4c-1.32-.27-1-1.33-.99-2.17,0-1.28-.1-2.49-.7-3.67-1.2-2.37,1.3-3.68,1.72-5.6,0,3.82-.02,7.63-.02,11.45Z"/>
    <path class="cls-2" d="m12.88,61.62c-.96-.02-1.91-.05-2.87-.07-.67-2.99-.39-3.33,3.56-4.16-.24,1.45-.46,2.84-.69,4.24Z"/>
    <path class="cls-8" d="m14.57,62.54c-.46-1.57-.75-3.12.22-4.73,1.76,1.5,1.59,3.4,1.33,5.32-.52-.2-1.03-.39-1.55-.59Z"/>
    <path class="cls-8" d="m4.76,70.64c1.53-.44,2.47,1.55,4.03.98-.14.55-.05,1.18-.57,1.59-.75-.02-1.5-.03-2.24-.05-.41-.84-.81-1.68-1.22-2.52Z"/>
    <path class="cls-4" d="m18.46,50.57c1.16.21.6.84.26,1.28-.87,1.15-1.81,2.26-2.72,3.38-.27-.22-.54-.44-.81-.66,1.03-1.39,1.92-2.89,3.27-4.01Z"/>
    <path class="cls-4" d="m14.57,62.54c.52.2,1.03.39,1.55.59.23,1.32-.64,1.91-1.81,2.66-.06-1.23-.18-2.24.26-3.25Z"/>
    <path class="cls-9" d="m68.1,17c1.03,1.13-.34,1.79-.51,2.68-.13.67-1.38.99-.61,1.94-.71-.16-1,.11-.82.83,0,0,.05-.02.05-.02-.39-.75-.89-.22-1.35-.1,0-.28-.02-.56-.03-.84,1.24-1.38,1.79-3.27,3.26-4.48Z"/>
    <path class="cls-8" d="m138.51,190.84c-.1-2.24,1.54-.43,2.19-.94,0,0,.25,0,.25,0l.25.02c0,.19,0,.37,0,.56-.84.55-1.77.48-2.7.37Z"/>
    <path class="cls-3" d="m23.47,100.21c-.12.15-.26.32-.4.49-.08-.15-.24-.32-.21-.44.05-.2.23-.38.35-.56.08.15.15.29.26.51Z"/>
    <path class="cls-8" d="m159.72,50.35c.9.72,1.8,1.43,2.7,2.15.03,1.24,2.18,1.2,1.66,2.77-.06.47-.48,1.12-.75.77-1.76-2.31-3.37-.29-4.91.17-1.84.55-1.63,1.82-.57,3.12,1.65,2.02,3.86,2.09,6.18,1.87.03.54.06,1.08.1,1.62-.32.76-1.18,1.24-1.11,2.2-.84.03-1.47-.22-2.13-.86-2.37-2.28-3.65-2.21-5.71.14-.46.53-.98.78-1.64.75-1.66-.07-2.15,1.12-2.45,2.37-.35,1.47-.53,2.97-.78,4.46-.5.05-1.01.11-1.51.16-.51-2.07-1.67-3.27-3.95-3.23-1.82.04-1.35-.89-.68-1.85.28-.4,1.16-.17,1.05-1.01-2.32-1.42-3.91.43-5.71,1.27-1.92.02-3.13,1.53-4.73,2.23.97-4.27,2.26-5.38,6.43-5.51,2.64-1.86,3.81-4.56,4.31-7.62,0-.57,0-1.14,0-1.71.03-.14.06-.28.11-.41,1.39-.66,1.56-2.1,2.1-3.3,1.62-.48,3.39-.29,4.92-1.11.52.08,1.24-.02,1.52.28,1.1,1.19,2.1,1.27,3.44.35.49-.33,1.39-.07,2.1-.08Z"/>
    <path class="cls-1" d="m134.79,69.47c1.6-.7,2.81-2.21,4.73-2.23.73.79,1.36,1.73,2.21,2.35,2.09,1.52,4.28,2.92,7.08,2.46.5-.05,1.01-.11,1.51-.16.01.92.77.67,1.28.81,0,.19,0,.38,0,.58.03.54.07,1.07.1,1.61-.16,1.21.03,2.16,1.59,2.04.79.62,1.96.43,2.64,1.28-.62,1.67.07,3.34-.02,5.01-5.34-3.3-11.69-2.74-17.41-4.6-2.52-3.2-5.4-5.75-9.85-5.43-1.65-.79-.71-1.97-.45-3.05,2.13-.92,4.4-.45,6.6-.65Z"/>
    <path class="cls-7" d="m145.54,56.33c-.51,3.07-1.67,5.76-4.31,7.62-1.67-1.17-1.81-2.3-1.28-4.51.56-2.31,1.23-4.12,2.8-5.86,1.58-1.76,2.29-1.28,2.9.62-.05.14-.08.27-.11.41-.65.06-1.34.28-1.37.96-.04.92.83.64,1.37.74Z"/>
    <path class="cls-9" d="m155.9,83.2c.09-1.67-.6-3.34.02-5.01.19-.05.39-.1.58-.15,1.08.49,2.16.98,3.24,1.47.26.14.52.28.78.42,1.18.87,2.36,1.74,3.53,2.61-.34,2.23-2.4,2.54-3.86,2.7-1.5.16-3.31-.42-4.28-2.04Z"/>
    <path class="cls-2" d="m169.54,69.46c1.83-.21,3.59-.77,5.47-.7,1.97.07,3.57.74,4.84,2.23-.77-.22-1.57-.38-2.3-.68-2.05-.84-2.81.2-3.09,2.01-.08.53,0,1.11-.2,1.58-.36.83-.96,1.65-1.86,1.79-1.09.17-1.08-.93-1.38-1.64-.28-.65-.53-1.36-1.44-1.37,0,0-.06-.06-.06-.06-.06-1.06-.59-1.59-1.68-1.51.08-.59.17-1.18.25-1.76.48.04.96.07,1.43.11Z"/>
    <path class="cls-7" d="m164.05,82.54c-1.18-.87-2.36-1.74-3.53-2.61,3.2-.23,4.04-2.6,4.69-5.15,1.33-.71,1.27-2.47,2.46-3.28.3.89.91,1.3,1.86,1.14,0,0,.06.06.06.06-.61,2.14-2.94,3.56-2.7,6.01.13,1.35-.74,2.14-1.2,3.16-.33.74-1.04.57-1.64.69Z"/>
    <path class="cls-5" d="m128.64,73.17c4.46-.32,7.33,2.23,9.85,5.43-3.8-.55-7.4-1.52-9.84-4.84,0-.2-.01-.4-.02-.59Z"/>
    <path class="cls-9" d="m152.67,49.8c-1.54.83-3.31.64-4.92,1.11,0,0-.03-.04-.03-.04-.02-.41-.03-.82-.05-1.23.03-.54.06-1.08.1-1.62.17-.13.34-.26.51-.39.19-.2.37-.41.56-.61h0c.2,0,.4,0,.59,0,.15,0,.3,0,.45-.01.2.2.4.4.6.6.58.71,1.39.39,2.12.48.02.56.05,1.13.07,1.69Z"/>
    <path class="cls-9" d="m128.64,73.17c0,.2.01.4.02.59-.26-.02-.57.05-.79-.06-.91-.48-2.55-.15-2.41-1.85.13-1.65,1.41-1.8,2.73-1.73-.26,1.08-1.2,2.26.45,3.05Z"/>
    <path class="cls-5" d="m147.66,49.65c.02.41.04.82.05,1.23-.65-.09-1.66.13-1.64-.78.02-.56,1.04-.28,1.58-.44Z"/>
    <path class="cls-5" d="m148.83,47.03c-.19.2-.37.41-.56.61-.18,0-.36,0-.55,0,0-.2.01-.41.02-.61.36,0,.72,0,1.09,0Z"/>
    <path class="cls-8" d="m147.72,47.65c.18,0,.36,0,.55,0-.17.13-.34.26-.51.39-.03-.13-.04-.26-.03-.39Z"/>
    <path class="cls-9" d="m83.93,48.13c1.5-.27,2.9.51,4.52.23,1.15-.2,1.76,1.75,2.41,2.79.5.79.39,2.08-.79,2.84-2.25,1.45-2.75,3.46-2.52,6.17.2,2.35,0,4.78.07,7.18.04,1.21-.18,2.24.83,3.12.35.3.46.82.15,1.23-.37.48-.84.16-1.22-.02-3.86-1.8-7.09.25-10.34,1.79-1.02.48-1.96.73-3.06.84-2.3.22-4.06,1.56-4.89,3.61-.84,2.09-1.81,2.82-3.89,1.65-.26-.15-.8.21-1.22.33-.11-3.88,1.13-7.33,3.07-10.57,1.16.08,1.63-.92,2.38-1.5,1.33-1.03,2.36-2.59,4.55-1.77,1.08.4.44-1.28,1.15-1.61,1.08-.34,1.2-1.19,1.16-2.14.18-.18.36-.36.54-.54,1.9.06,3.28-.26,2.3-2.7-.22-.54-.1-1.22-.13-1.84.63.04.99-.24,1-.9,1.16-1.34,1.39-2.88,1.02-4.56.97-1.21,1.93-2.42,2.9-3.63Z"/>
    <path class="cls-3" d="m50.73,63.19c-2.15.32-4.06.96-4.81,3.35-.16.52-.64,1.02-1.25.63-.6-.38-.28-1.01,0-1.46.8-1.32,1.66-2.59,2.5-3.89.81-.65,1.61-1.31,2.48-2.01-3.49-1.09-4.29-2.48-3.7-6.22,1.22-1.79,2.4-3.88,4.24-4.81,3.2-1.62,4.16-4.7,5.87-7.31.33-.2.67-.4,1-.59.23-.13.47-.27.7-.4.34-.12.68-.24,1.01-.37,3.46-1.35,4.22-.97,5.1,2.56.67,1.73.08,3.77,1.24,5.71.54-1.73.96-3.11.86-4.58.81-1.8,1.99-3.11,4.1-3.33.39,1.06-.42,1.21-.89,1.43-1.51.7-1.87,1.98-2.14,3.48-.71,3.84-1.02,7.85-3.82,10.97-1.86,2.45-4.32,3.84-7.31,4.64-1.77.48-3.63,1.04-5.17,2.2Zm4.2-17.35c-.71.93-1.42,1.86-2.14,2.79-2.75.96-4.28,3.25-5.51,5.59-.85,1.62-.74,3.58,1.74,4.18.72-.01,1.44-.03,2.16-.04.81.26,1.48.03,2.05-.56,1.86.28,3.57-.07,5.16-1.08,4.38-2.79,5.07-4.66,3.72-9.76-.32-1.2-.58-2.43-.58-3.72,0-.84.94-2.04.02-2.44-1.05-.46-2.27.26-3.15,1.08-.71.66-1.61,1.2-1.84,2.27-.95.17-1.42.82-1.64,1.7Z"/>
    <path class="cls-4" d="m56.06,41.47c-1.72,2.61-2.67,5.7-5.87,7.31-1.84.93-3.02,3.02-4.24,4.81-.38-.2-.77-.39-1.15-.59-.12-2.97.81-5.38,3.36-7.15,2.5-1.73,4.82-3.73,7.9-4.38Z"/>
    <path class="cls-2" d="m44.8,53c.38.2.77.39,1.15.59-.6,3.75.2,5.14,3.7,6.22-.87.7-1.67,1.36-2.48,2.01-.64,0-1.29,0-1.93,0-1.77-1.26-1.5-3.18-1.62-4.97.93-1.18.31-2.56.5-3.83.23,0,.45-.02.68-.02Z"/>
    <path class="cls-7" d="m50.73,63.19c1.54-1.17,3.4-1.73,5.17-2.2,2.99-.8,5.45-2.19,7.31-4.64-.28,2.48-3.2,5.55-5.61,5.96-2.2.38-4.08,2-6.46,1.73-.14-.28-.28-.57-.41-.85Z"/>
    <path class="cls-5" d="m79.01,57.22c.04.62-.09,1.29.13,1.84.98,2.44-.4,2.77-2.3,2.7.36-1.35.73-2.7,1.08-4.06.17-.65.45-.94,1.09-.48Z"/>
    <path class="cls-10" d="m65.98,43.79c.09,1.47-.33,2.85-.86,4.58-1.16-1.93-.56-3.98-1.24-5.71.9,0,1.15,1.22,2.1,1.12Z"/>
    <path class="cls-5" d="m81.03,51.77c.37,1.68.14,3.22-1.02,4.56.02-1.59-.52-3.31,1.02-4.56Z"/>
    <path class="cls-5" d="m76.3,62.3c.04.94-.09,1.8-1.16,2.14.17-.83-.35-2.04,1.16-2.14Z"/>
    <path class="cls-4" d="m57.76,40.48c-.23.13-.47.27-.7.4.23-.13.47-.27.7-.4Z"/>
    <path class="cls-11" d="m71.89,20.04c.31-.65.93-.82,1.55-.99,1.69.57,2.68,2.08,4,3.12,1.2.94-.17,4.48-2.07,5.86.96-3.5-1.77-5.37-3.4-7.73-.05-.07-.05-.17-.08-.26Z"/>
    <path class="cls-2" d="m99.85,144.02c-.68,1.77-1.63,2.09-2.72,2.12-.14,0-.45-.42-.41-.54.47-1.25,1.67-.97,3.13-1.58Z"/>
    <path class="cls-2" d="m95.94,149.55c.77.05,1.11.48,1.06,1.24-.04.67-.47.9-1.07.95,0,0,0,0,0,0,0-.72,0-1.45-.01-2.17l.02-.02Z"/>
    <path class="cls-2" d="m100.37,168.26c.19.15.48.25.55.45.13.35-.2.46-.44.39-.2-.06-.34-.31-.5-.47.11-.11.22-.21.39-.37Z"/>
    <path class="cls-7" d="m38.71,88.45c1,.17,1.69.76,2.13,1.65-.93,1.29-1.81,2.63-2.82,3.86-.66.8-1.28,1.84-2.62,1.6-.55-1.34-.1-2.58.24-3.89.5-1.93.91-3.7-1.98-4.59-2.08-.65-3.72-2.63-6.24-2.29-.03,0-.13-.48-.2-.73,3.17-.15,6.46-.96,8.91,2.11.71.89,1.71,1.54,2.58,2.3Z"/>
    <path class="cls-8" d="m15.78,74.26c.78-1.86,1.67-3.61,3.81-4.24,0,1.06-1.29,1.6-1.12,2.7.16,1-.62,2.47.6,2.9.89.31,2.12-.26,2.83-1.22.37-.5.59-1.15,1.34-1.24,0,1.03-.01,2.07-.01,3.1-.14.05-.29.08-.44.11-.79.1-1.66.03-2.37.34-2.6,1.11-4.03.4-4.64-2.45Z"/>
    <path class="cls-7" d="m22.8,76.37c.15-.03.3-.07.44-.11.88.26,1.35.81,1.27,1.77-.11,1.29.11,2.54,1.01,3.5,1.2,1.28-.97,1.96-.46,3.08-1.17.3-2.2-.29-3.28-.52-.25-2.65.46-5.17,1.02-7.72Z"/>
    <path class="cls-2" d="m122.1,173c-.04.07-.08.14-.12.22.04-.07.08-.14.13-.21h0Z"/>
    <path class="cls-9" d="m43.62,56.85c.12,1.79-.15,3.72,1.62,4.97-.07,1.39-.53,2.61-2.13,2.54-1.46-.06-1.6-1.24-1.79-2.52-.33-2.27-1.25-4.6,2.3-4.99Z"/>
    <path class="cls-3" d="m22.87,95.59c-2.73-.03-3.54-1.92-2.43-4.91,1.14-3.06,3.44-3.97,6.47-2.61.28.13.69.11,1,.02,1.81-.52,2.61.4,3.21,1.97.69,1.77-.44,2.8-1.47,3.65-2.03,1.67-4.68,1.42-6.79,1.88Z"/>
    <path class="cls-8" d="m95.92,149.57c0,.72,0,1.45.01,2.17-.6-.35-1.34-.67-1.27-1.47.06-.6.72-.66,1.25-.7Z"/>
    <path class="cls-5" d="m31.07,59.04c-.06-.68.27-1.05.92-1.15.12.73-.2,1.1-.92,1.15Z"/>
    <path class="cls-3" d="m73.53,28.52c-2.74,1.62-5.45.53-8.19-.03-1.27-.26-1.67-.93-1.56-2.09,1.35-1.54,3.25-2.26,5.02-3.07,2.64-1.21,4.88,1.3,4.73,5.19Z"/>
    <path class="cls-3" d="m64.27,24.4c-.62-.79-.05-1.09.55-1.39.23.63-.11,1.03-.55,1.39Z"/>
    <path class="cls-3" d="m64.87,22.33c.46-.12.95-.64,1.35.1-.35.46-.75.81-1.39.58.02-.23.03-.46.05-.69Z"/>
    <path class="cls-3" d="m66.16,22.45c-.17-.72.11-.99.82-.83.02.3.03.59.05.89-.29-.02-.58-.04-.87-.06Z"/>
    <path class="cls-9" d="m141.2,189.91l-.25-.02s-.25,0-.25,0c.16-.16.32-.32.48-.48,0,.17,0,.33.02.5Z"/>
    <path class="cls-2" d="m164.04,61.19c-2.32.23-4.53.16-6.18-1.87-1.06-1.3-1.27-2.57.57-3.12,1.54-.46,3.15-2.47,4.91-.17.27.35.68-.3.75-.77,1.14.02,1.12.81,1.06,1.62-.37,1.07-1.68,1.81-1.1,3.2,0,.37,0,.73,0,1.1Z"/>
    <path class="cls-9" d="m169.54,69.46c-.48-.04-.96-.07-1.43-.11-.53-2.15-2.29-2.11-3.97-2.22.11-.96-.83-1.37-1.11-2.12-.08-.96.79-1.44,1.11-2.2,1.82.8,3.39,1.98,4.87,3.29,1.1.97,1.35,2.08.54,3.37Z"/>
    <path class="cls-8" d="m164.04,60.09c-.57-1.39.73-2.14,1.1-3.2.93.71,1.3,1.66,1,2.77-.39,1.43-1.54-.41-2.11.43Z"/>
    <path class="cls-5" d="m152.67,49.8c-.02-.56-.05-1.13-.07-1.69.02-.51.03-1.03.05-1.54,3.11.15,6.2.99,9.33.04.63-.19.99.29,1.02.92.04.74.04,1.47-.94,1.65-.89.16-2.11-.33-2.33,1.17-.71.01-1.61-.25-2.1.08-1.34.92-2.35.83-3.44-.35-.28-.3-1-.2-1.52-.28Z"/>
    <path class="cls-8" d="m152.65,46.57c-.02.51-.03,1.03-.05,1.54-.72-.09-1.54.22-2.12-.48,0-.35,0-.69,0-1.04.72,0,1.45-.01,2.17-.02Z"/>
    <path class="cls-5" d="m150.47,46.58c0,.35,0,.69,0,1.04-.2-.2-.4-.4-.6-.6.02-.15.03-.3.03-.45.19,0,.37,0,.56,0Z"/>
    <path class="cls-8" d="m149.91,46.57c0,.15-.02.3-.03.45-.15,0-.3,0-.45.01-.02-.16-.03-.33-.04-.5.17,0,.35,0,.52.03Z"/>
    <path class="cls-5" d="m149.39,46.54c0,.17.02.33.04.5-.2,0-.4,0-.59-.01.19-.16.37-.32.56-.48Z"/>
    <path class="cls-3" d="m68.65,15.93c.1-.08.2-.15.29-.23-.09.09-.17.18-.26.26,0,0-.03-.03-.03-.03Z"/>
    <path class="cls-2" d="m163.02,65.01c.28.75,1.22,1.16,1.11,2.12-.39.13-.78.27-1.17.4-1.34-1.75-4.47-2.7-6.19-1.68-1.51.9-2.27,2.62-3.84,3.65-1.06.69,1.03,1.94.64,3.17-.66,0-1.32.01-1.98.02-.51-.14-1.26.11-1.28-.81.25-1.49.43-3,.78-4.47.3-1.25.79-2.44,2.45-2.37.66.03,1.18-.22,1.64-.75,2.06-2.35,3.33-2.42,5.71-.14.66.64,1.3.89,2.13.86Z"/>
    <path class="cls-9" d="m148.81,72.04c-2.8.46-4.99-.94-7.08-2.46-.85-.62-1.48-1.56-2.21-2.35,1.81-.84,3.39-2.69,5.71-1.27.11.84-.77.61-1.05,1.01-.67.96-1.14,1.88.68,1.85,2.28-.04,3.44,1.16,3.95,3.23Z"/>
    <path class="cls-11" d="m145.54,56.33c-.55-.11-1.42.17-1.37-.74.03-.69.72-.91,1.37-.96,0,.57,0,1.14,0,1.71Z"/>
    <path class="cls-6" d="m153.57,72.67c.4-1.23-1.69-2.48-.64-3.17,1.56-1.02,2.33-2.75,3.84-3.65,1.72-1.03,4.85-.08,6.19,1.68-.61.58-1.23,1.17-1.78,1.7.39.86,1.39-.2,1.66,1.04-1.47-.27-2.47,2.8-4.17.29-.29-.42-.37-1.29-.98-.78-.94.79-2,1.62-2.2,2.98-.1.69.4.96,1.01.97,2.03,0,1.44,1.08.81,2.08-.44.7-.91,1.36-.82,2.24-.19.05-.39.1-.58.15-.67-.85-1.85-.66-2.64-1.28.3-1.4.97-2.78.29-4.24Z"/>
    <path class="cls-8" d="m153.57,72.67c.68,1.47.01,2.84-.29,4.24-1.55.12-1.74-.83-1.59-2.04,1.44-.63.79-1.13-.1-1.61,0-.19,0-.38,0-.58.66,0,1.32-.01,1.98-.02Z"/>
    <path class="cls-9" d="m151.59,73.27c.89.48,1.54.98.1,1.61-.03-.54-.07-1.07-.1-1.61Z"/>
    <path class="cls-3" d="m156.5,78.05c-.09-.88.38-1.54.82-2.24.62-1,1.22-2.07-.81-2.08-.61,0-1.11-.27-1.01-.97.2-1.36,1.26-2.19,2.2-2.98.61-.51.69.36.98.78,1.7,2.51,2.69-.56,4.17-.29-.27-1.25-1.27-.19-1.66-1.04.56-.53,1.17-1.12,1.78-1.7.39-.13.78-.27,1.17-.4,1.67.11,3.44.07,3.97,2.22-.08.59-.17,1.18-.25,1.76-.09.11-.15.24-.18.38-1.19.82-1.13,2.57-2.46,3.29-2.72.54-4.08,2.65-5.47,4.73-1.08-.49-2.16-.98-3.24-1.47Z"/>
    <path class="cls-4" d="m159.74,79.51c1.39-2.08,2.75-4.19,5.47-4.73-.65,2.55-1.49,4.92-4.69,5.15-.26-.14-.52-.28-.78-.41Z"/>
    <path class="cls-11" d="m167.67,71.49c.03-.14.09-.27.18-.38,1.09-.08,1.62.45,1.68,1.51-.95.16-1.56-.24-1.86-1.14Z"/>
    <path class="cls-6" d="m56.58,44.13c.23-1.06,1.13-1.6,1.84-2.27.88-.82,2.1-1.53,3.15-1.08.92.4-.02,1.59-.02,2.44,0,1.29.26,2.52.58,3.72,1.35,5.1.66,6.97-3.72,9.76-1.59,1.01-3.31,1.36-5.16,1.08.33-4.47,3.01-7.57,6.06-10.47.64-.61,1.56-1.21.9-2.25-.49-.78-1.29-1.22-2.3-1.06-.44.07-.88.09-1.32.13Z"/>
    <path class="cls-9" d="m52.8,48.62c.71-.93,1.42-1.86,2.14-2.79,1.28.2,2.37-1.18,4.24-.39-3.58,3.95-7.73,7.3-7.98,12.91-.72.01-1.44.03-2.16.04-.17-2.89,1.09-5.25,2.86-7.37.61-.73,1.1-1.41.91-2.4Z"/>
    <path class="cls-2" d="m51.19,58.35c.25-5.6,4.4-8.96,7.98-12.91-1.87-.79-2.96.59-4.24.39.23-.88.69-1.53,1.64-1.7.44-.04.88-.07,1.32-.13,1.01-.16,1.81.28,2.3,1.06.66,1.05-.27,1.65-.9,2.25-3.04,2.9-5.73,6-6.06,10.47-.57.59-1.24.82-2.05.56Z"/>
    <path class="cls-8" d="m52.8,48.62c.19.99-.31,1.67-.91,2.4-1.77,2.12-3.03,4.48-2.86,7.37-2.48-.6-2.59-2.56-1.74-4.18,1.23-2.33,2.76-4.63,5.51-5.59Z"/>
  </g>
</svg>