<?xml version="1.0" encoding="UTF-8"?>
<svg id="Layer_2" data-name="Layer 2" xmlns="http://www.w3.org/2000/svg" viewBox="0 0 158.56 171.48">
  <defs>
    <style>
      .cls-1 {
        fill: #fefefe;
      }

      .cls-1, .cls-2, .cls-3, .cls-4, .cls-5, .cls-6, .cls-7, .cls-8, .cls-9, .cls-10, .cls-11, .cls-12, .cls-13, .cls-14, .cls-15, .cls-16, .cls-17, .cls-18 {
        stroke-width: 0px;
      }

      .cls-2 {
        fill: #c35d56;
      }

      .cls-3 {
        fill: #b0443e;
      }

      .cls-4 {
        fill: #150b0a;
      }

      .cls-5 {
        fill: #6f060c;
      }

      .cls-6 {
        fill: #cf8b83;
      }

      .cls-7 {
        fill: #461411;
      }

      .cls-8 {
        fill: #679141;
      }

      .cls-9 {
        fill: #7fa358;
      }

      .cls-10 {
        fill: #b1152a;
      }

      .cls-11 {
        fill: #9cc471;
      }

      .cls-12 {
        fill: #5c5c54;
      }

      .cls-13 {
        fill: #784941;
      }

      .cls-14 {
        fill: #a02a24;
      }

      .cls-15 {
        fill: #53842b;
      }

      .cls-16 {
        fill: #821613;
      }

      .cls-17 {
        fill: #3b4527;
      }

      .cls-18 {
        fill: #e5b5b1;
      }
    </style>
  </defs>
  <g id="Layer_1-2" data-name="Layer 1">
    <g>
      <path class="cls-4" d="m141.17,72.56c6.47-.74,10.42,2.7,13.17,8.26,2.65-2.29,2.09-4.94,1.1-8,3.45,2.13,2.65,4.86,1.41,6.8-2.49,3.9-2.13,8.03-2.02,12.22-.6,8.75-3.77,16.74-7.24,24.64-.14.31-1.2.29-.36.95,3.49,2.77,2.3,6.77,2.73,10.35-1.28,3.4-.44,7.28-2.39,10.53-.89,1.48-.97,3.54-3.02,4.2-.55-1.7.48-3.01,1.13-4.4,1.38-2.97,2.32-6.01,1.67-9.34,0-1.1,0-2.2,0-3.29,1.86-3.25-.03-5.31-2.34-7.18-.61-.5-1.33-.65-2.14-.1-.87.59-.68,1.12-.43,1.96.52,1.74.81,3.55,1.19,5.33-.77,4.43-3.16,8.3-4.28,12.61-1.04,2.16-2.08,4.32-3.12,6.49-.52.71-1.12,1.38-1.54,2.15-.36.65-1.84.92-.78,2.13.94,1.08,1.75.11,2.37-.28,1.81-1.12,3.61-2.35,4.25-4.59l.11.03c1.59.39,1.99-2.4,3.8-1.43-2.89,3.35-5.25,7.46-10.35,7.74-1.46.08-1.59,1.13-2.08,1.95-.72,1.19-.64,2.82-2.02,3.64-1.35-1.82,1.95-3.72-.29-5.75-1.87,1.54-5.51.65-6.19,3.38-.62,2.48-2.12,3.07-3.87,3.89-.72-.44-.27-1.09-.3-1.66,1.02-1.98,1.33-3.51-1.82-3.17-1.16.13-2.35-.04-3.52-.07-3.25-1.25-6.1-1.4-8.6,1.81-2.79,3.58-2.12,7.21-1.04,11.01.65.23,1.3.78,1.98.07,5.13,1.77,5.88,1.37,6.13-3.24.77-.82,1.54-1.64,2.31-2.46,1.73-.5,2.42-3.23,4.84-2.26-.68,3.46-3.67,5.51-5.3,8.31,2.88,2.01,4.99-1.67,7.64-.69-2.35,1.73-4.68,3.02-7.9,2.12-1.46-.41-3.26.41-4.91.68-2.69-.45-6.04.3-6.81-3.94-.64,3.03-3.01,4.23-5.13,5.66-4.61,2.06-9.29,1.76-14.1.73-1.73-.37-2.78-1.18-3.64-2.52.99-4.09-.75-5.49-4.69-4.89-1.02.15-2.08,0-3.13-.03-2.89-1.29-5.39-3.07-7.2-5.73,1.27-1.23,1.78.16,2.37.79,1.1,1.18,2.24,2.09,3.97,1.86,2.62,3.05,5.69,1.38,8.66.84.22-1.09.67-2.02,1.73-2.55,1.64-.12,3.41.67,4.86-.7.21-.29.43-.58.64-.87,0-1.02,0-2.03-.01-3.05.16-3.93-3.35-5.11-5.48-7.32,1.21-4.07.56-4.82-3.63-5.72-1.36-.29-3.64,1.39-4.18-1.43,4.15,0,7.15-2.44,10.18-4.82,5.21-4.48,5.44-7.15.99-11.28-.08-.24-.11-.49-.09-.74,1.56-.16,3.82-.32,2.59-2.49-1.1-1.94-1.83-5.64-5.73-3.78-2.1-4.72-5.88-8.2-9.14-12.04-1.8-2.12-3.81-1.43-5.08.87-.63,1.13-.9,2.47-1.33,3.72-2.23,1.87-4.13,4.21-7.15,4.93-2.93.38-2.89,3.85-5.14,4.94-.31-.12-.63-.24-.94-.36.11-.99,2.92-2.97-.39-2.73-5.26.38-10.21-2.77-15.48-1,.96-1.04,1.91-2.09,2.87-3.13,3.46,1.12,7.43-.35,10.49,1.06,3.19,1.47,4.2.06,5.64-1.87,3.93-.89,7.23-2.41,7.22-7.24l-.03.04c3.69-.98,6.57-2.56,5.31-7.2.8-.22,1.03-.82,1.05-1.56,1.05,1.02.95,3.07,3.12,3.12,4.62.11,9.23.36,12.87-3.29,1.3-.18,2.52-.51,3.28-1.72.8-.35,1.59-.71,2.39-1.06,1.25-.5,2.83-.52,3.23-2.24,2.56-1.66,3.14-4.24,3.26-7.03,0-.44-.02-.88-.03-1.32.85-2.44,1.2-4.97,1.27-7.55-1.06-2.29-3.37-2.28-5.34-2.9-.71-1.46-2.14-2.2-3.5-2.26-4.84-.18-9.75-.69-14.34,1.55-2.74-.39-4.58,1.13-6.28,2.95-2.27,1.47-3.31,3.48-3.11,6.25.17,2.46.07,4.95.08,7.42-.56.26-1.11.51-1.67.77-.05-.5-.1-1-.14-1.5,1.57-1,.55-2.09.11-3.16.19-2.23-.05-4.46.39-6.73.39-2.03-.88-3.31-3.12-2.19-2.2,1.1-4.32,2.39-7.07,3.94,2.3,1.07,4.07,1.89,5.83,2.7-.07.89-.56,1.34-1.44,1.38-1.52-1.08-2.85-2.54-4.94-2.45-1.24-1.24-2.74-.63-4.16-.58-.65-.7-3.3,1.19-2.24-1.73,1.88-.21,3.9.68,5.63-.73,1.42-.64,2.82-1.32,4.27-1.9,3.55-1.43,6.22-3.41,5.16-7.86,0-.52,0-1.04,0-1.56l.77-2.44c.02-2.65-1.94-1.1-3.02-1.42-6.53-.33-7.78.69-8.56,6.94.04.18.13.32.29.41l-.09.08c-1.67.5-2.01,2.17-2.95,3.32-.66.8-.53,2.72-2.46,1.91.34-.77.69-1.55,1.03-2.32.46-.13.78-.35.55-.9.05-.24.1-.48.14-.72.84-1.56,1.51-3.25,2.56-4.65,1.82-2.42.12-2.81-1.65-3.3,1.54-1.39,3.07-2.78,4.61-4.17.23.22.46.44.68.67-.08.11-.18.2-.23.32-.04.09,0,.29,0,.29,4.14-.03,8.78,2.92,12.09-2.06.3-.45.84-.58,1.21.06-3.16,2.26.27,4.22.28,6.33-1.15.38-3.11-3.26-3.46.57-.16,1.75-.98,4.82,1.12,5.07,2.81.33,1.82-2.72,2.05-4.51.05-.38.21-.75.32-1.12.43-.54.76.02,1.13.1-.25,3,.86,4.56,4.1,3.85,1.28-.03,2.56-.06,3.84-.09,3.7-1.04,7.67.14,11.3-1.42,1,.25,1.99.72,2.99.72,3.08,0,5.83.02,8.22,2.82,1.42,1.67,3.11-.54,4.14-1.81,1.41-1.75-.43-2.16-1.48-2.83-1.88-1.2-3.96-1.37-6.12-1.29-1.94.07-3.95.19-5.59-2.1,5.41.71,10.67.22,14.96,3.71,1.15.93,1.97-.08,2.94-.12,3.72-1.35,7.74-.16,11.69-1.08q-6.97-9.03-11.5-10.05c-2.22-1.65-4.58-2.87-7.48-2.41-.82,0-1.63,0-2.45,0-2.59-.13-4.89.17-6.49,2.7-.52.82-1.67,1.68-3.02,1.37,1.04-2.04.85-3.86-.92-5.42-.1-.78-.44-1.44-1.27-1.53-.8-.09-.9.63-1.04,1.22-.58.14-1.16.27-1.74.4.17-1.65.64-3.4-1.49-4.23-1.25.1-2.6.55-3.73.23-4.2-1.15-7.95-.4-11.44,2.09-.99-.47-2.75,2.23-3.13-.76-.04-.51-.08-1.01-.12-1.52.24-.22.48-.45.72-.67.83.94,1.44,2.06,3.1.97,2.44-1.6,5.3-2.01,8.19-2.04,1.33.01,2.66-.02,3.99.05,1.23.06,3.14.77,3.56.25,1.09-1.35.97-3.62.33-4.96-3.99-8.32-6.97-17.31-13.78-23.96-3.54-3.46-7.12-7.26-11.43-9.44-3.78-1.92-8.17-3.37-12.74-3.48-6.61-.16-13.26.75-19.83-.71-.79-.18-1.63-.12-1.76-1.6,13.4,2.72,27.97-3.31,40.42,6.11-.35-.61-.69-1.22-1.16-2.03.57,0,.97-.13,1.23.02,5.15,2.95,8.9,7.37,11.9,12.29,3.53,5.79,6.51,11.92,9.79,17.86.88,1.6,2.04,3.04,2.94,4.63,1.12,1.95,2.3,1.7,3.76.4,2.86-2.55,6.26-4.42,8.87-7.31,1.68-1.86,3.9-3.08,6.15-4.18.76-.37,1.68-1.34,2.21.18,1.36,3.97,3.31,2.24,4.59.23,1.79-2.79,2.91-1.74,4.33.15,3.07,4.1,1.93,9.74-2.25,12.64-4.64,3.22-10.09,4.22-15.19,6.18-1.09.42-2.26.54-3.1,2.11,5.34-.1,9.5,2.46,13.93,4.23,1.62.65,3,1.52,4.27-.8.99-1.81,3.09-2.39,5.12-2.4,5.02-.01,9.82.85,14,3.89-.18.25-.36.5-.53.75-4.35-2.32-8.96-3.4-13.91-3.07-3.5.24-4.32,1.33-3.39,4.95,2.17,1.16,4.37,2.27,6.5,3.5,2.21,1.27,3.72,3.28,5.41,5.13,1.56,1.71,3.39,3.16,5.75,5.31-3.76-.71-5.76-3.2-8.75-2.69-.49-.08-.99-.16-1.48-.24-5.01-4.19-10.91-1.98-16.41-2.1-3.67-.08-4.21,3.87-6.02,6.15-.29.27-.58.54-.87.81-.85-.04-1.65.04-1.57,1.18.15,1.97.35,3.93.53,5.89-3.04,1.25-2.94,3.97-2.81,6.5.08,1.58,1.45,2,2.95,1.66,1.8,1.75,1.74,4.46,3.27,6.35.34.5.68,1,1.03,1.5-.39.68-1.03.9-1.76.95-.54-.58-1.09-1.16-1.63-1.74-1.65-5.57-5.24-1.56-8.01-1.62-1.08.15-2.24.05-3.11.92-.82.52-1.63,1.04-2.45,1.56-3.99,2.11-9.16,3.28-7.78,9.7,0,.8-.01,1.6-.02,2.41,0,.51.02,1.03.02,1.54-.93,3.82,2.38,4.24,4.5,5.62.26.32.52.65.78.97.86,1.5,1.71,2.99,2.57,4.49,1.27,3.34,2.32,6.84,6.28,8.08l.33.04.33-.02c.43.27.83.66,1.29.78,5.49,1.41,10.21-.8,14.86-3.25-.36,3.05.57,4.79,4.03,3.95,3.16-.01,6.31-.03,9.47-.04,3.01.27,6.01.31,8.93-.67.98,2.01-2.61,2.07-1.72,4.04.77,2.61,2.62,4.82,3.05,7.8,1.62-5.16,4.9-9.59,5.67-15.01-.06-1.53.73-3.21-.87-4.77-.73,1.78-1.35,3.3-1.97,4.82-.59.77-1.19,1.54-1.78,2.32-.81.23-1.33,1.34-2.4.83,1.25-3.77,3.41-7.21,4.01-11.21,2.68-3.83,1.59-7.96.95-12.06-.75-2.54-2.09-4.42-5.02-4.56-1.32-.14-2.33.58-3.36,1.24-2.58.14-4.38,2.52-6.89,2.56-2.32.04-2.53,1.22-2.42,3,.08,1.31.29,2.72-.09,3.92-.79,2.5-.22,5.92-3.96,6.71.62-1.31,1.31-2.58,1.84-3.92,2.42-6.06.44-10.34-5.06-10.5,2.09,3.92,2.83,8.03,2.45,12.34-.07.77-.1,1.62.79,2.07.47,1.96-1.15,3.15-1.75,4.71-1.43.61-1.9,2.74-3.9,2.45.13-3.02,4.12-3.99,3.83-7.23,0-.5-.02-1-.02-1.49.23-5.64-1.32-10.75-4.58-15.35.28-.34.55-.68.83-1.02,3.11,1.11,5.97,4.31,9.58,1.11,1.81,3.31,3.78,1.32,5.72.16.59-.12,1.17-.25,1.92-.41-.94-.74-1.61-.48-2.26.02-1.81.08-3.61.17-5.42.25,2.48-2.97,5.96-.98,8.88-1.77,4.02-.45,6.65-3.81,7.3-9.31.68-.45.67-1.08.48-1.77.02-1.59.04-3.18.06-4.77.52-4.71.27-9.28-3.44-13.78,2.81.78,2.76,2.74,3.9,3.74.58-.74.84-1.9,2.07-2.06Zm-41.95,93.68c.96-.53,1.13-1.44,1.13-2.42,1.29-1.77.92-3.53.24-5.57-3.85,2.37-7.32,4.29-11.69,1.85-1.15-.64-3.73-1.38-4.58,1.33-4.31.31-4.92,1.55-3.19,6.39,4.97,3,10.06,3.15,15.27.66,1.27-.33,1.99-1.35,2.82-2.24Zm12.23-29.52c-.44,2.86-.88,5.72-1.32,8.59-.4,1.55-.81,3.11-1.22,4.69,5.8,1.14,3.94-2.83,4.05-5.44.02-2.9.04-5.81.06-8.71-.24-2.18-1.16-3.67-4.02-3.79.94,1.8,1.7,3.23,2.45,4.66Zm-16.58-5.58c-1.1-.05-2.2-.09-3.3-.14-2.77-1.52-3.18.78-3.98,2.46-1.35,2.25-4.72,3.94-2.04,7.31.04.7.07,1.4.11,2.09-.5,1.41-.9,2.82.3,4.11,2.91,5.4,6.03,6.75,11.2,4.85,1.6-.54,3.19-1.08,4.79-1.62.34,2.1-2.86,1.65-2.8,3.69,5.72-.93,8.53-3.49,8.89-8.35-1.99,1.9-2.81,5.04-6.1,4.67,1.14-2.51,4.44-3.38,4.86-6.44,1.6-2.52.5-5.27.65-7.91.67-5.52-3.93-3.46-6.4-4.44-2.04-.49-4.08-.74-6.16-.27Zm-1.69-88.88c-.24.26-.48.52-.73.78.02,5.4.37,5.64,5.4,3.67.36-.14.68-.39,1.01-.58,1.62-.26,3.31-.31,4.7-1.39,2.25.11,3.73-1.8,5.67-2.28,3.59-.88,6.72-2.49,9.58-4.74,2.42-2.26,1.66-4.9.55-7.31-.37-.8-1.91-3.18-3.05-.14-1.07.45-1.25,1.64-1.95,2.37-1.49,1.55-3.29,1.6-4.12-.42-1.52-3.69-3.31-2.44-5.25-.62-2.36,2.21-4.66,4.48-6.99,6.73-2.12.72-3.71,2.09-4.89,3.97l.07-.03Zm54.24,65.57c.19-1.62.14-3.36-1.66-3.85-1.3-.36-3.17-.44-4.13.25-1.15.82.69,2.23.52,3.5-.07,2.37-.17,4.75-.19,7.12,0,.95.5,2.4,1.44,1.21,1.89-2.4,5.19-4.29,4.03-8.23Zm-14.09,36.3c1.06-2.28.97-4.51-.29-6.69,0-.27-.01-.54-.02-.81-2.84-3.94-4.28-4.15-11.07-1.56q-8.09-.17-7.85,5.53c.02,1.33.03,2.65.05,3.98-.02,1.63-.56,3.32.59,4.81,1.3,5.06,3.5.51,5.25.83-1.65-1.34-3.51-.47-5.25-.82.3-1.02,1.13-1.63,2.04-1.54,5.94.56,10.92-3.04,16.56-3.74Zm7.3-57.26c-.83,3.7-.83,7.56-2.33,11.14-.72,1.72-.42,3.02,1.82,3.43,11.32,2.08,12.39,1.19,12.24-10.49,0-.53-.11-1.05-.16-1.57.04-.92-.23-2.02.18-2.73,3.16-5.58-1.22-8.31-4.32-11.4-1.87-1.87-4.56-1.63-6.69-.85-1.98.72-.82,3.01-.88,4.59-.11,2.62.08,5.26.15,7.89Zm-55.4-50.73c-.09,2.83-.24,5.02.62,7.18.4,1.01.05,2.76,1.94,1.93,1.29-.56,2.46-1.45,1.63-3.37-.89-2.08-2.25-3.73-4.19-5.74Zm-10.59,65.72c1.38,1.19,2.38,2.62,2.56,4.49.07.68.29,1.32,1.12,1.35,1.08.03,1.26-.76,1.27-1.58.03-2.24,0-4.48,0-6.84-1.63.85-3.23,1.68-4.95,2.58Zm53.74-36.43c-2.55-3.49-5.58-5.26-9.71-6.41,2.6,3.43,4.92,6.24,9.71,6.41Zm-31.23,91.02c.04-.16.08-.33.12-.49-2.07-.57-4.12-1.22-6.22-1.66-.98-.21-1.81.28-1.8,1.49.01,1.29.66,1.34,1.81,1.16,2.01-.32,4.06-.35,6.09-.5Zm24.96-6.37c3.39-.03,5.55-.81,7.66-1.74.64-.28,1.03-.97.64-1.6-.19-.31-.98-.51-1.39-.39-2.19.66-4.38,1.38-6.91,3.73Zm-46.17-50.81c-1.99-.2-3.47-.21-4.87-.55-1.18-.28-1.81-.17-1.85,1.14-.04,1.22.69,1.81,1.76,1.53,1.6-.42,3.39-.58,4.96-2.13Zm20.37,59.21c-1.72-.03-3.51-.7-5.86.54,2.59,1.07,4.3,1.05,5.86-.54Z"/>
      <path class="cls-10" d="m35.64,84.26l.04-.31s.3-.07.3-.07c.46.1.91.2,1.37.3.48.13,1.15.53,1.42.34,4.32-3,7.59-.15,11.01,1.89.38.65,1.02,1.1.7,2.11-.86,2.67.86,4.67,2.51,6.14,1.68,1.5,3.35-.55,4.99-1.2.46,1.06,1.3,1.52,2.42,1.67,1.79.24,2.59,1.7,2.15,3.06-.58,1.8.38,3.29.27,4.93,0,0,.03-.04.03-.04-3.75,1.85-7.86,2.45-11.82,3.61-1.08.32-1.85,1.45-1.84,2.79-1.35.81-1.33-3.63-3.2-.84-.14-2.46-.29-4.85-3.7-4.94-.99-.03-.98-1.09-1.14-1.86-.29-1.41-1.15-2.03-2.59-1.79-1.94-.19-4.35-.96-4.08-2.85.37-2.55-1.07-4.38-1.28-6.59.65-2.18,2.89-3.75,2.43-6.36Z"/>
      <path class="cls-6" d="m127.49,68.08c2.99-.51,4.99,1.98,8.75,2.69-2.36-2.16-4.2-3.61-5.75-5.31-1.69-1.85-3.2-3.87-5.41-5.13-2.13-1.22-4.33-2.33-6.5-3.5,2.86-.54,5.61-.27,7.66,1.96,1.13,1.23,1.83.97,2.93.15,1.51-1.12,3.05-.22,3.83.86,2.83,3.89,5.41,7.97,8.06,11.98.13.2.08.51.11.78-1.23.16-1.49,1.32-2.07,2.06-1.14-1-1.09-2.96-3.9-3.74,3.7,4.5,3.96,9.07,3.44,13.78-2.98.55-3.92,4.9-7.62,4.11.01-2.14,1.84-4.92-1.6-5.93-3.28-.97-6.73-3.84-9.99.16-1.63-1.86-2.9-2.37-3.22.83-.49.28-.98.55-1.47.83-.53.01-1.05.03-1.58.04-.96.57-2.4,1.01-.64,2.33-.07.54-.13,1.08-.2,1.61-1.79.06-1.35,1.71-1.9,2.66-2.9-2.5-3.17-5.56-1.93-8.95,2.53-1.44,5.82-1.76,7.06-5.12.36-.97,1.24-1.3,2.57-.52,2.54,1.48,5.31.85,8,.01,1.65-.51,2.19-2.63,1.76-3.05-1.92-1.9-.47-3.74-.4-5.59Z"/>
      <path class="cls-6" d="m149.96,127.8c-.43-3.58.76-7.58-2.73-10.35-.84-.67.23-.64.36-.95,3.47-7.9,6.64-15.9,7.24-24.64,4.31,2.67,2.61,7.37,3.69,11.13.27.94-.75,1.5-1.44,2.16-2.29,2.18-5.7,3.63-2.13,8.08,2.22,2.76-.05,6.88-1.65,9.85-.85,1.57-1.87,3.41-3.33,4.73Z"/>
      <path class="cls-2" d="m39.5,111.12c-.96,1.04-1.91,2.09-2.87,3.13-.19.04-.27.16-.24.35-1.89,1.78-2.41,3.73-.75,5.95,1.17.1,3.06-.19,3.25.91.78,4.56,5.5,5.75,7.43,9.24-.1.11-.21.22-.31.33-3.33-.85-5.53-4.19-9.55-4.45.64,1.73,1.17,3.18,1.7,4.62.03.16-.03.27-.17.34-.34.06-.69.13-1.03.19-2.46-4.24-3.9-8.74-3.97-13.71-.06-4.12-1.12-8.15-2.59-11.94-1.62-4.17-1.81-8.15-.31-12.29.01,2.53-.29,5.11.13,7.57.37,2.18.15,5.27,3.83,5.21.52.55,1.04,1.1,1.56,1.64-.14,2.98,1.72,3.21,3.97,2.9h-.08Z"/>
      <path class="cls-4" d="m53.92,57.42c1.55-1.71,3.87-1.88,6.98-3.42-11.92-5.63-24.02-5.15-35.68-6.73-3.08-.18-6.51-1.06-6.85,3.81-.04.52-.82.99-1.26,1.49,0-1.67,0-3.35,0-5.02-3.99.14-6.83,3.83-10.95,3.84.76-.89,1.52-1.78,2.28-2.67,0,0,.01-.01.01-.01,3.79-2.51,8.54-1.98,12.5-3.96,2,2.72,4.84,1.19,7.32,1.45,4.86-.09,9.7.26,14.5,1.05,1.08,1.19,2.49.58,3.77.68,2.07,1.04,4.25,1.57,6.57,1.48,4.54-.09,8.01,2.98,12.13,4.14.03,1.64-.82,2.49-2.41,2.34-3.04-.29-5.56,1.16-8.21,2.21-.23-.22-.46-.44-.68-.67Z"/>
      <path class="cls-6" d="m70.77,159.86c-1.72.23-2.87-.68-3.97-1.86-.59-.63-1.09-2.02-2.37-.79,0,0-.06-.15-.06-.15,1.17-.56.35-1.25.12-1.89,1.35-.19,1.98-.97,1.28-2.18-2.49-4.35-.62-8.73-.23-13.1,1.99-.54,3.13,2.08,5.16,1.39,1.9,1.78,2.02,1.88,1.53,2.45-2.62,3.04-.7,5.51.92,8.04-.88,1.72-3.31,1.43-4.15,3.21-1.14,2.02.63,2.47,1.76,3.27,0,.54,0,1.07.01,1.61Z"/>
      <path class="cls-18" d="m119.63,157.48c1.75-.83,3.25-1.42,3.86-3.89.68-2.73,4.32-1.84,6.19-3.38,2.24,2.03-1.06,3.93.29,5.75,0,0,.02-.08.02-.08-2.36-.16-2.3,1.76-2.78,3.23-1.13,1.01-1.64,2.89-3.67,2.67-.32,1.2-2.74,1.39-1.59,3.29,0,0-.02.07-.02.07-2.64-.98-4.76,2.7-7.64.69,1.63-2.8,4.62-4.86,5.3-8.31,0,0,.03-.03.03-.03Z"/>
      <path class="cls-4" d="m29.14,39.03c.95-2.21,2.27-3.66,5.05-3.18,2.54.44,4.62-1.45,7.18-1.66,6.52-.51,12.19,1.33,17.37,5.08.03.49.31.69.78.67,0,0,.03.03.03.03.2.86.85.9,1.55.83,0,0,0,0,0,0,.94,1.71,3.36,2.02,3.89,4.12-.24.22-.48.45-.72.67-.69-.62-1.3-1.35-2.07-1.85-3.73-2.43-6.81-6.1-11.76-6.25-2.25-3.17-5.5-2.33-9.1-2.32,1.88,1.41,3.53,1.98,5.27,2.34,1.13,1.06,2.26,2.13,3.38,3.19.77,1.53.95,3.17-1.26,3.07-2.09-.09-4.59.1-5.93-2.29,2.02-.84,3.78,1.92,5.86.46-2.62-3.46-2.73-3.52-8.15-3.6.22,1.48,2.95,1.15,2.3,3.15-2.56-.19-3.93-2.67-6.27-3.27-2.82-2.77-4.81,1.44-7.37.88l-.06-.06Z"/>
      <path class="cls-2" d="m53.16,142.9c-3.35-2.59-2.68-7.38-5.56-10.23-.53-.55-1.06-1.1-1.58-1.64.1-.11.21-.22.31-.33,1.14.15,2.54,1.02,3.34-.12.8-1.14-.29-2.18-1.06-3.12-.5-.6-.98-1.27-1.28-1.99-1.62-3.82.9-7.88,4.55-7.39-.25,1.03-.73,2.06-.73,3.09.02,3.93-2,8.26,2.05,11.48.29.52.58,1.03.86,1.55.64,2.88-.42,5.89.67,8.74-.52,0-1.04-.02-1.57-.03Z"/>
      <path class="cls-4" d="m53.16,142.9c.52,0,1.04.02,1.57.03,3.66,1.53,4.79-3.15,8-3.41-3.66,3.54-2.33,7.15-.74,10.72.75,1.68,1.66,3.29,2.5,4.93.23.65,1.05,1.33-.12,1.89-2.12-3.78-5.75-6.31-8.15-9.87-1.13-1.68-2.71-2.79-4.98-2.68-2.11.11-3.92-.7-5.2-2.6,2.34.87,4.66,1.48,7.12.99Z"/>
      <path class="cls-11" d="m20.95,44.75c-3.96,1.98-8.71,1.45-12.5,3.96,1.89-5.39,7.17-6.2,11.45-8.27,1.15-.56,2.91-.43,3.69,1.3-.27,1.54-3.21.87-2.59,3.14,0,0-.05-.12-.05-.12Z"/>
      <path class="cls-4" d="m38.72,81.39c2.84-3.15,3.81-7.29,5.6-10.98,1.49-3.08,2.94-6.14,5.03-8.86,1.4,2.21-1.42,3.05-1.55,4.77-1.44,3.06-2.87,6.12-4.74,10.09,1.54-1.19,2.23-1.73,2.93-2.27,1.29,2.03-1.75,2.66-1.4,4.45,1.11.94,2.52.14,3.74.53.06.71-.13,1.3-.81,1.65-2.97-.49-5.86-.03-8.73.68l-.07-.08Z"/>
      <path class="cls-11" d="m17.11,52.57c.44-.5,1.22-.97,1.26-1.49.34-4.87,3.78-3.98,6.85-3.81-.17,2.78-1.52,4.46-4.26,5.39-3.42,1.16-6.25,3.89-10.13,3.89,1.91-1.47,4.43-1.97,6.07-3.87l.22-.11Z"/>
      <path class="cls-2" d="m97.2,169.64c2.12-1.43,4.49-2.63,5.13-5.66.77,4.24,4.12,3.49,6.81,3.94-2.97,4.01-7.65,4.68-11.95,1.72Z"/>
      <path class="cls-9" d="m65,44.93c-.53-2.1-2.95-2.41-3.89-4.12,4.7,2.81,10.52.06,15.18,3.05-2.9.03-5.75.43-8.19,2.04-1.66,1.09-2.27-.03-3.1-.97Z"/>
      <path class="cls-4" d="m34.05,106.57c-3.68.06-3.46-3.03-3.83-5.21-.42-2.46-.12-5.04-.13-7.57,0,0,.26-.25.26-.25.43-.05.58-.27.4-.68.71-3.39,2.31-6.27,4.89-8.6.46,2.61-1.78,4.18-2.43,6.36-2.7,4.64-2.29,12.37.84,15.96Z"/>
      <path class="cls-6" d="m46.01,131.03c.53.55,1.06,1.1,1.58,1.64-2.98-.12-5.98.02-8.89-.81,0,0,.09.04.09.04-.21-.24-.42-.47-.62-.71-.53-1.45-1.07-2.89-1.7-4.62,4.02.26,6.21,3.59,9.55,4.45Z"/>
      <path class="cls-11" d="m8.44,48.72c-.76.89-1.52,1.78-2.27,2.67-2.14,3.63,1.57,3.2,3.02,4.34-.87.3-2.32.14-1.47,1.82,0,0-.03.02-.03.02-1.67-1.27-2.87,1.87-4.42.54-1.72-1.47,2.19-2.66.36-4.27,2.1-1.25,1.13-5.37,4.82-5.14Z"/>
      <path class="cls-6" d="m71.63,162.94c1.04.02,2.11.18,3.13.03,3.94-.6,5.69.8,4.69,4.89-3.08-.88-5.02-3.59-7.82-4.91Z"/>
      <path class="cls-4" d="m3.62,53.86c1.83,1.61-2.08,2.8-.36,4.27,1.55,1.33,2.76-1.82,4.42-.54-.14.21-.23.53-.41.6-2.35.88-5.02,4.17-6.9,2-1.42-1.63,1.6-4.4,3.25-6.33Z"/>
      <path class="cls-4" d="m143.22,60.03c.09.09.24.17.28.28,1.44,4.54,4.52,7.45,8.92,9.09-.18.25-.36.49-.54.74-5.8-.44-8.27-4.16-9.22-9.37.19-.24.38-.49.57-.73Z"/>
      <path class="cls-18" d="m47.81,66.33c.12-1.72,2.95-2.56,1.55-4.77,0,0-.04.04-.04.04,1.77.48,3.46.88,1.65,3.3-1.05,1.4-1.72,3.09-2.56,4.65-.28-1.06.39-2.29-.59-3.21Z"/>
      <path class="cls-4" d="m136.42,54.21c2.77,1.35,5.15,3.16,6.8,5.82-.19.24-.38.49-.57.73-2.25-1.94-4.51-3.87-6.76-5.81.18-.25.36-.5.53-.75Z"/>
      <path class="cls-4" d="m21,44.87c-.61-2.27,2.32-1.6,2.59-3.14,1.85-.9,3.7-1.8,5.55-2.7,0,0,.06.06.06.06.47.96-.23,1.32-.86,1.72-2.62,1.05-4.56,3.31-7.34,4.06Z"/>
      <path class="cls-4" d="m7.71,57.56c-.85-1.68.59-1.52,1.46-1.82,2.83-.35,4.54-3.56,7.71-3.05-1.64,1.9-4.16,2.4-6.07,3.87-1.04.33-2.07.67-3.11,1.01Z"/>
      <path class="cls-4" d="m39.32,133.66c1.65,1.43,3.25,2.9,4.16,5.64-2.66-1.12-3.39-3.36-4.73-5,.19-.21.38-.43.58-.64Z"/>
      <path class="cls-4" d="m127.22,159.1c.48-1.46.42-3.38,2.78-3.23-.74,1.23-.88,2.98-2.78,3.23Z"/>
      <path class="cls-4" d="m37.35,84.18c-.46-.1-.91-.2-1.37-.3.77-.99,1.52-2,2.75-2.49,0,0,.07.08.07.08.72,1.55-1.09,1.74-1.45,2.71Z"/>
      <path class="cls-4" d="m64.71,3.17c-2.49.4-3.45-.15-4.47-1.69,1.82-.1,2.5,1,4.47,1.69Z"/>
      <path class="cls-4" d="m121.96,165.06c-1.15-1.91,1.27-2.1,1.59-3.29,1.53,2.09-1.18,2.14-1.59,3.29Z"/>
      <path class="cls-4" d="m36.96,131.74c.34-.06.69-.13,1.03-.19.27.12.53.24.8.36,0,0-.09-.04-.09-.04.21.6.41,1.19.62,1.79-.19.21-.38.43-.58.64-1.13-.48-1.28-1.65-1.78-2.56Z"/>
      <path class="cls-4" d="m152.41,69.4c.98.41,1.7,1.06,2.04,2.37-1.48.32-1.85-.98-2.58-1.63.18-.25.36-.49.54-.74Z"/>
      <path class="cls-9" d="m61.11,40.8c-.7.07-1.35.04-1.55-.83.62.08,1.3.04,1.55.83Z"/>
      <path class="cls-9" d="m59.52,39.95c-.47.02-.75-.18-.78-.67.26.22.52.45.78.67Z"/>
      <path class="cls-2" d="m30.75,92.86c.18.41.03.63-.4.68.13-.23.27-.45.4-.68Z"/>
      <path class="cls-10" d="m112.33,88.64c.07-.54.13-1.08.19-1.61.82-.61.62-1.5.64-2.33.53-.01,1.05-.03,1.58-.04.54.75,1.24,1.11,1.96.38.45-.46.01-.94-.49-1.21.32-3.2,1.6-2.69,3.23-.83,2.43.27.96,1.9,1.06,3,.06.7.39,1.31,1.12,1.49.63.16,1.07-.25,1.05-.84-.14-3.59,2.49-3.11,4.37-2.57,2.04.58,2.64,2.22,2.37,4.68-.25,2.29-1.88,5.28,1.27,7.12.04,1.54.08,3.09.13,4.63-2.92.79-6.39-1.2-8.88,1.77,0,0,.03-.03.03-.03-3.61,3.21-6.47,0-9.58-1.1-.03-.42-.06-.84-.08-1.26-.24-.27-.48-.55-.72-.82,0,0,0-.02,0-.02-.12-1.42.52-2.34,1.56-3.35,1.51-1.47,3-3.32-.13-4.91-.79-.4-.59-1.38-.66-2.15Z"/>
      <path class="cls-10" d="m108.41,64.58c-.97.05-1.79,1.06-2.94.12-4.28-3.49-9.54-3-14.96-3.71,1.64,2.29,3.65,2.18,5.59,2.1,2.16-.08,4.24.08,6.12,1.29,1.05.67,2.89,1.08,1.48,2.83-1.02,1.27-2.71,3.48-4.14,1.81-2.38-2.8-5.14-2.81-8.22-2.82-1,0-1.99-.47-2.99-.72,0,0,.02.04.02.04-.41-3.53,1.6-6.88.8-10.44l-.03.04c1.35.31,2.5-.55,3.02-1.37,1.6-2.52,3.91-2.83,6.49-2.7.61,1.29,1.81,1.68,3.06,1.97.52.27,1.04.53,1.55.8.4.51.84,1.49,1.18,1.45,6.11-.66,4.19,3.44,3.98,6.56-.06.92-.02,1.84-.03,2.76Z"/>
      <path class="cls-10" d="m84.52,122.94c4.46,4.14,4.22,6.8-.99,11.28-4.47-.06-8.66-1.8-13.03-2.52-2.74-.45-5.39-1.74-8.34-1.23-1.56-.81-4.03-.33-4.27-3.01.71-1.55,2.18-1.75,3.61-2.09,1.23-.29,2.3-1.21,2.44-2.33.19-1.64-1.53-1.76-2.57-1.86-2.63-.26-4.25-1.31-3.8-4.83-1.35,1.97-2.23,3.25-3.11,4.53-.35-.59-.7-1.17-1.06-1.76.01-.26.02-.52.03-.78,2.25-1.09,2.21-4.56,5.14-4.94.97.03,1.69.62,2.51,1.02,2.06.98,4.7,1.33,3.39,4.76-.31.82.8,1.22,1.25,1.82,2.86,3.81,6.42,6.04,11.22,7.17,4.82,1.13,6.56.58,7.26-4.62,0-.25.1-.46.3-.62Z"/>
      <path class="cls-3" d="m75.4,69.65c4.59-2.24,9.51-1.73,14.34-1.55,1.36.05,2.79.79,3.5,2.25-.91.14-1.87.56-2.7.37-3.37-.76-4.28.28-3.21,3.58.49,1.5-1.13,2.26-2.18,2.18-3.63-.27-2.69,2.19-2.08,3.73.72,1.81,1.4,3.62,3.35,5.03,1.9,1.37,4.45,3.05,4.42,6.15-.8.35-1.59.71-2.39,1.07.01-1.18-.17-2.14-.97-3.23-3.96-5.45-10.2-6.06-15.9-7.86-1.33-1.36-2.64-.53-3.95.04-1.2-.93-.41-1.68.39-2.04,2.24-1.01,2.1-2.62,1.37-4.47,2.17.09,4.4-.18,5.6,2.44.32.69,1.84,1.47,2.63.16.61-1.01.82-2.7-.68-2.94-4.15-.66-2.67-2.78-1.55-4.92Z"/>
      <path class="cls-6" d="m84.52,122.94c-.2.16-.3.36-.3.62-4.79.78-9.03-1.74-11.65-4.6-2.67-2.91-5.24-6.55-6.84-10.49.43-1.25.7-2.58,1.33-3.72,1.27-2.29,3.29-2.98,5.08-.87,3.26,3.84,7.04,7.32,9.14,12.04.47,2.38,1.57,4.44,3.14,6.27-.02.25.01.5.09.74Z"/>
      <path class="cls-3" d="m117.95,119.08c3.74-.79,3.17-4.21,3.96-6.71.38-1.2.16-2.61.09-3.92-.1-1.78.11-2.96,2.42-3,2.51-.04,4.31-2.42,6.89-2.56.39,1.2-.62,2.04-.78,3.1-.21.08-.42.15-.64.23-2.61.09-4.04,1.09-4.95,3.91-1.57,4.86-.83,8.55,3.4,11.45.9,3.36-2.58,5.43-2.52,8.54-3.16.01-6.31.03-9.47.04.35-2.14.51-4.27-.14-6.39.6-1.56,2.22-2.75,1.75-4.71h-.03Z"/>
      <path class="cls-2" d="m152.18,89.38c.06.52.16,1.05.16,1.57.14,11.68-.93,12.57-12.24,10.49-2.24-.41-2.54-1.71-1.82-3.43,1.5-3.57,1.5-7.44,2.33-11.14,1.64.27,3.6-.24,4.82,1.05,2.01,2.13,4.28,1.98,6.74,1.45Z"/>
      <path class="cls-6" d="m90.84,91.4c.03-3.1-2.52-4.77-4.42-6.15-1.95-1.41-2.63-3.22-3.35-5.03-.61-1.54-1.54-4,2.08-3.73,1.05.08,2.67-.68,2.18-2.18-1.08-3.31-.16-4.35,3.21-3.58.83.19,1.8-.23,2.7-.37,1.97.63,4.28.61,5.34,2.9-3.25.45-6.26,1.38-8.73,4.04,2.66,1.25,5.06,2.38,7.46,3.51,0,.44.02.88.03,1.32-3.91,1.01-4.87,3.09-3.26,7.03-.4,1.72-1.98,1.74-3.23,2.24Z"/>
      <path class="cls-14" d="m65.73,108.48c1.61,3.94,4.18,7.58,6.84,10.49,2.62,2.85,6.86,5.38,11.65,4.6-.7,5.19-2.44,5.75-7.26,4.62-4.81-1.13-8.37-3.36-11.22-7.17-.45-.6-1.56-1-1.25-1.82,1.31-3.42-1.33-3.78-3.39-4.76-.83-.39-1.54-.99-2.51-1.02,3.02-.72,4.92-3.06,7.15-4.93Z"/>
      <path class="cls-9" d="m118.8,37.71c-2.86,2.25-5.99,3.87-9.58,4.74-1.94.47-3.41,2.38-5.67,2.28-.72-.58-.95-1.42-.3-2.02,1.74-1.64,1.2-3.5.86-5.59-2.07.64-4,1.5-6.12,1.2,2.33-2.25,4.63-4.52,6.99-6.73,1.94-1.82,3.72-3.06,5.25.62.83,2.02,2.63,1.97,4.12.42.7-.73.88-1.92,1.95-2.37,2.41,1.95,1.11,5.15,2.5,7.44Z"/>
      <path class="cls-1" d="m152.18,89.38c-2.46.53-4.74.67-6.74-1.45-1.22-1.29-3.18-.79-4.82-1.05-.06-2.63-.25-5.27-.15-7.89.06-1.58-1.1-3.87.88-4.59,2.14-.78,4.83-1.01,6.69.85,3.09,3.09,7.48,5.82,4.32,11.4-.41.72-.14,1.81-.18,2.73Z"/>
      <path class="cls-18" d="m127.49,68.08c-.07,1.85-1.52,3.69.4,5.59.43.42-.12,2.54-1.76,3.05-2.69.84-5.46,1.47-8-.01-1.33-.78-2.22-.45-2.57.52-1.24,3.35-4.53,3.68-7.06,5.12-.32-1.43-.5-2.91.07-4.26,1.16-2.72-.13-3.25-2.47-3.05-1.76.15-3.14-.28-3.38-2.34.29-.27.58-.54.87-.81,1.44,1.26,2.52,2.27,4.83.74,1.86-1.23,4.42-2.16,7.13-1.2,2.27.81,8.8-1.67,10.47-3.59.49.08.99.16,1.48.24Z"/>
      <path class="cls-16" d="m51.87,118.08c-3.65-.49-6.17,3.57-4.55,7.39.3.72.78,1.39,1.28,1.99.78.93,1.86,1.97,1.06,3.12-.8,1.15-2.2.27-3.34.12-1.93-3.49-6.64-4.68-7.43-9.24-.19-1.1-2.07-.81-3.25-.91-.63-2.09,1.17-3.88.75-5.95-.03-.19.05-.31.24-.35,5.27-1.77,10.22,1.38,15.48,1,3.3-.24.5,1.74.39,2.74-.2.1-.41.13-.63.09Z"/>
      <path class="cls-5" d="m85.17,94.18c-3.64,3.64-8.25,3.4-12.87,3.29-2.16-.05-2.07-2.1-3.12-3.12-.02-1.4-.04-2.8-.07-4.2,1.86.09,2.1-1.77,3.15-2.65,3.04-2.57,9.93-1.72,10.35,1.56.28,2.2,1.54,3.51,2.55,5.13Z"/>
      <path class="cls-10" d="m88.36,65.48c-3.63,1.56-7.61.38-11.3,1.42-1.31-2.22.9-3.89.9-5.94,0-3.75,2.43-5.77,5.5-7.26.5.1,1.15.44,1.46.24.51-.33.22-.97-.23-1.23-1.1-.63-2.26-1.16-3.4-1.73.96-.39,1.93-.79,2.89-1.18.58-.14,1.16-.27,1.74-.41.77.1,1.54.2,2.3.31,1.77,1.56,1.96,3.39.92,5.42,0,0,.03-.04.03-.04-.85,1.06-2.2-.48-3.39.74,1.53,1.18,1.33,2.65,1.05,4.29-.33,1.94-.32,3.99,1.53,5.41l-.02-.04Z"/>
      <path class="cls-10" d="m112.34,126.22c-4.66,2.45-9.37,4.66-14.86,3.25-.47-.12-.86-.52-1.29-.78,5.38-1.48,6-2.33,4.81-7.38-.3-1.29-.66-2.53-.63-3.86.73-.06,1.47-.12,2.2-.18,3.06,3.87,5.03,4.15,7.33,1.05,2,1.03,4.15.65,6.26.67.29,3.24-3.7,4.21-3.83,7.23,0,0,.01-.01.01-.01Z"/>
      <path class="cls-10" d="m85.17,94.18c-1.01-1.62-2.27-2.93-2.55-5.13-.42-3.28-7.31-4.12-10.35-1.56-1.05.88-1.29,2.74-3.15,2.66-.81-1.45-1.41-3.06-3.03-3.88-.02-2.47.09-4.96-.08-7.42-.2-2.77.85-4.78,3.11-6.25.09.77.18,1.54.28,2.31.73,1.85.87,3.46-1.37,4.47-.8.36-1.59,1.11-.39,2.04,0,1.45,1.02,2.08,2.17,2.11,1.22.03,1.3-1.33,1.78-2.16,5.7,1.8,11.94,2.4,15.9,7.86.79,1.09.98,2.06.97,3.23-.76,1.21-1.98,1.54-3.28,1.72Z"/>
      <path class="cls-10" d="m114.09,140.61q-.24-5.7,7.85-5.53c-.72,2.56-1.75,5.99,1.35,6.79,2.59.67,5.91-.83,6.64-4.48.52-2.59,2.05-.51,3.08-.75,0,.27.01.54.02.81-3.23,2.76-3.14,4.91.29,6.69-5.64.69-10.62,4.29-16.56,3.74-.91-.08-1.74.52-2.04,1.54h0c-1.15-1.49-.61-3.19-.59-4.82,1.14.28,2.28.68,3.44.82,1.65.19,3.01-.67,3.24-2.23.23-1.57-1.32-1.6-2.49-1.87-1.4-.32-2.73-1.03-4.24-.71Z"/>
      <path class="cls-1" d="m102.71,72.7c.24,2.06,1.63,2.49,3.38,2.34,2.34-.2,3.63.33,2.47,3.05-.57,1.35-.39,2.83-.07,4.26-1.24,3.39-.97,6.45,1.93,8.95,0,.38,0,.76-.02,1.13-1.68.89-3.2,2.23-5.32,1.85-1.52-1.89-1.47-4.6-3.27-6.35-.05-2.72-.09-5.44-.14-8.16-.18-1.96-.39-3.93-.53-5.89-.09-1.14.72-1.22,1.57-1.18Z"/>
      <path class="cls-6" d="m130.54,106c.16-1.06,1.17-1.91.78-3.1,1.03-.66,2.04-1.38,3.36-1.24.53,2.05-.63,4.35.92,6.26-.3,1.78.92,4.45-2.16,4.73-3.6.33-1.27,1.99-.93,3.25l-.47,3.63c-.77.37-1.33.92-1.52,1.79-.72.09-1.44.19-2.17.28-4.24-2.9-4.97-6.6-3.4-11.45.91-2.82,2.34-3.82,4.95-3.91-.49,2.47-1.15,5.05,3.65,4.23-1.62-1.42-.2-4.07-3.01-4.46Z"/>
      <path class="cls-6" d="m126.01,67.84c-1.67,1.91-8.2,4.39-10.47,3.59-2.71-.96-5.27-.03-7.13,1.2-2.31,1.53-3.38.52-4.83-.74,1.8-2.28,2.35-6.23,6.02-6.15,5.51.12,11.41-2.09,16.41,2.1Z"/>
      <path class="cls-17" d="m65.23,53.54c-4.12-1.16-7.58-4.23-12.13-4.14-.4-1.11-1.63-1.81-1.58-3.14,4.33-.31,8.58.66,12.87.86.38,2.98,2.14.29,3.13.76,1.46,1.41,3.33.84,4.89.61,2.5-.36,4.89-.88,7.26.39-.28.75-.55,1.5-.83,2.25-1.58-.02-3.19-.23-4.74,0-1.91.28-4.06.58-4.03,3.34,0,0,.06-.07.06-.07-.88-.01-1.76-.02-2.65-.04-.96.29-1.48-.63-2.26-.81Z"/>
      <path class="cls-10" d="m132.05,119.51c.16-1.21.31-2.42.47-3.63,2.53-.38,5.17-1.07,6.24,2.38-.6,4-2.76,7.44-4.01,11.21,0,0,.02-.02.02-.02-2.92.98-5.91.95-8.93.67-.06-3.11,3.42-5.18,2.52-8.54.72-.09,1.44-.18,2.17-.28,1.37.14,1.83-.51,1.52-1.79Z"/>
      <path class="cls-10" d="m101.93,150.2c-1.6.54-3.19,1.08-4.79,1.62-.9-.57-.75-1.5-.82-2.36,1.93-2.34,1.74-5.29-.97-6.71-1.87-.98-2.34-2.16-2.39-3.92-.05-.5-.1-1.01-.15-1.51,1.5-.43,3.01-.86,4.51-1.29.2.02.4.05.6.1.54.64,1.06,1.32,2.02,1.32,1.14,3.34,2.09,6.9,6.85,6.32-.41,3.05-3.71,3.93-4.86,6.44h.01Z"/>
      <path class="cls-5" d="m62.16,130.49c2.95-.51,5.6.78,8.34,1.23,4.37.71,8.56,2.46,13.03,2.52-3.02,2.39-6.02,4.82-10.18,4.82-.34-.49-.66-1-1.37-.95-1.88-3.7-2.17-3.69-6.69.34-1.19-.37-2.38-.74-3.57-1.11,1.61-2.19,1.81-4.46.44-6.84Z"/>
      <path class="cls-6" d="m102.73,95c.54.58,1.09,1.16,1.63,1.74,1.51,2.44,4.67,2.94,6.25,5.31-.23.33-.46.66-.69.99-3.96.68-8.21,1.02-7.93,6.71-.63-.11-1.2-.03-1.61.52-1.61-.32-2.97,3.41-4.75.29-.02-.39-.04-.77-.06-1.16,2.14.7,2.08-.86,2.71-2.24,1.79-3.95-1.44-9.76,4.46-12.15Z"/>
      <path class="cls-6" d="m108.41,64.58c0-.92-.03-1.84.03-2.76.22-3.12,2.13-7.22-3.98-6.56-.34.04-.78-.95-1.18-1.45,1.77-.12,3.54-.24,5.31-.35q4.53,1.01,11.5,10.05c-3.96.92-7.98-.27-11.69,1.08Z"/>
      <path class="cls-1" d="m102.73,95c-5.9,2.4-2.67,8.2-4.46,12.15-.62,1.38-.57,2.94-2.71,2.24-.55-3.26-2.7-6.12-1.16-9.97.51-1.27-1.23-3.99.32-6.04,2.76.06,6.35-3.95,8.01,1.62Z"/>
      <path class="cls-13" d="m71.98,138.1c.71-.05,1.03.46,1.37.95.54,2.81,2.82,1.13,4.18,1.43,4.18.9,4.83,1.66,3.63,5.72-4.48-.11-5.31,2.6-4.84,6.3-1.18.28-2.21-.08-3.17-.72-1.62-2.53-3.54-5-.92-8.04.49-.57.37-.67-1.53-2.45.43-1.06.86-2.12,1.29-3.18Z"/>
      <path class="cls-18" d="m94.72,93.38c-1.54,2.05.19,4.77-.32,6.04-1.54,3.85.6,6.71,1.16,9.97.02.39.04.77.06,1.16q-8.22-1.24-9.72,4.58c-2.12-1.38-5.43-1.8-4.5-5.62,1.94-.65,4.04-.94,5.9-1.47,3.14-.88,5.53-3.47,4.16-7.5.05-2.08.11-4.16.16-6.25.87-.87,2.02-.77,3.11-.92Z"/>
      <path class="cls-8" d="m64.4,47.12c-4.3-.2-8.54-1.16-12.87-.86-.19,0-.38,0-.57.02-.26-1.16.73-1.82,1.1-2.72.78-1.95,0-2.88-2.04-2.87-1.13-1.06-2.26-2.13-3.38-3.19,1.27-1.1,2.55.31,3.83-.02,4.94.15,8.03,3.82,11.76,6.25.77.5,1.38,1.23,2.07,1.85.04.51.08,1.02.12,1.52Z"/>
      <path class="cls-13" d="m92.96,138.83c.05,1.76.53,2.95,2.39,3.92,2.71,1.42,2.9,4.37.97,6.71-3.94,1.18-6.73-2.43-10.38-2.49-1.19-1.29-.8-2.7-.3-4.11,2.04.33,3.86.18,4.68-2.15.44-1.23,1.39-1.76,2.63-1.88Z"/>
      <path class="cls-10" d="m104.35,165.41c-1.08-3.8-1.75-7.43,1.04-11.01,2.51-3.21,5.35-3.06,8.6-1.81-1.25,1.45-1.82,3.33-2.85,4.93-1.93,3.02-4.23,5.52-6.8,7.89Z"/>
      <path class="cls-2" d="m85.9,115.13q1.5-5.82,9.72-4.58c1.78,3.13,3.14-.6,4.75-.28-.5,2.54,1.47,4.21,2.22,6.31-.02.24-.03.47-.03.71-.73.06-1.47.12-2.2.18-4.35-2.62-8.74-4.8-13.68-1.35-.26-.32-.52-.65-.78-.97Z"/>
      <path class="cls-5" d="m95.52,128.67c-3.96-1.25-5.01-4.75-6.28-8.08.59-.24,1.35-.32,1.74-.74,1.65-1.83,6.99-2.93,7.53-1.29.67,2.07,2.32,4.98-1.31,6.65-1.14.53-1.54,2.09-1.68,3.45Z"/>
      <path class="cls-14" d="m109.91,103.03c.23-.33.46-.66.69-.99.32.04.63.08.95.12,3.25,4.6,4.81,9.71,4.58,15.35-2.56-.95-5.62-1.28-6.09-4.86-.26-3.2-1.83-6.39-.13-9.62Z"/>
      <path class="cls-10" d="m95.52,128.67c.14-1.37.54-2.93,1.68-3.45,3.63-1.68,1.98-4.59,1.31-6.65-.54-1.65-5.87-.54-7.53,1.29-.38.42-1.15.5-1.74.74-.86-1.5-1.71-2.99-2.57-4.49,4.95-3.44,9.34-1.27,13.68,1.35-.02,1.33.33,2.57.63,3.86,1.19,5.04.57,5.9-4.81,7.38,0,0-.33.02-.33.02l-.33-.04Z"/>
      <path class="cls-3" d="m62.83,103.11c.11-1.64-.85-3.13-.27-4.93.44-1.36-.37-2.83-2.15-3.06-1.12-.15-1.96-.6-2.42-1.67.28-1.62.98-3.03,2.15-4.19,1.48,1.85,3.07,3.51,5.72,3.35.87,1.02.99,2.57,2.28,3.3,1.27,4.64-1.62,6.22-5.31,7.2Z"/>
      <path class="cls-10" d="m133.01,136.64c-1.02.25-2.56-1.83-3.08.75-.73,3.66-4.06,5.15-6.64,4.48-3.1-.8-2.07-4.23-1.35-6.79,6.79-2.59,8.22-2.38,11.07,1.56Z"/>
      <path class="cls-10" d="m73.15,151.77c.96.65,2,1,3.17.73,3.5-.25,6.88.75,10.32,1.02,0,1.02,0,2.03.01,3.05-.21.29-.43.58-.64.87-1.46,1.37-3.22.59-4.86.7-.47-3.87-4.36-3.36-5.62-2.63-2.7,1.58-4.44.38-6.53-.53.84-1.78,3.27-1.49,4.15-3.21Z"/>
      <path class="cls-14" d="m104.35,165.41c2.56-2.37,4.86-4.87,6.8-7.89,1.02-1.6,1.6-3.48,2.85-4.93,1.18.03,2.36.19,3.52.07,3.15-.34,2.83,1.19,1.82,3.17-2.45.24-6.09-.9-4.57,3.95-.77.82-1.54,1.64-2.31,2.46-2.04,1.08-4.08,2.16-6.13,3.24-.68.71-1.33.17-1.98-.07Z"/>
      <path class="cls-14" d="m138.75,118.27c-1.07-3.45-3.71-2.76-6.24-2.38-.34-1.26-2.67-2.92.93-3.25,3.08-.28,1.86-2.95,2.16-4.73,1.36-.57,2.73-1.13,4.09-1.7.64,4.09,1.73,8.22-.95,12.06Z"/>
      <path class="cls-10" d="m84.32,161.43c.85-2.71,3.43-1.97,4.58-1.33,4.37,2.44,7.84.52,11.69-1.85.67,2.04,1.05,3.8-.24,5.57-1.5-.24-3.14.49-4.5-.56-1.74-1.34-3.03-.5-4.26.77-.75-.03-1.51-.06-2.26-.09-.86-.03-1.73-.06-2.59-.09-1.04-.57-1.86-1.36-2.41-2.42Z"/>
      <path class="cls-2" d="m83.46,53.7c-3.07,1.49-5.5,3.51-5.5,7.26,0,2.04-2.22,3.72-.9,5.94-1.28.03-2.56.06-3.84.09,1.67-2.18-.95-4.93,1.26-7.33,1.88-2.04,2.88-4.87,4.27-7.36,1.74-.1,3.31.34,4.71,1.39Z"/>
      <path class="cls-5" d="m86.64,153.52c-3.45-.27-6.82-1.26-10.32-1.02-.47-3.7.36-6.41,4.84-6.3,2.13,2.21,5.64,3.39,5.48,7.32Z"/>
      <path class="cls-6" d="m78.75,52.31c-1.39,2.48-2.4,5.32-4.27,7.36-2.21,2.4.42,5.14-1.26,7.33-3.24.71-4.35-.85-4.1-3.85.72.1,1.44.98,2.16.28,2.04-2.01,1.78-7.11-.4-9.26,2.4-1.59,5.17-1.57,7.88-1.85Z"/>
      <path class="cls-2" d="m49.19,109.48c0-1.35.76-2.48,1.84-2.79,3.95-1.16,8.07-1.76,11.82-3.61.01,4.82-3.29,6.35-7.22,7.24-2-1.43-4.28-.71-6.44-.83Z"/>
      <path class="cls-2" d="m92.96,138.83c-1.24.12-2.19.66-2.63,1.88-.83,2.33-2.64,2.49-4.68,2.15-.03-.7-.07-1.4-.11-2.1,1.88-2.1,1.96-4.71,2.04-7.31.8-1.68,1.21-3.98,3.98-2.46-.23,1.4-.27,2.81-.32,4.22-.06,1.52-.23,2.3,1.57,2.1.05.5.1,1.01.15,1.51Z"/>
      <path class="cls-15" d="m97.99,38.32c2.12.31,4.04-.56,6.12-1.2.34,2.09.88,3.95-.86,5.59-.64.6-.42,1.44.3,2.02-1.38,1.08-3.07,1.13-4.7,1.39q1.24-4.48-3.39-3.9c-.78.1-1.58.05-2.37.07,1.17-1.88,2.77-3.26,4.89-3.97Z"/>
      <path class="cls-5" d="m60.41,80.1c-1.77-.82-3.53-1.64-5.83-2.7,2.76-1.55,4.87-2.84,7.07-3.94,2.24-1.12,3.51.16,3.12,2.19-.44,2.27-.2,4.49-.39,6.73-1.48-.49-1.76-3.06-3.97-2.28Z"/>
      <path class="cls-3" d="m141.77,126.28c-.77,5.42-4.05,9.85-5.67,15.01-.43-2.98-2.28-5.19-3.05-7.8,4.8.93,5.44.16,4.1-4.84.59-.77,1.19-1.54,1.78-2.32.95-.02,1.9-.03,2.84-.05Z"/>
      <path class="cls-14" d="m117.97,119.07c-.89-.45-.86-1.3-.79-2.07.37-4.31-.37-8.42-2.45-12.34,5.5.17,7.48,4.45,5.06,10.5-.53,1.34-1.22,2.62-1.84,3.92,0,0,.03-.01.03-.01Z"/>
      <path class="cls-1" d="m70.87,54.16c2.19,2.15,2.45,7.25.4,9.26-.71.7-1.43-.18-2.16-.28-.37-.08-.7-.65-1.13-.1h-.03c-.01-2.13-3.44-4.09-.28-6.34,0,0-.11.07-.11.07.86-.79,1.71-1.58,2.57-2.37,0,0-.06.07-.06.07.27-.1.53-.2.8-.3Z"/>
      <path class="cls-3" d="m139.35,138.11c1.11-4.31,3.51-8.19,4.27-12.61,1.24,0,2.48,0,3.72-.01,0,1.1,0,2.2,0,3.29-3.23,1.27-2.63,4.67-3.88,7.04-1.42.68-1.91,3.02-4.11,2.3Z"/>
      <path class="cls-2" d="m106.78,143.77c-4.76.58-5.7-2.98-6.84-6.32,1.81-.2,3.9,1.07,5.32-1.22.26-.41,1.43-.26,2.17-.37-.15,2.64.95,5.39-.65,7.91Z"/>
      <path class="cls-14" d="m69,154.98c2.09.92,3.84,2.11,6.53.53,1.26-.73,5.15-1.25,5.62,2.63-1.05.53-1.51,1.46-1.73,2.55-2.89-.81-5.78-1.63-8.67-2.44-1.13-.8-2.9-1.25-1.76-3.27Z"/>
      <path class="cls-16" d="m49.19,109.48c2.17.12,4.44-.59,6.44.83-1.44,1.93-2.45,3.34-5.64,1.87-3.05-1.41-7.02.05-10.49-1.06,0,0,.08,0,.08,0,0-.27-.02-.53-.03-.8,2.14-.56,4.29-1.12,6.43-1.68,1.87-2.79,1.85,1.65,3.2.84Z"/>
      <path class="cls-1" d="m96.4,168.49c-5.21,2.49-10.3,2.34-15.27-.66,2.15-.6,5.08,1.56,6.43-1.84.51-.01,1.01-.03,1.52-.04,2.17.08,4.34.16,6.52.24,0,0,0,0,0,0,.27.77.53,1.53.8,2.3Z"/>
      <path class="cls-2" d="m63.45,62.23c-.26.81-.52,1.63-.77,2.44-4-.36-7.7.35-10.81,3.1.78-6.27,2.03-7.28,8.56-6.95,1.01.47,2.01.95,3.02,1.42Z"/>
      <path class="cls-14" d="m65.85,92.62c-2.65.15-4.24-1.51-5.72-3.35,1.08-1.95,1.32-3.57-1.59-3.83-1.05-.09-1.68-.66-2.14-1.52.44-1.08,1.23-1.63,2.4-1.6,1.21,2.13,4.17,1.26,5.48,3.22.05.5.1,1,.14,1.5.48,1.86.96,3.72,1.43,5.58Z"/>
      <path class="cls-16" d="m62.68,66.22c1.06,4.44-1.61,6.42-5.16,7.86-1.44.58-2.84,1.27-4.27,1.9-.17-.96.34-1.7.77-2.46,1.86-2.14,3.72-4.28,5.58-6.42,1.03-.29,2.05-.58,3.08-.88Z"/>
      <path class="cls-14" d="m107.43,135.85c-.75.11-1.92-.05-2.17.37-1.42,2.29-3.51,1.02-5.32,1.22-.96,0-1.48-.68-2.02-1.32,1.22-1.45,3.48-2.21,3.11-4.71,2.48.98,7.07-1.08,6.4,4.44Z"/>
      <path class="cls-6" d="m69.39,74.91c-.09-.77-.18-1.54-.28-2.31,1.7-1.81,3.54-3.34,6.28-2.95-1.12,2.14-2.61,4.26,1.55,4.92,1.51.24,1.29,1.93.68,2.94-.79,1.31-2.32.53-2.63-.16-1.2-2.62-3.43-2.35-5.6-2.44Z"/>
      <path class="cls-3" d="m91.62,94.3c-.05,2.08-.11,4.16-.16,6.25-2.27.46-1.12,4.12-3.61,4.1-2.86-.03-4.57,1.74-6.48,3.32,0-.8.01-1.6.02-2.41,4.29-1.87,7.33-4.74,7.78-9.7.82-.52,1.63-1.04,2.45-1.56Z"/>
      <path class="cls-1" d="m65.23,53.54c.78.19,1.3,1.11,2.26.81.41.79-1.11,1.64.08,2.4,0,0,.11-.07.11-.07-.37-.64-.92-.51-1.21-.06-3.31,4.98-7.95,2.03-12.09,2.06,0,0-.03-.2,0-.29.05-.12.15-.22.23-.32,2.65-1.04,5.18-2.5,8.21-2.21,1.59.15,2.44-.7,2.41-2.34Z"/>
      <path class="cls-2" d="m87.56,165.98c-1.34,3.41-4.28,1.24-6.43,1.84-1.73-4.84-1.11-6.08,3.19-6.39.54,1.06,1.37,1.85,2.41,2.42.24.72,1.07,1.22.83,2.13Z"/>
      <path class="cls-6" d="m143.46,135.82c1.25-2.37.65-5.76,3.88-7.04.65,3.33-.29,6.37-1.67,9.34-.65,1.39-1.67,2.7-1.13,4.4,0,0-.12.09-.12.09-1.81-.97-2.21,1.81-3.8,1.42-.44-1.34.18-2.42,1.08-3.2,1.59-1.38,1.9-3.1,1.75-5.03Z"/>
      <path class="cls-16" d="m89.17,95.86c-.45,4.95-3.49,7.83-7.78,9.7-1.38-6.42,3.78-7.59,7.78-9.7Z"/>
      <path class="cls-14" d="m147.41,107.83c1.17,3.94-2.14,5.84-4.03,8.23-.94,1.19-1.45-.25-1.44-1.21.02-2.37.12-4.75.19-7.12,1.76.03,3.52.07,5.28.1Z"/>
      <path class="cls-8" d="m79.67,48.88c-2.37-1.27-4.76-.74-7.26-.39-1.55.22-3.42.79-4.89-.61,3.49-2.49,7.24-3.24,11.44-2.09,1.14.31,2.48-.13,3.73-.23-.24.51-.47,1.03-.71,1.55-1.03-.01-1.64.46-1.78,1.5-.2.05-.38.14-.54.27Z"/>
      <path class="cls-2" d="m130.8,100.51c-.04-1.54-.08-3.09-.13-4.63.28,0,.57,0,.85-.01,1.97,1.31,2.41-.28,2.32-1.53-.24-3.5,1.88-3.41,4.26-3.14-.65,5.5-3.28,8.86-7.3,9.31Z"/>
      <path class="cls-17" d="m93.1,42.29c.79-.02,1.59.03,2.37-.07q4.63-.57,3.39,3.9c-.34.2-.65.44-1.01.58-5.03,1.97-5.38,1.74-5.4-3.67.24-.26.48-.52.73-.78l-.07.03Z"/>
      <path class="cls-6" d="m92.81,137.32c-1.79.2-1.63-.58-1.57-2.1.06-1.41.1-2.82.32-4.22,1.1.05,2.2.09,3.3.14,2.8.63,3.42,2.36,2.46,4.88-1.5.43-3.01.86-4.51,1.29Z"/>
      <path class="cls-18" d="m97.31,80.81c-2.4-1.13-4.79-2.26-7.46-3.51,2.46-2.66,5.48-3.59,8.73-4.04-.07,2.58-.42,5.1-1.27,7.55Z"/>
      <path class="cls-14" d="m147.34,125.49c-1.24,0-2.48,0-3.72.01-.38-1.78-.67-3.59-1.19-5.33-.25-.84-.44-1.38.43-1.96.81-.55,1.53-.39,2.14.1,2.31,1.87,4.2,3.93,2.34,7.18Z"/>
      <path class="cls-6" d="m81.38,107.97c1.91-1.58,3.62-3.35,6.48-3.32,2.49.03,1.34-3.64,3.61-4.1,1.37,4.02-1.02,6.62-4.16,7.49-1.87.52-3.96.81-5.9,1.47,0-.51-.02-1.03-.02-1.54Z"/>
      <path class="cls-5" d="m85.95,146.97c3.64.06,6.44,3.67,10.38,2.49.07.86-.08,1.79.82,2.36-5.17,1.9-8.28.56-11.2-4.85Z"/>
      <path class="cls-17" d="m65.85,92.62c-.48-1.86-.96-3.72-1.43-5.58.56-.26,1.11-.51,1.67-.77,1.62.82,2.22,2.44,3.03,3.88.02,1.4.04,2.8.06,4.19-.02.74-.25,1.35-1.05,1.57-1.29-.73-1.41-2.28-2.28-3.3Z"/>
      <path class="cls-3" d="m110.04,112.65c.46,3.58,3.53,3.9,6.09,4.86,0,.5.02,1,.02,1.49-2.11-.02-4.26.35-6.26-.67-.5-.3-1-.61-1.5-.91-.34-1.57-1.09-3.06-.86-4.73.84-.01,1.68-.02,2.51-.03Z"/>
      <path class="cls-2" d="m48.34,79.14c-1.22-.39-2.63.41-3.74-.53-.35-1.79,2.69-2.42,1.4-4.45,0,0-.06.09-.06.09l.86.03c-.02-.28-.03-.57-.05-.85l-.08.06c1.93.81,1.8-1.11,2.46-1.91.94-1.15,1.27-2.82,2.95-3.31.08.95.17,1.89.26,2.84-.22,1.56-.66,2.81-2.43,3.45-.87.31-2.38.57-2.27,2.17-1.07,2.92,1.59,1.03,2.24,1.73-.51.23-1.02.46-1.53.7Z"/>
      <path class="cls-2" d="m114.09,140.61c1.51-.32,2.83.38,4.24.71,1.17.27,2.72.29,2.49,1.87-.23,1.56-1.59,2.42-3.24,2.23-1.16-.13-2.29-.54-3.44-.82-.02-1.33-.03-2.65-.05-3.98Z"/>
      <path class="cls-17" d="m85.22,36.15c1.94,2.01,3.3,3.66,4.19,5.74.83,1.93-.34,2.81-1.63,3.37-1.89.82-1.54-.92-1.94-1.93-.86-2.16-.71-4.35-.62-7.18Z"/>
      <path class="cls-2" d="m143.46,135.82c.15,1.93-.16,3.64-1.75,5.03-.89.78-1.52,1.86-1.08,3.2,0,0-.11-.03-.12-.03-1.55-.63-2.83.58-4.29.59,1.04-2.16,2.08-4.32,3.12-6.49,2.2.72,2.7-1.62,4.11-2.3Z"/>
      <path class="cls-2" d="m84.43,122.21c-1.57-1.83-2.67-3.89-3.14-6.27,3.91-1.86,4.63,1.84,5.73,3.78,1.23,2.17-1.02,2.33-2.59,2.49Z"/>
      <path class="cls-5" d="m74.63,101.86c1.73-.9,3.32-1.73,4.95-2.58,0,2.36.02,4.6,0,6.84,0,.82-.19,1.61-1.27,1.58-.83-.03-1.05-.67-1.12-1.35-.18-1.87-1.18-3.31-2.56-4.49Z"/>
      <path class="cls-10" d="m52.33,71.09c-.09-.94-.17-1.89-.26-2.84,0,0,.09-.08.09-.08,2.48-.36,4.96-.71,7.44-1.07-1.86,2.14-3.72,4.28-5.58,6.42-.06-1.16-.56-2.02-1.7-2.43Z"/>
      <path class="cls-18" d="m131.02,88.77c3.7.79,4.64-3.56,7.62-4.11-.02,1.59-.04,3.18-.06,4.77-2.53-.2-4.87,1.47-7.45.79-.04-.48-.08-.96-.11-1.44Z"/>
      <path class="cls-2" d="m139.7,106.21c-1.36.57-2.73,1.13-4.09,1.7-1.56-1.9-.39-4.2-.92-6.26,2.92.14,4.27,2.02,5.02,4.56Z"/>
      <path class="cls-2" d="m147.41,107.83c-1.76-.03-3.52-.06-5.28-.1.18-1.27-1.66-2.68-.52-3.5.97-.69,2.84-.62,4.13-.25,1.79.5,1.85,2.24,1.66,3.85Z"/>
      <path class="cls-12" d="m51.87,118.08c.22.04.43,0,.63-.09.31.12.62.24.94.36-.01.26-.02.52-.03.78-1.88,4.47-1.22,8.98-.19,13.49l-.02.03c-4.05-3.21-2.03-7.54-2.05-11.48,0-1.03.47-2.06.73-3.09Z"/>
      <path class="cls-12" d="m101.68,79.78c.05,2.72.09,5.44.14,8.16-1.5.34-2.87-.08-2.95-1.66-.13-2.52-.23-5.25,2.81-6.5Z"/>
      <path class="cls-5" d="m101.92,150.2c3.29.38,4.11-2.76,6.1-4.67-.36,4.86-3.17,7.41-8.89,8.35-.06-2.04,3.14-1.59,2.8-3.69,0,0-.01,0-.01,0Z"/>
      <path class="cls-2" d="m67.99,63.04c-.11.37-.27.74-.32,1.12-.23,1.79.76,4.84-2.05,4.51-2.09-.25-1.28-3.32-1.12-5.07.35-3.83,2.31-.19,3.46-.57,0,0,.03.01.03.01Z"/>
      <path class="cls-3" d="m110.13,145.31c.44-2.86.88-5.72,1.32-8.59.34-.63.89-.87,1.57-.87-.02,2.9-.04,5.81-.06,8.71-.85.6-1.75,1-2.83.74Z"/>
      <path class="cls-16" d="m116.22,123.78c.65,2.12.49,4.25.14,6.39-3.46.85-4.39-.89-4.03-3.95,0,0-.01.01-.01.01,1.99.29,2.47-1.84,3.9-2.45Z"/>
      <path class="cls-12" d="m111.55,102.16c-.32-.04-.63-.08-.95-.12-1.58-2.37-4.73-2.87-6.25-5.31.73-.04,1.37-.26,1.76-.95,1.64-.23,2.25,1.81,3.81,1.75.55.5,1.09,1,1.64,1.51,0,0,0,.02,0,.02.24.27.48.55.72.82.03.42.06.84.08,1.26-.28.34-.55.68-.83,1.02Z"/>
      <path class="cls-3" d="m59.61,67.1c-2.48.36-4.96.71-7.44,1.07-.16-.1-.26-.24-.29-.41,3.11-2.74,6.81-3.44,10.8-3.09,0,.52,0,1.04,0,1.56-1.03.29-2.05.58-3.08.88Z"/>
      <path class="cls-6" d="m128.38,65.43c-4.79-.16-7.11-2.98-9.71-6.41,4.12,1.15,7.15,2.92,9.71,6.41Z"/>
      <path class="cls-6" d="m131.13,90.22c2.58.68,4.92-.99,7.45-.79.19.68.2,1.32-.48,1.77-2.38-.27-4.5-.36-4.26,3.14.09,1.25-.35,2.84-2.32,1.53,1.21-1.97.02-3.78-.39-5.64Z"/>
      <path class="cls-11" d="m118.8,37.71c-1.39-2.29-.09-5.49-2.5-7.44,1.14-3.05,2.68-.66,3.05.14,1.12,2.41,1.87,5.05-.55,7.31Z"/>
      <path class="cls-14" d="m48.34,79.14c.51-.23,1.02-.46,1.53-.7,1.42-.04,2.92-.65,4.16.59-.52.96-.99,1.93-.81,3.08-1.04.12-2.08.24-3.11.35-1.11-.17-2.07-.57-2.58-1.67.68-.35.87-.94.81-1.65Z"/>
      <path class="cls-17" d="m64.27,85.54c-1.31-1.95-4.27-1.09-5.48-3.22.06-.28.12-.56.17-.84.88-.04,1.37-.49,1.44-1.38,2.21-.79,2.49,1.79,3.97,2.28.44,1.07,1.46,2.16-.11,3.16Z"/>
      <path class="cls-6" d="m136.23,144.6c1.45-.02,2.74-1.22,4.29-.59-.64,2.24-2.44,3.47-4.24,4.59-.62.38-1.43,1.36-2.37.28-1.06-1.21.42-1.48.78-2.13.42-.77,1.02-1.44,1.54-2.15Z"/>
      <path class="cls-3" d="m52.33,71.09c1.14.41,1.64,1.26,1.7,2.43-.43.77-.94,1.51-.77,2.46-1.73,1.41-3.75.52-5.63.73-.1-1.6,1.4-1.86,2.27-2.17,1.77-.64,2.21-1.89,2.43-3.45Z"/>
      <path class="cls-16" d="m110.13,145.31c1.08.26,1.98-.14,2.83-.74-.11,2.61,1.75,6.58-4.05,5.44.41-1.59.82-3.14,1.22-4.69Z"/>
      <path class="cls-14" d="m91.58,164.04c1.24-1.27,2.52-2.11,4.26-.77,1.37,1.05,3.01.32,4.5.56,0,.98-.17,1.89-1.13,2.42-1.21-.02-2.41-.04-3.62-.06,0,0,0,0,0,0-.26-2.73-2.99-.84-4.01-2.14Z"/>
      <path class="cls-14" d="m137.14,128.65c1.34,5.01.7,5.77-4.1,4.84-.9-1.97,2.7-2.03,1.72-4.04,0,0-.02.02-.02.02,1.07.51,1.59-.59,2.4-.83Z"/>
      <path class="cls-1" d="m47.81,66.33c.98.93.31,2.16.59,3.21-.05.24-.1.48-.14.72-.18.3-.37.6-.55.9-.34.77-.69,1.55-1.03,2.32,0,0,.08-.06.08-.06-.27.28-.54.55-.81.83,0,0,.06-.09.06-.09-.69.54-1.39,1.08-2.93,2.27,1.86-3.97,3.3-7.03,4.74-10.09Z"/>
      <path class="cls-16" d="m58.97,81.48c-.06.28-.12.56-.17.84-1.17-.03-1.96.52-2.4,1.6-1.06-.61-2.12-1.21-3.18-1.82-.19-1.14.29-2.11.81-3.08,2.1-.09,3.42,1.38,4.94,2.45Z"/>
      <path class="cls-2" d="m133.32,144.13c-3.42-1.78-3.51-3.93-.29-6.69,1.26,2.18,1.35,4.41.29,6.69Z"/>
      <path class="cls-5" d="m97.15,156.45c-2.03.15-4.08.18-6.09.5-1.14.18-1.79.14-1.81-1.16-.01-1.21.82-1.7,1.8-1.49,2.1.44,4.15,1.09,6.22,1.66-.04.16-.08.33-.12.49Z"/>
      <path class="cls-14" d="m122.11,150.09c2.53-2.35,4.72-3.07,6.91-3.73.41-.12,1.19.08,1.39.39.39.63,0,1.32-.64,1.6-2.11.93-4.27,1.71-7.66,1.74Z"/>
      <path class="cls-18" d="m94.07,89.16c-1.61-3.95-.65-6.02,3.26-7.03-.12,2.79-.7,5.37-3.26,7.03Z"/>
      <path class="cls-2" d="m70.76,158.25c2.89.81,5.78,1.63,8.67,2.44-2.97.55-6.04,2.21-8.66-.84,0-.54,0-1.07-.01-1.61Z"/>
      <path class="cls-7" d="m79.67,48.88c.16-.13.34-.22.54-.27,1.14.14,1.76-.33,1.78-1.5.24-.52.47-1.03.71-1.55,2.12.84,1.65,2.59,1.49,4.23-.97.4-1.93.79-2.9,1.19-.82.05-1.63.1-2.45.15.28-.75.55-1.5.83-2.25Z"/>
      <path class="cls-2" d="m97.32,136.02c.96-2.52.34-4.25-2.46-4.88,2.08-.47,4.13-.22,6.16.27.37,2.5-1.89,3.26-3.11,4.71-.2-.05-.39-.08-.6-.1Z"/>
      <path class="cls-6" d="m109.92,97.54c-1.56.06-2.17-1.98-3.81-1.75-.34-.5-.68-1-1.03-1.5,2.12.38,3.64-.97,5.32-1.85.92,1.81-.29,3.41-.49,5.11Z"/>
      <path class="cls-6" d="m106.33,165.47c2.04-1.08,4.08-2.16,6.13-3.24-.25,4.61-1,5.01-6.13,3.24Z"/>
      <path class="cls-5" d="m75.93,99.28c-1.57,1.55-3.36,1.71-4.96,2.13-1.06.28-1.8-.31-1.76-1.53.04-1.31.67-1.42,1.85-1.14,1.4.34,2.88.34,4.87.55Z"/>
      <path class="cls-18" d="m108.6,53.45c-1.77.12-3.54.24-5.31.35-.52-.26-1.04-.53-1.55-.8-.2-.66-.41-1.31-.61-1.97,2.9-.46,5.26.76,7.48,2.41Z"/>
      <path class="cls-3" d="m114.76,159.77c-1.52-4.84,2.13-3.7,4.57-3.95.02.57-.42,1.21.29,1.66,0,0-.03.03-.03.03-2.42-.97-3.11,1.77-4.84,2.26Z"/>
      <path class="cls-13" d="m87.58,133.46c-.08,2.61-.17,5.21-2.04,7.31-2.68-3.38.7-5.06,2.04-7.31Z"/>
      <path class="cls-5" d="m114.72,149.41c1.74.36,3.6-.52,5.25.82-1.74-.32-3.95,4.23-5.25-.83,0,0,0,0,0,0Z"/>
      <path class="cls-14" d="m141.77,126.28c-.95.02-1.9.03-2.84.05.62-1.52,1.24-3.03,1.97-4.82,1.61,1.56.82,3.24.87,4.77Z"/>
      <path class="cls-14" d="m113.02,135.86c-.68,0-1.24.24-1.57.87-.75-1.43-1.5-2.86-2.45-4.66,2.86.13,3.77,1.61,4.02,3.79Z"/>
      <path class="cls-5" d="m96.3,158.49c-1.56,1.59-3.27,1.61-5.86.54,2.35-1.24,4.14-.57,5.86-.54Z"/>
      <path class="cls-14" d="m127.67,102.41c-1.94,1.15-3.91,3.14-5.72-.17,0,0-.03.03-.03.03,1.8-.08,3.61-.17,5.42-.25.11.13.22.26.33.38Z"/>
      <path class="cls-2" d="m95.6,166.19c1.21.02,2.41.04,3.62.06-.83.89-1.55,1.91-2.82,2.24-.27-.77-.53-1.53-.8-2.3Z"/>
      <path class="cls-6" d="m101.11,51.04c.2.66.41,1.31.61,1.97-1.26-.28-2.45-.67-3.07-1.97.82,0,1.63,0,2.45,0Z"/>
      <path class="cls-7" d="m88.23,49.69c-.77-.1-1.54-.2-2.3-.31.14-.59.23-1.31,1.04-1.22.83.09,1.17.75,1.27,1.53Z"/>
      <path class="cls-6" d="m63.45,62.23c-1.01-.47-2.01-.95-3.02-1.42,1.08.31,3.03-1.23,3.02,1.42Z"/>
      <path class="cls-14" d="m127.34,102.03c.65-.51,1.32-.77,2.26-.02-.75.16-1.34.28-1.92.41-.11-.13-.22-.25-.33-.38Z"/>
      <path class="cls-15" d="m93.17,42.26c-.24.26-.49.52-.73.78.24-.26.48-.52.73-.78Z"/>
      <path class="cls-18" d="m47.7,71.16c.18-.3.37-.6.55-.9.23.55-.1.77-.55.9Z"/>
      <path class="cls-7" d="m86.01,157.43c.22-.29.43-.58.64-.87-.22.29-.43.58-.64.87Z"/>
      <path class="cls-6" d="m53.22,82.1c1.06.61,2.12,1.21,3.18,1.82.46.86,1.09,1.43,2.14,1.52,2.92.26,2.68,1.88,1.59,3.83-1.18,1.16-1.87,2.57-2.15,4.19-1.64.65-3.31,2.7-4.99,1.2-1.65-1.47-3.37-3.47-2.51-6.14.32-1.01-.32-1.46-.7-2.11.11-1.32.22-2.64.33-3.95,1.04-.12,2.08-.24,3.11-.35Z"/>
      <path class="cls-6" d="m34.05,106.57c-3.13-3.59-3.54-11.32-.84-15.96.21,2.21,1.64,4.04,1.28,6.59-.27,1.89,2.14,2.66,4.08,2.85,3.04,3.86,1.18,6.49-2.19,8.73-.25-.19-.51-.38-.76-.57-.52-.55-1.04-1.1-1.56-1.64Z"/>
      <path class="cls-3" d="m36.37,108.78c3.38-2.25,5.23-4.88,2.19-8.73,1.44-.24,2.3.38,2.59,1.79.16.77.15,1.83,1.14,1.86,3.41.09,3.56,2.49,3.7,4.94-2.14.56-4.29,1.12-6.43,1.68-1.21-.2-2.3-.65-3.18-1.53Z"/>
      <path class="cls-2" d="m50.11,82.46c-.11,1.32-.22,2.64-.33,3.95-3.42-2.04-6.69-4.89-11.01-1.89-.27.18-.94-.21-1.42-.34.36-.97,2.17-1.16,1.45-2.71,2.87-.7,5.76-1.17,8.73-.68.51,1.09,1.47,1.5,2.58,1.67Z"/>
      <path class="cls-3" d="m131.13,90.22c.4,1.86,1.6,3.67.39,5.64-.28,0-.57,0-.85.01-3.15-1.84-1.51-4.84-1.27-7.12.27-2.46-.34-4.1-2.37-4.68-1.88-.54-4.52-1.02-4.37,2.57.02.59-.41,1-1.05.84-.73-.18-1.05-.79-1.12-1.49-.1-1.1,1.37-2.73-1.06-3,3.25-4,6.71-1.12,9.99-.16,3.44,1.01,1.61,3.8,1.6,5.93.04.48.08.96.12,1.44Z"/>
      <path class="cls-3" d="m109.92,97.54c.2-1.7,1.4-3.3.49-5.11,0-.38,0-.76.01-1.14.55-.94.11-2.6,1.9-2.66.08.77-.13,1.75.66,2.15,3.13,1.59,1.64,3.44.13,4.91-1.04,1.01-1.68,1.93-1.56,3.35-.55-.5-1.09-1-1.64-1.51Z"/>
      <path class="cls-3" d="m116.21,83.82c.51.27.94.74.49,1.21-.71.73-1.42.38-1.96-.38.49-.28.98-.55,1.47-.83Z"/>
      <path class="cls-3" d="m113.16,84.7c-.02.83.18,1.72-.64,2.33-1.76-1.32-.32-1.76.64-2.33Z"/>
      <path class="cls-4" d="m36.4,114.6c.41,2.07-1.39,3.86-.75,5.95-1.65-2.23-1.14-4.17.75-5.95Z"/>
      <path class="cls-4" d="m36.37,108.78c.88.88,1.97,1.33,3.18,1.53,0,.27.02.53.03.8-2.26.31-4.12.08-3.97-2.9.25.19.51.38.76.57Z"/>
      <path class="cls-1" d="m38.79,131.92c-.27-.12-.53-.24-.8-.36.14-.07.2-.18.17-.34.21.23.42.47.62.71Z"/>
      <path class="cls-8" d="m28.33,40.81c.64-.4,1.34-.77.86-1.72,2.56.56,4.55-3.65,7.37-.88-.47,2.05.76,3.07,2.28,4.1,2.51,1.7,3.94,3.68,3.92,4.94-4.8-.78-9.63-1.14-14.5-1.05.02-1.79.04-3.59.06-5.38Z"/>
      <path class="cls-17" d="m42.76,47.24c.02-1.26-1.41-3.23-3.92-4.94-1.52-1.03-2.74-2.04-2.28-4.1,2.35.6,3.71,3.08,6.27,3.27h0c1.33,2.38,3.83,2.19,5.93,2.28,2.21.1,2.03-1.54,1.26-3.07,2.04-.01,2.82.92,2.04,2.87-.36.91-1.35,1.56-1.1,2.72-1.41.72-2.65,1.9-4.42,1.64-1.28-.09-2.69.52-3.77-.68Z"/>
      <path class="cls-8" d="m16.89,52.68c-3.17-.5-4.88,2.7-7.71,3.05-1.45-1.14-5.15-.71-3.02-4.34,4.12,0,6.96-3.7,10.95-3.84,0,1.67,0,3.34,0,5.02,0,0-.22.11-.22.11Z"/>
      <path class="cls-18" d="m28.33,40.81c-.02,1.79-.04,3.59-.06,5.38-2.48-.26-5.32,1.28-7.32-1.45,0,0,.05.12.05.12,2.78-.75,4.72-3.01,7.34-4.06Z"/>
      <path class="cls-15" d="m46.54,47.92c1.77.27,3.01-.92,4.42-1.64.19-.01.38-.02.57-.02-.05,1.34,1.17,2.04,1.58,3.14-2.32.09-4.5-.45-6.57-1.49Z"/>
      <path class="cls-16" d="m61.72,137.33c1.19.37,2.38.74,3.57,1.11.08.48.17.97.25,1.45-.39,4.37-2.25,8.75.23,13.1.69,1.21.07,2-1.28,2.18-.84-1.64-1.75-3.25-2.5-4.93-1.59-3.57-2.92-7.18.74-10.72-3.21.26-4.33,4.94-8,3.41-1.09-2.85-.03-5.86-.67-8.73,2.49.87,4.22,3.61,7.32,3.01l.35.12Z"/>
      <path class="cls-2" d="m65.54,139.89c-.08-.48-.17-.97-.25-1.45,4.53-4.02,4.82-4.04,6.69-.34-.43,1.06-.86,2.12-1.28,3.18-2.03.69-3.17-1.94-5.16-1.4Z"/>
      <path class="cls-15" d="m42.84,41.48c.66-2.01-2.08-1.67-2.3-3.15,5.42.09,5.53.14,8.15,3.6-2.09,1.47-3.84-1.3-5.86-.46,0,0,0,0,0,0Z"/>
      <path class="cls-18" d="m50.46,37.49c-1.27.32-2.55-1.08-3.83.02-1.75-.36-3.4-.93-5.27-2.34,3.6,0,6.85-.85,9.1,2.32Z"/>
      <path class="cls-12" d="m61.37,137.21c-3.1.6-4.82-2.14-7.32-3.01-.29-.52-.58-1.03-.86-1.55,0,0,.02-.03.02-.03,3.22.64,5.81,2.39,8.16,4.59Z"/>
      <path class="cls-3" d="m112.29,99.88c-.24-.27-.48-.55-.72-.82.24.27.48.55.72.82Z"/>
      <path class="cls-4" d="m88.38,65.52c-1.85-1.42-1.86-3.47-1.53-5.41.28-1.64.48-3.11-1.05-4.29,1.19-1.22,2.54.32,3.39-.74.8,3.56-1.21,6.91-.8,10.44Z"/>
      <path class="cls-6" d="m61.37,137.21c-2.34-2.2-4.94-3.95-8.16-4.59-1.03-4.51-1.69-9.02.19-13.49.35.59.71,1.17,1.06,1.76-1.42,3.53-.1,5.63,3.42,6.58.24,2.68,2.71,2.2,4.27,3.01,1.37,2.38,1.17,4.66-.44,6.84,0,0-.35-.12-.35-.12Z"/>
      <path class="cls-5" d="m57.89,127.47c-3.53-.95-4.84-3.06-3.42-6.58.88-1.28,1.75-2.56,3.11-4.54-.45,3.52,1.16,4.57,3.8,4.83,1.04.1,2.76.23,2.57,1.86-.13,1.13-1.21,2.05-2.44,2.33-1.44.34-2.9.53-3.61,2.09Z"/>
      <path class="cls-14" d="m71.58,81.37c-.48.83-.56,2.19-1.78,2.16-1.15-.03-2.18-.66-2.17-2.11,1.31-.58,2.62-1.41,3.95-.05Z"/>
      <path class="cls-18" d="m130.54,106c2.81.39,1.39,3.04,3.01,4.46-4.79.81-4.14-1.77-3.65-4.23.21-.07.43-.15.64-.23Z"/>
      <path class="cls-4" d="m78.84,51.12c.82-.05,1.63-.1,2.45-.15,1.14.57,2.3,1.1,3.4,1.73.45.26.74.91.23,1.23-.31.2-.96-.14-1.46-.24-1.4-1.05-2.97-1.49-4.71-1.39-2.71.28-5.48.26-7.88,1.85-.26.1-.53.2-.8.3-.03-2.75,2.12-3.06,4.03-3.34,1.55-.23,3.16-.01,4.74,0Z"/>
      <path class="cls-16" d="m108.39,117.42c.5.3,1,.61,1.5.91-2.3,3.1-4.27,2.81-7.33-1.05,0-.24.02-.47.03-.71,1.93.28,3.86.56,5.79.85Z"/>
      <path class="cls-14" d="m132.05,119.51c.3,1.28-.15,1.93-1.52,1.79.19-.87.75-1.42,1.52-1.79Z"/>
      <path class="cls-4" d="m67.57,56.76c-1.19-.76.33-1.61-.08-2.4.88.01,1.76.02,2.65.04-.86.79-1.71,1.58-2.57,2.37Z"/>
      <path class="cls-2" d="m110.04,112.65c-.84.01-1.68.02-2.51.03-1.61-1.43-4.72-.03-5.55-2.94-.28-5.69,3.97-6.03,7.93-6.71-1.69,3.23-.12,6.42.13,9.62Z"/>
      <path class="cls-14" d="m101.98,109.74c.83,2.91,3.94,1.51,5.55,2.94-.23,1.67.52,3.16.86,4.73-1.93-.28-3.86-.56-5.79-.85-.76-2.1-2.72-3.77-2.23-6.31.41-.55.98-.63,1.61-.52Z"/>
      <path class="cls-2" d="m91.58,164.04c1.02,1.3,3.75-.59,4.01,2.14-2.17-.08-4.34-.16-6.52-.24.08-.67.16-1.33.24-2,.75.03,1.51.06,2.26.09Z"/>
      <path class="cls-14" d="m89.32,163.94c-.08.67-.16,1.33-.24,2-.51.01-1.01.03-1.52.04.25-.91-.59-1.41-.83-2.13.86.03,1.73.06,2.59.09Z"/>
      <path class="cls-17" d="m81.99,47.1c-.02,1.18-.65,1.64-1.78,1.5.14-1.04.75-1.52,1.78-1.5Z"/>
      <path class="cls-4" d="m45.94,74.24c.27-.28.54-.55.81-.83.02.28.03.57.05.85l-.86-.03Z"/>
    </g>
  </g>
</svg>