<?xml version="1.0" encoding="UTF-8"?>
<svg id="Layer_2" data-name="Layer 2" xmlns="http://www.w3.org/2000/svg" viewBox="0 0 165.82 257.33">
  <defs>
    <style>
      .cls-1 {
        fill: #fefefe;
      }

      .cls-1, .cls-2, .cls-3, .cls-4, .cls-5, .cls-6, .cls-7, .cls-8, .cls-9, .cls-10, .cls-11, .cls-12, .cls-13, .cls-14, .cls-15, .cls-16, .cls-17 {
        stroke-width: 0px;
      }

      .cls-2 {
        fill: #c35d56;
      }

      .cls-3 {
        fill: #b0443e;
      }

      .cls-4 {
        fill: #150b0a;
      }

      .cls-5 {
        fill: #cf8b83;
      }

      .cls-6 {
        fill: #461411;
      }

      .cls-8 {
        fill: #679141;
      }

      .cls-9 {
        fill: #7fa358;
      }

      .cls-10 {
        fill: #9cc471;
      }

      .cls-11 {
        fill: #5c5c54;
      }

      .cls-12 {
        fill: #784941;
      }

      .cls-13 {
        fill: #a02a24;
      }

      .cls-14 {
        fill: #53842b;
      }

      .cls-15 {
        fill: #821613;
      }

      .cls-16 {
        fill: #3b4527;
      }

      .cls-17 {
        fill: #e5b5b1;
      }
    </style>
  </defs>
  <g id="Layer_1-2" data-name="Layer 1">
    <g>
      <path class="cls-16" d="m59.2,58.28c.1-1.11.28-2.14,1.71-2.23,4.66,1.99,6.94,6.25,8.05,10.55,1.17,4.49,1.14,9.32,2.42,13.88-.15.68-.12,1.45-.88,1.84-1.35-3.76-2.69-7.52-4.04-11.28-.06-.79-.13-1.58-.22-2.79-.68,1.34-.54,2.12.25,2.78.42,7.91,3.6,15.34,4.02,23.25-.06,4.22-.12,8.44-.18,12.66-2.4,5.96-4.87,11.9-7.89,17.58-1.75.09-1.39,1.56-1.77,2.61-2.03,5.47-.91,11.09-.84,16.66-.34,4.15-1.96,8-2.87,12.01-3,11.95-9.91,21.53-18.52,29.98-1.29,1.27-3.02,2.28-2.12,4.12.96,1.95,2.93,1.08,4.55.57.01.42.02.83.04,1.25-3.27,2.01-6.64,1.44-11.29.45,3.08-.65,5.95-.17,4.97-3.65.52-1.06,1.04-2.12,1.56-3.17,4.64-4.67,9.29-9.32,12.9-14.87,5.25-10.25,9.92-20.66,8.8-32.84-1.85.64-1.92,2.28-2.91,3.1-1.74,1.44-1.62,5.92-4.06,4.77-2-.95.81-4.15,1.36-6.38,2.65-2.39,5.7-4.51,6.21-9.19-1.03,1.1-1.72,1.67-2.21,2.39-1.47,2.15-3.55,3.87-4.51,6.38-2.38,2.19-4.16,4.87-6.07,7.44-.53,0-1.06.01-1.59.02.28-.76.55-1.53.83-2.29,3.13-2.54,5.05-6.08,7.51-9.17,2.06-2.58,3.96-5.3,5.81-8.04.78-1.15.76-2.58.09-3.8-.56-1.03-1.66-.77-2.49-.42-6.09,2.59-11.52,5.95-14.04,12.55-3.16,4.78-3.6,10.03-2.94,15.66,2.44-1.05,2.98-3.74,5.23-4.48-.04,3.52-2.95,4.95-5.16,6.78-1.09.9-1.87-.06-2.18-1.23,0-.49,0-.97,0-1.46.01-1.36.02-2.72.03-4.09-.18-4.59,1.48-8.68,3.43-12.69,4.17-6.54,9.88-11.08,17.29-13.46,1.82-.65,2.28,1.47,3.48,1.83,8.03-10.52,8.04-22.52,6.7-34.69-.77-6.99-4.55-13.49-3.46-20.8,1.06-1.13.94-2.59.36-3.68-.79-1.48-.77-4.34-2.95-3.93-1.48.27-.44,2.74-.54,4.22-.04,4.74-3.13,7.89-5.83,11.25-4.23,1.95-6.51,6.58-11.07,8.08-.13-.13-.27-.26-.4-.39.21-.42.43-.83.64-1.25,1.8-1.51,3.71-2.91,5.38-4.54,5.04-4.91,10.81-9.48,9.41-17.81Z"/>
      <path class="cls-17" d="m90.44,234.97c-1.21,3.69-3.25,5.89-7.6,4.77-1.63-.42-3.46-.34-5.17-.14-8.05.91-14.85-2.99-21.9-5.72-3.37-1.3-8.88-13.56-8-16.81.19-.7.9-1.28,1.42-1.87.61-.7,1.74-1.68,1.25-2.31-2.61-3.37.32-5.19,1.71-7.57,1.63-2.78,4.38-3.2,7.03-3.94,1.27-.36,2.59-.56,3.88-.83,0,0,.29,0,.29,0,0,.28,0,.55,0,.83-.92,2.07-1.84,4.15-2.76,6.22-1.77.81-2.28,2.33-2.3,4.12-.02,2.06,0,4.13,0,6.19-2.61,1.11-4.08,4.09-3.41,5.8.93,2.38,2.21,5.86,6.14,5.58,1.48,1.14,2.96,2.28,4.44,3.42,2.44,3.36,5.76,2.89,9.16,2.1,1.3.44,2.54-.08,3.81-.15,2.55-.15,4.8-1.99,7.47-1.24.69.5,1.38,1,2.07,1.5.82.02,1.65.04,2.47.06Z"/>
      <path class="cls-7" d="m61.01,54.99c-1.08-1.56-2.59-2.41-4.42-2.89-4.75-1.26-9.43-2.83-14.22-3.88-14.06-3.08-23.95-11.7-31.31-23.53C6.37,17.15,3.53,8.71,0,0c2.17.4,2.31,1.79,2.78,2.86,2.62,5.96,4.87,12.11,7.92,17.84,6.91,12.97,16.79,22.62,31.7,25.79,5.25,1.11,11.16,1.76,15.51,3.89,8,3.92,17,6.66,23.35,13.7,7.26,8.05,13.51,16.77,18.47,26.4.69,1.35,1.41,1.89,2.87,2.05,3.73.41,7.05,2.48,10.88,2.69,1.41.08,2.72,1.06,3.68,2.23,2.95,3.6,5.89,7.21,6.83,11.96-.46.02-.92.04-1.38.06-.32-.3-.64-.61-.96-.91h.02c-.68-1.7-.15-4.3-3.16-4.3.02-.14,0-.27-.08-.4.32-3.58-1.6-5.52-4.79-6.54-1.91-1.3-4-.55-6.03-.5-1.84-.92-3.08-3.23-6.08-2.32,1,1.44.83,3.53,3.24,3.73.04.51.08,1.01.11,1.52-1.04.72-2.11.04-3.16.08-4.84-13.3-12.42-24.88-22.07-35.16-2.96-3.15-6.79-5.01-10.46-7.09-2.53-1.47-5.04-3.02-8.18-2.59Z"/>
      <path class="cls-6" d="m149.48,161.37c.83,1.09-.17,1.99-.32,2.97-1.68.09-2.23.71-1.03,2.18,2.27,2.77,1.63,6.07,1.5,9.2-.11,2.54-1.5,3.91-4.35,4.12-3.75.27-7.49-.47-11.28.44-3.08.74-3.61,1.74-1.75,4.17-.44.11-.87.22-1.31.32-.22-.02-.39-.13-.5-.33-.35-.78-.69-1.56-1.04-2.34-2.11-1.5-5.56-1.32-6.08-4.83.49.02.98.04,1.47.07,3.6,4.65,7.57.91,11.49.63-1.53-1.13-2.72-2.4-3.15-4.09-.79-3.12-2.05-1.8-3.4-.5-.67-.32-.88-.9-.9-1.58.04-1.82,1.75-3.39.99-5.46-1.55.51-2.88.94-4.21,1.38-.12-.96.58-1.33,1.21-1.8,1.43-1.08.78-1.74-.56-1.96-3.6-.58-6.17,1.68-6.11,5.28-.55.05-1.1.09-1.65.14,0-1.4,0-2.8,0-4.21.51-.48,1.02-.96,1.53-1.44,1.6-.28,3.19-.56,4.79-.84,1.16.08,2.35.04,3.48.27,1.04.21,2.35.76,2.41-.77.06-1.58-1.53-.93-2.43-1-1.16-.09-2.33.04-3.5.07-2.15-.4-4.93-2.08-4.71,2.32-.48.1-.96.2-1.45.3-1.04-.55-.29-1.23-.12-1.86.75-1.39,1.51-2.78,2.26-4.16.78-.21,1.57-.42,2.35-.63-.18,3.89,2.9,1.97,4.54,2.41,1.02.27,2.52.3,2.69-1.45.13-1.37-.72-2.01-1.79-2.76-2.32-1.63-3.51,1.11-5.36,1.12q.08-2.81-1.66-2.56c-.49-.02-.99-.05-1.48-.07-.62.06-1.25.11-1.87.17.32-1.98,1.76-1.86,3.27-1.87,1.3,0,3.08.62,3.32-1.65-.12-.69-.24-1.37-.36-2.06,1.86-.6,2.81,1.95,4.67,1.35-.48,1.2-2.83,1.52-2.21,2.77.68,1.38,2.48,1.53,4.12.78.45-.2,1.2.28,1.82.45.86,2.9,1.68,5.87,5.12,1.91.32-.37.9-.6,1.41-.71,3.1-.69,2.54-2.53,1.34-4.42-1.56-2.45-4.07-1.16-6.19-1.35-1.45-.02-2.9-.03-4.34-.05.01-.4.03-.8.04-1.19,4.1-.53,8.3-1.86,11.98,1.35.88,3.12,1.39,6.69,6.16,5.07.68.8,1.58,1.47,1.47,2.7-.12,1.04-.24,2.07-.35,3.11-1.37-.97.46-3.83-2.31-3.95-1.85-.08-3.75-.27-5.07,1.5-.45.6-1.05.88-.32,1.91,2.52,3.58,4.27,3.98,7.75,1.41Zm-15.02,4.81c.35-1.64,1.1-3.21.77-4.97-.13-.7-.35-1.27-1.12-1.38-.55-.08-1.2.13-1.19.69.03,2-1.63,4.5,1.5,5.68-.23,1.55-5.7,2.94-.14,4.66.43,4.46,1.72,5.66,5.03,4.66,2.06,1.91,4.2.21,6.3.13,2.59-1.99,2.67-5.33.73-8.83-1.66-2.98-2.64.61-3.96.14.07-.79.18-1.58.2-2.37.07-2.79-1.89-4.31-4.09-4.59-3.01-.39-1.25,2.47-1.82,3.77-.41.92-.35,2.05-.51,3.08-.57-.23-1.14-.46-1.71-.69Z"/>
      <path class="cls-7" d="m130.18,148.27c-.01.4-.03.8-.04,1.19-.35.2-.71.41-1.06.62-1.86.6-2.81-1.94-4.67-1.35-2.13-1.01-2.01-3.81-3.94-4.97-5.71-7.12-10.86-14.6-14.71-23.88,0,4.63.03,8.41,0,12.19-.04,4.06-1.37,7.86-2.66,11.62-1.93,5.66-4.07,11.24-6.21,16.83-1.38,3.62-2.76,7.22-2.35,11.2l-1.45.09c-.73-3.55.47-6.81,1.63-10.04,1.12-3.11,2.36-6.18,3.69-9.2,5.08-11.51,6.56-23.6,5.93-36.05,3.22.15,1.27-1.97,1.28-3.1.01-1.5.1-2.36,1.61-.86.59.9,1.17,1.79,1.76,2.69.55,2.74,0,6.31,4.53,6.09,2.38-.04,4.75-.07,7.13-.11,2.38.9,4.76,1.79,7.14,2.69,4.08,2.35,9.12,1.91,12.5-1.1.8-.71,1.75-1.44,1.46-2.63-.36-1.45-1.68-.93-2.67-.99-2.37-.15-4.75-.26-7.13-.39.01-.45.02-.9.03-1.36,3.72.31,7.5-.41,11.16.7.59,4.65-3.23,8.52-8.76,8.78-5.62.26-11.16-.32-16.15-3.1-2.63-1.46-5.59-.03-8.09-1.49-.39-.44-.77-1.38-1.37-.94-.78.58.08,1.33.34,1.98,3.38,7.02,7.27,13.7,13.06,19.06.72.67,1.73,2.1,2.69.14.46-.94-.22-2.85,1.63-2.53,1.56.27,2.12,1.83,2.31,3.36.05.39.09.79.14,1.18.46,1.21-1.8,3.32,1.22,3.68Z"/>
      <path class="cls-7" d="m106.47,185.13c9.24,4.08,18.56,8.04,26.65,14.24,1.49,1.14,2.8.63,4.01-.16,1.33-.87,2.5-1.98,3.69-3.04,2.06-1.84,2.79-2.36,3.98,1.22,1.05,3.18,2.11,6.59,3.84,9.6-.55,0-1.11.01-1.66.02-.48-.05-.96-.09-1.44-.14-1.19-.98-2.64-.66-4-.8.38-1.66.78-3.32,1.13-4.99.2-.96,1.01-2.17-.4-2.74-1.25-.5-2.1.42-3.03,1.28-2.62,2.41-1.09,5.13-.81,7.77-1.24.37-2.49.75-3.73,1.12-2.2-1.66-4.22-3.71-6.67-4.88-2.23-1.07-5.66-2.8-7.28-.54-2.03,2.85,1.52,4.38,3.43,6.03-.44.07-.87.14-1.31.21-.7.01-1.4.02-2.1.03-3.55-3.45-3.24-7.1.75-8.91,4.64.31,8.78,1.77,12.11,5.19.55.57,1.28,1.74,2.22.68.67-.77.31-1.74-.48-2.44-1.57-1.39-3.14-2.79-4.71-4.19-4.99-3.82-10.47-6.81-16.2-9.3-4.26-1.86-8.55-3.64-12.66-5.82-2.14-1.13-3.23-1.21-3.17,2.04.05,2.32.34,5.05-1.33,7.24-.71.93-.31,1.76.61,2.32,2.79,1.71,4.52,4.49,6.72,6.78,4,4.17,3.72,8.66-.52,12.82-.52.08-1.05.16-1.57.24.02-.24,0-.48-.04-.71,3.05-2.07,4.34-5.26,2.81-8.31-1.73-3.47-3.81-7.27-8.44-7.97-.33-.07-.65-.15-.98-.22.06-.62.01-1.19-.69-1.46l.02.06c-.26-1.49-.51-2.98-.77-4.47.43-1.98,2.53-3.68,1.03-6-.09-1.29-.19-2.57-.28-3.86.8-1.34,1.38-2.87,3.06-3.42,2.37,2.37,5.22,4.01,8.2,5.47Z"/>
      <path class="cls-11" d="m40.91,191.71c-.01-.42-.02-.83-.04-1.25,4.43-2.35,7.42-6.24,10.89-9.69,10.94-10.85,15.15-24.69,17.76-39.12,1.78-9.86,3.07-19.86,2.93-29.95.78-6.53.24-13.08.31-19.62-.76-3.25-1.51-6.5-2.27-9.76.76-.39.73-1.16.88-1.84.17.1.36.15.56.15.5,5.11,3,9.77,3,15.08,0,4.05,1.43,8.64.76,12.13-.86,4.53-1.13,9.04-1.48,13.54-1.2,15.67-4.12,30.88-10.66,45.29-2.37,5.21-4.75,10.31-9.46,13.88-.99.75-1.6,1.78-1.99,2.93-1.66,4.85-7.27,5.37-10,9.07,0,.01-.79-.55-1.21-.84Z"/>
      <path class="cls-17" d="m130.18,148.27c-3.02-.36-.76-2.47-1.22-3.68,3.22,1.47,5.35.51,7.08-2.6,1.66-2.99,4.85-2.48,7.51-1.96,2.64.52,4.42,2.19,5.32,5.1,1,3.22,3.46,6.01,2.35,9.77-.29.99,0,2.19-1.42,2.49.11-1.23-.79-1.9-1.47-2.7-1.88-1.91-2.1-5.82-6.16-5.07-3.68-3.21-7.88-1.88-11.98-1.35Z"/>
      <path class="cls-11" d="m30.02,142.88c-2.51-.07-2.84-1.7-2.99-3.79-.4-5.63,1.66-10.69,3.3-15.88.31-.96,1.56-2.3.06-3.15-1.17-.66-1.77.78-2.6,1.34-.81.55-1.42,1.96-2.62,1.06-.94-.71-.69-2-.41-2.99,3.77-13.43,7.46-26.92,18.29-36.84.12.57.24,1.14.36,1.72-1.44,1.42-3.52,2.4-3.33,4.92-1.61.01-2.28,1.22-2.86,2.4-3.41,6.85-7.14,13.57-8.88,21.12-.48,2.27-1.95,4.34-1.65,7.19,1.31-1.06,2.29-1.85,3.27-2.64.58-.27,1.16-.53,1.74-.8,0,0-.04-.14-.04-.14.64.83,1.28,1.65,1.92,2.48.02.69.05,1.39.07,2.08-3.64,5.74-5.21,12.03-4.94,18.8.05,1.17.85,1.53,1.82,1.71-.12.49.16,1.12-.51,1.41Zm.77-23.68c-.09.09-.18.18-.27.27.09.09.19.17.28.26.09-.14.18-.27.27-.41-.09-.04-.19-.09-.28-.13Z"/>
      <path class="cls-11" d="m63.08,200.53c.13-7.42,1.64-8.75,12.49-10.78-1.32-3.1-4.15-4.67-6.34-6.78-1.14-1.1-2.43-2.02-3.01-3.61-1.36-3.71-.45-5.02,3.49-5.38,6.54-.59,12.35,1.02,17.37,5.31.32.42.64.85.96,1.27-.29.3-.57.6-.86.9-2.23-1.39-3.92-3.66-6.72-4.11-2.31-2-5.14-1.73-7.87-1.67-1.72.04-4.2-1.01-4.99.83-1.03,2.39,1.09,4.06,2.91,5.44.73.55,1.52,1.01,2.29,1.51,1.47,2.05,3.72,3.11,5.72,4.48-.02.2-.03.4-.03.6-.46,1.02-.91,2.03-1.37,3.05-1.93.17-3.87.34-5.8.51-3.47.83-6.67,1.95-6.46,6.46-.49.66-.99,1.32-1.48,1.98h-.29Z"/>
      <path class="cls-2" d="m132.25,184.45c-1.86-2.43-1.33-3.43,1.75-4.17,3.79-.91,7.53-.18,11.28-.44,2.85-.2,4.24-1.58,4.35-4.12.13-3.13.76-6.43-1.5-9.2-1.2-1.47-.65-2.08,1.03-2.18,3.15,4.46,3.3,9.37,1.97,14.4-.9,3.39-4.86,5.34-8.32,4.07-.91-.33-1.7-.53-2.62-.49-.55-.91-.98-.69-1.84-.18-1.87,1.12-3.77,2.35-6.1,2.3Z"/>
      <path class="cls-6" d="m143.18,256.4c-1.04.04-2.08.08-3.12.12-1.14-1.97-3.64-1.05-5.07-2.39,3.91-2.77.87-5.46-.38-7.84-.94-1.77-2.82-3.25-4.98-.99,0-.79.02-1.59.02-2.38.1-.13.2-.26.31-.38-.12.11-.24.22-.36.33-1.43-.15-2.54,1.33-4.05.8.72-.99,1.43-1.98,2.15-2.96,1.23.02,1.39-1.92,2.81-1.54-.22,1.71.62,2.32,2.22,2.14,1.8.5,4.97-.55,5.25,1.18.8,4.95,3.15,5.93,7.4,4.36,0,0,.21.19.21.19-.93,1.66-2.53,2.11-4.25,2.25-1.14.09-2.08.26-2.06,1.7-.26,2.77.42,4.76,3.75,4.6l.14.82Z"/>
      <path class="cls-10" d="m59.2,58.28c1.39,8.33-4.37,12.9-9.41,17.81-1.68,1.63-3.58,3.04-5.38,4.54-1.4-2.51,1.3-3.2,2.29-3.96,3.21-2.47,4.77-5.9,6.46-9.29,1.64-3.29,3.29-6.55,6.04-9.1Z"/>
      <path class="cls-17" d="m71.94,80.63c-.2,0-.39-.05-.56-.15-1.28-4.56-1.26-9.39-2.42-13.88-1.12-4.3-3.39-8.55-8.05-10.55.03-.35.06-.71.1-1.06,3.14-.43,5.65,1.12,8.18,2.59,1.73,4.68,1.5,9.76,3.27,14.52.91,2.44-.28,5.66-.52,8.53Z"/>
      <path class="cls-17" d="m143.17,118.15c-3.67-1.11-7.45-.39-11.16-.7-1.97-.86-5.19-.19-4.78-3.93,2.36-.47,4.7-1.07,7.08-1.37,3.71-.46,8.51,2.88,8.87,6Z"/>
      <path class="cls-16" d="m146.98,207.01c.55,0,1.11-.01,1.66-.02.78,3.91,4.84,4.5,7.18,6.83,1.8,1.8,2.79,3.48,3.04,5.84-.9-.28-1.8-.55-2.7-.83-1.62-4.29-4.2-7.15-9.31-6.49-1.7.22-3.43.19-5.14.28-1.8-.09-1.85-1.28-1.66-2.63,2.58-.37,5.79.75,6.92-2.98Z"/>
      <path class="cls-16" d="m98.27,179.66c-1.68.55-2.26,2.08-3.06,3.42-3.41-1.56-1.24-4.92-2.33-7.23.81-1.31-.13-2.71.23-4.04.48-.03.96-.06,1.45-.09.5,1.05,1.51,1.49,3.91,1.71.87,3.28,4.03,3.44,6.39,4.7-.85.84-1.7,1.68-2.55,2.52-.86-.75-1.72-1.5-2.58-2.25-.44-.38-.86-1.23-1.47-.52-.29.34,0,1.18.02,1.79Z"/>
      <path class="cls-12" d="m134.99,254.13c1.43,1.34,3.93.42,5.07,2.39-4.31.78-8.58.2-12.83-.48-4.74-.76-5.54-4.99-7.15-8.47-.03-.47-.06-.94-.09-1.41,1.19-.3,2.38-.59,3.57-.89.44.05.87.1,1.31.15-.01.19-.03.38-.04.57.02.55.04,1.1.05,1.65-2.74,1.91-2.06,3.79.26,5.32,2.73,1.8,5.71,2.84,8.99,1.32.28-.05.57-.1.85-.15Z"/>
      <path class="cls-16" d="m107.25,112.56c-1.51-1.5-1.6-.63-1.61.86,0,1.14,1.94,3.25-1.28,3.1-.49-5.63-2.51-11.01-2.64-16.69,1.05-.04,2.12.64,3.16-.08,1.3,4.17,2.83,8.3,2.37,12.8Z"/>
      <path class="cls-16" d="m26.48,171.74c.13-3.29,3.13-6.22,1.1-9.83-.68-1.21.62-1.39,1.47-1.62.9.45,1.7.47,2.26-.53.69-.23,1.39-1.18,2.09-.31.96,1.22-.73,2.12-.6,3.29-1.64,2.98-3.81,5.72-4.06,9.3,0,0,.11.04.11.04-.22.08-.44.17-.67.25-.29.09-.57.18-.86.27-.28-.29-.57-.58-.85-.87Z"/>
      <path class="cls-9" d="m28.85,172.09s-.11-.04-.11-.04c2.12-.33,4.05-.96,5.06-3.43.12,1.65.65,2.89,1.51,3.99-.04,1.26-.07,2.51-.11,3.77-1.09.16-2.24.24-2.28,1.76l.06,5.49c-.57-.22-1.14-.44-1.72-.66-.84-.24-1.68-.48-2.52-.72-.05-.22-.01-.43.1-.62.54-.29,1.17-.37,1.44-1.13,1.09-3.09.36-5.83-1.44-8.41Z"/>
      <path class="cls-16" d="m30.02,142.88c.67-.29.39-.92.51-1.41.24-.09.49-.18.73-.28.54,0,.7-.29.57-.78.03-.23.12-.44.26-.63,4.06,1.67.08,4.25.72,6.31-1.98,2.61-2.32,5.79-3.03,8.84-.11.46-.22.93-.33,1.39-.74.77-.63,1.71-.54,2.65-1.72-.69-1.84-1.85-1.24-3.45.78-2.08,1.36-4.23,2.02-6.36.17-.14.19-.3.06-.48.09-1.93.18-3.87.27-5.8Z"/>
      <path class="cls-12" d="m104.32,217.82c3.7,7.04,1.35,11.96-6.65,13.9-.3-.31-.61-.61-.91-.92.12-.21.23-.41.33-.63,1.53-1.02,4.31-.5,4.27-3.46,2.23-.53,3.11-1.81,2.78-4.18-.22-1.54.1-3.15.17-4.73Z"/>
      <path class="cls-12" d="m156.16,218.83c.9.28,1.8.55,2.7.83,1.83,2.36,4.8,3.84,5.48,7.1-.39.32-.77.65-1.16.97-2.35-2.67-5.36-3.57-8.82-3.27.76-1,1.34-2.04.83-3.36.32-.76.64-1.51.97-2.27Z"/>
      <path class="cls-11" d="m28.84,181.63c-.11.2-.15.41-.1.62-.25,2.58-.5,5.16-.79,8.14-1.99-1.8-1.14-3.68-1.1-5.39.02-.91.64-2.3-.16-2.62-7.28-2.89-1.27-6.69-.76-10.09.03-.21.35-.37.54-.55.28.29.57.58.85.87-1.05,2.36-2.8,4.55-2.19,7.43,1.6-.04,1.51-2.05,2.95-1.93l.76,3.52Z"/>
      <path class="cls-17" d="m92.87,175.85c1.09,2.31-1.08,5.67,2.33,7.23.09,1.29.19,2.57.28,3.86-1.98-.67-2.24-3.8-4.94-3.44-.63-1.16-1.35-2.25-2.52-2.94-.32-.42-.64-.85-.96-1.27,2.62.01,2.74-4.2,5.81-3.44Z"/>
      <path class="cls-3" d="m149.48,161.37c-3.48,2.57-5.23,2.17-7.75-1.41-.73-1.03-.13-1.31.32-1.91,1.33-1.77,3.22-1.58,5.07-1.5,2.77.12.94,2.98,2.31,3.95.01.29.03.58.04.87Z"/>
      <path class="cls-12" d="m164.65,234.46c-1.87,2.93-3.91,5.72-4.69,9.28-.41,1.87-1.98,3.3-3.96,3.98-.33-.07-.66-.14-.99-.21.33-.6.66-1.19.99-1.79,3.15-1.73,3.41-4.37,2.34-7.43.82-.32,1.02-.95.85-1.75,1.3-.31,2.71-.44,3.23-2.01.41-.25.83-.5,1.24-.74.33.22.65.45.98.67Z"/>
      <path class="cls-12" d="m120.77,209.36c.7-.01,1.4-.02,2.11-.03,1.01.77.55,1.72.33,2.65-2.94,1.7-6.29,2.85-7.97,6.18-.2.12-.41.23-.63.33-.08-.72-.17-1.44-.25-2.16.88-3.48,4.1-4.81,6.42-6.96Z"/>
      <path class="cls-11" d="m120,246.16c.03.47.06.94.09,1.41-5.25-.88-8.47-4.07-10-9.03-.58-1.89-.39-3.71,1.51-4.93.29.28.57.56.85.85-1.77,2.44-.97,4.67.65,6.76,1.8,2.32,4.14,3.94,6.9,4.94Z"/>
      <path class="cls-11" d="m102.3,180.64c.85-.84,1.7-1.68,2.55-2.52,1.61-.26,3.06,1.6,4.74.34.13,2.13,3.62,1.78,3.21,4.32-2.14.04-4.27.08-6.41.12-1.26-.93-3.17-.69-4.09-2.26Z"/>
      <path class="cls-10" d="m130.66,199.68c1.57,1.4,3.13,2.8,4.71,4.19.8.7,1.16,1.68.48,2.44-.94,1.07-1.67-.11-2.22-.68-3.33-3.42-7.46-4.88-12.11-5.19,1.43-2.11,3.27.06,4.93-.46,1.31-.41,2.8-.22,4.21-.3Z"/>
      <path class="cls-16" d="m127.22,113.52c-.4,3.74,2.82,3.07,4.78,3.93-.01.45-.02.9-.03,1.36-.27.04-.53.08-.8.12-3.84-.11-6.81-1.42-7.77-5.55-.33-1.06-.67-2.12-1-3.18.08-.23.14-.47.2-.71.46-.02.92-.04,1.38-.06.36.79.71,1.58,1.07,2.38.23,1.1.65,1.97,2.04,1.62l.13.1Z"/>
      <path class="cls-11" d="m155.01,247.52c.33.07.66.14.99.21-1.44.4-1.21,1.83-1.77,2.78-1.81,3.08-3.7,6.14-7.91,6.2.65-2.34,4.68-2.03,4.15-5.3.69-1.28,2.49-1.88,2.27-3.71.76-.06,1.51-.12,2.27-.19Z"/>
      <path class="cls-5" d="m112.79,182.78c.41-2.54-3.07-2.19-3.21-4.32-.02-.17.04-.28.2-.33.74-.25,1.48-.49,2.22-.74.15,1.02.45,1.7,1.43,2.49,2.12,1.69,4.64.61,6.75,1.63-.02.39-.03.78-.05,1.17-2.45.06-4.88,1.53-7.35.11Z"/>
      <path class="cls-17" d="m102.3,180.64c.92,1.56,2.82,1.32,4.09,2.26.03.74.05,1.49.08,2.23-2.98-1.46-5.83-3.1-8.2-5.47-.02-.61-.31-1.45-.01-1.79.6-.71,1.03.14,1.47.52.86.75,1.72,1.5,2.58,2.25Z"/>
      <path class="cls-11" d="m132.25,184.45c2.33.04,4.23-1.18,6.1-2.3.86-.52,1.3-.73,1.84.18-3.03,4.2-5.03,4.73-9.25,2.45.44-.11.87-.22,1.31-.32Z"/>
      <path class="cls-11" d="m120.14,182.67c.02-.39.03-.78.05-1.17,3.08.08,5.97,2.92,9.21.61.35.78.69,1.56,1.04,2.34-3.74,1.21-6.91-.9-10.29-1.78Z"/>
      <path class="cls-6" d="m104.32,217.82c-.08,1.58-.39,3.19-.17,4.73.33,2.37-.55,3.65-2.78,4.17-.35-.41-.69-.81-1.04-1.22.21-.3.42-.6.63-.9,2.67-2.47,1.51-5.64,1.59-8.59.52-.08,1.05-.16,1.57-.25.07.69.14,1.37.2,2.06Z"/>
      <path class="cls-5" d="m111.93,233.19c-.13-2.29.8-4.28,1.78-6.25.22.01.44.04.66.08,3.04,2.51,2.66,4.4-1.02,5.72-.23.08-.4.32-.6.48-.27-.01-.55-.02-.82-.03Z"/>
      <path class="cls-17" d="m150.47,251.42c.53,3.27-3.5,2.96-4.15,5.3-1.19,1.31-2.14.21-3.14-.32-.05-.27-.09-.54-.14-.81,1.71-2.75,5.07-2.57,7.43-4.17Z"/>
      <path class="cls-11" d="m96.76,230.81c.3.31.61.61.91.92-2.41,1.08-4.82,2.16-7.23,3.24-.82-.02-1.65-.04-2.47-.06.06-.52.12-1.03.18-1.55,1.77.08,3.5.02,4.68-1.62,0,0,.04-.03.04-.03,1.3-.3,2.59-.59,3.89-.89Z"/>
      <path class="cls-11" d="m114.37,227.02c-.22-.04-.44-.07-.66-.08-2-3.68-1.76-7.22.65-10.63.08.72.17,1.44.25,2.16-.91,2.45-1.32,4.91-.1,7.39-.04.39-.09.77-.13,1.16Z"/>
      <path class="cls-10" d="m31.26,182.97c.57.22,1.14.44,1.71.66,1.02.64,1.77,1.78,3.17,1.7-.52,1.06-1.04,2.12-1.56,3.17-1.8-1.43-3.32-3.03-3.33-5.54Z"/>
      <path class="cls-11" d="m163.18,227.73c.39-.32.77-.65,1.16-.97,1.92,2.05,1.74,4.33.77,6.71-.41-.05-.82-.1-1.24-.15.05-1.75.79-3.58-.61-5.16,0-.15-.03-.29-.09-.43Z"/>
      <path class="cls-9" d="m28.9,158.97c-.09-.94-.2-1.88.54-2.65,2.07.36,1.89,1.95,1.87,3.44-.56,1-1.36.97-2.26.53-.05-.44-.1-.88-.15-1.32Z"/>
      <path class="cls-17" d="m127.09,113.41c-1.39.35-1.8-.52-2.04-1.62,1.01.13,2.17.06,2.04,1.62Z"/>
      <path class="cls-16" d="m43.41,84.34c-.12-.57-.24-1.14-.36-1.71.24-.25.48-.49.72-.74.13.13.27.26.4.39.05.79-.04,1.54-.75,2.06Z"/>
      <path class="cls-11" d="m111.93,233.19c.27.01.55.02.82.03-.08.33-.17.66-.25.98l-.05.25c-.28-.28-.57-.56-.85-.85.05-.19.16-.33.34-.42Z"/>
      <path class="cls-12" d="m163.88,233.32c.41.05.82.1,1.24.15-.16.33-.31.67-.47,1-.33-.23-.65-.45-.98-.67.07-.16.14-.32.21-.47Z"/>
      <path class="cls-11" d="m29.75,148.69c.13.18.1.34-.06.48,0,0-.14-.26-.14-.26l.2-.22Z"/>
      <path class="cls-10" d="m28.34,112.79c1.74-7.55,5.47-14.27,8.88-21.12.59-1.18,1.25-2.39,2.86-2.4.77,4,5.09,3.76,7.52,5.66,2.1,1.64,5.52-1.64,8.07-3.75-.59,2.29.16,4.27.59,6.28-1.28,7.61-.3,15.1,1.21,22.55-7.4,2.38-13.12,6.92-17.29,13.46-1.37-.92-2.92-.87-4.47-.86-.7-2.58.45-4.87,1.33-7.11.8-2.05.34-3.02-1.72-3.3-.84-.11-1.57-.2-1.68-1.23-.02-.69-.05-1.39-.07-2.08.44-.81.92-1.6,1.3-2.44.38-.84.89-1.95.05-2.57-1.22-.89-1.77.58-2.5,1.2-.37.31-.52.88-.77,1.32,0,0,.04.14.03.14-.44-.05-.87-.09-1.31-.14.19-1.7-.65-2.81-2.04-3.62Z"/>
      <path class="cls-10" d="m72.46,111.7c.13,10.09-1.15,20.09-2.94,29.95-2.61,14.43-6.82,28.28-17.76,39.12-3.48,3.45-6.47,7.35-10.89,9.69-1.62.51-3.59,1.38-4.55-.57-.9-1.84.83-2.85,2.12-4.12,8.61-8.46,15.52-18.03,18.52-29.98,3.12-1.47,2.23-5.37,4.45-7.38-1.72-1.14,3.53-4.65-1.58-4.63-.07-5.57-1.2-11.18.84-16.66.39-1.04.02-2.52,1.77-2.61,2.49,1.61,5.78.03,6.39-3.07.27-1.39-.3-2.92.72-4.18,1.82.12,1.73-1.11,1.64-2.33-.01-.48-.02-.96-.03-1.44.03-.57.06-1.15.08-1.72,0,0,0,0,0,0,.41-.02.81-.05,1.22-.07Z"/>
      <path class="cls-14" d="m57.48,120.01c-1.51-7.46-2.49-14.95-1.21-22.55,2.31-.7,1.12-2.63,1.41-4.04l.02-.02c4.48-1.79,1.04-4.63.38-6.41-1.19-3.22-5.95-3.2-7.44-.02-.92,1.94-2.13,1.6-3.51,1.59-.73,0-1.53-.65-.97-1.21,1.15-1.17.57-4.04,2.07-3.85,3.25.41,4-1.95,5.45-3.67h.02c3.47-.18,1.52-4.95,4.61-5.62h-3.07c2.7-3.36,5.79-6.51,5.83-11.25,2.24.02,1.83,2.5,3.13,3.39-1.09,7.31,2.69,13.82,3.46,20.8,1.34,12.17,1.33,24.17-6.7,34.69-1.2-.36-1.66-2.48-3.48-1.83Z"/>
      <path class="cls-10" d="m45.65,146.13c1.91-2.57,3.69-5.25,6.07-7.44.17.14.34.28.51.42-.55,2.23-3.36,5.43-1.36,6.37,2.45,1.16,2.33-3.33,4.06-4.77.99-.82,1.06-2.46,2.91-3.1,1.12,12.19-3.55,22.59-8.8,32.84-.61-.48-.97-1.09-.99-1.88-1.68-2.56-3-5.7-1.87-8.32,1.06-2.45-.05-3.24-1.22-4.52,2.32-3.05.14-6.43.69-9.61Z"/>
      <path class="cls-8" d="m53.68,79.82c-1.46,1.72-2.2,4.07-5.45,3.67-1.5-.19-.92,2.68-2.07,3.85-.56.56.24,1.2.97,1.21,1.38.01,2.59.35,3.51-1.59,1.5-3.18,6.26-3.2,7.44.02.66,1.79,4.09,4.62-.38,6.41-.12-.06-.23-.12-.35-.18.11.07.22.13.34.2-.29,1.41.9,3.33-1.41,4.04-.43-2.01-1.18-3.99-.59-6.28-2.55,2.11-5.97,5.39-8.07,3.75-2.43-1.9-6.75-1.66-7.52-5.66-.19-2.52,1.89-3.5,3.33-4.92.71-.52.8-1.27.75-2.06,4.56-1.5,6.84-6.13,11.08-8.08,1.02,0,2.05,0,3.07,0-3.09.67-1.15,5.44-4.61,5.61-.09-.72.26-1.63-.71-1.98-.16-.06-.69.36-.73.62-.19,1.07.6,1.27,1.42,1.38Z"/>
      <path class="cls-10" d="m41.78,134.97c2.52-6.6,7.95-9.95,14.04-12.55.83-.35,1.93-.61,2.49.42.67,1.22.69,2.65-.09,3.8-1.85,2.74-3.76,5.45-5.81,8.04-2.46,3.09-4.38,6.62-7.51,9.17-.23-1.92-.8-3.88-.6-5.76.23-2.19-.83-2.77-2.52-3.12Z"/>
      <path class="cls-8" d="m45.65,146.13c-.55,3.18,1.63,6.55-.69,9.61-2.88,1.72-6.27.39-9.55,1.69,3.48.87,3.58,4.32,5.48,6.33h0c.03,1.18.02,2.34-1.61,2.41-.13-.35-.26-.69-.38-1.04-3.12,2-4.15-1.39-6.1-2.38-.13-1.17,1.56-2.08.6-3.29-.69-.88-1.4.08-2.09.31.02-1.49.21-3.08-1.87-3.44.11-.46.22-.93.33-1.39,2.68-.3,3.52-4.58,6.96-3.23.31,1.18,1.09,2.14,2.18,1.23,2.21-1.83,5.12-3.26,5.16-6.78,0,0,0,0,0,0,.53,0,1.06-.01,1.59-.02Z"/>
      <path class="cls-8" d="m48.06,168.57c.02.79.38,1.4.99,1.88-3.61,5.56-8.26,10.21-12.9,14.87-1.4.08-2.16-1.06-3.17-1.7-.02-1.83-.04-3.66-.06-5.49,1.98-.42,2.86,3.41,3.98,1.97,1.15-1.48,3.95-1.44,3.61-2.63-.54-1.92-2.97-.58-4.53-.99-.25-.07-.52-.08-.78-.11.04-1.26.07-2.51.11-3.77,1.41-.01,2.79-.25,4.2.34,2.01.84,2.13-.55,2.04-2.01,1.22-.57,3.51,2.31,3.64-.49.14-2.82,1.74-1.57,2.86-1.87Z"/>
      <path class="cls-9" d="m41.78,134.97c1.69.35,2.76.93,2.52,3.12-.2,1.88.37,3.84.6,5.76-.28.76-.55,1.53-.83,2.29,0,0,0,0,0,0-2.26.74-2.8,3.43-5.23,4.48-.65-5.63-.22-10.87,2.94-15.66Z"/>
      <path class="cls-14" d="m69.55,117.27c-1.02,1.26-.45,2.79-.72,4.18-.6,3.1-3.89,4.68-6.39,3.07,3.01-5.69,5.48-11.62,7.89-17.58,2.15,1.27-.83,3.5.91,4.84,0,0,0,0,0,0-.41.2-1.08.33-1.17.63-.24.8.52.91,1.08,1.09.01.48.02.96.03,1.44-.98.47-1.46,1.29-1.64,2.33Z"/>
      <path class="cls-9" d="m35.72,132.6c1.55,0,3.1-.06,4.47.86-1.95,4.01-3.61,8.1-3.43,12.69-1.28,2.1-2.58-.8-3.86,0l-.09-.07c-.63-2.06,3.34-4.64-.71-6.31.16-.5.31-1.01.47-1.51,3.07-.12,1.45-3.27,2.88-4.44.09-.41.19-.82.28-1.23Z"/>
      <path class="cls-9" d="m71.24,111.77c-1.74-1.34,1.24-3.57-.91-4.84.06-4.22.12-8.44.18-12.66,1.63.18,1.21-1.77,2.26-2.19-.07,6.54.47,13.09-.31,19.62-.4.02-.81.05-1.22.07Z"/>
      <path class="cls-14" d="m72.77,92.08c-1.06.42-.63,2.37-2.26,2.19-.43-7.91-3.61-15.34-4.02-23.25l-.02.02c1.35,3.76,2.69,7.52,4.04,11.28.76,3.25,1.51,6.51,2.27,9.76Z"/>
      <path class="cls-9" d="m59.83,143.78c5.11-.02-.13,3.49,1.58,4.63-2.23,2.01-1.33,5.91-4.45,7.38.91-4.02,2.53-7.86,2.87-12.01Z"/>
      <path class="cls-9" d="m36.73,151.7c-3.44-1.35-4.28,2.93-6.96,3.23.71-3.05,1.05-6.22,3.03-8.84,0,0,.09.07.09.07-.03,2.59.88,4.29,3.83,4.08,0,.49,0,.97,0,1.46Z"/>
      <path class="cls-8" d="m64.2,66.34c-1.3-.89-.89-3.37-3.13-3.39.1-1.48-.94-3.94.54-4.22,2.18-.41,2.16,2.45,2.95,3.93.58,1.09.69,2.54-.36,3.68Z"/>
      <path class="cls-10" d="m51.72,138.69c.97-2.5,3.04-4.23,4.51-6.38.49-.71,1.18-1.29,2.21-2.39-.51,4.67-3.56,6.79-6.21,9.19-.17-.15-.34-.29-.51-.42Z"/>
      <path class="cls-8" d="m36.72,150.24c-2.95.21-3.86-1.49-3.83-4.08,1.29-.81,2.58,2.09,3.86,0-.01,1.36-.02,2.72-.03,4.09Z"/>
      <path class="cls-14" d="m66.48,71.02c-.78-.66-.93-1.43-.25-2.78.1,1.21.16,2,.22,2.79,0,0,.02-.02.02-.02Z"/>
      <path class="cls-6" d="m77.11,191.59c.46-1.02.91-2.03,1.37-3.05,3.3,1.01,5.79,4.01,9.55,3.88,1.26.16,2.44.21,2.28-1.62.04-.48.08-.95.12-1.43.27.01.55.03.82.04.59,1.61,1.05,3.35,3.21,3.53.26,1.49.51,2.98.77,4.47-2.92-.52-4.46,1.58-6.21,3.27-.51-.31-1.02-.61-1.52-.92-.08-2.34-1.47-2.73-3.41-2.3-.8-.01-1.59-.02-2.39-.03-3.34-.59-6.53.77-9.83.77-1.37,0-2.04,1.06-2.54,2.2-1.86,4.22,1.27,10.26,5.9,11.38,3.49,1.86,5.64-.59,7.96-2.48.77-.02,1.54-.03,2.32-.05.19,3.53,2.09,5.07,5.57,4.92,1.94-.08,3.88-.03,5.82-.04-.4,1.64-.87,3.32,1.63,3.67,0,.4.01.81.02,1.21-2.84,1.34-1.03,4.72-3.15,6.3,1.38,1.03,2.59.53,3.75.55.36-.1.73-.21,1.09-.31-.47,2.53-3.06.89-4.19,2.13-2.13-.35-4.07.9-6.11.82-3.69-.15-4.45,1.83-4.02,4.92-2.67-.75-4.92,1.09-7.47,1.24-1.27.08-2.51.59-3.81.15-2.45-3.31-6-1.85-9.16-2.1-1.48-1.14-2.96-2.28-4.44-3.42.05-3.84-.37-7.59-2.16-11.07.36-.04.73-.07,1.09-.11.19.35.4.69.57,1.04,1.75,3.6,4.51,4.48,8.21,3.2,3.88-1.35,3.98-4.96,3.93-7.85-.05-2.75-3.28-4.25-5.08-6.26-1.52-1.69-3.98-.02-6.01.31-.33-.32-.65-.63-.98-.95.92-2.07,1.84-4.15,2.76-6.22,1.91-.23,1.75,2.66,3.65,2.46q1.02-6.32,7.48-7.46c1.03-.18,2.06-.41,3.09-.61,1.11.01,2.22.02,3.33.03h5.04c-2.64-1.59-4.27-4.69-7.57-3.97-.42-.07-.84-.14-1.26-.22Zm-5.8,32.17c.12-.15.24-.29.35-.44-.14.12-.29.24-.43.36-.27.26-.54.52-.81.78-2.18-.03-4.33.36-6.49.52-1.7.12-1.51.89-1.5,1.92.49,3.26,2.77,4,5.59,3.98,1.72.14,3.21.22,2.53-2.39-.32-1.23-.04-2.62-.03-3.93.27-.26.53-.53.8-.79Zm10.5-.53c1.35-2.33.26-5.11,1.4-7.47.84-1.36,1.23-2.77.76-3.9-5.13,1.41-10.6,2.5-10.26,9.43.63,3.83,3.81,4.6,8.11,1.94Zm11-1.97c2.74-5.03,2.54-5.14-2.88-5.61-4.91-.42-3.45,3.41-4.36,5.71-.85,1.45-1.2,2.69.26,4.2,1.54,1.58,3.24,1.59,5.04,1.22,1.86-.38,1.07-2.08,1.32-3.26.16-.76.41-1.51.62-2.26Zm-8.7,6.61c-.25-1.08-.05-2.96-2.95-2.08-1.82.55-3.8,1.18-5.81.71-1.62-.38-1.78.63-1.74,1.8.06,2.11-.22,4.54,2.83,4.75,3.75.27,7.59-2.13,7.68-5.19Z"/>
      <path class="cls-2" d="m58.86,218.2c1.78,3.48,2.21,7.23,2.16,11.07-3.93.28-5.21-3.2-6.14-5.58-.67-1.71.8-4.7,3.41-5.8.18.12.37.22.57.31Z"/>
      <path class="cls-3" d="m85.9,233.4c-.43-3.09.33-5.07,4.02-4.92,2.05.08,3.98-1.17,6.11-.82-.01.25-.02.51-.03.76-1.61.55-3.28,1.04-3.12,3.28,0,0-.04.03-.04.03-1.82-.22-3.51-.04-4.68,1.62-.06.52-.12,1.03-.18,1.55-.69-.5-1.38-1-2.07-1.5Z"/>
      <path class="cls-12" d="m77.57,195.74c-1.03.21-2.05.43-3.09.61q-6.44,1.14-7.48,7.46c-1.9.2-1.74-2.68-3.65-2.46,0-.28,0-.55,0-.83.49-.66.99-1.32,1.48-1.98,2.03-.16,2.26-2.96,4.39-2.97,2.77.76,5.6-1.87,8.34.16Z"/>
      <path class="cls-2" d="m65.46,232.69c3.15.25,6.7-1.22,9.16,2.1-3.39.79-6.71,1.27-9.16-2.1Z"/>
      <path class="cls-16" d="m58.86,218.2c-.2-.09-.39-.19-.57-.31,0-2.07,0-4.13,0-6.19.01-1.79.53-3.31,2.3-4.12.32.32.65.63.98.95,0,.17,0,.34.03.51-3.62,2.47-1.08,5.89-1.37,8.87l-.28.17c-.36.04-.73.07-1.09.11Z"/>
      <path class="cls-9" d="m122.41,110.18c.33,1.06.67,2.12,1,3.18-.71-.15-1.78,1.89-2.18-.6-.29-1.79-2.2-.96-3.38-.78-.99.14-1.17,1.1-.53,1.83,1.89,2.14,1.76,5.16,3.36,7.41-2.38.04-4.75.07-7.13.11.83-3.77-2.77-4.25-4.53-6.09-.59-.9-1.17-1.79-1.76-2.69.46-4.5-1.06-8.63-2.37-12.8-.04-.51-.08-1.01-.11-1.52.95-.47,1.9-.94,2.85-1.41,2.03-.05,4.11-.8,6.03.5-.24,3.52,2.44,4.91,4.79,6.54.07.12.1.26.08.4-1.09,3.01.4,4.12,3.16,4.31,0,0-.02-.01-.02-.01-.07.69.11,1.26.76,1.62Z"/>
      <path class="cls-1" d="m107.61,96.82c-.95.47-1.9.94-2.85,1.41-2.41-.2-2.24-2.29-3.24-3.73,3-.91,4.25,1.4,6.08,2.32Z"/>
      <path class="cls-10" d="m118.43,103.87c-2.35-1.63-5.02-3.02-4.79-6.54,3.18,1.02,5.11,2.96,4.79,6.54Z"/>
      <path class="cls-10" d="m121.67,108.58c-2.75-.19-4.25-1.3-3.16-4.31,3.01,0,2.48,2.6,3.16,4.31Z"/>
      <path class="cls-10" d="m122.41,110.18c-.65-.35-.83-.93-.76-1.62.32.3.64.61.96.91-.06.24-.12.47-.2.71Z"/>
      <path class="cls-12" d="m118.49,162.23c-.17.63-.91,1.3.12,1.86-.01.14-.03.29-.04.44-2.32-.1-4.61-.15-4.24,3.26-.42.04-.84.09-1.26.13-.44-.92.1-2.65-1.77-2.41-1.28.16-2.09,1.14-2.27,2.35-.19,1.26-.06,2.58-.07,3.87-.54,0-1.09,0-1.63.01l-.25-8.94c.65-.79,2.12-.64,2.3-1.98.02-.37.04-.73.07-1.1.4-2.78,2.37-4.01,4.75-4.83,1.38.18,2.73.15,3.98-.58.62-.06,1.25-.11,1.87-.17-1.54,1.99-4.02,1.85-6.08,2.67-1.75.7-3.06,1.72-2.65,3.86.45,2.33,2.36,2.22,4.05,2.2,1.04-.01,2.07-.4,3.11-.62Z"/>
      <path class="cls-2" d="m118.49,162.23c-1.04.22-2.07.61-3.11.62-1.7.02-3.6.13-4.05-2.2-.41-2.14.89-3.16,2.65-3.86,2.06-.82,4.53-.68,6.08-2.67.49.02.99.05,1.48.07-.26,1.29-.52,2.58-.78,3.87-.75,1.39-1.51,2.78-2.26,4.16Z"/>
      <path class="cls-3" d="m134.49,149.51c2.12.19,4.63-1.1,6.19,1.35,1.2,1.88,1.76,3.73-1.34,4.42-.5.11-1.09.34-1.41.71-3.44,3.96-4.26.99-5.12-1.91.41-1.58,2.07-2.7,1.68-4.57Z"/>
      <path class="cls-13" d="m129.73,173.39c1.34-1.29,2.61-2.62,3.4.5.43,1.69,1.63,2.96,3.15,4.09-3.92.27-7.9,4.02-11.49-.63.07-.74.14-1.48.2-2.21.77-.12,1.55-.23,2.32-.35,1.08.01,1.81-.59,2.42-1.4Z"/>
      <path class="cls-2" d="m129.39,182.11c-3.24,2.31-6.13-.53-9.21-.61-2.1-1.02-4.63.07-6.75-1.63-.99-.79-1.28-1.47-1.43-2.49,0,0,.12-.27.12-.27,1.96-.36,3.33,2.5,5.5,1.01,1.37.99,2.44.15,3.46-.63.74-.56,1.36-1.42,2.23-.21.52,3.51,3.97,3.33,6.08,4.83Z"/>
      <path class="cls-11" d="m118.18,154.3c-1.25.73-2.6.76-3.98.58,1.35-2.02-.68-2.35-1.61-3.24-.74-.7-1.93-1.29-1.42-2.54.44-1.07,1.64-.46,2.48-.69,3.71.79,7.42,1.58,11.13,2.37-.24,2.27-2.02,1.64-3.32,1.65-1.51,0-2.95-.11-3.27,1.87Z"/>
      <path class="cls-4" d="m123.32,177.28c-.87-1.22-1.49-.36-2.23.21-1.02.78-2.09,1.62-3.46.63.29-.43.57-.88.88-1.3,2.81-3.92,2.28-5.13-2.71-5.79-1.3-.17-2.31-.47-2.87-1.7.05-.47.09-.94.14-1.42.42-.04.84-.09,1.26-.13.29,3.38,2.18,2.62,4.16,1.61.55-.05,1.1-.09,1.65-.14.49-.06.99-.11,1.48-.17l.55,1.05c.22,1.51,1.08,2.35,2.61,2.47.07.84.13,1.69.2,2.53-.07.74-.14,1.48-.2,2.21-.49-.02-.98-.04-1.47-.07Z"/>
      <path class="cls-17" d="m124.77,150.78c-3.71-.79-7.42-1.58-11.13-2.37,2.25-1.6,3.54-4.59,6.83-4.66,1.93,1.16,1.81,3.96,3.94,4.97.12.69.24,1.37.36,2.06Z"/>
      <path class="cls-13" d="m145.63,175.65c-2.1.08-4.24,1.78-6.3-.13-.21-.46-.42-.92-.63-1.38-.53-3.02-.59-5.74,3.66-5.69,1.55,2.19,3.52,4.19,3.28,7.19Z"/>
      <path class="cls-3" d="m136.18,166.87c.15-1.03.1-2.16.51-3.08.58-1.31-1.19-4.16,1.82-3.77,2.21.28,4.16,1.8,4.09,4.59-.02.79-.13,1.58-.2,2.37,0,0,.03-.03.03-.03-1.89.03-3.77.06-5.66.09-.19-.07-.39-.12-.59-.16Z"/>
      <path class="cls-3" d="m145.63,175.65c.24-3.01-1.73-5-3.28-7.19.02-.51.05-1.02.07-1.52,0,0-.03.03-.03.03,1.32.47,2.3-3.13,3.96-.14,1.94,3.49,1.86,6.84-.73,8.83Z"/>
      <path class="cls-15" d="m124.79,172.61c-1.54-.12-2.39-.96-2.61-2.47,1.28-.61,2.8-.87,3.44-2.4h0c1.33-.44,2.66-.88,4.21-1.39.76,2.07-.96,3.64-.99,5.46-.52.27-1.03.55-1.55.82-.83,0-1.66-.01-2.49-.02Z"/>
      <path class="cls-3" d="m123.2,156.75c1.84,0,3.04-2.75,5.36-1.12,1.06.75,1.92,1.39,1.79,2.76-.17,1.76-1.67,1.73-2.69,1.45-1.64-.44-4.72,1.48-4.54-2.42.09-.22.12-.45.09-.69Z"/>
      <path class="cls-12" d="m134.49,149.51c.39,1.87-1.27,2.99-1.68,4.57-.61-.17-1.37-.65-1.82-.45-1.65.75-3.44.6-4.12-.78-.62-1.26,1.73-1.58,2.21-2.77.36-.21.71-.41,1.06-.62,1.45.02,2.89.03,4.34.05Z"/>
      <path class="cls-13" d="m121.63,169.08c-.49.06-.99.11-1.48.17-.06-3.6,2.52-5.87,6.11-5.28,1.33.22,1.99.88.56,1.96-.63.47-1.33.85-1.21,1.8,0,0,0,0,0,0-1.58-.31-2.82.42-3.98,1.35Z"/>
      <path class="cls-13" d="m118.5,169.39c-1.98,1.01-3.87,1.77-4.16-1.61-.37-3.41,1.91-3.36,4.23-3.26,0,.22-.03.44-.08.66,0,1.4,0,2.8,0,4.21Z"/>
      <path class="cls-3" d="m142.16,149.62c4.06-.75,4.28,3.16,6.16,5.07-4.77,1.62-5.28-1.95-6.16-5.07Z"/>
      <path class="cls-15" d="m138.69,174.15c.21.46.42.92.63,1.38-3.31,1-4.61-.2-5.03-4.66.61-.88,1.55-.83,2.46-.88.2,1.59.12,3.32,1.94,4.16Z"/>
      <path class="cls-4" d="m136.76,169.99c-.91.05-1.85,0-2.46.88-5.56-1.72-.1-3.12.14-4.66l.03-.02c.57.23,1.14.46,1.71.69.2.04.4.09.59.16,0,.99,0,1.97,0,2.96Z"/>
      <path class="cls-3" d="m134.43,166.2c-3.13-1.19-1.47-3.68-1.5-5.68,0-.57.64-.77,1.19-.69.77.12.99.69,1.12,1.38.33,1.76-.42,3.33-.77,4.97,0,0-.03.02-.03.02Z"/>
      <path class="cls-15" d="m124.77,161.47c1.17-.03,2.34-.16,3.5-.07.9.07,2.49-.58,2.43,1-.06,1.53-1.37.98-2.41.77-1.13-.23-2.32-.19-3.48-.27-.01-.48-.02-.95-.04-1.43Z"/>
      <path class="cls-2" d="m124.77,161.47c.01.48.02.95.04,1.43-1.6.28-3.19.56-4.79.84,0,0,.04.05.04.05-.22-4.4,2.56-2.72,4.71-2.32Z"/>
      <path class="cls-12" d="m123.2,156.75c.03.24,0,.46-.09.69-.79.21-1.57.42-2.35.63.26-1.29.52-2.58.78-3.87q1.74-.25,1.66,2.56Z"/>
      <path class="cls-4" d="m127.27,172.63c.52-.27,1.03-.55,1.55-.82.02.69.23,1.26.9,1.58-.61.81-1.34,1.41-2.42,1.4-.01-.72-.02-1.44-.03-2.16Z"/>
      <path class="cls-2" d="m118.49,165.18c.04-.22.07-.44.08-.66.02-.15.03-.29.04-.44.48-.1.97-.2,1.45-.3,0,0-.04-.05-.04-.05-.51.48-1.02.96-1.53,1.44Z"/>
      <path class="cls-8" d="m120.67,121.22c-1.59-2.25-1.47-5.27-3.36-7.41-.64-.72-.46-1.68.53-1.83,1.18-.17,3.08-1,3.38.78.41,2.49,1.47.45,2.18.6.95,4.14,3.93,5.45,7.77,5.55-1.12,1.66-2.24,3.33-3.36,4.99-2.38-.9-4.76-1.79-7.14-2.69Z"/>
      <path class="cls-17" d="m127.81,123.91c1.12-1.66,2.24-3.32,3.36-4.99.27-.04.53-.08.8-.12,2.38.13,4.75.24,7.13.39.98.06,2.3-.46,2.67.99.3,1.19-.66,1.92-1.46,2.63-3.37,3-8.42,3.45-12.5,1.1Z"/>
      <path class="cls-17" d="m109.01,115.25c1.77,1.84,5.37,2.31,4.53,6.09-4.53.22-3.98-3.34-4.53-6.09Z"/>
      <path class="cls-1" d="m109.14,123.38c-.26-.65-1.12-1.4-.34-1.98.59-.44.97.5,1.37.94-.34.35-.69.7-1.03,1.04Z"/>
      <path class="cls-1" d="m96.87,199.02c4.64.7,6.71,4.5,8.44,7.97,1.53,3.05.23,6.24-2.81,8.31.02-2.26-2.57-2.13-3.34-3.66.06-2.2.15-4.41.17-6.62,0-.67-.21-1.35-1.11-1.1-.71.19-.54.81-.35,1.27.68,1.66.76,3.26-.28,4.81-2.96-.1-4.11-3.49-6.95-3.8,1.74-1.94,4.1-3.47,6.18-4.53,2.97-1.51-.54-1.89.06-2.65Z"/>
      <path class="cls-10" d="m124.18,209.11c-1.91-1.65-5.46-3.19-3.43-6.03,1.61-2.26,5.05-.53,7.28.54,2.44,1.17,4.46,3.22,6.67,4.88-3.37,2.51-6.91,2.23-10.52.61Z"/>
      <path class="cls-2" d="m99.16,211.63c.77,1.53,3.36,1.41,3.34,3.67.04.24.06.47.04.71-.08,2.95,1.08,6.12-1.59,8.59-.31.24-.62.48-.93.71l.03-.03c-.31.19-.62.37-.92.56-1.16-.02-2.37.49-3.75-.55,2.13-1.58.32-4.96,3.15-6.3,1.1-.09,2.35.11,2.87-1.59-1.06-.25-2-.32-2.89.39-2.5-.36-2.03-2.03-1.63-3.67,0,0-.02.02-.02.02,1.54-.13,1.18-2,2.29-2.51Z"/>
      <path class="cls-2" d="m96.87,199.02c-.6.76,2.91,1.15-.06,2.65-2.08,1.06-4.44,2.58-6.18,4.53-1.03-.39-1.38-1.86-2.74-1.72.37-1.27.74-2.53,1.12-3.8,1.75-1.69,3.29-3.79,6.21-3.27,0,0-.02-.06-.02-.06-.31.74.03,1.17.69,1.46.33.07.65.15.98.22Z"/>
      <path class="cls-6" d="m124.18,209.11c3.61,1.61,7.15,1.89,10.52-.61,1.24-.37,2.49-.75,3.73-1.12,1.04-.44,2.07-.87,3.11-1.31,1.36.15,2.81-.18,4,.8-2.19.02-3.91,1.09-5.51,2.44-2.52,1.56-5.28,2.49-8.17,3.08-.39.08-.77.16-1.16.24-.89-.17-1.7-1.58-2.69-.17-.24.09-.48.09-.72,0-.41-.71-1.05-.71-1.74-.56-.78.03-1.55.05-2.33.08.23-.92.68-1.87-.33-2.65.43-.07.87-.14,1.3-.21Z"/>
      <path class="cls-10" d="m141.54,206.07c-1.04.44-2.07.87-3.11,1.31-.28-2.64-1.8-5.35.81-7.77.93-.86,1.77-1.78,3.03-1.28,1.41.57.6,1.78.4,2.74-.35,1.67-.75,3.33-1.13,4.99Z"/>
      <path class="cls-9" d="m94.46,192.94c-2.16-.19-2.62-1.92-3.21-3.54.52-2.06-.55-3.92-.7-5.9,2.69-.36,2.96,2.77,4.94,3.44,1.51,2.32-.59,4.01-1.02,6Z"/>
      <path class="cls-9" d="m140.02,209.31c1.6-1.34,3.32-2.42,5.51-2.44.48.05.96.09,1.44.14-1.13,3.73-4.35,2.61-6.93,2.98,0-.23-.01-.45-.03-.68Z"/>
      <path class="cls-6" d="m95.89,198.8c-.66-.28-.99-.72-.69-1.46.7.26.75.83.69,1.46Z"/>
      <path class="cls-1" d="m32.56,138.27c-.16.5-.31,1.01-.47,1.51-.14.19-.23.4-.26.63-.19.26-.38.52-.57.78-.24.1-.49.19-.73.28-.97-.18-1.78-.54-1.82-1.71-.27-6.77,1.31-13.06,4.94-18.8.11,1.03.84,1.12,1.68,1.23,2.06.28,2.52,1.25,1.72,3.3-.88,2.24-2.02,4.53-1.33,7.11-.09.41-.19.82-.28,1.23-3.13.07-3.58,1.89-2.88,4.44Z"/>
      <path class="cls-1" d="m28.34,112.79c1.39.81,2.23,1.92,2.04,3.62-.14.31-.29.62-.43.94-.98.79-1.96,1.58-3.27,2.64-.3-2.86,1.17-4.92,1.65-7.19Z"/>
      <path class="cls-16" d="m31.66,116.41c.25-.45.4-1.01.77-1.32.72-.62,1.27-2.09,2.5-1.2.84.61.33,1.73-.05,2.57-.38.84-.86,1.63-1.3,2.44-.64-.83-1.28-1.65-1.92-2.48Z"/>
      <path class="cls-1" d="m30.79,119.2c.09.04.19.09.28.13-.09.14-.18.27-.27.41-.09-.09-.19-.17-.28-.26.09-.09.18-.18.27-.27Z"/>
      <path class="cls-16" d="m29.96,117.34c.14-.31.29-.62.43-.94.44.04.87.09,1.31.14-.58.27-1.16.53-1.74.8Z"/>
      <path class="cls-10" d="m80.44,177.35c2.8.45,4.49,2.72,6.72,4.11.62,1.31,1.24,2.62,1.86,3.94-1.32.94-1.17,3.9-3.88,2.92-2.19-.78-4.41-.33-6.63-.38-2-1.37-4.26-2.42-5.72-4.48.12-5.46,1.24-6.36,7.66-6.12Z"/>
      <path class="cls-1" d="m80.44,177.35c-6.42-.24-7.54.66-7.66,6.12-.77-.5-1.56-.96-2.29-1.51-1.82-1.38-3.94-3.05-2.91-5.44.79-1.84,3.27-.8,4.99-.83,2.73-.06,5.56-.33,7.87,1.67Z"/>
      <path class="cls-14" d="m78.5,187.94c2.21.04,4.44-.41,6.63.38,2.71.97,2.56-1.98,3.88-2.92,1.29,1.03.07,2.95,1.41,3.97-.04.48-.08.95-.12,1.43-1.01.18-2.2.12-2.28,1.62-3.76.13-6.25-2.87-9.55-3.88,0-.2.01-.4.03-.6Z"/>
      <path class="cls-2" d="m77.57,195.74c-2.74-2.03-5.57.61-8.34-.16.57-1.23,1.9-2.02,2.07-3.49,1.93-.17,3.87-.34,5.8-.51.42.07.84.14,1.26.22.14,1.77,2.07,2.4,2.53,3.97-1.11-.01-2.22-.02-3.33-.03Z"/>
      <path class="cls-1" d="m71.31,192.1c-.17,1.47-1.5,2.25-2.07,3.49-2.12.02-2.36,2.81-4.39,2.97-.21-4.52,2.99-5.63,6.46-6.46Z"/>
      <path class="cls-16" d="m90.42,189.36c-1.33-1.02-.12-2.94-1.41-3.97-.62-1.31-1.24-2.62-1.86-3.94.29-.3.57-.6.86-.9,1.18.69,1.89,1.78,2.52,2.94.15,1.97,1.22,3.84.7,5.9-.27-.01-.55-.03-.82-.04Z"/>
      <path class="cls-5" d="m112.45,234.46s.05-.25.06-.25c2.02.36,3.2-1.54,4.98-1.83.74,1.57,2.86.28,3.7,1.7-.72,1.5-2.43,3.8-.34,4.28,2.43.55,4.34,2.32,6.85,2.35-.72.99-1.43,1.98-2.15,2.96,0,0,.06-.01.06-.01-.54,0-.83.27-.82.83v-.02c-.4.27-.8.54-1.21.81-1.19.3-2.38.59-3.57.89-2.76-1-5.1-2.61-6.9-4.94-1.62-2.09-2.42-4.32-.65-6.76Z"/>
      <path class="cls-4" d="m132.72,241.3c-1.6.18-2.44-.43-2.22-2.14-.11-.51-.21-1.03-.31-1.54.09-.38.18-.76.27-1.14.52.02,1.07-.06,1.56.08,7.31,2.18,8.81,1.08,8.82-6.48,0-.53-.01-1.05-.02-1.58,0-.53,0-1.06,0-1.6.54,0,1.07,0,1.61,0,.27,0,.54,0,.82-.01-1.15,2.15-.2,4.34-.08,6.51.22,4.11,2.34,5.61,6.37,4.59.18.19.36.38.54.57-1.54,1.94-2.36,4.1-1.98,6.61-.03.53-.07,1.06-.1,1.59-.8.08-1.6.17-2.4.25,0,0-.21-.19-.21-.19,1.22-3.39,2.12-6.68-2.46-8.39-1.99-.74-8.58,1.05-10.2,2.84Z"/>
      <path class="cls-15" d="m132.72,241.3c1.62-1.79,8.21-3.59,10.2-2.84,4.58,1.71,3.68,4.99,2.46,8.39-4.26,1.57-6.6.59-7.4-4.36-.28-1.73-3.46-.69-5.25-1.18Z"/>
      <path class="cls-2" d="m130.19,237.62c.1.51.21,1.03.31,1.54-1.43-.37-1.58,1.57-2.81,1.54-2.51-.02-4.42-1.79-6.85-2.35-2.09-.48-.38-2.78.34-4.28-.84-1.42-2.95-.13-3.7-1.7.33-.41.66-.81,1-1.22,2.96-.89,5.92-2.54,7.15,2.52.38,1.56,2.11,3.71,4.56,3.94Z"/>
      <path class="cls-13" d="m134.99,254.13c-.28.05-.57.1-.85.14-3.87-.57-5.96-2.78-6.2-6.71.56-.75,1.12-1.51,1.68-2.26,2.17-2.26,4.05-.79,4.98.99,1.26,2.38,4.3,5.07.38,7.84Z"/>
      <path class="cls-13" d="m150.47,251.42c-2.36,1.6-5.72,1.42-7.43,4.17-3.33.16-4.01-1.84-3.75-4.6,3.53,2.69,9.01.8,9.53-3.28,1.31,0,2.62,0,3.92,0,.21,1.83-1.58,2.43-2.27,3.71Z"/>
      <path class="cls-15" d="m148.82,247.7c-.52,4.08-6,5.97-9.53,3.28-.03-1.43.92-1.61,2.06-1.7,1.72-.14,3.32-.59,4.25-2.25.8-.08,1.6-.16,2.4-.25.27.3.55.61.82.91Z"/>
      <path class="cls-13" d="m124.84,245.99c.01-.19.03-.38.04-.57-.03-.32-.06-.64-.09-.96,0,0-.01.02-.01.02.53-.02.81-.29.82-.83,0,0-.06.01-.06.01,1.51.53,2.62-.96,4.05-.8l.05.05c0,.79-.02,1.59-.03,2.38-1.69-.44-3.07,1.28-4.78.69Z"/>
      <path class="cls-13" d="m129.59,242.87c.12-.11.24-.22.36-.33-.1.13-.2.25-.31.38,0,0-.05-.05-.05-.05Z"/>
      <path class="cls-2" d="m156.16,218.83c-.32.76-.64,1.51-.97,2.27-.25.14-.5.28-.76.42-.26-.29-.56-.56-.78-.88-1.68-2.37-3.92-4.61-6.69-4.55-3.37.07-1.45,3.97-2.86,5.72-.08.1-.1.24-.15.36-1.36-.09-2.74,0-1.92-2.19.61-1.63.53-3.37-.52-4.92-.25-.84-.65-1.69.2-2.44,1.71-.09,3.44-.06,5.14-.28,5.11-.66,7.69,2.2,9.31,6.49Z"/>
      <path class="cls-11" d="m141.71,212.61c-.85.75-.45,1.6-.2,2.44-.24.25-.48.5-.72.75-.21-.06-.42-.12-.62-.18-1.26-3.75-4.27-3.22-7.18-2.92-.38-.11-.76-.21-1.14-.32,2.89-.59,5.65-1.52,8.17-3.08.02.23.02.45.03.68-.19,1.35-.14,2.54,1.66,2.63Z"/>
      <path class="cls-17" d="m98.46,173.42c2.33-.31,5.41.16,6.76-1.16,1.19-1.16.43-4.31.53-6.57.05-1.15-.26-2.46,1.33-2.91.08,2.98.17,5.96.25,8.94-.15,2.51,1.62,4.27,2.46,6.4-.16.05-.23.16-.2.33-1.68,1.26-3.13-.59-4.74-.33-2.36-1.25-5.52-1.42-6.39-4.7Z"/>
      <path class="cls-2" d="m127.95,247.56c.23,3.93,2.32,6.14,6.2,6.71-3.28,1.52-6.26.48-8.99-1.32-2.31-1.52-3-3.41-.26-5.32,1.02-.03,2.03-.05,3.05-.08Z"/>
      <path class="cls-6" d="m127.95,247.56c-1.02.03-2.04.05-3.05.08-.02-.55-.04-1.1-.05-1.65,1.71.59,3.09-1.14,4.78-.69-.56.75-1.12,1.51-1.68,2.26Z"/>
      <path class="cls-6" d="m124.79,244.46c.03.32.06.64.09.96-.44-.05-.87-.1-1.31-.14.41-.27.81-.54,1.22-.81Z"/>
      <path class="cls-10" d="m41.55,170.94c.09,1.46-.03,2.85-2.04,2.01-1.41-.59-2.79-.35-4.2-.34-.86-1.1-1.39-2.34-1.51-3.99-1,2.47-2.93,3.1-5.06,3.43.24-3.58,2.42-6.32,4.06-9.3,1.96.99,2.98,4.38,6.1,2.38.13.35.26.69.38,1.04,1.13,1.42.23,3.79,2.27,4.78Z"/>
      <path class="cls-10" d="m28.84,181.63c-.25-1.17-.5-2.35-.76-3.52.03-1.92.06-3.84.1-5.76.22-.08.44-.17.67-.25,1.8,2.58,2.52,5.32,1.44,8.41-.27.77-.9.84-1.44,1.13Z"/>
      <path class="cls-17" d="m28.18,172.34c-.03,1.92-.06,3.84-.1,5.76-1.43-.11-1.35,1.9-2.95,1.93-.61-2.88,1.14-5.06,2.19-7.43.29-.09.57-.18.86-.27Z"/>
      <path class="cls-14" d="m35.2,176.38c.26.04.53.05.78.11,1.56.42,3.99-.92,4.53.99.34,1.18-2.46,1.15-3.61,2.63-1.12,1.44-2-2.4-3.98-1.97.04-1.52,1.19-1.6,2.28-1.76Z"/>
      <path class="cls-10" d="m31.26,141.2c.19-.26.38-.52.57-.78.13.49-.03.77-.57.78Z"/>
      <path class="cls-2" d="m96,228.42c.01-.25.02-.51.03-.76,1.13-1.23,3.72.4,4.19-2.12,0,0-.17-.25-.17-.25,0,0-.03.03-.03.03,0,0,.3.19.3.19.35.41.69.81,1.04,1.22.04,2.96-2.74,2.44-4.27,3.46-.37-.59-.73-1.17-1.09-1.76Z"/>
      <path class="cls-5" d="m96,228.42c.36.59.73,1.17,1.09,1.76-.1.21-.22.42-.33.63-1.29.3-2.59.59-3.88.89-.16-2.24,1.52-2.72,3.12-3.28Z"/>
      <path class="cls-2" d="m163.18,227.73c.06.14.1.28.09.43-3.02,1.76-1.73,4.1-.85,6.38-.51,1.57-1.92,1.71-3.23,2.01-1.21-.43-3.46-.86-3.46-1.29,0-3.68-2.47-7.04-1.38-10.81,3.45-.29,6.46.6,8.82,3.27Z"/>
      <path class="cls-4" d="m154.36,224.46c-1.09,3.77,1.37,7.13,1.38,10.81,0,.43,2.25.86,3.46,1.29.17.8-.03,1.43-.85,1.75-.77-.24-1.55-.47-2.32-.7-2.5-2.82-3.93.85-5.95.98-.18-.19-.36-.38-.54-.57.58-.73,1.15-1.45,1.73-2.18,1.47-.37,1.67-1.37,1.45-2.69-.3-1.78-.5-3.59-.74-5.38-.06-1.15-.12-2.31-.19-3.46.2-1.58,1.78-1.84,2.66-2.77.25-.14.5-.28.76-.42.51,1.31-.07,2.36-.83,3.36Z"/>
      <path class="cls-2" d="m156.02,237.59c.77.24,1.55.47,2.32.71,1.07,3.06.81,5.7-2.34,7.43-1.25.62-1.33-.41-1.62-1.15.43-2.36,1.78-4.5,1.63-6.98Z"/>
      <path class="cls-6" d="m154.39,244.58c.29.74.37,1.77,1.62,1.15-.33.6-.66,1.19-.99,1.79-.76.06-1.51.12-2.27.19-1.31,0-2.62,0-3.93,0-.27-.3-.55-.61-.82-.91.03-.53.07-1.06.1-1.6,2.01-1.09,4.01-2.31,6.3-.61Z"/>
      <path class="cls-5" d="m162.42,234.53c-.88-2.28-2.18-4.61.85-6.38,1.4,1.58.66,3.41.61,5.16-.07.16-.14.31-.21.47-.42.25-.83.49-1.24.74Z"/>
      <path class="cls-2" d="m123.21,211.97c.78-.03,1.55-.05,2.33-.08.58.19,1.16.38,1.74.56.24.08.48.08.73,0,.13,3.01-2.57,6.4,1.19,8.93-1.24,5.18-3.68,6.86-10.75,7.42-.63-.52-1.26-1.04-1.9-1.56,2.42-.6,2.41-1.9,1.36-3.86-.92-1.72-2.69-3.03-2.67-5.22,1.68-3.32,5.03-4.48,7.97-6.18Z"/>
      <path class="cls-17" d="m115.23,218.15c-.01,2.19,1.76,3.5,2.67,5.22,1.04,1.96,1.05,3.26-1.36,3.86-.68-.46-1.36-.92-2.04-1.37-1.21-2.48-.81-4.94.1-7.39.22-.09.43-.2.63-.33Z"/>
      <path class="cls-11" d="m109.79,178.13c-.83-2.13-2.61-3.9-2.46-6.4.54,0,1.09-.01,1.63-.01.48,1.78.52,3.88,3.06,4.13l.11,1.27s-.12.27-.12.27c-.74.25-1.48.49-2.22.74Z"/>
      <path class="cls-12" d="m100.33,225.51s-.3-.19-.3-.19c.31-.24.62-.48.93-.71-.21.3-.42.6-.63.9Z"/>
      <path class="cls-16" d="m114.5,225.86c.68.46,1.36.92,2.04,1.37.63.52,1.26,1.04,1.9,1.56.01.79.03,1.57.04,2.36-.33.41-.66.81-1,1.22-1.78.29-2.96,2.2-4.98,1.83.08-.33.16-.66.25-.98.2-.16.37-.4.6-.48,3.68-1.32,4.06-3.21,1.02-5.72.04-.39.09-.77.13-1.16Z"/>
      <path class="cls-5" d="m88.16,233.35c1.17-1.66,2.85-1.85,4.68-1.62-1.18,1.64-2.9,1.7-4.68,1.62Z"/>
      <path class="cls-9" d="m69.55,117.27c.18-1.04.66-1.86,1.64-2.33.08,1.22.18,2.45-1.64,2.33Z"/>
      <path class="cls-9" d="m71.16,113.49c-.56-.18-1.32-.29-1.08-1.09.09-.3.76-.42,1.17-.63-.03.57-.06,1.15-.09,1.72Z"/>
      <path class="cls-9" d="m41.55,170.94c-2.04-.98-1.14-3.36-2.27-4.78,1.63-.07,1.64-1.23,1.61-2.41.06-.11.12-.23.18-.34-.06.11-.13.23-.19.34-1.9-2.01-2-5.46-5.48-6.33,3.28-1.3,6.67.04,9.55-1.69,1.17,1.29,2.28,2.07,1.22,4.52-1.13,2.61.19,5.76,1.87,8.32-1.12.31-2.73-.94-2.86,1.87-.14,2.8-2.42-.08-3.64.49Z"/>
      <path class="cls-14" d="m53.68,79.82c-.82-.11-1.61-.3-1.42-1.38.04-.25.57-.67.73-.62.97.35.62,1.26.71,1.98,0,0-.02.01-.02.01Z"/>
      <path class="cls-14" d="m57.67,93.42c-.11-.07-.22-.13-.34-.2.12.06.23.12.35.18,0,0-.02.02-.02.02Z"/>
      <path class="cls-10" d="m32.56,138.27c-.7-2.56-.25-4.37,2.88-4.44-1.43,1.18.19,4.33-2.88,4.44Z"/>
      <path class="cls-13" d="m61.6,209.04c-.03-.17-.03-.34-.03-.51,2.03-.33,4.49-2,6.01-.31,1.8,2.01,5.03,3.51,5.08,6.26.05,2.88-.04,6.5-3.93,7.85-3.7,1.28-6.46.4-8.21-3.2-.17-.36-.38-.7-.57-1.04,0,0,.28-.17.28-.17,3.33-1.85,2.92-4.47,1.54-7.33-.21-.44-.13-1.03-.18-1.55Z"/>
      <path class="cls-13" d="m75.22,211.78c-4.63-1.12-7.76-7.16-5.9-11.38.5-1.14,1.16-2.2,2.54-2.2,3.3,0,6.49-1.37,9.83-.77-.08,1.74.52,3.75-2.27,4.15-1.1.16-1.76,1.51-1.58,2.45.58,3.14-1.32,5.32-2.61,7.76Z"/>
      <path class="cls-3" d="m75.22,211.78c1.29-2.43,3.19-4.61,2.61-7.76-.17-.94.48-2.29,1.58-2.45,2.79-.39,2.19-2.41,2.27-4.15.8.01,1.59.02,2.39.03.57,1.7,1.13,3.4,1.7,5.1.24,2.67-2.23,4.3-2.59,6.74-2.32,1.89-4.47,4.34-7.96,2.48Z"/>
      <path class="cls-3" d="m87.89,204.47c1.36-.13,1.71,1.33,2.74,1.72,2.84.31,4,3.71,6.95,3.8-.24,1.38-.48,2.76-.72,4.14,0,0,.02-.02.02-.02-1.94.01-3.88-.04-5.82.04-3.47.15-5.38-1.39-5.57-4.92.47-1.76,1.05-3.46,2.4-4.78Z"/>
      <path class="cls-13" d="m84.12,227.87c-.09,3.06-3.92,5.45-7.68,5.19-3.04-.22-2.77-2.64-2.83-4.75-.03-1.17.12-2.18,1.74-1.8,2.01.47,3.99-.16,5.81-.71,2.9-.88,2.7.99,2.95,2.08Z"/>
      <path class="cls-13" d="m92.81,221.26c-.21.75-.46,1.5-.62,2.26-.25,1.18.54,2.87-1.32,3.26-1.8.37-3.5.36-5.04-1.22-1.46-1.5-1.11-2.74-.26-4.2,2.41-.15,4.79-2.74,7.24-.11Z"/>
      <path class="cls-3" d="m92.81,221.26c-2.45-2.63-4.83-.04-7.24.11.91-2.3-.54-6.14,4.36-5.71,5.42.47,5.63.58,2.88,5.61Z"/>
      <path class="cls-3" d="m73.71,221.28c-.34-6.94,5.13-8.02,10.26-9.43.47,1.13.08,2.54-.76,3.9-.51.12-1.03.34-1.54.33-4.51-.04-5.41.93-4.8,5.24-1.07,1.42-2.11-.25-3.16-.04Z"/>
      <path class="cls-2" d="m76.87,221.32c-.61-4.31.29-5.28,4.8-5.24.51,0,1.03-.22,1.54-.33-1.14,2.36-.05,5.15-1.4,7.47-1.44-1.17-3.22-1.46-4.94-1.9Z"/>
      <path class="cls-13" d="m70.52,224.55c0,1.32-.29,2.7.03,3.93.68,2.61-.81,2.53-2.53,2.39-1.48-1.86-2.91-3.8-5.59-3.98,0-1.03-.2-1.8,1.5-1.92,2.15-.16,4.31-.54,6.49-.52,0,0,.09.09.09.09Z"/>
      <path class="cls-4" d="m87.89,204.47c-1.35,1.32-1.93,3.02-2.4,4.78-.77.02-1.54.03-2.32.05.36-2.44,2.83-4.07,2.59-6.74,1.38-.44,1.54-1.62,1.72-2.8.51.31,1.01.61,1.52.92-.37,1.27-.74,2.53-1.12,3.8Z"/>
      <path class="cls-13" d="m76.87,221.32c1.72.44,3.5.73,4.94,1.9-4.3,2.65-7.48,1.89-8.11-1.94,1.06-.21,2.09,1.46,3.16.04Z"/>
      <path class="cls-12" d="m80.9,195.77c-.46-1.57-2.39-2.2-2.53-3.97,3.3-.72,4.93,2.38,7.57,3.97h-5.04Z"/>
      <path class="cls-2" d="m87.49,199.76c-.18,1.17-.34,2.36-1.72,2.8-.57-1.7-1.13-3.4-1.7-5.1,1.94-.43,3.34-.04,3.41,2.3Z"/>
      <path class="cls-3" d="m62.43,226.89c2.68.18,4.1,2.12,5.59,3.98-2.82.02-5.1-.72-5.59-3.98Z"/>
      <path class="cls-12" d="m98.52,217.8c.89-.71,1.83-.64,2.89-.39-.52,1.71-1.76,1.51-2.87,1.59,0-.4-.01-.81-.02-1.21Z"/>
      <path class="cls-16" d="m88.03,192.42c.07-1.51,1.26-1.44,2.28-1.62.16,1.84-1.02,1.78-2.28,1.62Z"/>
      <path class="cls-13" d="m71.23,223.68c.14-.12.29-.24.43-.36-.12.15-.24.29-.35.44,0,0-.08-.08-.08-.08Z"/>
      <path class="cls-13" d="m71.31,223.76c-.27.26-.53.53-.79.79,0,0-.09-.09-.09-.09.27-.26.54-.52.81-.78,0,0,.08.08.08.08Z"/>
      <path class="cls-12" d="m100.05,225.29s.17.26.17.25c-.36.1-.73.2-1.09.31.31-.19.62-.37.92-.56Z"/>
      <path class="cls-2" d="m61.6,209.04c.05.52-.03,1.11.18,1.55,1.37,2.86,1.79,5.48-1.54,7.33.29-2.99-2.25-6.41,1.37-8.88Z"/>
      <path class="cls-2" d="m112.02,175.84c-2.54-.25-2.58-2.35-3.06-4.13,0-1.29-.12-2.6.07-3.87.18-1.21.99-2.18,2.27-2.35,1.87-.24,1.33,1.49,1.77,2.41-.05.47-.09.94-.14,1.42-2.15,1.91-1.85,4.17-.91,6.52Z"/>
      <path class="cls-17" d="m109.38,160.81c-.36-.39-.31-.75.07-1.1-.02.37-.04.73-.07,1.1Z"/>
      <path class="cls-6" d="m127.27,172.63c0,.72.02,1.44.03,2.16-.77.12-1.55.23-2.32.35-.07-.84-.13-1.68-.2-2.53.83,0,1.66.01,2.49.02Z"/>
      <path class="cls-13" d="m112.02,175.84c-.94-2.35-1.24-4.6.91-6.52.57,1.24,1.57,1.53,2.87,1.7,4.99.66,5.52,1.88,2.71,5.79-.3.42-.59.87-.88,1.3-2.17,1.5-3.54-1.37-5.5-1.01-.04-.43-.07-.85-.11-1.27Z"/>
      <path class="cls-6" d="m121.63,169.08c1.17-.93,2.4-1.65,3.98-1.35-.63,1.54-2.16,1.79-3.44,2.4-.18-.35-.37-.7-.55-1.05Z"/>
      <path class="cls-6" d="m136.76,169.99c0-.99,0-1.97,0-2.96,1.89-.03,3.77-.06,5.66-.09-.02.51-.05,1.02-.07,1.52-4.25-.06-4.19,2.66-3.66,5.69-1.82-.84-1.73-2.57-1.93-4.16Z"/>
      <path class="cls-16" d="m96.87,214.14c.24-1.38.48-2.76.72-4.14,1.04-1.55.97-3.15.28-4.81-.19-.46-.36-1.08.35-1.27.91-.25,1.12.42,1.11,1.1-.03,2.21-.11,4.41-.17,6.62-1.12.51-.75,2.38-2.29,2.51Z"/>
      <path class="cls-2" d="m140.17,215.63c.21.06.42.12.62.18.02,5.13-1.6,7.17-5.59,6.93-1.71-.1-3.3-.66-4.79-1.48-2.7-2.97-1.84-5.83.29-8.64.39-.08.77-.16,1.16-.24.38.11.76.21,1.14.32,2.45.83,4.53,2.57,7.18,2.93Z"/>
      <path class="cls-16" d="m130.7,212.62c-2.12,2.81-2.99,5.67-.29,8.64-.41.04-.81.08-1.22.12-3.75-2.53-1.06-5.91-1.19-8.93.99-1.41,1.8,0,2.69.17Z"/>
      <path class="cls-12" d="m127.28,212.45c-.58-.19-1.16-.38-1.74-.56.69-.15,1.33-.14,1.74.56Z"/>
      <path class="cls-6" d="m125.61,243.65c-.01.54-.3.8-.82.83,0-.55.28-.82.82-.83Z"/>
      <path class="cls-15" d="m140.81,228.51c0,.53.02,1.05.02,1.58-.01,7.56-1.51,8.66-8.82,6.48-.48-.14-1.04-.06-1.56-.08-.16-1.12-1.24-1.21-1.9-1.78-1.68-1.48-2.65-3.35-1.29-5.55,3.74-6.01,5.5-6.35,11.36-2.35.76.52,1.46,1.13,2.18,1.7Z"/>
      <path class="cls-6" d="m140.81,228.51c-.73-.57-1.42-1.18-2.18-1.7-5.86-4.01-7.61-3.66-11.36,2.35-1.36,2.19-.4,4.07,1.29,5.55.66.58,1.74.66,1.9,1.78-.09.38-.18.76-.27,1.14-2.46-.23-4.18-2.38-4.56-3.94-1.23-5.07-4.19-3.41-7.15-2.52-.01-.79-.03-1.57-.04-2.36,7.07-.56,9.51-2.24,10.75-7.42.41-.04.81-.08,1.22-.12,1.5.82,3.09,1.38,4.79,1.48,3.99.24,5.62-1.8,5.59-6.93.24-.25.48-.5.72-.75,1.05,1.55,1.12,3.29.52,4.92-.82,2.19.57,2.1,1.92,2.19,2.32,1.78,4.9,2.59,7.83,2.13.06,1.15.12,2.31.19,3.46-2.55-1.08-5.21-.9-7.88-.77-.28-.02-.56-.05-.85-.07-.27,0-.54,0-.82,0-.07-1.25,2.03-1.2,1.74-2.65-1.6-.73-3.28-1.3-4.46,0-.87.95.96,1.63,1.11,2.64,0,.53,0,1.06,0,1.6Z"/>
      <path class="cls-15" d="m143.24,226.91c.28.02.56.05.85.07,2.47,2.88,6.28,4.68,7.17,8.84-.58.73-1.15,1.45-1.73,2.18-4.02,1.02-6.14-.47-6.37-4.59-.12-2.17-1.07-4.36.08-6.51Z"/>
      <path class="cls-13" d="m154.39,244.58c-2.28-1.69-4.28-.48-6.3.61-.38-2.52.44-4.67,1.98-6.61,2.02-.13,3.45-3.8,5.95-.98.14,2.49-1.21,4.63-1.64,6.98Z"/>
      <path class="cls-13" d="m140.81,226.91c-.15-1.01-1.98-1.69-1.11-2.64,1.18-1.3,2.86-.73,4.46,0,.29,1.46-1.81,1.41-1.74,2.65-.54,0-1.07,0-1.61,0Z"/>
      <path class="cls-13" d="m151.78,224.29c-2.93.46-5.51-.35-7.83-2.13.05-.12.07-.26.15-.36,1.4-1.74-.51-5.64,2.86-5.72,2.77-.06,5.02,2.19,6.69,4.55.22.32.52.58.78.88-.87.94-2.46,1.19-2.66,2.78Z"/>
      <path class="cls-5" d="m140.17,215.63c-2.65-.36-4.73-2.09-7.18-2.93,2.91-.29,5.92-.83,7.18,2.93Z"/>
      <path class="cls-13" d="m151.26,235.83c-.89-4.16-4.7-5.96-7.17-8.84,2.66-.13,5.33-.31,7.88.77.24,1.79.44,3.6.74,5.38.22,1.32.02,2.33-1.45,2.69Z"/>
      <path class="cls-8" d="m40.89,163.75c.06-.11.13-.23.19-.34-.06.11-.12.23-.18.34,0,0,0,0,0,0Z"/>
    </g>
  </g>
</svg>