<?xml version="1.0" encoding="UTF-8"?>
<svg id="Layer_2" data-name="Layer 2" xmlns="http://www.w3.org/2000/svg" viewBox="0 0 109.42 160.28">
  <defs>
    <style>
      .cls-1 {
        fill: none;
        stroke: #4b8660;
        stroke-miterlimit: 10;
        stroke-width: 2px;
      }

      .cls-2 {
        fill: #c1272d;
      }

      .cls-2, .cls-3 {
        stroke-width: 0px;
      }

      .cls-3 {
        fill: #98c773;
      }
    </style>
  </defs>
  <g id="Layer_1-2" data-name="Layer 1">
    <g>
      <path class="cls-2" d="m97.56,74.23c-.6-.26-1.21-.49-1.82-.69,3.35,4.84,4.49,11.05,2.73,16.95,4.23,2.87,7.07,7.22,8.17,12.01.4-.67.77-1.36,1.09-2.09,4.42-10.04-.13-21.76-10.17-26.18Z"/>
      <path class="cls-2" d="m59.41,64.66c-10.04-4.42-21.76.13-26.18,10.17-.31.71-.57,1.42-.79,2.15,6.97,4.9,10.09,13.84,7.53,22.09,1.06.74,2.2,1.4,3.43,1.94.03.01.06.02.09.03,4.92-8.81,15.81-12.61,25.24-8.51.31-.55.59-1.11.85-1.7,4.42-10.04-.13-21.76-10.17-26.18Z"/>
      <path class="cls-2" d="m8.32,77.96c5.61-4.65,13.56-6.05,20.69-2.92.07.03.13.07.2.1.25-.91.55-1.81.94-2.7,2.67-6.05,7.99-10.09,14-11.39-1.86-4.66-5.47-8.62-10.43-10.8-10.04-4.42-21.76.13-26.18,10.17-2.59,5.87-2.08,12.31.77,17.53Z"/>
      <circle class="cls-2" cx="59.91" cy="113.97" r="19.86"/>
      <path class="cls-2" d="m3.38,105.08c4.42-10.04,16.14-14.59,26.18-10.17,3.84,1.69,6.87,4.45,8.91,7.78,3.62-9.77-.93-20.8-10.6-25.06-10.04-4.42-21.76.13-26.18,10.17-2.73,6.2-2.03,13.03,1.26,18.4.14-.37.26-.75.43-1.12Z"/>
      <path class="cls-2" d="m50.52,134.11c-5.39-2.37-9.17-6.85-10.86-12.04-4.57,1.89-8.45,5.46-10.6,10.34-4.42,10.04.13,21.76,10.17,26.18,10.04,4.42,21.76-.13,26.18-10.17,2.05-4.65,2.15-9.66.69-14.14-4.83,1.99-10.42,2.1-15.57-.17Z"/>
      <path class="cls-2" d="m78.05,112.66c-9.21-4.06-19.83-.54-24.93,7.83,1.63.26,3.26.71,4.85,1.41,10.04,4.42,14.59,16.14,10.17,26.18-.36.82-.79,1.6-1.25,2.34,8.71,1.41,17.61-3.13,21.33-11.58,4.42-10.04-.13-21.76-10.17-26.18Z"/>
      <path class="cls-2" d="m93.29,90.95c-7.64-3.36-16.24-1.52-21.87,3.97,5.67,3.36,9.17,9.22,9.67,15.51,6.63,3.5,10.54,10.32,10.57,17.47,5.09-1.73,9.46-5.48,11.8-10.78,4.42-10.04-.13-21.76-10.17-26.18Z"/>
      <g>
        <path class="cls-2" d="m41.93,121.08c.28-.04.56-.08.85-.1-.23-.4-.48-.79-.74-1.18-.03.43-.06.85-.11,1.28Z"/>
        <path class="cls-2" d="m24.8,138.23c-3.48.46-7.12.02-10.57-1.5-3.56-1.57-6.42-4.07-8.44-7.08-.5,8.07,3.97,15.96,11.8,19.4,3.17,1.39,6.5,1.89,9.72,1.61-2.14-3.72-3.06-8.08-2.51-12.44Z"/>
      </g>
      <path class="cls-2" d="m72.28,91.41c5.63-5.07,13.91-6.69,21.29-3.43.94.41,1.82.91,2.66,1.45,1.2-8.57-3.34-17.24-11.65-20.91-4.86-2.14-10.12-2.16-14.75-.49,5.11,5.63,6.75,13.95,3.49,21.36-.31.7-.66,1.37-1.04,2.02Z"/>
      <path class="cls-2" d="m40.33,122.69c-1.98-5.2-1.78-11.19,1.07-16.46.25-.45.52-.88.79-1.31-1.77-2.91-4.3-5.41-7.51-7.15-9.65-5.21-21.7-1.6-26.91,8.05-5.21,9.65-1.6,21.7,8.05,26.91,2.83,1.53,5.86,2.29,8.87,2.37,2.58-6.57,8.54-11.38,15.64-12.4Z"/>
      <path class="cls-1" d="m68.72,64.63c6.4-8.88,7.37-15.88,7.04-20.67-.73-10.54-8.1-15.24-9.41-27.91-.68-6.57.6-12.12,1.77-15.75"/>
      <path class="cls-3" d="m50.53,58.13c3.11-.22,6.32.29,9.37,1.63,1.11.49,2.15,1.08,3.12,1.74,1.09-.84,1.63-2.54,1.55-3.86-.08-1.29-.69-1.48-1.45-3.74-.75-2.23-.59-3.34-1.07-3.44-.99-.21-1.97,4.5-3.54,4.51-1.36,0-1.72-3.52-4.26-9.11-2.76-6.06-4.16-5.91-5.61-10.73-.96-3.2-1.16-6.02-2.03-6.06-.6-.03-1.09,1.3-1.54,2.42-3.07,7.67-4.95,7.02-5.69,11.42-.2,1.18-.95,5.68,1.63,9.52.82,1.22,1.68,1.94,2.52,2.62,2.38,1.94,4.12,2.29,6.97,3.07Z"/>
    </g>
  </g>
</svg>