<?xml version="1.0" encoding="UTF-8"?>
<svg id="Layer_2" data-name="Layer 2" xmlns="http://www.w3.org/2000/svg" viewBox="0 0 125.48 132.37">
  <defs>
    <style>
      .cls-1 {
        fill: #fff;
        stroke-width: 0px;
      }
    </style>
  </defs>
  <g id="Layer_1-2" data-name="Layer 1">
    <g>
      <path id="Path_2671" data-name="Path 2671" class="cls-1" d="m52.72,0s-12.45,4.39-15.92,13.25c-3.46,8.86,2.61,17.07,2.61,17.07,0,0,4.5-1.57,6.35-3.43,1.85-1.86,4.7-9.13,4.64-12.66.11-3.18.47-6.35,1.08-9.48l1.23-4.76Z"/>
      <path id="Path_2672" data-name="Path 2672" class="cls-1" d="m0,45.6s6.01-11.6,15.17-13.77c9.16-2.17,16.36,4.91,16.36,4.91,0,0-2.16,4.2-4.23,5.75-2.08,1.55-9.59,3.35-13.04,2.8-3.13-.33-6.29-.41-9.43-.24l-4.83.55Z"/>
      <path id="Path_2673" data-name="Path 2673" class="cls-1" d="m35.02,33.04S6.07,7.01,22.62.05"/>
      <path class="cls-1" d="m125.18,101.13c-.21-8.04-1.06-16.04-2.55-23.94-.35-2.18-.92-6.1-1.92-10.8-.07.17-.12.33-.2.52-1.55,3.42-3.51-1.33-3.82-3.1-.12-.92-.1-1.85.06-2.76.26-.71,1.07-1.99,2.1-2.18-2.88-10.05-7.77-21.22-16.21-26.76-15.04-9.87-21.98-11.72-37.95-8.66-9.39,1.72-17.99,6.38-24.55,13.31,0,0-17.93,13.74-18.31,33.22-.38,19.48,4.91,35.21,25.81,45.26,20.9,10.05,37.58,14.9,44.53,16.53,7.15,1.41,17.49.28,22.42-2.91,3.24-2.08,8.51-6.81,9.79-12.02,1.12-5.16,1.4-10.47.82-15.71Zm-83.57-23.68c-1.13-.33-2.19-.84-3.17-1.5-.78-.74-2.04-2.68-1.25-4.02.79-1.34,4.34-.81,4.34-.81,0,0,2.48-.04,5.64,3.51,3.16,3.55-3.35,3.38-5.56,2.82Zm12.84-39.52c-.4-1-.72-3.3.56-4.18,1.28-.88,4.28,1.1,4.28,1.1,0,0,2.27,1.01,3.63,5.57,1.36,4.55-4.46,1.65-6.23.21-.88-.78-1.64-1.69-2.24-2.7Zm11.42,72.81c-1.17-.07-2.33-.32-3.42-.75-.93-.55-2.59-2.15-2.13-3.64.47-1.48,4.05-1.77,4.05-1.77,0,0,2.41-.6,6.28,2.15,3.88,2.75-2.5,4.04-4.78,4Zm10.14-30.5c-.94-.7-1.78-1.54-2.46-2.49-.48-.97-1-3.22.2-4.21,1.2-.99,4.36.72,4.36.72,0,0,2.35.81,4.1,5.23,1.75,4.42-4.3,2.03-6.19.75Zm15.27-34.3c-.67-.97-1.18-2.03-1.52-3.16-.14-1.07.1-3.37,1.56-3.91,1.46-.54,3.88,2.1,3.88,2.1,0,0,1.95,1.53,2.17,6.28.22,4.75-4.73.52-6.1-1.3Zm7.25,78.3c-1.09-.45-2.1-1.06-2.99-1.82-.7-.82-1.75-2.88-.82-4.13.93-1.25,4.4-.35,4.4-.35,0,0,2.47.22,5.24,4.08,2.77,3.86-3.68,3.01-5.82,2.22Zm16.41-22.53c-.77,4.69-4.73-.47-5.69-2.54-.45-1.09-.73-2.23-.83-3.4.08-1.08.8-3.28,2.34-3.51,1.54-.23,3.36,2.86,3.36,2.86,0,0,1.59,1.9.82,6.59Z"/>
    </g>
  </g>
</svg>